G04 #@! TF.GenerationSoftware,KiCad,Pcbnew,(5.0.0-rc2-dev-340-g7483a73a5)*
G04 #@! TF.CreationDate,2018-06-13T08:56:42+02:00*
G04 #@! TF.ProjectId,AudiA6Main,4175646941364D61696E2E6B69636164,rev?*
G04 #@! TF.SameCoordinates,Original*
G04 #@! TF.FileFunction,Legend,Top*
G04 #@! TF.FilePolarity,Positive*
%FSLAX46Y46*%
G04 Gerber Fmt 4.6, Leading zero omitted, Abs format (unit mm)*
G04 Created by KiCad (PCBNEW (5.0.0-rc2-dev-340-g7483a73a5)) date 06/13/18 08:56:42*
%MOMM*%
%LPD*%
G01*
G04 APERTURE LIST*
%ADD10C,0.300000*%
%ADD11C,0.120000*%
%ADD12C,0.150000*%
%ADD13C,0.127000*%
%ADD14C,0.203200*%
%ADD15C,0.100000*%
%ADD16C,0.050000*%
G04 APERTURE END LIST*
D10*
X97071428Y-139950000D02*
X97785714Y-139950000D01*
X96928571Y-140378571D02*
X97428571Y-138878571D01*
X97928571Y-140378571D01*
X98428571Y-140378571D02*
X98428571Y-138878571D01*
X98785714Y-138878571D01*
X99000000Y-138950000D01*
X99142857Y-139092857D01*
X99214285Y-139235714D01*
X99285714Y-139521428D01*
X99285714Y-139735714D01*
X99214285Y-140021428D01*
X99142857Y-140164285D01*
X99000000Y-140307142D01*
X98785714Y-140378571D01*
X98428571Y-140378571D01*
X99857142Y-139950000D02*
X100571428Y-139950000D01*
X99714285Y-140378571D02*
X100214285Y-138878571D01*
X100714285Y-140378571D01*
X101714285Y-139592857D02*
X101214285Y-139592857D01*
X101214285Y-140378571D02*
X101214285Y-138878571D01*
X101928571Y-138878571D01*
X103357142Y-140378571D02*
X102857142Y-139664285D01*
X102500000Y-140378571D02*
X102500000Y-138878571D01*
X103071428Y-138878571D01*
X103214285Y-138950000D01*
X103285714Y-139021428D01*
X103357142Y-139164285D01*
X103357142Y-139378571D01*
X103285714Y-139521428D01*
X103214285Y-139592857D01*
X103071428Y-139664285D01*
X102500000Y-139664285D01*
X104000000Y-138878571D02*
X104000000Y-140092857D01*
X104071428Y-140235714D01*
X104142857Y-140307142D01*
X104285714Y-140378571D01*
X104571428Y-140378571D01*
X104714285Y-140307142D01*
X104785714Y-140235714D01*
X104857142Y-140092857D01*
X104857142Y-138878571D01*
X105571428Y-140378571D02*
X105571428Y-138878571D01*
X106071428Y-138878571D02*
X106928571Y-138878571D01*
X106500000Y-140378571D02*
X106500000Y-138878571D01*
X108500000Y-140307142D02*
X108714285Y-140378571D01*
X109071428Y-140378571D01*
X109214285Y-140307142D01*
X109285714Y-140235714D01*
X109357142Y-140092857D01*
X109357142Y-139950000D01*
X109285714Y-139807142D01*
X109214285Y-139735714D01*
X109071428Y-139664285D01*
X108785714Y-139592857D01*
X108642857Y-139521428D01*
X108571428Y-139450000D01*
X108500000Y-139307142D01*
X108500000Y-139164285D01*
X108571428Y-139021428D01*
X108642857Y-138950000D01*
X108785714Y-138878571D01*
X109142857Y-138878571D01*
X109357142Y-138950000D01*
X110285714Y-138878571D02*
X110571428Y-138878571D01*
X110714285Y-138950000D01*
X110857142Y-139092857D01*
X110928571Y-139378571D01*
X110928571Y-139878571D01*
X110857142Y-140164285D01*
X110714285Y-140307142D01*
X110571428Y-140378571D01*
X110285714Y-140378571D01*
X110142857Y-140307142D01*
X110000000Y-140164285D01*
X109928571Y-139878571D01*
X109928571Y-139378571D01*
X110000000Y-139092857D01*
X110142857Y-138950000D01*
X110285714Y-138878571D01*
X111571428Y-138878571D02*
X111571428Y-140092857D01*
X111642857Y-140235714D01*
X111714285Y-140307142D01*
X111857142Y-140378571D01*
X112142857Y-140378571D01*
X112285714Y-140307142D01*
X112357142Y-140235714D01*
X112428571Y-140092857D01*
X112428571Y-138878571D01*
X113142857Y-140378571D02*
X113142857Y-138878571D01*
X114000000Y-140378571D01*
X114000000Y-138878571D01*
X114714285Y-140378571D02*
X114714285Y-138878571D01*
X115071428Y-138878571D01*
X115285714Y-138950000D01*
X115428571Y-139092857D01*
X115500000Y-139235714D01*
X115571428Y-139521428D01*
X115571428Y-139735714D01*
X115500000Y-140021428D01*
X115428571Y-140164285D01*
X115285714Y-140307142D01*
X115071428Y-140378571D01*
X114714285Y-140378571D01*
X116714285Y-139592857D02*
X116928571Y-139664285D01*
X117000000Y-139735714D01*
X117071428Y-139878571D01*
X117071428Y-140092857D01*
X117000000Y-140235714D01*
X116928571Y-140307142D01*
X116785714Y-140378571D01*
X116214285Y-140378571D01*
X116214285Y-138878571D01*
X116714285Y-138878571D01*
X116857142Y-138950000D01*
X116928571Y-139021428D01*
X117000000Y-139164285D01*
X117000000Y-139307142D01*
X116928571Y-139450000D01*
X116857142Y-139521428D01*
X116714285Y-139592857D01*
X116214285Y-139592857D01*
X118000000Y-138878571D02*
X118285714Y-138878571D01*
X118428571Y-138950000D01*
X118571428Y-139092857D01*
X118642857Y-139378571D01*
X118642857Y-139878571D01*
X118571428Y-140164285D01*
X118428571Y-140307142D01*
X118285714Y-140378571D01*
X118000000Y-140378571D01*
X117857142Y-140307142D01*
X117714285Y-140164285D01*
X117642857Y-139878571D01*
X117642857Y-139378571D01*
X117714285Y-139092857D01*
X117857142Y-138950000D01*
X118000000Y-138878571D01*
X119214285Y-139950000D02*
X119928571Y-139950000D01*
X119071428Y-140378571D02*
X119571428Y-138878571D01*
X120071428Y-140378571D01*
X121428571Y-140378571D02*
X120928571Y-139664285D01*
X120571428Y-140378571D02*
X120571428Y-138878571D01*
X121142857Y-138878571D01*
X121285714Y-138950000D01*
X121357142Y-139021428D01*
X121428571Y-139164285D01*
X121428571Y-139378571D01*
X121357142Y-139521428D01*
X121285714Y-139592857D01*
X121142857Y-139664285D01*
X120571428Y-139664285D01*
X122071428Y-140378571D02*
X122071428Y-138878571D01*
X122428571Y-138878571D01*
X122642857Y-138950000D01*
X122785714Y-139092857D01*
X122857142Y-139235714D01*
X122928571Y-139521428D01*
X122928571Y-139735714D01*
X122857142Y-140021428D01*
X122785714Y-140164285D01*
X122642857Y-140307142D01*
X122428571Y-140378571D01*
X122071428Y-140378571D01*
X88242857Y-173628571D02*
X88528571Y-174628571D01*
X88814285Y-173914285D01*
X89100000Y-174628571D01*
X89385714Y-173628571D01*
X89814285Y-173628571D02*
X90100000Y-174628571D01*
X90385714Y-173914285D01*
X90671428Y-174628571D01*
X90957142Y-173628571D01*
X91385714Y-173628571D02*
X91671428Y-174628571D01*
X91957142Y-173914285D01*
X92242857Y-174628571D01*
X92528571Y-173628571D01*
X93100000Y-174485714D02*
X93171428Y-174557142D01*
X93100000Y-174628571D01*
X93028571Y-174557142D01*
X93100000Y-174485714D01*
X93100000Y-174628571D01*
X93600000Y-173628571D02*
X94171428Y-173628571D01*
X93814285Y-173128571D02*
X93814285Y-174414285D01*
X93885714Y-174557142D01*
X94028571Y-174628571D01*
X94171428Y-174628571D01*
X94671428Y-174628571D02*
X94671428Y-173128571D01*
X95314285Y-174628571D02*
X95314285Y-173842857D01*
X95242857Y-173700000D01*
X95100000Y-173628571D01*
X94885714Y-173628571D01*
X94742857Y-173700000D01*
X94671428Y-173771428D01*
X96600000Y-174557142D02*
X96457142Y-174628571D01*
X96171428Y-174628571D01*
X96028571Y-174557142D01*
X95957142Y-174414285D01*
X95957142Y-173842857D01*
X96028571Y-173700000D01*
X96171428Y-173628571D01*
X96457142Y-173628571D01*
X96600000Y-173700000D01*
X96671428Y-173842857D01*
X96671428Y-173985714D01*
X95957142Y-174128571D01*
X97314285Y-174628571D02*
X97314285Y-173628571D01*
X97314285Y-173771428D02*
X97385714Y-173700000D01*
X97528571Y-173628571D01*
X97742857Y-173628571D01*
X97885714Y-173700000D01*
X97957142Y-173842857D01*
X97957142Y-174628571D01*
X97957142Y-173842857D02*
X98028571Y-173700000D01*
X98171428Y-173628571D01*
X98385714Y-173628571D01*
X98528571Y-173700000D01*
X98600000Y-173842857D01*
X98600000Y-174628571D01*
X99314285Y-174628571D02*
X99314285Y-173628571D01*
X99314285Y-173128571D02*
X99242857Y-173200000D01*
X99314285Y-173271428D01*
X99385714Y-173200000D01*
X99314285Y-173128571D01*
X99314285Y-173271428D01*
X99957142Y-174557142D02*
X100100000Y-174628571D01*
X100385714Y-174628571D01*
X100528571Y-174557142D01*
X100600000Y-174414285D01*
X100600000Y-174342857D01*
X100528571Y-174200000D01*
X100385714Y-174128571D01*
X100171428Y-174128571D01*
X100028571Y-174057142D01*
X99957142Y-173914285D01*
X99957142Y-173842857D01*
X100028571Y-173700000D01*
X100171428Y-173628571D01*
X100385714Y-173628571D01*
X100528571Y-173700000D01*
X101171428Y-174557142D02*
X101314285Y-174628571D01*
X101600000Y-174628571D01*
X101742857Y-174557142D01*
X101814285Y-174414285D01*
X101814285Y-174342857D01*
X101742857Y-174200000D01*
X101600000Y-174128571D01*
X101385714Y-174128571D01*
X101242857Y-174057142D01*
X101171428Y-173914285D01*
X101171428Y-173842857D01*
X101242857Y-173700000D01*
X101385714Y-173628571D01*
X101600000Y-173628571D01*
X101742857Y-173700000D01*
X102457142Y-174628571D02*
X102457142Y-173628571D01*
X102457142Y-173128571D02*
X102385714Y-173200000D01*
X102457142Y-173271428D01*
X102528571Y-173200000D01*
X102457142Y-173128571D01*
X102457142Y-173271428D01*
X103171428Y-173628571D02*
X103171428Y-174628571D01*
X103171428Y-173771428D02*
X103242857Y-173700000D01*
X103385714Y-173628571D01*
X103600000Y-173628571D01*
X103742857Y-173700000D01*
X103814285Y-173842857D01*
X103814285Y-174628571D01*
X105171428Y-173628571D02*
X105171428Y-174842857D01*
X105100000Y-174985714D01*
X105028571Y-175057142D01*
X104885714Y-175128571D01*
X104671428Y-175128571D01*
X104528571Y-175057142D01*
X105171428Y-174557142D02*
X105028571Y-174628571D01*
X104742857Y-174628571D01*
X104600000Y-174557142D01*
X104528571Y-174485714D01*
X104457142Y-174342857D01*
X104457142Y-173914285D01*
X104528571Y-173771428D01*
X104600000Y-173700000D01*
X104742857Y-173628571D01*
X105028571Y-173628571D01*
X105171428Y-173700000D01*
X105814285Y-174557142D02*
X105957142Y-174628571D01*
X106242857Y-174628571D01*
X106385714Y-174557142D01*
X106457142Y-174414285D01*
X106457142Y-174342857D01*
X106385714Y-174200000D01*
X106242857Y-174128571D01*
X106028571Y-174128571D01*
X105885714Y-174057142D01*
X105814285Y-173914285D01*
X105814285Y-173842857D01*
X105885714Y-173700000D01*
X106028571Y-173628571D01*
X106242857Y-173628571D01*
X106385714Y-173700000D01*
X107671428Y-174557142D02*
X107528571Y-174628571D01*
X107242857Y-174628571D01*
X107100000Y-174557142D01*
X107028571Y-174414285D01*
X107028571Y-173842857D01*
X107100000Y-173700000D01*
X107242857Y-173628571D01*
X107528571Y-173628571D01*
X107671428Y-173700000D01*
X107742857Y-173842857D01*
X107742857Y-173985714D01*
X107028571Y-174128571D01*
X108385714Y-174628571D02*
X108385714Y-173628571D01*
X108385714Y-173771428D02*
X108457142Y-173700000D01*
X108600000Y-173628571D01*
X108814285Y-173628571D01*
X108957142Y-173700000D01*
X109028571Y-173842857D01*
X109028571Y-174628571D01*
X109028571Y-173842857D02*
X109100000Y-173700000D01*
X109242857Y-173628571D01*
X109457142Y-173628571D01*
X109600000Y-173700000D01*
X109671428Y-173842857D01*
X109671428Y-174628571D01*
X110385714Y-174628571D02*
X110385714Y-173628571D01*
X110385714Y-173128571D02*
X110314285Y-173200000D01*
X110385714Y-173271428D01*
X110457142Y-173200000D01*
X110385714Y-173128571D01*
X110385714Y-173271428D01*
X111742857Y-174557142D02*
X111600000Y-174628571D01*
X111314285Y-174628571D01*
X111171428Y-174557142D01*
X111100000Y-174485714D01*
X111028571Y-174342857D01*
X111028571Y-173914285D01*
X111100000Y-173771428D01*
X111171428Y-173700000D01*
X111314285Y-173628571D01*
X111600000Y-173628571D01*
X111742857Y-173700000D01*
X112600000Y-174628571D02*
X112457142Y-174557142D01*
X112385714Y-174485714D01*
X112314285Y-174342857D01*
X112314285Y-173914285D01*
X112385714Y-173771428D01*
X112457142Y-173700000D01*
X112600000Y-173628571D01*
X112814285Y-173628571D01*
X112957142Y-173700000D01*
X113028571Y-173771428D01*
X113100000Y-173914285D01*
X113100000Y-174342857D01*
X113028571Y-174485714D01*
X112957142Y-174557142D01*
X112814285Y-174628571D01*
X112600000Y-174628571D01*
X113957142Y-174628571D02*
X113814285Y-174557142D01*
X113742857Y-174414285D01*
X113742857Y-173128571D01*
X114742857Y-174628571D02*
X114600000Y-174557142D01*
X114528571Y-174485714D01*
X114457142Y-174342857D01*
X114457142Y-173914285D01*
X114528571Y-173771428D01*
X114600000Y-173700000D01*
X114742857Y-173628571D01*
X114957142Y-173628571D01*
X115100000Y-173700000D01*
X115171428Y-173771428D01*
X115242857Y-173914285D01*
X115242857Y-174342857D01*
X115171428Y-174485714D01*
X115100000Y-174557142D01*
X114957142Y-174628571D01*
X114742857Y-174628571D01*
X115885714Y-173628571D02*
X115885714Y-174628571D01*
X115885714Y-173771428D02*
X115957142Y-173700000D01*
X116100000Y-173628571D01*
X116314285Y-173628571D01*
X116457142Y-173700000D01*
X116528571Y-173842857D01*
X116528571Y-174628571D01*
X117242857Y-174485714D02*
X117314285Y-174557142D01*
X117242857Y-174628571D01*
X117171428Y-174557142D01*
X117242857Y-174485714D01*
X117242857Y-174628571D01*
X118600000Y-174628571D02*
X118600000Y-173128571D01*
X118600000Y-174557142D02*
X118457142Y-174628571D01*
X118171428Y-174628571D01*
X118028571Y-174557142D01*
X117957142Y-174485714D01*
X117885714Y-174342857D01*
X117885714Y-173914285D01*
X117957142Y-173771428D01*
X118028571Y-173700000D01*
X118171428Y-173628571D01*
X118457142Y-173628571D01*
X118600000Y-173700000D01*
X119314285Y-174628571D02*
X119314285Y-173128571D01*
X119457142Y-174057142D02*
X119885714Y-174628571D01*
X119885714Y-173628571D02*
X119314285Y-174200000D01*
X80592857Y-173471428D02*
X80664285Y-173257142D01*
X80735714Y-173185714D01*
X80878571Y-173114285D01*
X81092857Y-173114285D01*
X81235714Y-173185714D01*
X81307142Y-173257142D01*
X81378571Y-173400000D01*
X81378571Y-173971428D01*
X79878571Y-173971428D01*
X79878571Y-173471428D01*
X79950000Y-173328571D01*
X80021428Y-173257142D01*
X80164285Y-173185714D01*
X80307142Y-173185714D01*
X80450000Y-173257142D01*
X80521428Y-173328571D01*
X80592857Y-173471428D01*
X80592857Y-173971428D01*
X81378571Y-171757142D02*
X81378571Y-172471428D01*
X79878571Y-172471428D01*
X79878571Y-171257142D02*
X81092857Y-171257142D01*
X81235714Y-171185714D01*
X81307142Y-171114285D01*
X81378571Y-170971428D01*
X81378571Y-170685714D01*
X81307142Y-170542857D01*
X81235714Y-170471428D01*
X81092857Y-170400000D01*
X79878571Y-170400000D01*
X80592857Y-169685714D02*
X80592857Y-169185714D01*
X81378571Y-168971428D02*
X81378571Y-169685714D01*
X79878571Y-169685714D01*
X79878571Y-168971428D01*
X80592857Y-167828571D02*
X80592857Y-168328571D01*
X81378571Y-168328571D02*
X79878571Y-168328571D01*
X79878571Y-167614285D01*
X81378571Y-166185714D02*
X80664285Y-166685714D01*
X81378571Y-167042857D02*
X79878571Y-167042857D01*
X79878571Y-166471428D01*
X79950000Y-166328571D01*
X80021428Y-166257142D01*
X80164285Y-166185714D01*
X80378571Y-166185714D01*
X80521428Y-166257142D01*
X80592857Y-166328571D01*
X80664285Y-166471428D01*
X80664285Y-167042857D01*
X79878571Y-165542857D02*
X81092857Y-165542857D01*
X81235714Y-165471428D01*
X81307142Y-165400000D01*
X81378571Y-165257142D01*
X81378571Y-164971428D01*
X81307142Y-164828571D01*
X81235714Y-164757142D01*
X81092857Y-164685714D01*
X79878571Y-164685714D01*
X81378571Y-163971428D02*
X79878571Y-163971428D01*
X79878571Y-163471428D02*
X79878571Y-162614285D01*
X81378571Y-163042857D02*
X79878571Y-163042857D01*
X127628571Y-118121428D02*
X126914285Y-118621428D01*
X127628571Y-118978571D02*
X126128571Y-118978571D01*
X126128571Y-118407142D01*
X126200000Y-118264285D01*
X126271428Y-118192857D01*
X126414285Y-118121428D01*
X126628571Y-118121428D01*
X126771428Y-118192857D01*
X126842857Y-118264285D01*
X126914285Y-118407142D01*
X126914285Y-118978571D01*
X127557142Y-116907142D02*
X127628571Y-117050000D01*
X127628571Y-117335714D01*
X127557142Y-117478571D01*
X127414285Y-117550000D01*
X126842857Y-117550000D01*
X126700000Y-117478571D01*
X126628571Y-117335714D01*
X126628571Y-117050000D01*
X126700000Y-116907142D01*
X126842857Y-116835714D01*
X126985714Y-116835714D01*
X127128571Y-117550000D01*
X126628571Y-116335714D02*
X127628571Y-115978571D01*
X126628571Y-115621428D01*
X126128571Y-114050000D02*
X126128571Y-113121428D01*
X126700000Y-113621428D01*
X126700000Y-113407142D01*
X126771428Y-113264285D01*
X126842857Y-113192857D01*
X126985714Y-113121428D01*
X127342857Y-113121428D01*
X127485714Y-113192857D01*
X127557142Y-113264285D01*
X127628571Y-113407142D01*
X127628571Y-113835714D01*
X127557142Y-113978571D01*
X127485714Y-114050000D01*
X127485714Y-112478571D02*
X127557142Y-112407142D01*
X127628571Y-112478571D01*
X127557142Y-112550000D01*
X127485714Y-112478571D01*
X127628571Y-112478571D01*
X128200000Y-110192857D02*
X128128571Y-110264285D01*
X127914285Y-110407142D01*
X127771428Y-110478571D01*
X127557142Y-110550000D01*
X127200000Y-110621428D01*
X126914285Y-110621428D01*
X126557142Y-110550000D01*
X126342857Y-110478571D01*
X126200000Y-110407142D01*
X125985714Y-110264285D01*
X125914285Y-110192857D01*
X127628571Y-108835714D02*
X127628571Y-109692857D01*
X127628571Y-109264285D02*
X126128571Y-109264285D01*
X126342857Y-109407142D01*
X126485714Y-109550000D01*
X126557142Y-109692857D01*
X126771428Y-107978571D02*
X126700000Y-108121428D01*
X126628571Y-108192857D01*
X126485714Y-108264285D01*
X126414285Y-108264285D01*
X126271428Y-108192857D01*
X126200000Y-108121428D01*
X126128571Y-107978571D01*
X126128571Y-107692857D01*
X126200000Y-107550000D01*
X126271428Y-107478571D01*
X126414285Y-107407142D01*
X126485714Y-107407142D01*
X126628571Y-107478571D01*
X126700000Y-107550000D01*
X126771428Y-107692857D01*
X126771428Y-107978571D01*
X126842857Y-108121428D01*
X126914285Y-108192857D01*
X127057142Y-108264285D01*
X127342857Y-108264285D01*
X127485714Y-108192857D01*
X127557142Y-108121428D01*
X127628571Y-107978571D01*
X127628571Y-107692857D01*
X127557142Y-107550000D01*
X127485714Y-107478571D01*
X127342857Y-107407142D01*
X127057142Y-107407142D01*
X126914285Y-107478571D01*
X126842857Y-107550000D01*
X126771428Y-107692857D01*
X126271428Y-106835714D02*
X126200000Y-106764285D01*
X126128571Y-106621428D01*
X126128571Y-106264285D01*
X126200000Y-106121428D01*
X126271428Y-106050000D01*
X126414285Y-105978571D01*
X126557142Y-105978571D01*
X126771428Y-106050000D01*
X127628571Y-106907142D01*
X127628571Y-105978571D01*
X126628571Y-104692857D02*
X127628571Y-104692857D01*
X126057142Y-105050000D02*
X127128571Y-105407142D01*
X127128571Y-104478571D01*
X128200000Y-104050000D02*
X128128571Y-103978571D01*
X127914285Y-103835714D01*
X127771428Y-103764285D01*
X127557142Y-103692857D01*
X127200000Y-103621428D01*
X126914285Y-103621428D01*
X126557142Y-103692857D01*
X126342857Y-103764285D01*
X126200000Y-103835714D01*
X125985714Y-103978571D01*
X125914285Y-104050000D01*
X123667857Y-118932142D02*
X123667857Y-118432142D01*
X124453571Y-118217857D02*
X124453571Y-118932142D01*
X122953571Y-118932142D01*
X122953571Y-118217857D01*
X124453571Y-117360714D02*
X124382142Y-117503571D01*
X124239285Y-117575000D01*
X122953571Y-117575000D01*
X124382142Y-116217857D02*
X124453571Y-116360714D01*
X124453571Y-116646428D01*
X124382142Y-116789285D01*
X124239285Y-116860714D01*
X123667857Y-116860714D01*
X123525000Y-116789285D01*
X123453571Y-116646428D01*
X123453571Y-116360714D01*
X123525000Y-116217857D01*
X123667857Y-116146428D01*
X123810714Y-116146428D01*
X123953571Y-116860714D01*
X124382142Y-114860714D02*
X124453571Y-115003571D01*
X124453571Y-115289285D01*
X124382142Y-115432142D01*
X124310714Y-115503571D01*
X124167857Y-115575000D01*
X123739285Y-115575000D01*
X123596428Y-115503571D01*
X123525000Y-115432142D01*
X123453571Y-115289285D01*
X123453571Y-115003571D01*
X123525000Y-114860714D01*
X123453571Y-114432142D02*
X123453571Y-113860714D01*
X122953571Y-114217857D02*
X124239285Y-114217857D01*
X124382142Y-114146428D01*
X124453571Y-114003571D01*
X124453571Y-113860714D01*
X124453571Y-113360714D02*
X123453571Y-113360714D01*
X123739285Y-113360714D02*
X123596428Y-113289285D01*
X123525000Y-113217857D01*
X123453571Y-113075000D01*
X123453571Y-112932142D01*
X124453571Y-112432142D02*
X123453571Y-112432142D01*
X122953571Y-112432142D02*
X123025000Y-112503571D01*
X123096428Y-112432142D01*
X123025000Y-112360714D01*
X122953571Y-112432142D01*
X123096428Y-112432142D01*
X123453571Y-111932142D02*
X123453571Y-111360714D01*
X124453571Y-111717857D02*
X123167857Y-111717857D01*
X123025000Y-111646428D01*
X122953571Y-111503571D01*
X122953571Y-111360714D01*
X123453571Y-111003571D02*
X124453571Y-110646428D01*
X123453571Y-110289285D02*
X124453571Y-110646428D01*
X124810714Y-110789285D01*
X124882142Y-110860714D01*
X124953571Y-111003571D01*
X123667857Y-109717857D02*
X123667857Y-109217857D01*
X124453571Y-109003571D02*
X124453571Y-109717857D01*
X122953571Y-109717857D01*
X122953571Y-109003571D01*
X123453571Y-108503571D02*
X124453571Y-108146428D01*
X123453571Y-107789285D01*
X124382142Y-106646428D02*
X124453571Y-106789285D01*
X124453571Y-107075000D01*
X124382142Y-107217857D01*
X124239285Y-107289285D01*
X123667857Y-107289285D01*
X123525000Y-107217857D01*
X123453571Y-107075000D01*
X123453571Y-106789285D01*
X123525000Y-106646428D01*
X123667857Y-106575000D01*
X123810714Y-106575000D01*
X123953571Y-107289285D01*
X124453571Y-105932142D02*
X123453571Y-105932142D01*
X123739285Y-105932142D02*
X123596428Y-105860714D01*
X123525000Y-105789285D01*
X123453571Y-105646428D01*
X123453571Y-105503571D01*
X123453571Y-105146428D02*
X124453571Y-104789285D01*
X123453571Y-104432142D02*
X124453571Y-104789285D01*
X124810714Y-104932142D01*
X124882142Y-105003571D01*
X124953571Y-105146428D01*
X123453571Y-104075000D02*
X123453571Y-103503571D01*
X122953571Y-103860714D02*
X124239285Y-103860714D01*
X124382142Y-103789285D01*
X124453571Y-103646428D01*
X124453571Y-103503571D01*
X124453571Y-103003571D02*
X122953571Y-103003571D01*
X124453571Y-102360714D02*
X123667857Y-102360714D01*
X123525000Y-102432142D01*
X123453571Y-102575000D01*
X123453571Y-102789285D01*
X123525000Y-102932142D01*
X123596428Y-103003571D01*
X124453571Y-101646428D02*
X123453571Y-101646428D01*
X122953571Y-101646428D02*
X123025000Y-101717857D01*
X123096428Y-101646428D01*
X123025000Y-101575000D01*
X122953571Y-101646428D01*
X123096428Y-101646428D01*
X123453571Y-100932142D02*
X124453571Y-100932142D01*
X123596428Y-100932142D02*
X123525000Y-100860714D01*
X123453571Y-100717857D01*
X123453571Y-100503571D01*
X123525000Y-100360714D01*
X123667857Y-100289285D01*
X124453571Y-100289285D01*
X123453571Y-98932142D02*
X124667857Y-98932142D01*
X124810714Y-99003571D01*
X124882142Y-99075000D01*
X124953571Y-99217857D01*
X124953571Y-99432142D01*
X124882142Y-99575000D01*
X124382142Y-98932142D02*
X124453571Y-99075000D01*
X124453571Y-99360714D01*
X124382142Y-99503571D01*
X124310714Y-99575000D01*
X124167857Y-99646428D01*
X123739285Y-99646428D01*
X123596428Y-99575000D01*
X123525000Y-99503571D01*
X123453571Y-99360714D01*
X123453571Y-99075000D01*
X123525000Y-98932142D01*
X124310714Y-98217857D02*
X124382142Y-98146428D01*
X124453571Y-98217857D01*
X124382142Y-98289285D01*
X124310714Y-98217857D01*
X124453571Y-98217857D01*
X123882142Y-98217857D02*
X123025000Y-98289285D01*
X122953571Y-98217857D01*
X123025000Y-98146428D01*
X123882142Y-98217857D01*
X122953571Y-98217857D01*
X50728571Y-150357142D02*
X49228571Y-150357142D01*
X49228571Y-150000000D01*
X49300000Y-149785714D01*
X49442857Y-149642857D01*
X49585714Y-149571428D01*
X49871428Y-149500000D01*
X50085714Y-149500000D01*
X50371428Y-149571428D01*
X50514285Y-149642857D01*
X50657142Y-149785714D01*
X50728571Y-150000000D01*
X50728571Y-150357142D01*
X49942857Y-148857142D02*
X49942857Y-148357142D01*
X50728571Y-148142857D02*
X50728571Y-148857142D01*
X49228571Y-148857142D01*
X49228571Y-148142857D01*
X49942857Y-147000000D02*
X50014285Y-146785714D01*
X50085714Y-146714285D01*
X50228571Y-146642857D01*
X50442857Y-146642857D01*
X50585714Y-146714285D01*
X50657142Y-146785714D01*
X50728571Y-146928571D01*
X50728571Y-147500000D01*
X49228571Y-147500000D01*
X49228571Y-147000000D01*
X49300000Y-146857142D01*
X49371428Y-146785714D01*
X49514285Y-146714285D01*
X49657142Y-146714285D01*
X49800000Y-146785714D01*
X49871428Y-146857142D01*
X49942857Y-147000000D01*
X49942857Y-147500000D01*
X49228571Y-146000000D02*
X50442857Y-146000000D01*
X50585714Y-145928571D01*
X50657142Y-145857142D01*
X50728571Y-145714285D01*
X50728571Y-145428571D01*
X50657142Y-145285714D01*
X50585714Y-145214285D01*
X50442857Y-145142857D01*
X49228571Y-145142857D01*
X49300000Y-143642857D02*
X49228571Y-143785714D01*
X49228571Y-144000000D01*
X49300000Y-144214285D01*
X49442857Y-144357142D01*
X49585714Y-144428571D01*
X49871428Y-144500000D01*
X50085714Y-144500000D01*
X50371428Y-144428571D01*
X50514285Y-144357142D01*
X50657142Y-144214285D01*
X50728571Y-144000000D01*
X50728571Y-143857142D01*
X50657142Y-143642857D01*
X50585714Y-143571428D01*
X50085714Y-143571428D01*
X50085714Y-143857142D01*
X88257142Y-153428571D02*
X88257142Y-151928571D01*
X88757142Y-153000000D01*
X89257142Y-151928571D01*
X89257142Y-153428571D01*
X89900000Y-153357142D02*
X90114285Y-153428571D01*
X90471428Y-153428571D01*
X90614285Y-153357142D01*
X90685714Y-153285714D01*
X90757142Y-153142857D01*
X90757142Y-153000000D01*
X90685714Y-152857142D01*
X90614285Y-152785714D01*
X90471428Y-152714285D01*
X90185714Y-152642857D01*
X90042857Y-152571428D01*
X89971428Y-152500000D01*
X89900000Y-152357142D01*
X89900000Y-152214285D01*
X89971428Y-152071428D01*
X90042857Y-152000000D01*
X90185714Y-151928571D01*
X90542857Y-151928571D01*
X90757142Y-152000000D01*
X92185714Y-152000000D02*
X92042857Y-151928571D01*
X91828571Y-151928571D01*
X91614285Y-152000000D01*
X91471428Y-152142857D01*
X91400000Y-152285714D01*
X91328571Y-152571428D01*
X91328571Y-152785714D01*
X91400000Y-153071428D01*
X91471428Y-153214285D01*
X91614285Y-153357142D01*
X91828571Y-153428571D01*
X91971428Y-153428571D01*
X92185714Y-153357142D01*
X92257142Y-153285714D01*
X92257142Y-152785714D01*
X91971428Y-152785714D01*
X92900000Y-152642857D02*
X93400000Y-152642857D01*
X93614285Y-153428571D02*
X92900000Y-153428571D01*
X92900000Y-151928571D01*
X93614285Y-151928571D01*
X95257142Y-153571428D02*
X95114285Y-153500000D01*
X94971428Y-153357142D01*
X94757142Y-153142857D01*
X94614285Y-153071428D01*
X94471428Y-153071428D01*
X94542857Y-153428571D02*
X94400000Y-153357142D01*
X94257142Y-153214285D01*
X94185714Y-152928571D01*
X94185714Y-152428571D01*
X94257142Y-152142857D01*
X94400000Y-152000000D01*
X94542857Y-151928571D01*
X94828571Y-151928571D01*
X94971428Y-152000000D01*
X95114285Y-152142857D01*
X95185714Y-152428571D01*
X95185714Y-152928571D01*
X95114285Y-153214285D01*
X94971428Y-153357142D01*
X94828571Y-153428571D01*
X94542857Y-153428571D01*
X95685714Y-151928571D02*
X96685714Y-151928571D01*
X96042857Y-153428571D01*
D11*
X130330000Y-124250000D02*
X130330000Y-121590000D01*
X97250000Y-124250000D02*
X130330000Y-124250000D01*
X97250000Y-121590000D02*
X130330000Y-121590000D01*
X97250000Y-124250000D02*
X97250000Y-121590000D01*
X95980000Y-124250000D02*
X94650000Y-124250000D01*
X94650000Y-124250000D02*
X94650000Y-122920000D01*
X60700000Y-145550000D02*
X59700000Y-145550000D01*
X59700000Y-147250000D02*
X60700000Y-147250000D01*
X60700000Y-148250000D02*
X59700000Y-148250000D01*
X59700000Y-149950000D02*
X60700000Y-149950000D01*
X56191903Y-124023186D02*
X55191903Y-124023186D01*
X55191903Y-125723186D02*
X56191903Y-125723186D01*
X56191903Y-125923186D02*
X55191903Y-125923186D01*
X55191903Y-127623186D02*
X56191903Y-127623186D01*
X52100000Y-139400000D02*
X53100000Y-139400000D01*
X53100000Y-137700000D02*
X52100000Y-137700000D01*
X52100000Y-137350000D02*
X53100000Y-137350000D01*
X53100000Y-135650000D02*
X52100000Y-135650000D01*
X105150000Y-160700000D02*
X104150000Y-160700000D01*
X104150000Y-162400000D02*
X105150000Y-162400000D01*
X105600000Y-147200000D02*
X104600000Y-147200000D01*
X104600000Y-148900000D02*
X105600000Y-148900000D01*
X99950000Y-160700000D02*
X98950000Y-160700000D01*
X98950000Y-162400000D02*
X99950000Y-162400000D01*
X64050000Y-136400000D02*
X65050000Y-136400000D01*
X65050000Y-134700000D02*
X64050000Y-134700000D01*
X76750000Y-135150000D02*
X75750000Y-135150000D01*
X75750000Y-136850000D02*
X76750000Y-136850000D01*
X64050000Y-126400000D02*
X65050000Y-126400000D01*
X65050000Y-124700000D02*
X64050000Y-124700000D01*
X75750000Y-126850000D02*
X76750000Y-126850000D01*
X76750000Y-125150000D02*
X75750000Y-125150000D01*
X53150000Y-153100000D02*
X52150000Y-153100000D01*
X52150000Y-154800000D02*
X53150000Y-154800000D01*
X75404594Y-140352513D02*
X74697487Y-139645406D01*
X73495406Y-140847487D02*
X74202513Y-141554594D01*
X64950000Y-153900000D02*
X64950000Y-152900000D01*
X63250000Y-152900000D02*
X63250000Y-153900000D01*
X74300000Y-159750000D02*
X75300000Y-159750000D01*
X75300000Y-158050000D02*
X74300000Y-158050000D01*
X72045406Y-142347487D02*
X72752513Y-143054594D01*
X73954594Y-141852513D02*
X73247487Y-141145406D01*
X60850000Y-152900000D02*
X60850000Y-153900000D01*
X62550000Y-153900000D02*
X62550000Y-152900000D01*
X67845406Y-142847487D02*
X68552513Y-143554594D01*
X69754594Y-142352513D02*
X69047487Y-141645406D01*
D12*
X50050000Y-129700000D02*
X46850000Y-129700000D01*
X46850000Y-129700000D02*
X46850000Y-130100000D01*
X50050000Y-129700000D02*
X50050000Y-130100000D01*
X50050000Y-130650000D02*
X50050000Y-131250000D01*
X50050000Y-131800000D02*
X50050000Y-132200000D01*
X50050000Y-132200000D02*
X46850000Y-132200000D01*
X46850000Y-132200000D02*
X46850000Y-131800000D01*
X46850000Y-130650000D02*
X46850000Y-131250000D01*
X123200000Y-160700000D02*
X112000000Y-160700000D01*
X112000000Y-172700000D02*
X123200000Y-172700000D01*
X124200000Y-171200000D02*
X124200000Y-168700000D01*
X124200000Y-162200000D02*
X124200000Y-164700000D01*
X123200000Y-162200000D02*
X124200000Y-162200000D01*
X123200000Y-160700000D02*
X123200000Y-162200000D01*
X123200000Y-171200000D02*
X124200000Y-171200000D01*
X123200000Y-172700000D02*
X123200000Y-171200000D01*
X112000000Y-172700000D02*
X112000000Y-160700000D01*
X126000000Y-164700000D02*
X125000000Y-164700000D01*
X126000000Y-168700000D02*
X126000000Y-164700000D01*
X126000000Y-168700000D02*
X125000000Y-168700000D01*
X125000000Y-164700000D02*
X124200000Y-164700000D01*
X125000000Y-168700000D02*
X125000000Y-164700000D01*
X124200000Y-168700000D02*
X125000000Y-168700000D01*
X123000000Y-168700000D02*
X123200000Y-168700000D01*
X123000000Y-164700000D02*
X123000000Y-168700000D01*
X123200000Y-164700000D02*
X123000000Y-164700000D01*
X124200000Y-164700000D02*
X123200000Y-164700000D01*
X124200000Y-168700000D02*
X123200000Y-168700000D01*
D11*
X84520000Y-174410000D02*
X87180000Y-174410000D01*
X84520000Y-156570000D02*
X84520000Y-174410000D01*
X87180000Y-156570000D02*
X87180000Y-174410000D01*
X84520000Y-156570000D02*
X87180000Y-156570000D01*
X84520000Y-155300000D02*
X84520000Y-153970000D01*
X84520000Y-153970000D02*
X85850000Y-153970000D01*
X121559999Y-103004999D02*
X121559999Y-96294999D01*
X106329999Y-102994999D02*
X106319999Y-96294999D01*
X121559999Y-114324999D02*
X121559999Y-105324999D01*
X106319999Y-114324999D02*
X121559999Y-114324999D01*
X106319999Y-114324999D02*
X106329999Y-105334999D01*
X121559999Y-96294999D02*
X106319999Y-96294999D01*
X105089999Y-96294999D02*
X89849999Y-96294999D01*
X89849999Y-114324999D02*
X89859999Y-105334999D01*
X89849999Y-114324999D02*
X105089999Y-114324999D01*
X105089999Y-114324999D02*
X105089999Y-105324999D01*
X89859999Y-102994999D02*
X89849999Y-96294999D01*
X105089999Y-103004999D02*
X105089999Y-96294999D01*
X72145000Y-103040000D02*
X72145000Y-96330000D01*
X56915000Y-103030000D02*
X56905000Y-96330000D01*
X72145000Y-114360000D02*
X72145000Y-105360000D01*
X56905000Y-114360000D02*
X72145000Y-114360000D01*
X56905000Y-114360000D02*
X56915000Y-105370000D01*
X72145000Y-96330000D02*
X56905000Y-96330000D01*
X88645000Y-96330000D02*
X73405000Y-96330000D01*
X73405000Y-114360000D02*
X73415000Y-105370000D01*
X73405000Y-114360000D02*
X88645000Y-114360000D01*
X88645000Y-114360000D02*
X88645000Y-105360000D01*
X73415000Y-103030000D02*
X73405000Y-96330000D01*
X88645000Y-103040000D02*
X88645000Y-96330000D01*
X130320000Y-141910000D02*
X130320000Y-143240000D01*
X128990000Y-141910000D02*
X130320000Y-141910000D01*
X127720000Y-141910000D02*
X127720000Y-144570000D01*
X127720000Y-144570000D02*
X94640000Y-144570000D01*
X127720000Y-141910000D02*
X94640000Y-141910000D01*
X94640000Y-141910000D02*
X94640000Y-144570000D01*
X65750000Y-157700000D02*
X65050000Y-157700000D01*
X65050000Y-156500000D02*
X65750000Y-156500000D01*
X52380000Y-167400000D02*
X52380000Y-168600000D01*
X50620000Y-168600000D02*
X50620000Y-167400000D01*
X76250000Y-162820000D02*
X77450000Y-162820000D01*
X77450000Y-164580000D02*
X76250000Y-164580000D01*
X67650000Y-164305000D02*
X66450000Y-164305000D01*
X66450000Y-162545000D02*
X67650000Y-162545000D01*
X120130000Y-154850000D02*
X120130000Y-156050000D01*
X118370000Y-156050000D02*
X118370000Y-154850000D01*
X109980000Y-154350000D02*
X109980000Y-155550000D01*
X108220000Y-155550000D02*
X108220000Y-154350000D01*
X88495000Y-135150000D02*
X88495000Y-133950000D01*
X90255000Y-133950000D02*
X90255000Y-135150000D01*
X91470000Y-128275000D02*
X91470000Y-127075000D01*
X93230000Y-127075000D02*
X93230000Y-128275000D01*
X54230000Y-116875000D02*
X54230000Y-118075000D01*
X52470000Y-118075000D02*
X52470000Y-116875000D01*
X86455000Y-133900000D02*
X86455000Y-135100000D01*
X84695000Y-135100000D02*
X84695000Y-133900000D01*
X57750000Y-121255000D02*
X56550000Y-121255000D01*
X56550000Y-119495000D02*
X57750000Y-119495000D01*
X52150000Y-155070000D02*
X53350000Y-155070000D01*
X53350000Y-156830000D02*
X52150000Y-156830000D01*
X53200000Y-159730000D02*
X52000000Y-159730000D01*
X52000000Y-157970000D02*
X53200000Y-157970000D01*
X52050000Y-160070000D02*
X53250000Y-160070000D01*
X53250000Y-161830000D02*
X52050000Y-161830000D01*
X57300000Y-173150000D02*
X58800000Y-173150000D01*
X61300000Y-171900000D02*
X61300000Y-167400000D01*
X58800000Y-166150000D02*
X57300000Y-166150000D01*
X54800000Y-167400000D02*
X54800000Y-171900000D01*
X60091903Y-134983186D02*
X54081903Y-134983186D01*
X57841903Y-128163186D02*
X54081903Y-128163186D01*
X54081903Y-134983186D02*
X54081903Y-133723186D01*
X54081903Y-128163186D02*
X54081903Y-129423186D01*
X107630000Y-157610000D02*
X107630000Y-155960000D01*
X97350000Y-157610000D02*
X107630000Y-157610000D01*
X97350000Y-152310000D02*
X97350000Y-157610000D01*
X107630000Y-152310000D02*
X97350000Y-152310000D01*
X107630000Y-153960000D02*
X107630000Y-152310000D01*
X107630000Y-155960000D02*
G75*
G02X107630000Y-153960000I0J1000000D01*
G01*
X68560000Y-133960000D02*
X68560000Y-132700000D01*
X68560000Y-127140000D02*
X68560000Y-128400000D01*
X64800000Y-133960000D02*
X68560000Y-133960000D01*
X62550000Y-127140000D02*
X68560000Y-127140000D01*
X74250000Y-127590000D02*
X80260000Y-127590000D01*
X76500000Y-134410000D02*
X80260000Y-134410000D01*
X80260000Y-127590000D02*
X80260000Y-128850000D01*
X80260000Y-134410000D02*
X80260000Y-133150000D01*
X65000000Y-145275000D02*
X63200000Y-145275000D01*
X63150000Y-147425000D02*
X63150000Y-148525000D01*
X65050000Y-147425000D02*
X65050000Y-148525000D01*
X76082500Y-166129999D02*
X74582500Y-166129999D01*
X72082500Y-167379999D02*
X72082500Y-171879999D01*
X74582500Y-173129999D02*
X76082500Y-173129999D01*
X78582500Y-171879999D02*
X78582500Y-167379999D01*
X69975000Y-171875000D02*
X69975000Y-167375000D01*
X65975000Y-173125000D02*
X67475000Y-173125000D01*
X63475000Y-167375000D02*
X63475000Y-171875000D01*
X67475000Y-166125000D02*
X65975000Y-166125000D01*
X60100000Y-164210000D02*
X63300000Y-164210000D01*
X63300000Y-162090000D02*
X60100000Y-162090000D01*
X60100000Y-162090000D02*
X60100000Y-164210000D01*
X96600000Y-128350000D02*
X96600000Y-132200000D01*
X94600000Y-128350000D02*
X94600000Y-132200000D01*
X96600000Y-128350000D02*
X94600000Y-128350000D01*
X51800000Y-115200000D02*
X49800000Y-115200000D01*
X49800000Y-115200000D02*
X49800000Y-119050000D01*
X51800000Y-115200000D02*
X51800000Y-119050000D01*
X91150000Y-121350000D02*
X91150000Y-117500000D01*
X93150000Y-121350000D02*
X93150000Y-117500000D01*
X91150000Y-121350000D02*
X93150000Y-121350000D01*
X69850000Y-164510000D02*
X73050000Y-164510000D01*
X73050000Y-162390000D02*
X69850000Y-162390000D01*
X69850000Y-162390000D02*
X69850000Y-164510000D01*
D12*
X44550000Y-141500000D02*
X48750000Y-141500000D01*
X48750000Y-174900000D02*
X40350000Y-174900000D01*
X40350000Y-174900000D02*
X40350000Y-141500000D01*
X40350000Y-141500000D02*
X44550000Y-141500000D01*
X47250000Y-160700000D02*
X48750000Y-160700000D01*
X47250000Y-160700000D02*
X47250000Y-155600000D01*
X47250000Y-155600000D02*
X48750000Y-155600000D01*
X48750000Y-141500000D02*
X48750000Y-155600000D01*
X48750000Y-160700000D02*
X48750000Y-174900000D01*
X44550000Y-170900000D02*
X44550000Y-168300000D01*
X44550000Y-168300000D02*
X47150000Y-168300000D01*
X47150000Y-168300000D02*
X47150000Y-170900000D01*
X47150000Y-170900000D02*
X44550000Y-170900000D01*
D11*
X86595000Y-131610000D02*
X89025000Y-131610000D01*
X86575000Y-131600000D02*
X86575000Y-130600000D01*
X86575000Y-128550000D02*
X88425000Y-128550000D01*
X86575000Y-129600000D02*
X86575000Y-128550000D01*
X90030000Y-124045000D02*
X90030000Y-125145000D01*
X90300000Y-124045000D02*
X90030000Y-124045000D01*
X90300000Y-122545000D02*
X90300000Y-124045000D01*
X83670000Y-124045000D02*
X83670000Y-126875000D01*
X83400000Y-124045000D02*
X83670000Y-124045000D01*
X83400000Y-122545000D02*
X83400000Y-124045000D01*
X59825000Y-117625000D02*
X59825000Y-118675000D01*
X59825000Y-118675000D02*
X57975000Y-118675000D01*
X59825000Y-115625000D02*
X59825000Y-116625000D01*
X59805000Y-115615000D02*
X57375000Y-115615000D01*
D12*
X104801020Y-165048960D02*
X104900080Y-165048960D01*
X104801020Y-165048960D02*
X104701960Y-165048960D01*
X104801020Y-166451040D02*
X104701960Y-166451040D01*
X104900080Y-166451040D02*
X104801020Y-166451040D01*
X104801020Y-166451040D02*
X104900080Y-166451040D01*
X104851020Y-169851040D02*
X104950080Y-169851040D01*
X104950080Y-169851040D02*
X104851020Y-169851040D01*
X104851020Y-169851040D02*
X104751960Y-169851040D01*
X104851020Y-168448960D02*
X104751960Y-168448960D01*
X104851020Y-168448960D02*
X104950080Y-168448960D01*
D11*
X113875000Y-158741000D02*
X112265000Y-157129000D01*
X113734000Y-158881000D02*
X112124000Y-157270000D01*
X116620000Y-159335000D02*
X111669000Y-159335000D01*
X116620000Y-149685000D02*
X111669000Y-149685000D01*
X111669000Y-149685000D02*
X111669000Y-159335000D01*
X116620000Y-149685000D02*
X116620000Y-159335000D01*
X111845948Y-158025121D02*
G75*
G02X113240000Y-156876000I1154052J20121D01*
G01*
X114154296Y-157964691D02*
G75*
G02X111845000Y-158005000I-1154296J-40309D01*
G01*
D12*
X91999900Y-156300660D02*
X91999900Y-155899340D01*
X91999900Y-156199060D02*
X91999900Y-156300660D01*
X93600100Y-156100000D02*
X93600100Y-156300660D01*
X93600100Y-156100000D02*
X93600100Y-155899340D01*
D13*
X71350100Y-149150100D02*
G75*
G03X71350100Y-149150100I-300000J0D01*
G01*
D14*
X70000000Y-154700000D02*
X70000000Y-155100000D01*
X70000000Y-155100000D02*
X70400000Y-155100000D01*
X76600000Y-155100000D02*
X77000000Y-155100000D01*
X77000000Y-155100000D02*
X77000000Y-154700000D01*
X77000000Y-148500000D02*
X77000000Y-148100000D01*
X77000000Y-148100000D02*
X76600000Y-148100000D01*
X70400000Y-148100000D02*
X70000000Y-148100000D01*
X70000000Y-148100000D02*
X70000000Y-148500000D01*
D15*
X69504000Y-148100000D02*
G75*
G03X69504000Y-148100000I-254000J0D01*
G01*
D11*
X67580000Y-119450000D02*
X67580000Y-120650000D01*
X65820000Y-120650000D02*
X65820000Y-119450000D01*
X68520000Y-120650000D02*
X68520000Y-119450000D01*
X70280000Y-119450000D02*
X70280000Y-120650000D01*
D12*
X56533333Y-146757142D02*
X56485714Y-146804761D01*
X56342857Y-146852380D01*
X56247619Y-146852380D01*
X56104761Y-146804761D01*
X56009523Y-146709523D01*
X55961904Y-146614285D01*
X55914285Y-146423809D01*
X55914285Y-146280952D01*
X55961904Y-146090476D01*
X56009523Y-145995238D01*
X56104761Y-145900000D01*
X56247619Y-145852380D01*
X56342857Y-145852380D01*
X56485714Y-145900000D01*
X56533333Y-145947619D01*
X57485714Y-146852380D02*
X56914285Y-146852380D01*
X57200000Y-146852380D02*
X57200000Y-145852380D01*
X57104761Y-145995238D01*
X57009523Y-146090476D01*
X56914285Y-146138095D01*
X56533333Y-149457142D02*
X56485714Y-149504761D01*
X56342857Y-149552380D01*
X56247619Y-149552380D01*
X56104761Y-149504761D01*
X56009523Y-149409523D01*
X55961904Y-149314285D01*
X55914285Y-149123809D01*
X55914285Y-148980952D01*
X55961904Y-148790476D01*
X56009523Y-148695238D01*
X56104761Y-148600000D01*
X56247619Y-148552380D01*
X56342857Y-148552380D01*
X56485714Y-148600000D01*
X56533333Y-148647619D01*
X56914285Y-148647619D02*
X56961904Y-148600000D01*
X57057142Y-148552380D01*
X57295238Y-148552380D01*
X57390476Y-148600000D01*
X57438095Y-148647619D01*
X57485714Y-148742857D01*
X57485714Y-148838095D01*
X57438095Y-148980952D01*
X56866666Y-149552380D01*
X57485714Y-149552380D01*
X52183333Y-125207142D02*
X52135714Y-125254761D01*
X51992857Y-125302380D01*
X51897619Y-125302380D01*
X51754761Y-125254761D01*
X51659523Y-125159523D01*
X51611904Y-125064285D01*
X51564285Y-124873809D01*
X51564285Y-124730952D01*
X51611904Y-124540476D01*
X51659523Y-124445238D01*
X51754761Y-124350000D01*
X51897619Y-124302380D01*
X51992857Y-124302380D01*
X52135714Y-124350000D01*
X52183333Y-124397619D01*
X52516666Y-124302380D02*
X53135714Y-124302380D01*
X52802380Y-124683333D01*
X52945238Y-124683333D01*
X53040476Y-124730952D01*
X53088095Y-124778571D01*
X53135714Y-124873809D01*
X53135714Y-125111904D01*
X53088095Y-125207142D01*
X53040476Y-125254761D01*
X52945238Y-125302380D01*
X52659523Y-125302380D01*
X52564285Y-125254761D01*
X52516666Y-125207142D01*
X52183333Y-127107142D02*
X52135714Y-127154761D01*
X51992857Y-127202380D01*
X51897619Y-127202380D01*
X51754761Y-127154761D01*
X51659523Y-127059523D01*
X51611904Y-126964285D01*
X51564285Y-126773809D01*
X51564285Y-126630952D01*
X51611904Y-126440476D01*
X51659523Y-126345238D01*
X51754761Y-126250000D01*
X51897619Y-126202380D01*
X51992857Y-126202380D01*
X52135714Y-126250000D01*
X52183333Y-126297619D01*
X53040476Y-126535714D02*
X53040476Y-127202380D01*
X52802380Y-126154761D02*
X52564285Y-126869047D01*
X53183333Y-126869047D01*
X49133333Y-138907142D02*
X49085714Y-138954761D01*
X48942857Y-139002380D01*
X48847619Y-139002380D01*
X48704761Y-138954761D01*
X48609523Y-138859523D01*
X48561904Y-138764285D01*
X48514285Y-138573809D01*
X48514285Y-138430952D01*
X48561904Y-138240476D01*
X48609523Y-138145238D01*
X48704761Y-138050000D01*
X48847619Y-138002380D01*
X48942857Y-138002380D01*
X49085714Y-138050000D01*
X49133333Y-138097619D01*
X50038095Y-138002380D02*
X49561904Y-138002380D01*
X49514285Y-138478571D01*
X49561904Y-138430952D01*
X49657142Y-138383333D01*
X49895238Y-138383333D01*
X49990476Y-138430952D01*
X50038095Y-138478571D01*
X50085714Y-138573809D01*
X50085714Y-138811904D01*
X50038095Y-138907142D01*
X49990476Y-138954761D01*
X49895238Y-139002380D01*
X49657142Y-139002380D01*
X49561904Y-138954761D01*
X49514285Y-138907142D01*
X49133333Y-136907142D02*
X49085714Y-136954761D01*
X48942857Y-137002380D01*
X48847619Y-137002380D01*
X48704761Y-136954761D01*
X48609523Y-136859523D01*
X48561904Y-136764285D01*
X48514285Y-136573809D01*
X48514285Y-136430952D01*
X48561904Y-136240476D01*
X48609523Y-136145238D01*
X48704761Y-136050000D01*
X48847619Y-136002380D01*
X48942857Y-136002380D01*
X49085714Y-136050000D01*
X49133333Y-136097619D01*
X49990476Y-136002380D02*
X49800000Y-136002380D01*
X49704761Y-136050000D01*
X49657142Y-136097619D01*
X49561904Y-136240476D01*
X49514285Y-136430952D01*
X49514285Y-136811904D01*
X49561904Y-136907142D01*
X49609523Y-136954761D01*
X49704761Y-137002380D01*
X49895238Y-137002380D01*
X49990476Y-136954761D01*
X50038095Y-136907142D01*
X50085714Y-136811904D01*
X50085714Y-136573809D01*
X50038095Y-136478571D01*
X49990476Y-136430952D01*
X49895238Y-136383333D01*
X49704761Y-136383333D01*
X49609523Y-136430952D01*
X49561904Y-136478571D01*
X49514285Y-136573809D01*
X107933333Y-161957142D02*
X107885714Y-162004761D01*
X107742857Y-162052380D01*
X107647619Y-162052380D01*
X107504761Y-162004761D01*
X107409523Y-161909523D01*
X107361904Y-161814285D01*
X107314285Y-161623809D01*
X107314285Y-161480952D01*
X107361904Y-161290476D01*
X107409523Y-161195238D01*
X107504761Y-161100000D01*
X107647619Y-161052380D01*
X107742857Y-161052380D01*
X107885714Y-161100000D01*
X107933333Y-161147619D01*
X108504761Y-161480952D02*
X108409523Y-161433333D01*
X108361904Y-161385714D01*
X108314285Y-161290476D01*
X108314285Y-161242857D01*
X108361904Y-161147619D01*
X108409523Y-161100000D01*
X108504761Y-161052380D01*
X108695238Y-161052380D01*
X108790476Y-161100000D01*
X108838095Y-161147619D01*
X108885714Y-161242857D01*
X108885714Y-161290476D01*
X108838095Y-161385714D01*
X108790476Y-161433333D01*
X108695238Y-161480952D01*
X108504761Y-161480952D01*
X108409523Y-161528571D01*
X108361904Y-161576190D01*
X108314285Y-161671428D01*
X108314285Y-161861904D01*
X108361904Y-161957142D01*
X108409523Y-162004761D01*
X108504761Y-162052380D01*
X108695238Y-162052380D01*
X108790476Y-162004761D01*
X108838095Y-161957142D01*
X108885714Y-161861904D01*
X108885714Y-161671428D01*
X108838095Y-161576190D01*
X108790476Y-161528571D01*
X108695238Y-161480952D01*
X108333333Y-148407142D02*
X108285714Y-148454761D01*
X108142857Y-148502380D01*
X108047619Y-148502380D01*
X107904761Y-148454761D01*
X107809523Y-148359523D01*
X107761904Y-148264285D01*
X107714285Y-148073809D01*
X107714285Y-147930952D01*
X107761904Y-147740476D01*
X107809523Y-147645238D01*
X107904761Y-147550000D01*
X108047619Y-147502380D01*
X108142857Y-147502380D01*
X108285714Y-147550000D01*
X108333333Y-147597619D01*
X108809523Y-148502380D02*
X109000000Y-148502380D01*
X109095238Y-148454761D01*
X109142857Y-148407142D01*
X109238095Y-148264285D01*
X109285714Y-148073809D01*
X109285714Y-147692857D01*
X109238095Y-147597619D01*
X109190476Y-147550000D01*
X109095238Y-147502380D01*
X108904761Y-147502380D01*
X108809523Y-147550000D01*
X108761904Y-147597619D01*
X108714285Y-147692857D01*
X108714285Y-147930952D01*
X108761904Y-148026190D01*
X108809523Y-148073809D01*
X108904761Y-148121428D01*
X109095238Y-148121428D01*
X109190476Y-148073809D01*
X109238095Y-148026190D01*
X109285714Y-147930952D01*
X94957142Y-161857142D02*
X94909523Y-161904761D01*
X94766666Y-161952380D01*
X94671428Y-161952380D01*
X94528571Y-161904761D01*
X94433333Y-161809523D01*
X94385714Y-161714285D01*
X94338095Y-161523809D01*
X94338095Y-161380952D01*
X94385714Y-161190476D01*
X94433333Y-161095238D01*
X94528571Y-161000000D01*
X94671428Y-160952380D01*
X94766666Y-160952380D01*
X94909523Y-161000000D01*
X94957142Y-161047619D01*
X95909523Y-161952380D02*
X95338095Y-161952380D01*
X95623809Y-161952380D02*
X95623809Y-160952380D01*
X95528571Y-161095238D01*
X95433333Y-161190476D01*
X95338095Y-161238095D01*
X96528571Y-160952380D02*
X96623809Y-160952380D01*
X96719047Y-161000000D01*
X96766666Y-161047619D01*
X96814285Y-161142857D01*
X96861904Y-161333333D01*
X96861904Y-161571428D01*
X96814285Y-161761904D01*
X96766666Y-161857142D01*
X96719047Y-161904761D01*
X96623809Y-161952380D01*
X96528571Y-161952380D01*
X96433333Y-161904761D01*
X96385714Y-161857142D01*
X96338095Y-161761904D01*
X96290476Y-161571428D01*
X96290476Y-161333333D01*
X96338095Y-161142857D01*
X96385714Y-161047619D01*
X96433333Y-161000000D01*
X96528571Y-160952380D01*
X63857142Y-137607142D02*
X63809523Y-137654761D01*
X63666666Y-137702380D01*
X63571428Y-137702380D01*
X63428571Y-137654761D01*
X63333333Y-137559523D01*
X63285714Y-137464285D01*
X63238095Y-137273809D01*
X63238095Y-137130952D01*
X63285714Y-136940476D01*
X63333333Y-136845238D01*
X63428571Y-136750000D01*
X63571428Y-136702380D01*
X63666666Y-136702380D01*
X63809523Y-136750000D01*
X63857142Y-136797619D01*
X64809523Y-137702380D02*
X64238095Y-137702380D01*
X64523809Y-137702380D02*
X64523809Y-136702380D01*
X64428571Y-136845238D01*
X64333333Y-136940476D01*
X64238095Y-136988095D01*
X65666666Y-137035714D02*
X65666666Y-137702380D01*
X65428571Y-136654761D02*
X65190476Y-137369047D01*
X65809523Y-137369047D01*
X75557142Y-138007142D02*
X75509523Y-138054761D01*
X75366666Y-138102380D01*
X75271428Y-138102380D01*
X75128571Y-138054761D01*
X75033333Y-137959523D01*
X74985714Y-137864285D01*
X74938095Y-137673809D01*
X74938095Y-137530952D01*
X74985714Y-137340476D01*
X75033333Y-137245238D01*
X75128571Y-137150000D01*
X75271428Y-137102380D01*
X75366666Y-137102380D01*
X75509523Y-137150000D01*
X75557142Y-137197619D01*
X76509523Y-138102380D02*
X75938095Y-138102380D01*
X76223809Y-138102380D02*
X76223809Y-137102380D01*
X76128571Y-137245238D01*
X76033333Y-137340476D01*
X75938095Y-137388095D01*
X77414285Y-137102380D02*
X76938095Y-137102380D01*
X76890476Y-137578571D01*
X76938095Y-137530952D01*
X77033333Y-137483333D01*
X77271428Y-137483333D01*
X77366666Y-137530952D01*
X77414285Y-137578571D01*
X77461904Y-137673809D01*
X77461904Y-137911904D01*
X77414285Y-138007142D01*
X77366666Y-138054761D01*
X77271428Y-138102380D01*
X77033333Y-138102380D01*
X76938095Y-138054761D01*
X76890476Y-138007142D01*
X63857142Y-124407142D02*
X63809523Y-124454761D01*
X63666666Y-124502380D01*
X63571428Y-124502380D01*
X63428571Y-124454761D01*
X63333333Y-124359523D01*
X63285714Y-124264285D01*
X63238095Y-124073809D01*
X63238095Y-123930952D01*
X63285714Y-123740476D01*
X63333333Y-123645238D01*
X63428571Y-123550000D01*
X63571428Y-123502380D01*
X63666666Y-123502380D01*
X63809523Y-123550000D01*
X63857142Y-123597619D01*
X64809523Y-124502380D02*
X64238095Y-124502380D01*
X64523809Y-124502380D02*
X64523809Y-123502380D01*
X64428571Y-123645238D01*
X64333333Y-123740476D01*
X64238095Y-123788095D01*
X65380952Y-123930952D02*
X65285714Y-123883333D01*
X65238095Y-123835714D01*
X65190476Y-123740476D01*
X65190476Y-123692857D01*
X65238095Y-123597619D01*
X65285714Y-123550000D01*
X65380952Y-123502380D01*
X65571428Y-123502380D01*
X65666666Y-123550000D01*
X65714285Y-123597619D01*
X65761904Y-123692857D01*
X65761904Y-123740476D01*
X65714285Y-123835714D01*
X65666666Y-123883333D01*
X65571428Y-123930952D01*
X65380952Y-123930952D01*
X65285714Y-123978571D01*
X65238095Y-124026190D01*
X65190476Y-124121428D01*
X65190476Y-124311904D01*
X65238095Y-124407142D01*
X65285714Y-124454761D01*
X65380952Y-124502380D01*
X65571428Y-124502380D01*
X65666666Y-124454761D01*
X65714285Y-124407142D01*
X65761904Y-124311904D01*
X65761904Y-124121428D01*
X65714285Y-124026190D01*
X65666666Y-123978571D01*
X65571428Y-123930952D01*
X75557142Y-124807142D02*
X75509523Y-124854761D01*
X75366666Y-124902380D01*
X75271428Y-124902380D01*
X75128571Y-124854761D01*
X75033333Y-124759523D01*
X74985714Y-124664285D01*
X74938095Y-124473809D01*
X74938095Y-124330952D01*
X74985714Y-124140476D01*
X75033333Y-124045238D01*
X75128571Y-123950000D01*
X75271428Y-123902380D01*
X75366666Y-123902380D01*
X75509523Y-123950000D01*
X75557142Y-123997619D01*
X76509523Y-124902380D02*
X75938095Y-124902380D01*
X76223809Y-124902380D02*
X76223809Y-123902380D01*
X76128571Y-124045238D01*
X76033333Y-124140476D01*
X75938095Y-124188095D01*
X76985714Y-124902380D02*
X77176190Y-124902380D01*
X77271428Y-124854761D01*
X77319047Y-124807142D01*
X77414285Y-124664285D01*
X77461904Y-124473809D01*
X77461904Y-124092857D01*
X77414285Y-123997619D01*
X77366666Y-123950000D01*
X77271428Y-123902380D01*
X77080952Y-123902380D01*
X76985714Y-123950000D01*
X76938095Y-123997619D01*
X76890476Y-124092857D01*
X76890476Y-124330952D01*
X76938095Y-124426190D01*
X76985714Y-124473809D01*
X77080952Y-124521428D01*
X77271428Y-124521428D01*
X77366666Y-124473809D01*
X77414285Y-124426190D01*
X77461904Y-124330952D01*
X52007142Y-152557142D02*
X51959523Y-152604761D01*
X51816666Y-152652380D01*
X51721428Y-152652380D01*
X51578571Y-152604761D01*
X51483333Y-152509523D01*
X51435714Y-152414285D01*
X51388095Y-152223809D01*
X51388095Y-152080952D01*
X51435714Y-151890476D01*
X51483333Y-151795238D01*
X51578571Y-151700000D01*
X51721428Y-151652380D01*
X51816666Y-151652380D01*
X51959523Y-151700000D01*
X52007142Y-151747619D01*
X52388095Y-151747619D02*
X52435714Y-151700000D01*
X52530952Y-151652380D01*
X52769047Y-151652380D01*
X52864285Y-151700000D01*
X52911904Y-151747619D01*
X52959523Y-151842857D01*
X52959523Y-151938095D01*
X52911904Y-152080952D01*
X52340476Y-152652380D01*
X52959523Y-152652380D01*
X53911904Y-152652380D02*
X53340476Y-152652380D01*
X53626190Y-152652380D02*
X53626190Y-151652380D01*
X53530952Y-151795238D01*
X53435714Y-151890476D01*
X53340476Y-151938095D01*
X71042893Y-137697969D02*
X70975549Y-137697969D01*
X70840862Y-137630625D01*
X70773519Y-137563282D01*
X70706175Y-137428595D01*
X70706175Y-137293908D01*
X70739847Y-137192893D01*
X70840862Y-137024534D01*
X70941877Y-136923519D01*
X71110236Y-136822503D01*
X71211251Y-136788832D01*
X71345938Y-136788832D01*
X71480625Y-136856175D01*
X71547969Y-136923519D01*
X71615312Y-137058206D01*
X71615312Y-137125549D01*
X71884687Y-137394923D02*
X71952030Y-137394923D01*
X72053045Y-137428595D01*
X72221404Y-137596954D01*
X72255076Y-137697969D01*
X72255076Y-137765312D01*
X72221404Y-137866328D01*
X72154061Y-137933671D01*
X72019374Y-138001015D01*
X71211251Y-138001015D01*
X71648984Y-138438748D01*
X72558122Y-138068358D02*
X72625465Y-138068358D01*
X72726480Y-138102030D01*
X72894839Y-138270389D01*
X72928511Y-138371404D01*
X72928511Y-138438748D01*
X72894839Y-138539763D01*
X72827496Y-138607106D01*
X72692809Y-138674450D01*
X71884687Y-138674450D01*
X72322419Y-139112183D01*
X58657142Y-154057142D02*
X58609523Y-154104761D01*
X58466666Y-154152380D01*
X58371428Y-154152380D01*
X58228571Y-154104761D01*
X58133333Y-154009523D01*
X58085714Y-153914285D01*
X58038095Y-153723809D01*
X58038095Y-153580952D01*
X58085714Y-153390476D01*
X58133333Y-153295238D01*
X58228571Y-153200000D01*
X58371428Y-153152380D01*
X58466666Y-153152380D01*
X58609523Y-153200000D01*
X58657142Y-153247619D01*
X59038095Y-153247619D02*
X59085714Y-153200000D01*
X59180952Y-153152380D01*
X59419047Y-153152380D01*
X59514285Y-153200000D01*
X59561904Y-153247619D01*
X59609523Y-153342857D01*
X59609523Y-153438095D01*
X59561904Y-153580952D01*
X58990476Y-154152380D01*
X59609523Y-154152380D01*
X59942857Y-153152380D02*
X60561904Y-153152380D01*
X60228571Y-153533333D01*
X60371428Y-153533333D01*
X60466666Y-153580952D01*
X60514285Y-153628571D01*
X60561904Y-153723809D01*
X60561904Y-153961904D01*
X60514285Y-154057142D01*
X60466666Y-154104761D01*
X60371428Y-154152380D01*
X60085714Y-154152380D01*
X59990476Y-154104761D01*
X59942857Y-154057142D01*
X77957142Y-159257142D02*
X77909523Y-159304761D01*
X77766666Y-159352380D01*
X77671428Y-159352380D01*
X77528571Y-159304761D01*
X77433333Y-159209523D01*
X77385714Y-159114285D01*
X77338095Y-158923809D01*
X77338095Y-158780952D01*
X77385714Y-158590476D01*
X77433333Y-158495238D01*
X77528571Y-158400000D01*
X77671428Y-158352380D01*
X77766666Y-158352380D01*
X77909523Y-158400000D01*
X77957142Y-158447619D01*
X78338095Y-158447619D02*
X78385714Y-158400000D01*
X78480952Y-158352380D01*
X78719047Y-158352380D01*
X78814285Y-158400000D01*
X78861904Y-158447619D01*
X78909523Y-158542857D01*
X78909523Y-158638095D01*
X78861904Y-158780952D01*
X78290476Y-159352380D01*
X78909523Y-159352380D01*
X79766666Y-158685714D02*
X79766666Y-159352380D01*
X79528571Y-158304761D02*
X79290476Y-159019047D01*
X79909523Y-159019047D01*
X69592893Y-139197969D02*
X69525549Y-139197969D01*
X69390862Y-139130625D01*
X69323519Y-139063282D01*
X69256175Y-138928595D01*
X69256175Y-138793908D01*
X69289847Y-138692893D01*
X69390862Y-138524534D01*
X69491877Y-138423519D01*
X69660236Y-138322503D01*
X69761251Y-138288832D01*
X69895938Y-138288832D01*
X70030625Y-138356175D01*
X70097969Y-138423519D01*
X70165312Y-138558206D01*
X70165312Y-138625549D01*
X70434687Y-138894923D02*
X70502030Y-138894923D01*
X70603045Y-138928595D01*
X70771404Y-139096954D01*
X70805076Y-139197969D01*
X70805076Y-139265312D01*
X70771404Y-139366328D01*
X70704061Y-139433671D01*
X70569374Y-139501015D01*
X69761251Y-139501015D01*
X70198984Y-139938748D01*
X71545854Y-139871404D02*
X71209137Y-139534687D01*
X70838748Y-139837732D01*
X70906091Y-139837732D01*
X71007106Y-139871404D01*
X71175465Y-140039763D01*
X71209137Y-140140778D01*
X71209137Y-140208122D01*
X71175465Y-140309137D01*
X71007106Y-140477496D01*
X70906091Y-140511167D01*
X70838748Y-140511167D01*
X70737732Y-140477496D01*
X70569374Y-140309137D01*
X70535702Y-140208122D01*
X70535702Y-140140778D01*
X58657142Y-152657142D02*
X58609523Y-152704761D01*
X58466666Y-152752380D01*
X58371428Y-152752380D01*
X58228571Y-152704761D01*
X58133333Y-152609523D01*
X58085714Y-152514285D01*
X58038095Y-152323809D01*
X58038095Y-152180952D01*
X58085714Y-151990476D01*
X58133333Y-151895238D01*
X58228571Y-151800000D01*
X58371428Y-151752380D01*
X58466666Y-151752380D01*
X58609523Y-151800000D01*
X58657142Y-151847619D01*
X59038095Y-151847619D02*
X59085714Y-151800000D01*
X59180952Y-151752380D01*
X59419047Y-151752380D01*
X59514285Y-151800000D01*
X59561904Y-151847619D01*
X59609523Y-151942857D01*
X59609523Y-152038095D01*
X59561904Y-152180952D01*
X58990476Y-152752380D01*
X59609523Y-152752380D01*
X60466666Y-151752380D02*
X60276190Y-151752380D01*
X60180952Y-151800000D01*
X60133333Y-151847619D01*
X60038095Y-151990476D01*
X59990476Y-152180952D01*
X59990476Y-152561904D01*
X60038095Y-152657142D01*
X60085714Y-152704761D01*
X60180952Y-152752380D01*
X60371428Y-152752380D01*
X60466666Y-152704761D01*
X60514285Y-152657142D01*
X60561904Y-152561904D01*
X60561904Y-152323809D01*
X60514285Y-152228571D01*
X60466666Y-152180952D01*
X60371428Y-152133333D01*
X60180952Y-152133333D01*
X60085714Y-152180952D01*
X60038095Y-152228571D01*
X59990476Y-152323809D01*
X65392893Y-139797969D02*
X65325549Y-139797969D01*
X65190862Y-139730625D01*
X65123519Y-139663282D01*
X65056175Y-139528595D01*
X65056175Y-139393908D01*
X65089847Y-139292893D01*
X65190862Y-139124534D01*
X65291877Y-139023519D01*
X65460236Y-138922503D01*
X65561251Y-138888832D01*
X65695938Y-138888832D01*
X65830625Y-138956175D01*
X65897969Y-139023519D01*
X65965312Y-139158206D01*
X65965312Y-139225549D01*
X66234687Y-139494923D02*
X66302030Y-139494923D01*
X66403045Y-139528595D01*
X66571404Y-139696954D01*
X66605076Y-139797969D01*
X66605076Y-139865312D01*
X66571404Y-139966328D01*
X66504061Y-140033671D01*
X66369374Y-140101015D01*
X65561251Y-140101015D01*
X65998984Y-140538748D01*
X66941793Y-140067343D02*
X67413198Y-140538748D01*
X66403045Y-140942809D01*
X47711904Y-133178571D02*
X47378571Y-133178571D01*
X47378571Y-133702380D02*
X47378571Y-132702380D01*
X47854761Y-132702380D01*
X48711904Y-133702380D02*
X48235714Y-133702380D01*
X48235714Y-132702380D01*
X49569047Y-133702380D02*
X48997619Y-133702380D01*
X49283333Y-133702380D02*
X49283333Y-132702380D01*
X49188095Y-132845238D01*
X49092857Y-132940476D01*
X48997619Y-132988095D01*
X113447619Y-169191666D02*
X112733333Y-169191666D01*
X112590476Y-169144047D01*
X112495238Y-169048809D01*
X112447619Y-168905952D01*
X112447619Y-168810714D01*
X113447619Y-169572619D02*
X113447619Y-170191666D01*
X113066666Y-169858333D01*
X113066666Y-170001190D01*
X113019047Y-170096428D01*
X112971428Y-170144047D01*
X112876190Y-170191666D01*
X112638095Y-170191666D01*
X112542857Y-170144047D01*
X112495238Y-170096428D01*
X112447619Y-170001190D01*
X112447619Y-169715476D01*
X112495238Y-169620238D01*
X112542857Y-169572619D01*
X82602380Y-173733333D02*
X83316666Y-173733333D01*
X83459523Y-173780952D01*
X83554761Y-173876190D01*
X83602380Y-174019047D01*
X83602380Y-174114285D01*
X82602380Y-172780952D02*
X82602380Y-173257142D01*
X83078571Y-173304761D01*
X83030952Y-173257142D01*
X82983333Y-173161904D01*
X82983333Y-172923809D01*
X83030952Y-172828571D01*
X83078571Y-172780952D01*
X83173809Y-172733333D01*
X83411904Y-172733333D01*
X83507142Y-172780952D01*
X83554761Y-172828571D01*
X83602380Y-172923809D01*
X83602380Y-173161904D01*
X83554761Y-173257142D01*
X83507142Y-173304761D01*
X120191666Y-114952380D02*
X120191666Y-115666666D01*
X120144047Y-115809523D01*
X120048809Y-115904761D01*
X119905952Y-115952380D01*
X119810714Y-115952380D01*
X121096428Y-114952380D02*
X120905952Y-114952380D01*
X120810714Y-115000000D01*
X120763095Y-115047619D01*
X120667857Y-115190476D01*
X120620238Y-115380952D01*
X120620238Y-115761904D01*
X120667857Y-115857142D01*
X120715476Y-115904761D01*
X120810714Y-115952380D01*
X121001190Y-115952380D01*
X121096428Y-115904761D01*
X121144047Y-115857142D01*
X121191666Y-115761904D01*
X121191666Y-115523809D01*
X121144047Y-115428571D01*
X121096428Y-115380952D01*
X121001190Y-115333333D01*
X120810714Y-115333333D01*
X120715476Y-115380952D01*
X120667857Y-115428571D01*
X120620238Y-115523809D01*
X103491666Y-114852380D02*
X103491666Y-115566666D01*
X103444047Y-115709523D01*
X103348809Y-115804761D01*
X103205952Y-115852380D01*
X103110714Y-115852380D01*
X103872619Y-114852380D02*
X104539285Y-114852380D01*
X104110714Y-115852380D01*
X70166666Y-113002380D02*
X70166666Y-113716666D01*
X70119047Y-113859523D01*
X70023809Y-113954761D01*
X69880952Y-114002380D01*
X69785714Y-114002380D01*
X70785714Y-113430952D02*
X70690476Y-113383333D01*
X70642857Y-113335714D01*
X70595238Y-113240476D01*
X70595238Y-113192857D01*
X70642857Y-113097619D01*
X70690476Y-113050000D01*
X70785714Y-113002380D01*
X70976190Y-113002380D01*
X71071428Y-113050000D01*
X71119047Y-113097619D01*
X71166666Y-113192857D01*
X71166666Y-113240476D01*
X71119047Y-113335714D01*
X71071428Y-113383333D01*
X70976190Y-113430952D01*
X70785714Y-113430952D01*
X70690476Y-113478571D01*
X70642857Y-113526190D01*
X70595238Y-113621428D01*
X70595238Y-113811904D01*
X70642857Y-113907142D01*
X70690476Y-113954761D01*
X70785714Y-114002380D01*
X70976190Y-114002380D01*
X71071428Y-113954761D01*
X71119047Y-113907142D01*
X71166666Y-113811904D01*
X71166666Y-113621428D01*
X71119047Y-113526190D01*
X71071428Y-113478571D01*
X70976190Y-113430952D01*
X86891666Y-112902380D02*
X86891666Y-113616666D01*
X86844047Y-113759523D01*
X86748809Y-113854761D01*
X86605952Y-113902380D01*
X86510714Y-113902380D01*
X87415476Y-113902380D02*
X87605952Y-113902380D01*
X87701190Y-113854761D01*
X87748809Y-113807142D01*
X87844047Y-113664285D01*
X87891666Y-113473809D01*
X87891666Y-113092857D01*
X87844047Y-112997619D01*
X87796428Y-112950000D01*
X87701190Y-112902380D01*
X87510714Y-112902380D01*
X87415476Y-112950000D01*
X87367857Y-112997619D01*
X87320238Y-113092857D01*
X87320238Y-113330952D01*
X87367857Y-113426190D01*
X87415476Y-113473809D01*
X87510714Y-113521428D01*
X87701190Y-113521428D01*
X87796428Y-113473809D01*
X87844047Y-113426190D01*
X87891666Y-113330952D01*
X65233333Y-158952380D02*
X64757142Y-158952380D01*
X64757142Y-157952380D01*
X66090476Y-158952380D02*
X65519047Y-158952380D01*
X65804761Y-158952380D02*
X65804761Y-157952380D01*
X65709523Y-158095238D01*
X65614285Y-158190476D01*
X65519047Y-158238095D01*
X51333333Y-171552380D02*
X51000000Y-171076190D01*
X50761904Y-171552380D02*
X50761904Y-170552380D01*
X51142857Y-170552380D01*
X51238095Y-170600000D01*
X51285714Y-170647619D01*
X51333333Y-170742857D01*
X51333333Y-170885714D01*
X51285714Y-170980952D01*
X51238095Y-171028571D01*
X51142857Y-171076190D01*
X50761904Y-171076190D01*
X52285714Y-171552380D02*
X51714285Y-171552380D01*
X52000000Y-171552380D02*
X52000000Y-170552380D01*
X51904761Y-170695238D01*
X51809523Y-170790476D01*
X51714285Y-170838095D01*
X76683333Y-162502380D02*
X76350000Y-162026190D01*
X76111904Y-162502380D02*
X76111904Y-161502380D01*
X76492857Y-161502380D01*
X76588095Y-161550000D01*
X76635714Y-161597619D01*
X76683333Y-161692857D01*
X76683333Y-161835714D01*
X76635714Y-161930952D01*
X76588095Y-161978571D01*
X76492857Y-162026190D01*
X76111904Y-162026190D01*
X77540476Y-161835714D02*
X77540476Y-162502380D01*
X77302380Y-161454761D02*
X77064285Y-162169047D01*
X77683333Y-162169047D01*
X66883333Y-162202380D02*
X66550000Y-161726190D01*
X66311904Y-162202380D02*
X66311904Y-161202380D01*
X66692857Y-161202380D01*
X66788095Y-161250000D01*
X66835714Y-161297619D01*
X66883333Y-161392857D01*
X66883333Y-161535714D01*
X66835714Y-161630952D01*
X66788095Y-161678571D01*
X66692857Y-161726190D01*
X66311904Y-161726190D01*
X67788095Y-161202380D02*
X67311904Y-161202380D01*
X67264285Y-161678571D01*
X67311904Y-161630952D01*
X67407142Y-161583333D01*
X67645238Y-161583333D01*
X67740476Y-161630952D01*
X67788095Y-161678571D01*
X67835714Y-161773809D01*
X67835714Y-162011904D01*
X67788095Y-162107142D01*
X67740476Y-162154761D01*
X67645238Y-162202380D01*
X67407142Y-162202380D01*
X67311904Y-162154761D01*
X67264285Y-162107142D01*
X119083333Y-152802380D02*
X118750000Y-152326190D01*
X118511904Y-152802380D02*
X118511904Y-151802380D01*
X118892857Y-151802380D01*
X118988095Y-151850000D01*
X119035714Y-151897619D01*
X119083333Y-151992857D01*
X119083333Y-152135714D01*
X119035714Y-152230952D01*
X118988095Y-152278571D01*
X118892857Y-152326190D01*
X118511904Y-152326190D01*
X119416666Y-151802380D02*
X120083333Y-151802380D01*
X119654761Y-152802380D01*
X108933333Y-151902380D02*
X108600000Y-151426190D01*
X108361904Y-151902380D02*
X108361904Y-150902380D01*
X108742857Y-150902380D01*
X108838095Y-150950000D01*
X108885714Y-150997619D01*
X108933333Y-151092857D01*
X108933333Y-151235714D01*
X108885714Y-151330952D01*
X108838095Y-151378571D01*
X108742857Y-151426190D01*
X108361904Y-151426190D01*
X109504761Y-151330952D02*
X109409523Y-151283333D01*
X109361904Y-151235714D01*
X109314285Y-151140476D01*
X109314285Y-151092857D01*
X109361904Y-150997619D01*
X109409523Y-150950000D01*
X109504761Y-150902380D01*
X109695238Y-150902380D01*
X109790476Y-150950000D01*
X109838095Y-150997619D01*
X109885714Y-151092857D01*
X109885714Y-151140476D01*
X109838095Y-151235714D01*
X109790476Y-151283333D01*
X109695238Y-151330952D01*
X109504761Y-151330952D01*
X109409523Y-151378571D01*
X109361904Y-151426190D01*
X109314285Y-151521428D01*
X109314285Y-151711904D01*
X109361904Y-151807142D01*
X109409523Y-151854761D01*
X109504761Y-151902380D01*
X109695238Y-151902380D01*
X109790476Y-151854761D01*
X109838095Y-151807142D01*
X109885714Y-151711904D01*
X109885714Y-151521428D01*
X109838095Y-151426190D01*
X109790476Y-151378571D01*
X109695238Y-151330952D01*
X89233333Y-138102380D02*
X88900000Y-137626190D01*
X88661904Y-138102380D02*
X88661904Y-137102380D01*
X89042857Y-137102380D01*
X89138095Y-137150000D01*
X89185714Y-137197619D01*
X89233333Y-137292857D01*
X89233333Y-137435714D01*
X89185714Y-137530952D01*
X89138095Y-137578571D01*
X89042857Y-137626190D01*
X88661904Y-137626190D01*
X89709523Y-138102380D02*
X89900000Y-138102380D01*
X89995238Y-138054761D01*
X90042857Y-138007142D01*
X90138095Y-137864285D01*
X90185714Y-137673809D01*
X90185714Y-137292857D01*
X90138095Y-137197619D01*
X90090476Y-137150000D01*
X89995238Y-137102380D01*
X89804761Y-137102380D01*
X89709523Y-137150000D01*
X89661904Y-137197619D01*
X89614285Y-137292857D01*
X89614285Y-137530952D01*
X89661904Y-137626190D01*
X89709523Y-137673809D01*
X89804761Y-137721428D01*
X89995238Y-137721428D01*
X90090476Y-137673809D01*
X90138095Y-137626190D01*
X90185714Y-137530952D01*
X91757142Y-125002380D02*
X91423809Y-124526190D01*
X91185714Y-125002380D02*
X91185714Y-124002380D01*
X91566666Y-124002380D01*
X91661904Y-124050000D01*
X91709523Y-124097619D01*
X91757142Y-124192857D01*
X91757142Y-124335714D01*
X91709523Y-124430952D01*
X91661904Y-124478571D01*
X91566666Y-124526190D01*
X91185714Y-124526190D01*
X92709523Y-125002380D02*
X92138095Y-125002380D01*
X92423809Y-125002380D02*
X92423809Y-124002380D01*
X92328571Y-124145238D01*
X92233333Y-124240476D01*
X92138095Y-124288095D01*
X93328571Y-124002380D02*
X93423809Y-124002380D01*
X93519047Y-124050000D01*
X93566666Y-124097619D01*
X93614285Y-124192857D01*
X93661904Y-124383333D01*
X93661904Y-124621428D01*
X93614285Y-124811904D01*
X93566666Y-124907142D01*
X93519047Y-124954761D01*
X93423809Y-125002380D01*
X93328571Y-125002380D01*
X93233333Y-124954761D01*
X93185714Y-124907142D01*
X93138095Y-124811904D01*
X93090476Y-124621428D01*
X93090476Y-124383333D01*
X93138095Y-124192857D01*
X93185714Y-124097619D01*
X93233333Y-124050000D01*
X93328571Y-124002380D01*
X52707142Y-114802380D02*
X52373809Y-114326190D01*
X52135714Y-114802380D02*
X52135714Y-113802380D01*
X52516666Y-113802380D01*
X52611904Y-113850000D01*
X52659523Y-113897619D01*
X52707142Y-113992857D01*
X52707142Y-114135714D01*
X52659523Y-114230952D01*
X52611904Y-114278571D01*
X52516666Y-114326190D01*
X52135714Y-114326190D01*
X53659523Y-114802380D02*
X53088095Y-114802380D01*
X53373809Y-114802380D02*
X53373809Y-113802380D01*
X53278571Y-113945238D01*
X53183333Y-114040476D01*
X53088095Y-114088095D01*
X54611904Y-114802380D02*
X54040476Y-114802380D01*
X54326190Y-114802380D02*
X54326190Y-113802380D01*
X54230952Y-113945238D01*
X54135714Y-114040476D01*
X54040476Y-114088095D01*
X84932142Y-138052380D02*
X84598809Y-137576190D01*
X84360714Y-138052380D02*
X84360714Y-137052380D01*
X84741666Y-137052380D01*
X84836904Y-137100000D01*
X84884523Y-137147619D01*
X84932142Y-137242857D01*
X84932142Y-137385714D01*
X84884523Y-137480952D01*
X84836904Y-137528571D01*
X84741666Y-137576190D01*
X84360714Y-137576190D01*
X85884523Y-138052380D02*
X85313095Y-138052380D01*
X85598809Y-138052380D02*
X85598809Y-137052380D01*
X85503571Y-137195238D01*
X85408333Y-137290476D01*
X85313095Y-137338095D01*
X86265476Y-137147619D02*
X86313095Y-137100000D01*
X86408333Y-137052380D01*
X86646428Y-137052380D01*
X86741666Y-137100000D01*
X86789285Y-137147619D01*
X86836904Y-137242857D01*
X86836904Y-137338095D01*
X86789285Y-137480952D01*
X86217857Y-138052380D01*
X86836904Y-138052380D01*
X56557142Y-122502380D02*
X56223809Y-122026190D01*
X55985714Y-122502380D02*
X55985714Y-121502380D01*
X56366666Y-121502380D01*
X56461904Y-121550000D01*
X56509523Y-121597619D01*
X56557142Y-121692857D01*
X56557142Y-121835714D01*
X56509523Y-121930952D01*
X56461904Y-121978571D01*
X56366666Y-122026190D01*
X55985714Y-122026190D01*
X57509523Y-122502380D02*
X56938095Y-122502380D01*
X57223809Y-122502380D02*
X57223809Y-121502380D01*
X57128571Y-121645238D01*
X57033333Y-121740476D01*
X56938095Y-121788095D01*
X57842857Y-121502380D02*
X58461904Y-121502380D01*
X58128571Y-121883333D01*
X58271428Y-121883333D01*
X58366666Y-121930952D01*
X58414285Y-121978571D01*
X58461904Y-122073809D01*
X58461904Y-122311904D01*
X58414285Y-122407142D01*
X58366666Y-122454761D01*
X58271428Y-122502380D01*
X57985714Y-122502380D01*
X57890476Y-122454761D01*
X57842857Y-122407142D01*
X55907142Y-156402380D02*
X55573809Y-155926190D01*
X55335714Y-156402380D02*
X55335714Y-155402380D01*
X55716666Y-155402380D01*
X55811904Y-155450000D01*
X55859523Y-155497619D01*
X55907142Y-155592857D01*
X55907142Y-155735714D01*
X55859523Y-155830952D01*
X55811904Y-155878571D01*
X55716666Y-155926190D01*
X55335714Y-155926190D01*
X56859523Y-156402380D02*
X56288095Y-156402380D01*
X56573809Y-156402380D02*
X56573809Y-155402380D01*
X56478571Y-155545238D01*
X56383333Y-155640476D01*
X56288095Y-155688095D01*
X57335714Y-156402380D02*
X57526190Y-156402380D01*
X57621428Y-156354761D01*
X57669047Y-156307142D01*
X57764285Y-156164285D01*
X57811904Y-155973809D01*
X57811904Y-155592857D01*
X57764285Y-155497619D01*
X57716666Y-155450000D01*
X57621428Y-155402380D01*
X57430952Y-155402380D01*
X57335714Y-155450000D01*
X57288095Y-155497619D01*
X57240476Y-155592857D01*
X57240476Y-155830952D01*
X57288095Y-155926190D01*
X57335714Y-155973809D01*
X57430952Y-156021428D01*
X57621428Y-156021428D01*
X57716666Y-155973809D01*
X57764285Y-155926190D01*
X57811904Y-155830952D01*
X55907142Y-159302380D02*
X55573809Y-158826190D01*
X55335714Y-159302380D02*
X55335714Y-158302380D01*
X55716666Y-158302380D01*
X55811904Y-158350000D01*
X55859523Y-158397619D01*
X55907142Y-158492857D01*
X55907142Y-158635714D01*
X55859523Y-158730952D01*
X55811904Y-158778571D01*
X55716666Y-158826190D01*
X55335714Y-158826190D01*
X56288095Y-158397619D02*
X56335714Y-158350000D01*
X56430952Y-158302380D01*
X56669047Y-158302380D01*
X56764285Y-158350000D01*
X56811904Y-158397619D01*
X56859523Y-158492857D01*
X56859523Y-158588095D01*
X56811904Y-158730952D01*
X56240476Y-159302380D01*
X56859523Y-159302380D01*
X57478571Y-158302380D02*
X57573809Y-158302380D01*
X57669047Y-158350000D01*
X57716666Y-158397619D01*
X57764285Y-158492857D01*
X57811904Y-158683333D01*
X57811904Y-158921428D01*
X57764285Y-159111904D01*
X57716666Y-159207142D01*
X57669047Y-159254761D01*
X57573809Y-159302380D01*
X57478571Y-159302380D01*
X57383333Y-159254761D01*
X57335714Y-159207142D01*
X57288095Y-159111904D01*
X57240476Y-158921428D01*
X57240476Y-158683333D01*
X57288095Y-158492857D01*
X57335714Y-158397619D01*
X57383333Y-158350000D01*
X57478571Y-158302380D01*
X52007142Y-163102380D02*
X51673809Y-162626190D01*
X51435714Y-163102380D02*
X51435714Y-162102380D01*
X51816666Y-162102380D01*
X51911904Y-162150000D01*
X51959523Y-162197619D01*
X52007142Y-162292857D01*
X52007142Y-162435714D01*
X51959523Y-162530952D01*
X51911904Y-162578571D01*
X51816666Y-162626190D01*
X51435714Y-162626190D01*
X52388095Y-162197619D02*
X52435714Y-162150000D01*
X52530952Y-162102380D01*
X52769047Y-162102380D01*
X52864285Y-162150000D01*
X52911904Y-162197619D01*
X52959523Y-162292857D01*
X52959523Y-162388095D01*
X52911904Y-162530952D01*
X52340476Y-163102380D01*
X52959523Y-163102380D01*
X53911904Y-163102380D02*
X53340476Y-163102380D01*
X53626190Y-163102380D02*
X53626190Y-162102380D01*
X53530952Y-162245238D01*
X53435714Y-162340476D01*
X53340476Y-162388095D01*
X56566666Y-164404761D02*
X56709523Y-164452380D01*
X56947619Y-164452380D01*
X57042857Y-164404761D01*
X57090476Y-164357142D01*
X57138095Y-164261904D01*
X57138095Y-164166666D01*
X57090476Y-164071428D01*
X57042857Y-164023809D01*
X56947619Y-163976190D01*
X56757142Y-163928571D01*
X56661904Y-163880952D01*
X56614285Y-163833333D01*
X56566666Y-163738095D01*
X56566666Y-163642857D01*
X56614285Y-163547619D01*
X56661904Y-163500000D01*
X56757142Y-163452380D01*
X56995238Y-163452380D01*
X57138095Y-163500000D01*
X57471428Y-163452380D02*
X57709523Y-164452380D01*
X57900000Y-163738095D01*
X58090476Y-164452380D01*
X58328571Y-163452380D01*
X59233333Y-164452380D02*
X58661904Y-164452380D01*
X58947619Y-164452380D02*
X58947619Y-163452380D01*
X58852380Y-163595238D01*
X58757142Y-163690476D01*
X58661904Y-163738095D01*
X58538095Y-135502380D02*
X58538095Y-136311904D01*
X58585714Y-136407142D01*
X58633333Y-136454761D01*
X58728571Y-136502380D01*
X58919047Y-136502380D01*
X59014285Y-136454761D01*
X59061904Y-136407142D01*
X59109523Y-136311904D01*
X59109523Y-135502380D01*
X60014285Y-135835714D02*
X60014285Y-136502380D01*
X59776190Y-135454761D02*
X59538095Y-136169047D01*
X60157142Y-136169047D01*
X108138095Y-158652380D02*
X108138095Y-159461904D01*
X108185714Y-159557142D01*
X108233333Y-159604761D01*
X108328571Y-159652380D01*
X108519047Y-159652380D01*
X108614285Y-159604761D01*
X108661904Y-159557142D01*
X108709523Y-159461904D01*
X108709523Y-158652380D01*
X109661904Y-158652380D02*
X109185714Y-158652380D01*
X109138095Y-159128571D01*
X109185714Y-159080952D01*
X109280952Y-159033333D01*
X109519047Y-159033333D01*
X109614285Y-159080952D01*
X109661904Y-159128571D01*
X109709523Y-159223809D01*
X109709523Y-159461904D01*
X109661904Y-159557142D01*
X109614285Y-159604761D01*
X109519047Y-159652380D01*
X109280952Y-159652380D01*
X109185714Y-159604761D01*
X109138095Y-159557142D01*
X69438095Y-134402380D02*
X69438095Y-135211904D01*
X69485714Y-135307142D01*
X69533333Y-135354761D01*
X69628571Y-135402380D01*
X69819047Y-135402380D01*
X69914285Y-135354761D01*
X69961904Y-135307142D01*
X70009523Y-135211904D01*
X70009523Y-134402380D01*
X70533333Y-135402380D02*
X70723809Y-135402380D01*
X70819047Y-135354761D01*
X70866666Y-135307142D01*
X70961904Y-135164285D01*
X71009523Y-134973809D01*
X71009523Y-134592857D01*
X70961904Y-134497619D01*
X70914285Y-134450000D01*
X70819047Y-134402380D01*
X70628571Y-134402380D01*
X70533333Y-134450000D01*
X70485714Y-134497619D01*
X70438095Y-134592857D01*
X70438095Y-134830952D01*
X70485714Y-134926190D01*
X70533333Y-134973809D01*
X70628571Y-135021428D01*
X70819047Y-135021428D01*
X70914285Y-134973809D01*
X70961904Y-134926190D01*
X71009523Y-134830952D01*
X80161904Y-134802380D02*
X80161904Y-135611904D01*
X80209523Y-135707142D01*
X80257142Y-135754761D01*
X80352380Y-135802380D01*
X80542857Y-135802380D01*
X80638095Y-135754761D01*
X80685714Y-135707142D01*
X80733333Y-135611904D01*
X80733333Y-134802380D01*
X81733333Y-135802380D02*
X81161904Y-135802380D01*
X81447619Y-135802380D02*
X81447619Y-134802380D01*
X81352380Y-134945238D01*
X81257142Y-135040476D01*
X81161904Y-135088095D01*
X82352380Y-134802380D02*
X82447619Y-134802380D01*
X82542857Y-134850000D01*
X82590476Y-134897619D01*
X82638095Y-134992857D01*
X82685714Y-135183333D01*
X82685714Y-135421428D01*
X82638095Y-135611904D01*
X82590476Y-135707142D01*
X82542857Y-135754761D01*
X82447619Y-135802380D01*
X82352380Y-135802380D01*
X82257142Y-135754761D01*
X82209523Y-135707142D01*
X82161904Y-135611904D01*
X82114285Y-135421428D01*
X82114285Y-135183333D01*
X82161904Y-134992857D01*
X82209523Y-134897619D01*
X82257142Y-134850000D01*
X82352380Y-134802380D01*
X63623809Y-144376190D02*
X63623809Y-144852380D01*
X63290476Y-143852380D02*
X63623809Y-144376190D01*
X63957142Y-143852380D01*
X64814285Y-144852380D02*
X64242857Y-144852380D01*
X64528571Y-144852380D02*
X64528571Y-143852380D01*
X64433333Y-143995238D01*
X64338095Y-144090476D01*
X64242857Y-144138095D01*
X71487261Y-170963332D02*
X71534880Y-170820475D01*
X71534880Y-170582379D01*
X71487261Y-170487141D01*
X71439642Y-170439522D01*
X71344404Y-170391903D01*
X71249166Y-170391903D01*
X71153928Y-170439522D01*
X71106309Y-170487141D01*
X71058690Y-170582379D01*
X71011071Y-170772856D01*
X70963452Y-170868094D01*
X70915833Y-170915713D01*
X70820595Y-170963332D01*
X70725357Y-170963332D01*
X70630119Y-170915713D01*
X70582500Y-170868094D01*
X70534880Y-170772856D01*
X70534880Y-170534760D01*
X70582500Y-170391903D01*
X70534880Y-170058570D02*
X71534880Y-169820475D01*
X70820595Y-169629999D01*
X71534880Y-169439522D01*
X70534880Y-169201427D01*
X70630119Y-168868094D02*
X70582500Y-168820475D01*
X70534880Y-168725237D01*
X70534880Y-168487141D01*
X70582500Y-168391903D01*
X70630119Y-168344284D01*
X70725357Y-168296665D01*
X70820595Y-168296665D01*
X70963452Y-168344284D01*
X71534880Y-168915713D01*
X71534880Y-168296665D01*
X62879761Y-170958333D02*
X62927380Y-170815476D01*
X62927380Y-170577380D01*
X62879761Y-170482142D01*
X62832142Y-170434523D01*
X62736904Y-170386904D01*
X62641666Y-170386904D01*
X62546428Y-170434523D01*
X62498809Y-170482142D01*
X62451190Y-170577380D01*
X62403571Y-170767857D01*
X62355952Y-170863095D01*
X62308333Y-170910714D01*
X62213095Y-170958333D01*
X62117857Y-170958333D01*
X62022619Y-170910714D01*
X61975000Y-170863095D01*
X61927380Y-170767857D01*
X61927380Y-170529761D01*
X61975000Y-170386904D01*
X61927380Y-170053571D02*
X62927380Y-169815476D01*
X62213095Y-169625000D01*
X62927380Y-169434523D01*
X61927380Y-169196428D01*
X61927380Y-168910714D02*
X61927380Y-168291666D01*
X62308333Y-168625000D01*
X62308333Y-168482142D01*
X62355952Y-168386904D01*
X62403571Y-168339285D01*
X62498809Y-168291666D01*
X62736904Y-168291666D01*
X62832142Y-168339285D01*
X62879761Y-168386904D01*
X62927380Y-168482142D01*
X62927380Y-168767857D01*
X62879761Y-168863095D01*
X62832142Y-168910714D01*
X61561904Y-161702380D02*
X61561904Y-160702380D01*
X61800000Y-160702380D01*
X61942857Y-160750000D01*
X62038095Y-160845238D01*
X62085714Y-160940476D01*
X62133333Y-161130952D01*
X62133333Y-161273809D01*
X62085714Y-161464285D01*
X62038095Y-161559523D01*
X61942857Y-161654761D01*
X61800000Y-161702380D01*
X61561904Y-161702380D01*
X62514285Y-160797619D02*
X62561904Y-160750000D01*
X62657142Y-160702380D01*
X62895238Y-160702380D01*
X62990476Y-160750000D01*
X63038095Y-160797619D01*
X63085714Y-160892857D01*
X63085714Y-160988095D01*
X63038095Y-161130952D01*
X62466666Y-161702380D01*
X63085714Y-161702380D01*
X94811904Y-128127380D02*
X94811904Y-127127380D01*
X95050000Y-127127380D01*
X95192857Y-127175000D01*
X95288095Y-127270238D01*
X95335714Y-127365476D01*
X95383333Y-127555952D01*
X95383333Y-127698809D01*
X95335714Y-127889285D01*
X95288095Y-127984523D01*
X95192857Y-128079761D01*
X95050000Y-128127380D01*
X94811904Y-128127380D01*
X95716666Y-127127380D02*
X96335714Y-127127380D01*
X96002380Y-127508333D01*
X96145238Y-127508333D01*
X96240476Y-127555952D01*
X96288095Y-127603571D01*
X96335714Y-127698809D01*
X96335714Y-127936904D01*
X96288095Y-128032142D01*
X96240476Y-128079761D01*
X96145238Y-128127380D01*
X95859523Y-128127380D01*
X95764285Y-128079761D01*
X95716666Y-128032142D01*
X49961904Y-114802380D02*
X49961904Y-113802380D01*
X50200000Y-113802380D01*
X50342857Y-113850000D01*
X50438095Y-113945238D01*
X50485714Y-114040476D01*
X50533333Y-114230952D01*
X50533333Y-114373809D01*
X50485714Y-114564285D01*
X50438095Y-114659523D01*
X50342857Y-114754761D01*
X50200000Y-114802380D01*
X49961904Y-114802380D01*
X51390476Y-114135714D02*
X51390476Y-114802380D01*
X51152380Y-113754761D02*
X50914285Y-114469047D01*
X51533333Y-114469047D01*
X91361904Y-116802380D02*
X91361904Y-115802380D01*
X91600000Y-115802380D01*
X91742857Y-115850000D01*
X91838095Y-115945238D01*
X91885714Y-116040476D01*
X91933333Y-116230952D01*
X91933333Y-116373809D01*
X91885714Y-116564285D01*
X91838095Y-116659523D01*
X91742857Y-116754761D01*
X91600000Y-116802380D01*
X91361904Y-116802380D01*
X92838095Y-115802380D02*
X92361904Y-115802380D01*
X92314285Y-116278571D01*
X92361904Y-116230952D01*
X92457142Y-116183333D01*
X92695238Y-116183333D01*
X92790476Y-116230952D01*
X92838095Y-116278571D01*
X92885714Y-116373809D01*
X92885714Y-116611904D01*
X92838095Y-116707142D01*
X92790476Y-116754761D01*
X92695238Y-116802380D01*
X92457142Y-116802380D01*
X92361904Y-116754761D01*
X92314285Y-116707142D01*
X71311904Y-162002380D02*
X71311904Y-161002380D01*
X71550000Y-161002380D01*
X71692857Y-161050000D01*
X71788095Y-161145238D01*
X71835714Y-161240476D01*
X71883333Y-161430952D01*
X71883333Y-161573809D01*
X71835714Y-161764285D01*
X71788095Y-161859523D01*
X71692857Y-161954761D01*
X71550000Y-162002380D01*
X71311904Y-162002380D01*
X72835714Y-162002380D02*
X72264285Y-162002380D01*
X72550000Y-162002380D02*
X72550000Y-161002380D01*
X72454761Y-161145238D01*
X72359523Y-161240476D01*
X72264285Y-161288095D01*
X43811904Y-172752380D02*
X43811904Y-171752380D01*
X44192857Y-171752380D01*
X44288095Y-171800000D01*
X44335714Y-171847619D01*
X44383333Y-171942857D01*
X44383333Y-172085714D01*
X44335714Y-172180952D01*
X44288095Y-172228571D01*
X44192857Y-172276190D01*
X43811904Y-172276190D01*
X45335714Y-172752380D02*
X44764285Y-172752380D01*
X45050000Y-172752380D02*
X45050000Y-171752380D01*
X44954761Y-171895238D01*
X44859523Y-171990476D01*
X44764285Y-172038095D01*
X87429761Y-133097619D02*
X87334523Y-133050000D01*
X87239285Y-132954761D01*
X87096428Y-132811904D01*
X87001190Y-132764285D01*
X86905952Y-132764285D01*
X86953571Y-133002380D02*
X86858333Y-132954761D01*
X86763095Y-132859523D01*
X86715476Y-132669047D01*
X86715476Y-132335714D01*
X86763095Y-132145238D01*
X86858333Y-132050000D01*
X86953571Y-132002380D01*
X87144047Y-132002380D01*
X87239285Y-132050000D01*
X87334523Y-132145238D01*
X87382142Y-132335714D01*
X87382142Y-132669047D01*
X87334523Y-132859523D01*
X87239285Y-132954761D01*
X87144047Y-133002380D01*
X86953571Y-133002380D01*
X88334523Y-133002380D02*
X87763095Y-133002380D01*
X88048809Y-133002380D02*
X88048809Y-132002380D01*
X87953571Y-132145238D01*
X87858333Y-132240476D01*
X87763095Y-132288095D01*
X82004761Y-126997619D02*
X81909523Y-126950000D01*
X81814285Y-126854761D01*
X81671428Y-126711904D01*
X81576190Y-126664285D01*
X81480952Y-126664285D01*
X81528571Y-126902380D02*
X81433333Y-126854761D01*
X81338095Y-126759523D01*
X81290476Y-126569047D01*
X81290476Y-126235714D01*
X81338095Y-126045238D01*
X81433333Y-125950000D01*
X81528571Y-125902380D01*
X81719047Y-125902380D01*
X81814285Y-125950000D01*
X81909523Y-126045238D01*
X81957142Y-126235714D01*
X81957142Y-126569047D01*
X81909523Y-126759523D01*
X81814285Y-126854761D01*
X81719047Y-126902380D01*
X81528571Y-126902380D01*
X82338095Y-125997619D02*
X82385714Y-125950000D01*
X82480952Y-125902380D01*
X82719047Y-125902380D01*
X82814285Y-125950000D01*
X82861904Y-125997619D01*
X82909523Y-126092857D01*
X82909523Y-126188095D01*
X82861904Y-126330952D01*
X82290476Y-126902380D01*
X82909523Y-126902380D01*
X60704761Y-120197619D02*
X60609523Y-120150000D01*
X60514285Y-120054761D01*
X60371428Y-119911904D01*
X60276190Y-119864285D01*
X60180952Y-119864285D01*
X60228571Y-120102380D02*
X60133333Y-120054761D01*
X60038095Y-119959523D01*
X59990476Y-119769047D01*
X59990476Y-119435714D01*
X60038095Y-119245238D01*
X60133333Y-119150000D01*
X60228571Y-119102380D01*
X60419047Y-119102380D01*
X60514285Y-119150000D01*
X60609523Y-119245238D01*
X60657142Y-119435714D01*
X60657142Y-119769047D01*
X60609523Y-119959523D01*
X60514285Y-120054761D01*
X60419047Y-120102380D01*
X60228571Y-120102380D01*
X60990476Y-119102380D02*
X61609523Y-119102380D01*
X61276190Y-119483333D01*
X61419047Y-119483333D01*
X61514285Y-119530952D01*
X61561904Y-119578571D01*
X61609523Y-119673809D01*
X61609523Y-119911904D01*
X61561904Y-120007142D01*
X61514285Y-120054761D01*
X61419047Y-120102380D01*
X61133333Y-120102380D01*
X61038095Y-120054761D01*
X60990476Y-120007142D01*
X119788095Y-136352380D02*
X120359523Y-136352380D01*
X120073809Y-137352380D02*
X120073809Y-136352380D01*
X120597619Y-136352380D02*
X121264285Y-137352380D01*
X121264285Y-136352380D02*
X120597619Y-137352380D01*
X120383333Y-129552380D02*
X120050000Y-129076190D01*
X119811904Y-129552380D02*
X119811904Y-128552380D01*
X120192857Y-128552380D01*
X120288095Y-128600000D01*
X120335714Y-128647619D01*
X120383333Y-128742857D01*
X120383333Y-128885714D01*
X120335714Y-128980952D01*
X120288095Y-129028571D01*
X120192857Y-129076190D01*
X119811904Y-129076190D01*
X120716666Y-128552380D02*
X121383333Y-129552380D01*
X121383333Y-128552380D02*
X120716666Y-129552380D01*
X43438095Y-131720000D02*
X43342857Y-131672380D01*
X43200000Y-131672380D01*
X43057142Y-131720000D01*
X42961904Y-131815238D01*
X42914285Y-131910476D01*
X42866666Y-132100952D01*
X42866666Y-132243809D01*
X42914285Y-132434285D01*
X42961904Y-132529523D01*
X43057142Y-132624761D01*
X43200000Y-132672380D01*
X43295238Y-132672380D01*
X43438095Y-132624761D01*
X43485714Y-132577142D01*
X43485714Y-132243809D01*
X43295238Y-132243809D01*
X43914285Y-132672380D02*
X43914285Y-131672380D01*
X44485714Y-132672380D01*
X44485714Y-131672380D01*
X44961904Y-132672380D02*
X44961904Y-131672380D01*
X45200000Y-131672380D01*
X45342857Y-131720000D01*
X45438095Y-131815238D01*
X45485714Y-131910476D01*
X45533333Y-132100952D01*
X45533333Y-132243809D01*
X45485714Y-132434285D01*
X45438095Y-132529523D01*
X45342857Y-132624761D01*
X45200000Y-132672380D01*
X44961904Y-132672380D01*
X42438095Y-118741428D02*
X43200000Y-118741428D01*
X42819047Y-119122380D02*
X42819047Y-118360476D01*
X44200000Y-119122380D02*
X43628571Y-119122380D01*
X43914285Y-119122380D02*
X43914285Y-118122380D01*
X43819047Y-118265238D01*
X43723809Y-118360476D01*
X43628571Y-118408095D01*
X44580952Y-118217619D02*
X44628571Y-118170000D01*
X44723809Y-118122380D01*
X44961904Y-118122380D01*
X45057142Y-118170000D01*
X45104761Y-118217619D01*
X45152380Y-118312857D01*
X45152380Y-118408095D01*
X45104761Y-118550952D01*
X44533333Y-119122380D01*
X45152380Y-119122380D01*
X45438095Y-118122380D02*
X45771428Y-119122380D01*
X46104761Y-118122380D01*
X109483333Y-164202380D02*
X109150000Y-163726190D01*
X108911904Y-164202380D02*
X108911904Y-163202380D01*
X109292857Y-163202380D01*
X109388095Y-163250000D01*
X109435714Y-163297619D01*
X109483333Y-163392857D01*
X109483333Y-163535714D01*
X109435714Y-163630952D01*
X109388095Y-163678571D01*
X109292857Y-163726190D01*
X108911904Y-163726190D01*
X109864285Y-163297619D02*
X109911904Y-163250000D01*
X110007142Y-163202380D01*
X110245238Y-163202380D01*
X110340476Y-163250000D01*
X110388095Y-163297619D01*
X110435714Y-163392857D01*
X110435714Y-163488095D01*
X110388095Y-163630952D01*
X109816666Y-164202380D01*
X110435714Y-164202380D01*
X109633333Y-171652380D02*
X109300000Y-171176190D01*
X109061904Y-171652380D02*
X109061904Y-170652380D01*
X109442857Y-170652380D01*
X109538095Y-170700000D01*
X109585714Y-170747619D01*
X109633333Y-170842857D01*
X109633333Y-170985714D01*
X109585714Y-171080952D01*
X109538095Y-171128571D01*
X109442857Y-171176190D01*
X109061904Y-171176190D01*
X110490476Y-170652380D02*
X110300000Y-170652380D01*
X110204761Y-170700000D01*
X110157142Y-170747619D01*
X110061904Y-170890476D01*
X110014285Y-171080952D01*
X110014285Y-171461904D01*
X110061904Y-171557142D01*
X110109523Y-171604761D01*
X110204761Y-171652380D01*
X110395238Y-171652380D01*
X110490476Y-171604761D01*
X110538095Y-171557142D01*
X110585714Y-171461904D01*
X110585714Y-171223809D01*
X110538095Y-171128571D01*
X110490476Y-171080952D01*
X110395238Y-171033333D01*
X110204761Y-171033333D01*
X110109523Y-171080952D01*
X110061904Y-171128571D01*
X110014285Y-171223809D01*
X114033333Y-149152380D02*
X113700000Y-148676190D01*
X113461904Y-149152380D02*
X113461904Y-148152380D01*
X113842857Y-148152380D01*
X113938095Y-148200000D01*
X113985714Y-148247619D01*
X114033333Y-148342857D01*
X114033333Y-148485714D01*
X113985714Y-148580952D01*
X113938095Y-148628571D01*
X113842857Y-148676190D01*
X113461904Y-148676190D01*
X114366666Y-148152380D02*
X114985714Y-148152380D01*
X114652380Y-148533333D01*
X114795238Y-148533333D01*
X114890476Y-148580952D01*
X114938095Y-148628571D01*
X114985714Y-148723809D01*
X114985714Y-148961904D01*
X114938095Y-149057142D01*
X114890476Y-149104761D01*
X114795238Y-149152380D01*
X114509523Y-149152380D01*
X114414285Y-149104761D01*
X114366666Y-149057142D01*
X90058342Y-156167606D02*
X90105961Y-156215225D01*
X90153580Y-156358082D01*
X90153580Y-156453320D01*
X90105961Y-156596178D01*
X90010723Y-156691416D01*
X89915485Y-156739035D01*
X89725009Y-156786654D01*
X89582152Y-156786654D01*
X89391676Y-156739035D01*
X89296438Y-156691416D01*
X89201200Y-156596178D01*
X89153580Y-156453320D01*
X89153580Y-156358082D01*
X89201200Y-156215225D01*
X89248819Y-156167606D01*
X89153580Y-155834273D02*
X89153580Y-155167606D01*
X90153580Y-155596178D01*
D16*
X79123809Y-156752380D02*
X79123809Y-155752380D01*
X80171428Y-156657142D02*
X80123809Y-156704761D01*
X79980952Y-156752380D01*
X79885714Y-156752380D01*
X79742857Y-156704761D01*
X79647619Y-156609523D01*
X79600000Y-156514285D01*
X79552380Y-156323809D01*
X79552380Y-156180952D01*
X79600000Y-155990476D01*
X79647619Y-155895238D01*
X79742857Y-155800000D01*
X79885714Y-155752380D01*
X79980952Y-155752380D01*
X80123809Y-155800000D01*
X80171428Y-155847619D01*
X81123809Y-156752380D02*
X80552380Y-156752380D01*
X80838095Y-156752380D02*
X80838095Y-155752380D01*
X80742857Y-155895238D01*
X80647619Y-155990476D01*
X80552380Y-156038095D01*
D12*
X65452380Y-120692857D02*
X64976190Y-121026190D01*
X65452380Y-121264285D02*
X64452380Y-121264285D01*
X64452380Y-120883333D01*
X64500000Y-120788095D01*
X64547619Y-120740476D01*
X64642857Y-120692857D01*
X64785714Y-120692857D01*
X64880952Y-120740476D01*
X64928571Y-120788095D01*
X64976190Y-120883333D01*
X64976190Y-121264285D01*
X65452380Y-119740476D02*
X65452380Y-120311904D01*
X65452380Y-120026190D02*
X64452380Y-120026190D01*
X64595238Y-120121428D01*
X64690476Y-120216666D01*
X64738095Y-120311904D01*
X64785714Y-118883333D02*
X65452380Y-118883333D01*
X64404761Y-119121428D02*
X65119047Y-119359523D01*
X65119047Y-118740476D01*
X68152380Y-120692857D02*
X67676190Y-121026190D01*
X68152380Y-121264285D02*
X67152380Y-121264285D01*
X67152380Y-120883333D01*
X67200000Y-120788095D01*
X67247619Y-120740476D01*
X67342857Y-120692857D01*
X67485714Y-120692857D01*
X67580952Y-120740476D01*
X67628571Y-120788095D01*
X67676190Y-120883333D01*
X67676190Y-121264285D01*
X68152380Y-119740476D02*
X68152380Y-120311904D01*
X68152380Y-120026190D02*
X67152380Y-120026190D01*
X67295238Y-120121428D01*
X67390476Y-120216666D01*
X67438095Y-120311904D01*
X67152380Y-118835714D02*
X67152380Y-119311904D01*
X67628571Y-119359523D01*
X67580952Y-119311904D01*
X67533333Y-119216666D01*
X67533333Y-118978571D01*
X67580952Y-118883333D01*
X67628571Y-118835714D01*
X67723809Y-118788095D01*
X67961904Y-118788095D01*
X68057142Y-118835714D01*
X68104761Y-118883333D01*
X68152380Y-118978571D01*
X68152380Y-119216666D01*
X68104761Y-119311904D01*
X68057142Y-119359523D01*
M02*
