M48
;DRILL file {KiCad (5.0.0-rc2-dev-340-g7483a73a5)} date 06/13/18 08:53:30
;FORMAT={-:-/ absolute / metric / decimal}
FMAT,2
METRIC,TZ
T1C0.200
T2C0.400
T3C0.800
T4C0.900
T5C1.000
T6C1.001
T7C1.100
T8C1.200
T9C2.499
T10C4.300
T11C3.250
%
G90
G05
M71
T1
X49.05Y-141.5
X50.75Y-118.875
X52.406Y-162.698
X52.65Y-156.45
X56.225Y-100.8
X56.9Y-150.35
X58.95Y-149.
X62.4Y-119.2
X66.3Y-141.4
X66.4Y-154.1
X66.45Y-112.75
X66.5Y-152.6
X67.25Y-115.875
X67.916Y-141.716
X67.95Y-151.9
X69.75Y-155.4
X70.55Y-138.2
X70.7Y-155.7
X70.85Y-160.25
X71.975Y-116.325
X72.617Y-149.71
X73.1Y-149.2
X73.3Y-145.05
X73.55Y-163.45
X74.3Y-137.85
X75.118Y-148.865
X75.15Y-153.125
X75.225Y-151.65
X75.45Y-145.8
X75.65Y-158.6
X76.2Y-158.8
X76.25Y-151.375
X76.5Y-159.3
X76.575Y-150.85
X77.9Y-143.4
X77.95Y-147.45
X78.239Y-147.93
X78.859Y-148.126
X78.92Y-147.566
X79.994Y-150.614
X80.097Y-149.219
X80.51Y-150.154
X80.9Y-148.75
X82.044Y-147.115
X83.5Y-146.95
X83.6Y-145.55
X84.375Y-102.5
X86.225Y-100.8
X87.2Y-142.75
X90.25Y-147.8
X91.35Y-146.8
X92.8Y-147.15
X94.325Y-108.675
X94.375Y-102.5
X94.375Y-107.5
X95.Y-151.45
X95.65Y-145.7
X95.85Y-146.35
X96.225Y-100.8
X96.446Y-147.158
X98.2Y-161.55
X103.3Y-161.65
X104.375Y-107.5
X106.225Y-100.8
X108.15Y-107.55
X108.325Y-108.775
X109.375Y-97.5
X109.375Y-112.5
X116.225Y-100.8
T2
X44.9Y-172.05
X46.6Y-172.05
X48.15Y-169.6
X48.15Y-171.15
X48.2Y-168.3
X49.85Y-131.55
X51.35Y-136.5
X51.35Y-138.4
X52.65Y-130.25
X52.65Y-131.55
X52.65Y-132.95
X54.Y-153.9
X54.Y-159.
X54.05Y-160.95
X54.1Y-156.
X54.3Y-126.75
X54.45Y-124.8
X54.7Y-162.7
X56.05Y-143.95
X56.45Y-136.55
X56.45Y-138.55
X57.05Y-118.1
X58.5Y-161.9
X58.6Y-120.55
X58.9Y-146.4
X59.1Y-134.
X60.85Y-163.15
X63.25Y-125.55
X63.25Y-135.55
X63.35Y-132.85
X63.4Y-128.3
X63.45Y-130.55
X64.05Y-142.
X65.7Y-163.4
X65.85Y-125.45
X65.85Y-135.5
X66.3Y-157.1
X66.6Y-121.45
X67.25Y-144.05
X67.75Y-147.2
X69.4Y-118.7
X69.4Y-121.4
X69.65Y-143.45
X69.8Y-130.5
X69.85Y-129.05
X69.85Y-132.05
X70.5Y-163.45
X71.9Y-151.
X72.1Y-141.3
X73.3Y-139.45
X73.55Y-158.9
X73.95Y-143.05
X74.95Y-136.
X75.Y-125.95
X75.05Y-133.2
X75.15Y-128.65
X75.15Y-131.
X75.166Y-141.634
X75.4Y-163.7
X75.6Y-108.75
X75.8Y-110.25
X75.85Y-144.05
X76.05Y-107.25
X77.5Y-136.1
X77.55Y-126.
X81.55Y-129.5
X81.55Y-131.05
X81.55Y-132.5
X81.8Y-137.8
X83.4Y-144.05
X85.55Y-135.85
X85.9Y-138.2
X89.1Y-126.3
X89.15Y-125.05
X89.15Y-129.2
X92.2Y-120.55
X92.3Y-126.3
X92.35Y-131.3
X95.395Y-148.105
X95.45Y-131.75
X103.75Y-148.
X106.35Y-148.
X109.1Y-153.6
X119.15Y-156.8
T3
X98.68Y-151.15
X98.68Y-158.77
X101.22Y-151.15
X101.22Y-158.77
X103.76Y-151.15
X103.76Y-158.77
X106.3Y-151.15
X106.3Y-158.77
X114.15Y-151.97
X114.15Y-154.51
X114.15Y-157.05
T4
X93.03Y-113.055
X94.3Y-110.515
X95.57Y-113.055
X96.84Y-110.515
X98.11Y-113.055
X99.38Y-110.515
X100.65Y-113.055
X101.92Y-110.515
X109.5Y-113.055
X110.77Y-110.515
X112.04Y-113.055
X113.31Y-110.515
X114.58Y-113.055
X115.85Y-110.515
X117.12Y-113.055
X118.39Y-110.515
X60.085Y-113.09
X61.355Y-110.55
X62.625Y-113.09
X63.895Y-110.55
X65.165Y-113.09
X66.435Y-110.55
X67.705Y-113.09
X68.975Y-110.55
X76.585Y-113.09
X77.855Y-110.55
X79.125Y-113.09
X80.395Y-110.55
X81.665Y-113.09
X82.935Y-110.55
X84.205Y-113.09
X85.475Y-110.55
T5
X95.97Y-143.24
X98.51Y-143.24
X101.05Y-143.24
X103.59Y-143.24
X106.13Y-143.24
X108.67Y-143.24
X111.21Y-143.24
X113.75Y-143.24
X116.29Y-143.24
X118.83Y-143.24
X121.37Y-143.24
X123.91Y-143.24
X126.45Y-143.24
X128.99Y-143.24
X95.98Y-122.92
X98.52Y-122.92
X101.06Y-122.92
X103.6Y-122.92
X106.14Y-122.92
X108.68Y-122.92
X111.22Y-122.92
X113.76Y-122.92
X116.3Y-122.92
X118.84Y-122.92
X121.38Y-122.92
X123.92Y-122.92
X126.46Y-122.92
X129.Y-122.92
X85.85Y-155.3
X85.85Y-157.84
X85.85Y-160.38
X85.85Y-162.92
X85.85Y-165.46
X85.85Y-168.
X85.85Y-170.54
X85.85Y-173.08
X43.31Y-146.74
X43.31Y-149.28
X43.31Y-151.82
X43.31Y-154.36
X43.31Y-156.9
X43.31Y-159.44
X43.31Y-161.98
X43.31Y-164.52
X43.31Y-167.06
X43.31Y-169.6
X45.85Y-146.74
X45.85Y-149.28
X45.85Y-151.82
X45.85Y-154.36
X45.85Y-156.9
X45.85Y-159.44
X45.85Y-161.98
X45.85Y-164.52
X45.85Y-167.06
X45.85Y-169.6
T6
X92.8Y-151.099
X92.8Y-161.101
X99.85Y-169.15
X109.852Y-169.15
X99.8Y-165.75
X109.802Y-165.75
T7
X55.8Y-166.4
X55.8Y-172.9
X60.3Y-166.4
X60.3Y-172.9
X73.082Y-166.38
X73.082Y-172.88
X77.582Y-166.38
X77.582Y-172.88
X64.475Y-166.375
X64.475Y-172.875
X68.975Y-166.375
X68.975Y-172.875
T8
X114.7Y-166.7
X119.7Y-161.7
X119.7Y-171.7
X122.2Y-161.7
X122.2Y-171.7
T9
X126.35Y-136.8
X126.5Y-129.15
X44.2Y-137.3
X44.2Y-123.75
T10
X47.9Y-104.05
X93.4Y-167.05
X133.4Y-104.05
T11
X91.54Y-104.165
X103.41Y-104.165
X108.01Y-104.165
X119.88Y-104.165
X58.595Y-104.2
X70.465Y-104.2
X75.095Y-104.2
X86.965Y-104.2
T1
X115.1Y-161.7G85X114.3Y-161.7
G05
X115.1Y-164.2G85X114.3Y-164.2
G05
X115.1Y-169.2G85X114.3Y-169.2
G05
X115.1Y-171.7G85X114.3Y-171.7
G05
X119.7Y-167.1G85X119.7Y-166.3
G05
T0
M30
