G04 #@! TF.GenerationSoftware,KiCad,Pcbnew,(5.0.0-rc2-dev-340-g7483a73a5)*
G04 #@! TF.CreationDate,2018-06-13T08:56:42+02:00*
G04 #@! TF.ProjectId,AudiA6Main,4175646941364D61696E2E6B69636164,rev?*
G04 #@! TF.SameCoordinates,Original*
G04 #@! TF.FileFunction,Copper,L2,Bot,Signal*
G04 #@! TF.FilePolarity,Positive*
%FSLAX46Y46*%
G04 Gerber Fmt 4.6, Leading zero omitted, Abs format (unit mm)*
G04 Created by KiCad (PCBNEW (5.0.0-rc2-dev-340-g7483a73a5)) date 06/13/18 08:56:42*
%MOMM*%
%LPD*%
G01*
G04 APERTURE LIST*
%ADD10C,8.600000*%
%ADD11R,1.700000X1.700000*%
%ADD12O,1.700000X1.700000*%
%ADD13R,1.500000X0.800000*%
%ADD14C,1.200000*%
%ADD15R,0.800000X1.500000*%
%ADD16C,1.500000*%
%ADD17R,1.500000X1.500000*%
%ADD18C,3.650000*%
%ADD19C,2.000000*%
%ADD20O,1.600000X1.600000*%
%ADD21R,1.600000X1.600000*%
%ADD22C,5.999480*%
%ADD23R,1.998980X1.998980*%
%ADD24C,1.440000*%
%ADD25C,0.800000*%
%ADD26C,0.400000*%
%ADD27C,0.250000*%
%ADD28C,1.000000*%
%ADD29C,0.500000*%
%ADD30C,0.304000*%
G04 APERTURE END LIST*
D10*
X47900000Y-104050000D03*
X133400000Y-104050000D03*
D11*
X95980000Y-122920000D03*
D12*
X98520000Y-122920000D03*
X101060000Y-122920000D03*
X103600000Y-122920000D03*
X106140000Y-122920000D03*
X108680000Y-122920000D03*
X111220000Y-122920000D03*
X113760000Y-122920000D03*
X116300000Y-122920000D03*
X118840000Y-122920000D03*
X121380000Y-122920000D03*
X123920000Y-122920000D03*
X126460000Y-122920000D03*
X129000000Y-122920000D03*
D13*
X114700000Y-161700000D03*
X114700000Y-171700000D03*
X114700000Y-164200000D03*
X114700000Y-169200000D03*
D14*
X114700000Y-166700000D03*
X119700000Y-161700000D03*
X122200000Y-161700000D03*
X119700000Y-171700000D03*
X122200000Y-171700000D03*
D15*
X119700000Y-166700000D03*
D11*
X85850000Y-155300000D03*
D12*
X85850000Y-157840000D03*
X85850000Y-160380000D03*
X85850000Y-162920000D03*
X85850000Y-165460000D03*
X85850000Y-168000000D03*
X85850000Y-170540000D03*
X85850000Y-173080000D03*
D16*
X109499999Y-113054999D03*
X110769999Y-110514999D03*
X112039999Y-113054999D03*
X113309999Y-110514999D03*
X114579999Y-113054999D03*
X115849999Y-110514999D03*
X117119999Y-113054999D03*
D17*
X118389999Y-110514999D03*
D18*
X119879999Y-104164999D03*
X108009999Y-104164999D03*
X91539999Y-104164999D03*
X103409999Y-104164999D03*
D17*
X101919999Y-110514999D03*
D16*
X100649999Y-113054999D03*
X99379999Y-110514999D03*
X98109999Y-113054999D03*
X96839999Y-110514999D03*
X95569999Y-113054999D03*
X94299999Y-110514999D03*
X93029999Y-113054999D03*
X60085000Y-113090000D03*
X61355000Y-110550000D03*
X62625000Y-113090000D03*
X63895000Y-110550000D03*
X65165000Y-113090000D03*
X66435000Y-110550000D03*
X67705000Y-113090000D03*
D17*
X68975000Y-110550000D03*
D18*
X70465000Y-104200000D03*
X58595000Y-104200000D03*
X75095000Y-104200000D03*
X86965000Y-104200000D03*
D17*
X85475000Y-110550000D03*
D16*
X84205000Y-113090000D03*
X82935000Y-110550000D03*
X81665000Y-113090000D03*
X80395000Y-110550000D03*
X79125000Y-113090000D03*
X77855000Y-110550000D03*
X76585000Y-113090000D03*
D12*
X95970000Y-143240000D03*
X98510000Y-143240000D03*
X101050000Y-143240000D03*
X103590000Y-143240000D03*
X106130000Y-143240000D03*
X108670000Y-143240000D03*
X111210000Y-143240000D03*
X113750000Y-143240000D03*
X116290000Y-143240000D03*
X118830000Y-143240000D03*
X121370000Y-143240000D03*
X123910000Y-143240000D03*
X126450000Y-143240000D03*
D11*
X128990000Y-143240000D03*
D19*
X60300000Y-172900000D03*
X55800000Y-172900000D03*
X60300000Y-166400000D03*
X55800000Y-166400000D03*
D20*
X106300000Y-158770000D03*
X98680000Y-151150000D03*
X103760000Y-158770000D03*
X101220000Y-151150000D03*
X101220000Y-158770000D03*
X103760000Y-151150000D03*
X98680000Y-158770000D03*
D21*
X106300000Y-151150000D03*
D19*
X73082500Y-166379999D03*
X77582500Y-166379999D03*
X73082500Y-172879999D03*
X77582500Y-172879999D03*
X68975000Y-172875000D03*
X64475000Y-172875000D03*
X68975000Y-166375000D03*
X64475000Y-166375000D03*
D12*
X43310000Y-146740000D03*
X45850000Y-146740000D03*
X43310000Y-149280000D03*
X45850000Y-149280000D03*
X43310000Y-151820000D03*
X45850000Y-151820000D03*
X43310000Y-154360000D03*
X45850000Y-154360000D03*
X43310000Y-156900000D03*
X45850000Y-156900000D03*
X43310000Y-159440000D03*
X45850000Y-159440000D03*
X43310000Y-161980000D03*
X45850000Y-161980000D03*
X43310000Y-164520000D03*
X45850000Y-164520000D03*
X43310000Y-167060000D03*
X45850000Y-167060000D03*
X43310000Y-169600000D03*
D11*
X45850000Y-169600000D03*
D22*
X126350000Y-136800000D03*
X126500000Y-129150000D03*
X44200000Y-137300000D03*
X44200000Y-123750000D03*
D23*
X109802280Y-165750000D03*
X99799760Y-165750000D03*
X99849760Y-169150000D03*
X109852280Y-169150000D03*
D24*
X114150000Y-151970000D03*
X114150000Y-154510000D03*
X114150000Y-157050000D03*
D10*
X93400000Y-167050000D03*
D23*
X92800000Y-151098740D03*
X92800000Y-161101260D03*
D25*
X75165624Y-141634376D03*
D26*
X70550000Y-138200000D03*
X74300000Y-137850000D03*
X77900000Y-143400000D03*
X66300000Y-141400000D03*
X78858959Y-148125862D03*
D25*
X66600000Y-121450000D03*
X69400000Y-121400000D03*
X119150000Y-156800000D03*
X70500000Y-163450000D03*
X60850000Y-163150000D03*
X95394866Y-148105032D03*
X75400000Y-163700000D03*
X65700000Y-163400000D03*
D26*
X98200000Y-161550000D03*
X80900000Y-148750000D03*
D25*
X73950000Y-143050000D03*
X85900000Y-138200000D03*
X81800000Y-137800000D03*
X83400000Y-144050000D03*
X71900000Y-151000000D03*
X67750000Y-147200000D03*
X67250000Y-144050000D03*
X64050000Y-142000000D03*
X73300000Y-139450000D03*
X85550000Y-135850000D03*
X66300000Y-157100000D03*
X69650000Y-143450000D03*
X75850000Y-144050000D03*
X54700000Y-162700000D03*
X58500000Y-161900000D03*
X73550000Y-158900000D03*
X106350000Y-148000000D03*
X103750000Y-148000000D03*
X56050000Y-143950000D03*
X48200000Y-168300000D03*
X48150000Y-169600000D03*
X48150000Y-171150000D03*
X46600000Y-172050000D03*
X44900000Y-172050000D03*
X89100000Y-126300000D03*
X89150000Y-125050000D03*
X81550000Y-131050000D03*
X89150000Y-129200000D03*
X92350000Y-131300000D03*
X95450000Y-131750000D03*
X92300000Y-126300000D03*
X76050000Y-107250000D03*
X75600000Y-108750000D03*
X75800000Y-110250000D03*
X54000000Y-159000000D03*
X54100000Y-156000000D03*
X51350000Y-138400000D03*
X51350000Y-136500000D03*
X57050000Y-118100000D03*
X58600000Y-120550000D03*
X54300000Y-126750000D03*
X54450000Y-124800000D03*
X59100000Y-134000000D03*
X69800000Y-130500000D03*
D26*
X76500000Y-159300000D03*
X75650000Y-158600000D03*
X58950000Y-149000000D03*
D25*
X54000000Y-153900000D03*
D26*
X50750000Y-118875000D03*
X62400000Y-119200000D03*
X52405939Y-162698416D03*
X73299998Y-145050000D03*
X95000000Y-151450000D03*
X77950000Y-147450000D03*
X78238526Y-147929965D03*
D25*
X69400000Y-118700000D03*
D26*
X71975000Y-116325000D03*
X79994226Y-150614004D03*
X80509780Y-150154311D03*
X69750000Y-155400002D03*
X75225000Y-151650000D03*
X75150000Y-153125000D03*
X83599998Y-145550000D03*
X80097075Y-149218898D03*
X82044083Y-147114990D03*
X73550000Y-163450000D03*
X70850000Y-160250000D03*
X94325000Y-108675000D03*
X108150000Y-107550000D03*
X108325000Y-108775000D03*
D25*
X109100000Y-153600000D03*
X75000000Y-125950000D03*
X75150000Y-128650000D03*
X77500000Y-136100000D03*
X65850000Y-135500000D03*
X63400000Y-128300000D03*
X63250000Y-125550000D03*
D26*
X52650000Y-156450000D03*
X67950000Y-151900000D03*
X70699998Y-155700000D03*
X76250000Y-151374990D03*
X66450000Y-112750000D03*
X67250000Y-115875000D03*
X76575011Y-150850000D03*
X49050000Y-141500000D03*
X56900000Y-150350000D03*
X75118128Y-148864990D03*
X78920011Y-147565959D03*
X83500000Y-146950000D03*
X90250000Y-147800000D03*
X95650000Y-145700000D03*
X75450000Y-145800000D03*
X87200000Y-142750000D03*
D25*
X75150000Y-131000000D03*
X77550000Y-126000000D03*
X65850000Y-125450000D03*
X63450000Y-130550000D03*
X69850000Y-132050000D03*
X69850000Y-129050000D03*
X81550000Y-132500000D03*
X81550000Y-129500000D03*
D26*
X109375000Y-112500000D03*
X109375000Y-97500000D03*
X94375000Y-102500000D03*
X84375000Y-102500000D03*
X94375000Y-107500000D03*
X104375000Y-107500000D03*
X116225000Y-100800000D03*
X106225000Y-100800000D03*
X96225000Y-100800000D03*
X86225000Y-100800000D03*
X56225000Y-100800000D03*
D25*
X56450000Y-138550000D03*
X56450000Y-136550000D03*
X72100000Y-141300000D03*
D26*
X76200000Y-158800000D03*
X103300000Y-161650000D03*
X66400000Y-154100000D03*
X66500000Y-152600000D03*
X67916117Y-141716117D03*
D25*
X58900000Y-146400000D03*
X63350000Y-132850000D03*
X63250000Y-135550000D03*
X75050000Y-133200000D03*
X74950000Y-136000000D03*
X52650000Y-132950000D03*
X52650000Y-131550000D03*
X52650000Y-130250000D03*
X49850000Y-131550000D03*
X92200000Y-120550000D03*
X54050000Y-160950000D03*
D26*
X73100000Y-149200002D03*
X96445549Y-147158161D03*
X92800000Y-147150000D03*
X95850000Y-146350000D03*
X91350000Y-146800000D03*
X72616526Y-149709768D03*
D27*
X66499999Y-141200001D02*
X66999999Y-141200001D01*
X66300000Y-141400000D02*
X66499999Y-141200001D01*
X66999999Y-141200001D02*
X70000000Y-138200000D01*
X70000000Y-138200000D02*
X70500000Y-138200000D01*
X77900000Y-141750000D02*
X74300000Y-138150000D01*
X77900000Y-143400000D02*
X77900000Y-141750000D01*
X74300000Y-138150000D02*
X74300000Y-137850000D01*
D28*
X71800000Y-158900000D02*
X73550000Y-158900000D01*
X68200000Y-158900000D02*
X71800000Y-158900000D01*
X66400000Y-157100000D02*
X68200000Y-158900000D01*
X94994867Y-147705033D02*
X95394866Y-148105032D01*
X91339834Y-144050000D02*
X94994867Y-147705033D01*
X83400000Y-144050000D02*
X91339834Y-144050000D01*
X85900000Y-138200000D02*
X82200000Y-138200000D01*
X82200000Y-138200000D02*
X81800000Y-137800000D01*
X67750000Y-147200000D02*
X68100000Y-147200000D01*
X68100000Y-147200000D02*
X71900000Y-151000000D01*
X67250000Y-146700000D02*
X67750000Y-147200000D01*
X67250000Y-144050000D02*
X67250000Y-146700000D01*
X65200000Y-142000000D02*
X67250000Y-144050000D01*
X64050000Y-142000000D02*
X65200000Y-142000000D01*
X69850000Y-136000000D02*
X72900001Y-139050001D01*
X72900001Y-139050001D02*
X73300000Y-139450000D01*
X69850000Y-132050000D02*
X69850000Y-136000000D01*
X85550000Y-135850000D02*
X84900000Y-135850000D01*
X84900000Y-135850000D02*
X81550000Y-132500000D01*
D29*
X54000000Y-159000000D02*
X54000000Y-156100000D01*
X54000000Y-156100000D02*
X54100000Y-156000000D01*
X54700000Y-162700000D02*
X57700000Y-162700000D01*
X57700000Y-162700000D02*
X58500000Y-161900000D01*
D28*
X58500000Y-146400000D02*
X56050000Y-143950000D01*
X58900000Y-146400000D02*
X58500000Y-146400000D01*
X58950000Y-149000000D02*
X58950000Y-146450000D01*
X58950000Y-146450000D02*
X58900000Y-146400000D01*
D29*
X75600000Y-108750000D02*
X75600000Y-110050000D01*
X75600000Y-110050000D02*
X75800000Y-110250000D01*
D27*
X75800000Y-108950000D02*
X75600000Y-108750000D01*
X52605938Y-162498417D02*
X52405939Y-162698416D01*
X52650000Y-162454355D02*
X52605938Y-162498417D01*
X52650000Y-156450000D02*
X52650000Y-162454355D01*
X73099999Y-144850001D02*
X73299998Y-145050000D01*
X67916117Y-141716117D02*
X69966115Y-141716117D01*
X69966115Y-141716117D02*
X73099999Y-144850001D01*
X67950000Y-151900000D02*
X68449999Y-152399999D01*
X68449999Y-152399999D02*
X94050001Y-152399999D01*
X94800001Y-151649999D02*
X95000000Y-151450000D01*
X94050001Y-152399999D02*
X94800001Y-151649999D01*
X77750001Y-147649999D02*
X77950000Y-147450000D01*
X76050001Y-149349999D02*
X77750001Y-147649999D01*
X76050001Y-151174991D02*
X76050001Y-149349999D01*
X76250000Y-151374990D02*
X76050001Y-151174991D01*
X76575011Y-150850000D02*
X76575011Y-149593480D01*
X76575011Y-149593480D02*
X78038527Y-148129964D01*
X78038527Y-148129964D02*
X78238526Y-147929965D01*
X69600000Y-118700000D02*
X69400000Y-118700000D01*
X71975000Y-116325000D02*
X69600000Y-118700000D01*
X72950000Y-115350000D02*
X72174999Y-116125001D01*
X86475000Y-115350000D02*
X72950000Y-115350000D01*
X72174999Y-116125001D02*
X71975000Y-116325000D01*
X86550000Y-115350000D02*
X86475000Y-115350000D01*
X96619989Y-149089989D02*
X91080168Y-149089989D01*
X98680000Y-151150000D02*
X96619989Y-149089989D01*
X91080168Y-149089989D02*
X90500849Y-149669309D01*
X90500849Y-149669309D02*
X80276978Y-149669309D01*
X80276978Y-149669309D02*
X79994226Y-149952061D01*
X79994226Y-150331162D02*
X79994226Y-150614004D01*
X79994226Y-149952061D02*
X79994226Y-150331162D01*
X103760000Y-158770000D02*
X94490000Y-149500000D01*
X91250000Y-149500000D02*
X90595689Y-150154311D01*
X94490000Y-149500000D02*
X91250000Y-149500000D01*
X90595689Y-150154311D02*
X80792622Y-150154311D01*
X80792622Y-150154311D02*
X80509780Y-150154311D01*
X82185001Y-109800001D02*
X82935000Y-110550000D01*
X76298004Y-108375000D02*
X80760000Y-108375000D01*
X75948002Y-108024998D02*
X76298004Y-108375000D01*
X68960002Y-108024998D02*
X75948002Y-108024998D01*
X66435000Y-110550000D02*
X68960002Y-108024998D01*
X80760000Y-108375000D02*
X82185001Y-109800001D01*
D28*
X55800000Y-166400000D02*
X55800000Y-172900000D01*
D27*
X75150000Y-153125000D02*
X72025002Y-153125000D01*
X69949999Y-155200003D02*
X69750000Y-155400002D01*
X72025002Y-153125000D02*
X69949999Y-155200003D01*
X75225000Y-151650000D02*
X75500000Y-151925000D01*
X77390973Y-151925000D02*
X79897076Y-149418897D01*
X79897076Y-149418897D02*
X80097075Y-149218898D01*
X75500000Y-151925000D02*
X77390973Y-151925000D01*
X83599998Y-145550000D02*
X82044083Y-147105915D01*
X82044083Y-147105915D02*
X82044083Y-147114990D01*
X73550000Y-162950000D02*
X73550000Y-163450000D01*
X70850000Y-160250000D02*
X73550000Y-162950000D01*
D29*
X94299999Y-108700001D02*
X94325000Y-108675000D01*
X94299999Y-110514999D02*
X94299999Y-108700001D01*
X94299999Y-110514999D02*
X94299999Y-111784999D01*
X94299999Y-111784999D02*
X93029999Y-113054999D01*
X109499999Y-111784999D02*
X109499999Y-109949999D01*
X109499999Y-109949999D02*
X108325000Y-108775000D01*
X109499999Y-113054999D02*
X109499999Y-111784999D01*
X109499999Y-111784999D02*
X110769999Y-110514999D01*
D27*
X85850000Y-160380000D02*
X83391993Y-157921993D01*
X83391993Y-157921993D02*
X72921991Y-157921993D01*
X72921991Y-157921993D02*
X70699998Y-155700000D01*
X99400000Y-112375000D02*
X101260001Y-110514999D01*
X99400000Y-113600000D02*
X99400000Y-112375000D01*
X98150000Y-114850000D02*
X99400000Y-113600000D01*
X90775000Y-114850000D02*
X98150000Y-114850000D01*
X85475000Y-110550000D02*
X86475000Y-110550000D01*
X101260001Y-110514999D02*
X101919999Y-110514999D01*
X86475000Y-110550000D02*
X90775000Y-114850000D01*
X115875000Y-112708996D02*
X118068997Y-110514999D01*
X115875000Y-113351000D02*
X115875000Y-112708996D01*
X118068997Y-110514999D02*
X118389999Y-110514999D01*
X114376000Y-114850000D02*
X115875000Y-113351000D01*
X101919999Y-110514999D02*
X101919999Y-110544999D01*
X106225000Y-114850000D02*
X114376000Y-114850000D01*
X101919999Y-110544999D02*
X106225000Y-114850000D01*
X66450000Y-115075000D02*
X66450000Y-112750000D01*
X67250000Y-115875000D02*
X66450000Y-115075000D01*
X69975000Y-110550000D02*
X71175000Y-111750000D01*
X68975000Y-110550000D02*
X69975000Y-110550000D01*
X71175000Y-111750000D02*
X84325000Y-111750000D01*
X84325000Y-111750000D02*
X85475000Y-110600000D01*
X85475000Y-110600000D02*
X85475000Y-110550000D01*
X86550000Y-115350000D02*
X90638589Y-115350000D01*
X90638589Y-115350000D02*
X98354998Y-115350000D01*
X67705000Y-114150660D02*
X68904340Y-115350000D01*
X67705000Y-113090000D02*
X67705000Y-114150660D01*
X68904340Y-115350000D02*
X83475000Y-115350000D01*
X83475000Y-115350000D02*
X84205000Y-114620000D01*
X84205000Y-114620000D02*
X84205000Y-113090000D01*
X99454998Y-115350000D02*
X98354998Y-115350000D01*
X84954999Y-113839999D02*
X84964999Y-113839999D01*
X84205000Y-113090000D02*
X84954999Y-113839999D01*
X84964999Y-113839999D02*
X86475000Y-115350000D01*
X98354998Y-115350000D02*
X98904998Y-114800000D01*
X99454998Y-115350000D02*
X114824998Y-115350000D01*
X114824998Y-115350000D02*
X117119999Y-113054999D01*
D28*
X77582500Y-166379999D02*
X77582500Y-172879999D01*
D27*
X56900000Y-149350000D02*
X49249999Y-141699999D01*
X49249999Y-141699999D02*
X49050000Y-141500000D01*
X56900000Y-150350000D02*
X56900000Y-149350000D01*
D28*
X68975000Y-166375000D02*
X68975000Y-172875000D01*
D27*
X78920011Y-147565959D02*
X78318529Y-146964477D01*
X78318529Y-146964477D02*
X77018641Y-146964477D01*
X75318127Y-148664991D02*
X75118128Y-148864990D01*
X77018641Y-146964477D02*
X75318127Y-148664991D01*
X84350000Y-147800000D02*
X83500000Y-146950000D01*
X90250000Y-147800000D02*
X84350000Y-147800000D01*
X95700000Y-145750000D02*
X95650000Y-145700000D01*
X112650000Y-145750000D02*
X95700000Y-145750000D01*
X113750000Y-144650000D02*
X112650000Y-145750000D01*
X113750000Y-143240000D02*
X113750000Y-144650000D01*
X75649999Y-145600001D02*
X75450000Y-145800000D01*
X79267802Y-142750000D02*
X78132801Y-143885001D01*
X77364999Y-143885001D02*
X75649999Y-145600001D01*
X87200000Y-142750000D02*
X79267802Y-142750000D01*
X78132801Y-143885001D02*
X77364999Y-143885001D01*
X85385010Y-108099990D02*
X96964990Y-108099990D01*
X82935000Y-110550000D02*
X85385010Y-108099990D01*
X98630000Y-109765000D02*
X99379999Y-110514999D01*
X96964990Y-108099990D02*
X98630000Y-109765000D01*
X99379999Y-110514999D02*
X101695008Y-108199990D01*
X101695008Y-108199990D02*
X113534990Y-108199990D01*
X115100000Y-109765000D02*
X115849999Y-110514999D01*
X113534990Y-108199990D02*
X115100000Y-109765000D01*
X66400000Y-152700000D02*
X66400000Y-154100000D01*
X66500000Y-152600000D02*
X66400000Y-152700000D01*
X98904998Y-114800000D02*
X99900000Y-113804998D01*
X99900000Y-113804998D02*
X100649999Y-113054999D01*
X92800000Y-147150000D02*
X91664999Y-148285001D01*
X73382842Y-149200002D02*
X73100000Y-149200002D01*
X84002958Y-148032801D02*
X80104657Y-148032801D01*
X84255158Y-148285001D02*
X84002958Y-148032801D01*
X91664999Y-148285001D02*
X84255158Y-148285001D01*
X76028378Y-146554466D02*
X73382842Y-149200002D01*
X80104657Y-148032801D02*
X78626322Y-146554466D01*
X78626322Y-146554466D02*
X76028378Y-146554466D01*
X118830000Y-143240000D02*
X114911839Y-147158161D01*
X96728391Y-147158161D02*
X96445549Y-147158161D01*
X114911839Y-147158161D02*
X96728391Y-147158161D01*
X76902805Y-145064999D02*
X89614999Y-145064999D01*
X91150001Y-146600001D02*
X91350000Y-146800000D01*
X72616526Y-149709768D02*
X72416527Y-149509769D01*
X75282802Y-146285002D02*
X75682802Y-146285002D01*
X72416527Y-149509769D02*
X72416527Y-149151277D01*
X72416527Y-149151277D02*
X75282802Y-146285002D01*
X89614999Y-145064999D02*
X91150001Y-146600001D01*
X75682802Y-146285002D02*
X76902805Y-145064999D01*
X95850000Y-146350000D02*
X113180000Y-146350000D01*
X113180000Y-146350000D02*
X116290000Y-143240000D01*
D30*
G36*
X139040000Y-111340000D02*
X131250228Y-111340000D01*
X131200000Y-111330009D01*
X131149772Y-111340000D01*
X131001008Y-111369591D01*
X130832311Y-111482311D01*
X130719591Y-111651008D01*
X130680009Y-111850000D01*
X130690001Y-111900233D01*
X130690000Y-146090000D01*
X123150228Y-146090000D01*
X123100000Y-146080009D01*
X123049772Y-146090000D01*
X122901008Y-146119591D01*
X122732311Y-146232311D01*
X122619591Y-146401008D01*
X122580009Y-146600000D01*
X122590000Y-146650227D01*
X122590000Y-160768327D01*
X122400901Y-160690000D01*
X121999099Y-160690000D01*
X121627881Y-160843763D01*
X121343763Y-161127881D01*
X121190000Y-161499099D01*
X121190000Y-161900901D01*
X121343763Y-162272119D01*
X121627881Y-162556237D01*
X121999099Y-162710000D01*
X122400901Y-162710000D01*
X122590001Y-162631673D01*
X122590001Y-170768327D01*
X122400901Y-170690000D01*
X121999099Y-170690000D01*
X121627881Y-170843763D01*
X121343763Y-171127881D01*
X121190000Y-171499099D01*
X121190000Y-171900901D01*
X121343763Y-172272119D01*
X121627881Y-172556237D01*
X121999099Y-172710000D01*
X122400901Y-172710000D01*
X122590001Y-172631673D01*
X122590001Y-174640000D01*
X40560000Y-174640000D01*
X40560000Y-171888881D01*
X44090000Y-171888881D01*
X44090000Y-172211119D01*
X44213315Y-172508828D01*
X44441172Y-172736685D01*
X44738881Y-172860000D01*
X45061119Y-172860000D01*
X45358828Y-172736685D01*
X45586685Y-172508828D01*
X45710000Y-172211119D01*
X45710000Y-171888881D01*
X45790000Y-171888881D01*
X45790000Y-172211119D01*
X45913315Y-172508828D01*
X46141172Y-172736685D01*
X46438881Y-172860000D01*
X46761119Y-172860000D01*
X47058828Y-172736685D01*
X47286685Y-172508828D01*
X47410000Y-172211119D01*
X47410000Y-171888881D01*
X47286685Y-171591172D01*
X47058828Y-171363315D01*
X46761119Y-171240000D01*
X46438881Y-171240000D01*
X46141172Y-171363315D01*
X45913315Y-171591172D01*
X45790000Y-171888881D01*
X45710000Y-171888881D01*
X45586685Y-171591172D01*
X45358828Y-171363315D01*
X45061119Y-171240000D01*
X44738881Y-171240000D01*
X44441172Y-171363315D01*
X44213315Y-171591172D01*
X44090000Y-171888881D01*
X40560000Y-171888881D01*
X40560000Y-169600000D01*
X42025316Y-169600000D01*
X42123107Y-170091627D01*
X42401591Y-170508409D01*
X42818373Y-170786893D01*
X43185906Y-170860000D01*
X43434094Y-170860000D01*
X43801627Y-170786893D01*
X44218409Y-170508409D01*
X44496893Y-170091627D01*
X44581968Y-169663927D01*
X44581968Y-170450000D01*
X44613789Y-170609974D01*
X44704407Y-170745593D01*
X44840026Y-170836211D01*
X45000000Y-170868032D01*
X46700000Y-170868032D01*
X46859974Y-170836211D01*
X46995593Y-170745593D01*
X47086211Y-170609974D01*
X47118032Y-170450000D01*
X47118032Y-169438881D01*
X47340000Y-169438881D01*
X47340000Y-169761119D01*
X47463315Y-170058828D01*
X47691172Y-170286685D01*
X47904383Y-170375000D01*
X47691172Y-170463315D01*
X47463315Y-170691172D01*
X47340000Y-170988881D01*
X47340000Y-171311119D01*
X47463315Y-171608828D01*
X47691172Y-171836685D01*
X47988881Y-171960000D01*
X48311119Y-171960000D01*
X48608828Y-171836685D01*
X48836685Y-171608828D01*
X48960000Y-171311119D01*
X48960000Y-170988881D01*
X48836685Y-170691172D01*
X48608828Y-170463315D01*
X48395617Y-170375000D01*
X48608828Y-170286685D01*
X48836685Y-170058828D01*
X48960000Y-169761119D01*
X48960000Y-169438881D01*
X48836685Y-169141172D01*
X48670513Y-168975000D01*
X48886685Y-168758828D01*
X49010000Y-168461119D01*
X49010000Y-168138881D01*
X48886685Y-167841172D01*
X48658828Y-167613315D01*
X48361119Y-167490000D01*
X48038881Y-167490000D01*
X47741172Y-167613315D01*
X47513315Y-167841172D01*
X47390000Y-168138881D01*
X47390000Y-168461119D01*
X47513315Y-168758828D01*
X47679487Y-168925000D01*
X47463315Y-169141172D01*
X47340000Y-169438881D01*
X47118032Y-169438881D01*
X47118032Y-168750000D01*
X47086211Y-168590026D01*
X46995593Y-168454407D01*
X46859974Y-168363789D01*
X46700000Y-168331968D01*
X45000000Y-168331968D01*
X44840026Y-168363789D01*
X44704407Y-168454407D01*
X44613789Y-168590026D01*
X44581968Y-168750000D01*
X44581968Y-169536073D01*
X44496893Y-169108373D01*
X44218409Y-168691591D01*
X43801627Y-168413107D01*
X43434094Y-168340000D01*
X43185906Y-168340000D01*
X42818373Y-168413107D01*
X42401591Y-168691591D01*
X42123107Y-169108373D01*
X42025316Y-169600000D01*
X40560000Y-169600000D01*
X40560000Y-167060000D01*
X44565316Y-167060000D01*
X44663107Y-167551627D01*
X44941591Y-167968409D01*
X45358373Y-168246893D01*
X45725906Y-168320000D01*
X45974094Y-168320000D01*
X46341627Y-168246893D01*
X46758409Y-167968409D01*
X47036893Y-167551627D01*
X47134684Y-167060000D01*
X47036893Y-166568373D01*
X46758409Y-166151591D01*
X46710431Y-166119533D01*
X54390000Y-166119533D01*
X54390000Y-166680467D01*
X54604659Y-167198701D01*
X54890000Y-167484042D01*
X54890001Y-171815957D01*
X54604659Y-172101299D01*
X54390000Y-172619533D01*
X54390000Y-173180467D01*
X54604659Y-173698701D01*
X55001299Y-174095341D01*
X55519533Y-174310000D01*
X56080467Y-174310000D01*
X56598701Y-174095341D01*
X56995341Y-173698701D01*
X57210000Y-173180467D01*
X57210000Y-172619533D01*
X56995341Y-172101299D01*
X56710000Y-171815958D01*
X56710000Y-167484042D01*
X56995341Y-167198701D01*
X57210000Y-166680467D01*
X57210000Y-166119533D01*
X57199645Y-166094533D01*
X67565000Y-166094533D01*
X67565000Y-166655467D01*
X67779659Y-167173701D01*
X68065000Y-167459042D01*
X68065001Y-171790957D01*
X67779659Y-172076299D01*
X67565000Y-172594533D01*
X67565000Y-173155467D01*
X67779659Y-173673701D01*
X68176299Y-174070341D01*
X68694533Y-174285000D01*
X69255467Y-174285000D01*
X69773701Y-174070341D01*
X70170341Y-173673701D01*
X70385000Y-173155467D01*
X70385000Y-172594533D01*
X70170341Y-172076299D01*
X69885000Y-171790958D01*
X69885000Y-167459042D01*
X70170341Y-167173701D01*
X70385000Y-166655467D01*
X70385000Y-166099532D01*
X76172500Y-166099532D01*
X76172500Y-166660466D01*
X76387159Y-167178700D01*
X76672500Y-167464041D01*
X76672501Y-171795956D01*
X76387159Y-172081298D01*
X76172500Y-172599532D01*
X76172500Y-173160466D01*
X76387159Y-173678700D01*
X76783799Y-174075340D01*
X77302033Y-174289999D01*
X77862967Y-174289999D01*
X78381201Y-174075340D01*
X78777841Y-173678700D01*
X78992500Y-173160466D01*
X78992500Y-173080000D01*
X84565316Y-173080000D01*
X84663107Y-173571627D01*
X84941591Y-173988409D01*
X85358373Y-174266893D01*
X85725906Y-174340000D01*
X85974094Y-174340000D01*
X86341627Y-174266893D01*
X86758409Y-173988409D01*
X87036893Y-173571627D01*
X87134684Y-173080000D01*
X87036893Y-172588373D01*
X86758409Y-172171591D01*
X86341627Y-171893107D01*
X85974094Y-171820000D01*
X85725906Y-171820000D01*
X85358373Y-171893107D01*
X84941591Y-172171591D01*
X84663107Y-172588373D01*
X84565316Y-173080000D01*
X78992500Y-173080000D01*
X78992500Y-172599532D01*
X78777841Y-172081298D01*
X78492500Y-171795957D01*
X78492500Y-171300000D01*
X113531968Y-171300000D01*
X113531968Y-172100000D01*
X113563789Y-172259974D01*
X113654407Y-172395593D01*
X113790026Y-172486211D01*
X113950000Y-172518032D01*
X115450000Y-172518032D01*
X115609974Y-172486211D01*
X115745593Y-172395593D01*
X115836211Y-172259974D01*
X115868032Y-172100000D01*
X115868032Y-171499099D01*
X118690000Y-171499099D01*
X118690000Y-171900901D01*
X118843763Y-172272119D01*
X119127881Y-172556237D01*
X119499099Y-172710000D01*
X119900901Y-172710000D01*
X120272119Y-172556237D01*
X120556237Y-172272119D01*
X120710000Y-171900901D01*
X120710000Y-171499099D01*
X120556237Y-171127881D01*
X120272119Y-170843763D01*
X119900901Y-170690000D01*
X119499099Y-170690000D01*
X119127881Y-170843763D01*
X118843763Y-171127881D01*
X118690000Y-171499099D01*
X115868032Y-171499099D01*
X115868032Y-171300000D01*
X115836211Y-171140026D01*
X115745593Y-171004407D01*
X115609974Y-170913789D01*
X115450000Y-170881968D01*
X113950000Y-170881968D01*
X113790026Y-170913789D01*
X113654407Y-171004407D01*
X113563789Y-171140026D01*
X113531968Y-171300000D01*
X78492500Y-171300000D01*
X78492500Y-168000000D01*
X84565316Y-168000000D01*
X84663107Y-168491627D01*
X84941591Y-168908409D01*
X85358373Y-169186893D01*
X85725906Y-169260000D01*
X85974094Y-169260000D01*
X86341627Y-169186893D01*
X86758409Y-168908409D01*
X87036893Y-168491627D01*
X87104745Y-168150510D01*
X98432238Y-168150510D01*
X98432238Y-170149490D01*
X98464059Y-170309464D01*
X98554677Y-170445083D01*
X98690296Y-170535701D01*
X98850270Y-170567522D01*
X100849250Y-170567522D01*
X101009224Y-170535701D01*
X101144843Y-170445083D01*
X101235461Y-170309464D01*
X101267282Y-170149490D01*
X101267282Y-168150510D01*
X108434758Y-168150510D01*
X108434758Y-170149490D01*
X108466579Y-170309464D01*
X108557197Y-170445083D01*
X108692816Y-170535701D01*
X108852790Y-170567522D01*
X110851770Y-170567522D01*
X111011744Y-170535701D01*
X111147363Y-170445083D01*
X111237981Y-170309464D01*
X111269802Y-170149490D01*
X111269802Y-168800000D01*
X113531968Y-168800000D01*
X113531968Y-169600000D01*
X113563789Y-169759974D01*
X113654407Y-169895593D01*
X113790026Y-169986211D01*
X113950000Y-170018032D01*
X115450000Y-170018032D01*
X115609974Y-169986211D01*
X115745593Y-169895593D01*
X115836211Y-169759974D01*
X115868032Y-169600000D01*
X115868032Y-168800000D01*
X115836211Y-168640026D01*
X115745593Y-168504407D01*
X115609974Y-168413789D01*
X115450000Y-168381968D01*
X113950000Y-168381968D01*
X113790026Y-168413789D01*
X113654407Y-168504407D01*
X113563789Y-168640026D01*
X113531968Y-168800000D01*
X111269802Y-168800000D01*
X111269802Y-168150510D01*
X111237981Y-167990536D01*
X111147363Y-167854917D01*
X111011744Y-167764299D01*
X110851770Y-167732478D01*
X108852790Y-167732478D01*
X108692816Y-167764299D01*
X108557197Y-167854917D01*
X108466579Y-167990536D01*
X108434758Y-168150510D01*
X101267282Y-168150510D01*
X101235461Y-167990536D01*
X101144843Y-167854917D01*
X101009224Y-167764299D01*
X100849250Y-167732478D01*
X98850270Y-167732478D01*
X98690296Y-167764299D01*
X98554677Y-167854917D01*
X98464059Y-167990536D01*
X98432238Y-168150510D01*
X87104745Y-168150510D01*
X87134684Y-168000000D01*
X87036893Y-167508373D01*
X86758409Y-167091591D01*
X86341627Y-166813107D01*
X85974094Y-166740000D01*
X85725906Y-166740000D01*
X85358373Y-166813107D01*
X84941591Y-167091591D01*
X84663107Y-167508373D01*
X84565316Y-168000000D01*
X78492500Y-168000000D01*
X78492500Y-167464041D01*
X78777841Y-167178700D01*
X78992500Y-166660466D01*
X78992500Y-166099532D01*
X78777841Y-165581298D01*
X78656543Y-165460000D01*
X84565316Y-165460000D01*
X84663107Y-165951627D01*
X84941591Y-166368409D01*
X85358373Y-166646893D01*
X85725906Y-166720000D01*
X85974094Y-166720000D01*
X86341627Y-166646893D01*
X86758409Y-166368409D01*
X87036893Y-165951627D01*
X87134684Y-165460000D01*
X87036893Y-164968373D01*
X86891323Y-164750510D01*
X98382238Y-164750510D01*
X98382238Y-166749490D01*
X98414059Y-166909464D01*
X98504677Y-167045083D01*
X98640296Y-167135701D01*
X98800270Y-167167522D01*
X100799250Y-167167522D01*
X100959224Y-167135701D01*
X101094843Y-167045083D01*
X101185461Y-166909464D01*
X101217282Y-166749490D01*
X101217282Y-164750510D01*
X108384758Y-164750510D01*
X108384758Y-166749490D01*
X108416579Y-166909464D01*
X108507197Y-167045083D01*
X108642816Y-167135701D01*
X108802790Y-167167522D01*
X110801770Y-167167522D01*
X110961744Y-167135701D01*
X111097363Y-167045083D01*
X111187981Y-166909464D01*
X111219802Y-166749490D01*
X111219802Y-166499099D01*
X113690000Y-166499099D01*
X113690000Y-166900901D01*
X113843763Y-167272119D01*
X114127881Y-167556237D01*
X114499099Y-167710000D01*
X114900901Y-167710000D01*
X115272119Y-167556237D01*
X115556237Y-167272119D01*
X115710000Y-166900901D01*
X115710000Y-166499099D01*
X115556237Y-166127881D01*
X115272119Y-165843763D01*
X114900901Y-165690000D01*
X114499099Y-165690000D01*
X114127881Y-165843763D01*
X113843763Y-166127881D01*
X113690000Y-166499099D01*
X111219802Y-166499099D01*
X111219802Y-164750510D01*
X111187981Y-164590536D01*
X111097363Y-164454917D01*
X110961744Y-164364299D01*
X110801770Y-164332478D01*
X108802790Y-164332478D01*
X108642816Y-164364299D01*
X108507197Y-164454917D01*
X108416579Y-164590536D01*
X108384758Y-164750510D01*
X101217282Y-164750510D01*
X101185461Y-164590536D01*
X101094843Y-164454917D01*
X100959224Y-164364299D01*
X100799250Y-164332478D01*
X98800270Y-164332478D01*
X98640296Y-164364299D01*
X98504677Y-164454917D01*
X98414059Y-164590536D01*
X98382238Y-164750510D01*
X86891323Y-164750510D01*
X86758409Y-164551591D01*
X86341627Y-164273107D01*
X85974094Y-164200000D01*
X85725906Y-164200000D01*
X85358373Y-164273107D01*
X84941591Y-164551591D01*
X84663107Y-164968373D01*
X84565316Y-165460000D01*
X78656543Y-165460000D01*
X78381201Y-165184658D01*
X77862967Y-164969999D01*
X77302033Y-164969999D01*
X76783799Y-165184658D01*
X76387159Y-165581298D01*
X76172500Y-166099532D01*
X70385000Y-166099532D01*
X70385000Y-166094533D01*
X70170341Y-165576299D01*
X69773701Y-165179659D01*
X69255467Y-164965000D01*
X68694533Y-164965000D01*
X68176299Y-165179659D01*
X67779659Y-165576299D01*
X67565000Y-166094533D01*
X57199645Y-166094533D01*
X56995341Y-165601299D01*
X56598701Y-165204659D01*
X56080467Y-164990000D01*
X55519533Y-164990000D01*
X55001299Y-165204659D01*
X54604659Y-165601299D01*
X54390000Y-166119533D01*
X46710431Y-166119533D01*
X46341627Y-165873107D01*
X45974094Y-165800000D01*
X45725906Y-165800000D01*
X45358373Y-165873107D01*
X44941591Y-166151591D01*
X44663107Y-166568373D01*
X44565316Y-167060000D01*
X40560000Y-167060000D01*
X40560000Y-164520000D01*
X44565316Y-164520000D01*
X44663107Y-165011627D01*
X44941591Y-165428409D01*
X45358373Y-165706893D01*
X45725906Y-165780000D01*
X45974094Y-165780000D01*
X46341627Y-165706893D01*
X46758409Y-165428409D01*
X47036893Y-165011627D01*
X47134684Y-164520000D01*
X47036893Y-164028373D01*
X46758409Y-163611591D01*
X46341627Y-163333107D01*
X45974094Y-163260000D01*
X45725906Y-163260000D01*
X45358373Y-163333107D01*
X44941591Y-163611591D01*
X44663107Y-164028373D01*
X44565316Y-164520000D01*
X40560000Y-164520000D01*
X40560000Y-161980000D01*
X44565316Y-161980000D01*
X44663107Y-162471627D01*
X44941591Y-162888409D01*
X45358373Y-163166893D01*
X45725906Y-163240000D01*
X45974094Y-163240000D01*
X46341627Y-163166893D01*
X46758409Y-162888409D01*
X46966432Y-162577079D01*
X51795939Y-162577079D01*
X51795939Y-162819753D01*
X51888806Y-163043953D01*
X52060402Y-163215549D01*
X52284602Y-163308416D01*
X52527276Y-163308416D01*
X52751476Y-163215549D01*
X52923072Y-163043953D01*
X52996737Y-162866111D01*
X53035713Y-162840068D01*
X53153959Y-162663102D01*
X53178667Y-162538881D01*
X53890000Y-162538881D01*
X53890000Y-162861119D01*
X54013315Y-163158828D01*
X54241172Y-163386685D01*
X54538881Y-163510000D01*
X54861119Y-163510000D01*
X55158828Y-163386685D01*
X55185513Y-163360000D01*
X57635002Y-163360000D01*
X57700000Y-163372929D01*
X57764998Y-163360000D01*
X57765003Y-163360000D01*
X57957519Y-163321706D01*
X58081475Y-163238881D01*
X64890000Y-163238881D01*
X64890000Y-163561119D01*
X65013315Y-163858828D01*
X65241172Y-164086685D01*
X65538881Y-164210000D01*
X65861119Y-164210000D01*
X66158828Y-164086685D01*
X66386685Y-163858828D01*
X66510000Y-163561119D01*
X66510000Y-163238881D01*
X66386685Y-162941172D01*
X66158828Y-162713315D01*
X65861119Y-162590000D01*
X65538881Y-162590000D01*
X65241172Y-162713315D01*
X65013315Y-162941172D01*
X64890000Y-163238881D01*
X58081475Y-163238881D01*
X58175833Y-163175833D01*
X58212655Y-163120725D01*
X58623381Y-162710000D01*
X58661119Y-162710000D01*
X58958828Y-162586685D01*
X59186685Y-162358828D01*
X59310000Y-162061119D01*
X59310000Y-161738881D01*
X59186685Y-161441172D01*
X58958828Y-161213315D01*
X58661119Y-161090000D01*
X58338881Y-161090000D01*
X58041172Y-161213315D01*
X57813315Y-161441172D01*
X57690000Y-161738881D01*
X57690000Y-161776619D01*
X57426620Y-162040000D01*
X55185513Y-162040000D01*
X55158828Y-162013315D01*
X54861119Y-161890000D01*
X54538881Y-161890000D01*
X54241172Y-162013315D01*
X54013315Y-162241172D01*
X53890000Y-162538881D01*
X53178667Y-162538881D01*
X53185000Y-162507047D01*
X53185000Y-162507044D01*
X53195480Y-162454356D01*
X53185000Y-162401668D01*
X53185000Y-160788881D01*
X53240000Y-160788881D01*
X53240000Y-161111119D01*
X53363315Y-161408828D01*
X53591172Y-161636685D01*
X53888881Y-161760000D01*
X54211119Y-161760000D01*
X54508828Y-161636685D01*
X54736685Y-161408828D01*
X54860000Y-161111119D01*
X54860000Y-160788881D01*
X54736685Y-160491172D01*
X54508828Y-160263315D01*
X54211119Y-160140000D01*
X53888881Y-160140000D01*
X53591172Y-160263315D01*
X53363315Y-160491172D01*
X53240000Y-160788881D01*
X53185000Y-160788881D01*
X53185000Y-158838881D01*
X53190000Y-158838881D01*
X53190000Y-159161119D01*
X53313315Y-159458828D01*
X53541172Y-159686685D01*
X53838881Y-159810000D01*
X54161119Y-159810000D01*
X54458828Y-159686685D01*
X54686685Y-159458828D01*
X54810000Y-159161119D01*
X54810000Y-158838881D01*
X54686685Y-158541172D01*
X54660000Y-158514487D01*
X54660000Y-156585513D01*
X54786685Y-156458828D01*
X54910000Y-156161119D01*
X54910000Y-155838881D01*
X54786685Y-155541172D01*
X54558828Y-155313315D01*
X54261119Y-155190000D01*
X53938881Y-155190000D01*
X53641172Y-155313315D01*
X53413315Y-155541172D01*
X53290000Y-155838881D01*
X53290000Y-156161119D01*
X53340001Y-156281832D01*
X53340000Y-158514487D01*
X53313315Y-158541172D01*
X53190000Y-158838881D01*
X53185000Y-158838881D01*
X53185000Y-156752402D01*
X53260000Y-156571337D01*
X53260000Y-156328663D01*
X53167133Y-156104463D01*
X52995537Y-155932867D01*
X52771337Y-155840000D01*
X52528663Y-155840000D01*
X52304463Y-155932867D01*
X52132867Y-156104463D01*
X52040000Y-156328663D01*
X52040000Y-156571337D01*
X52115000Y-156752403D01*
X52115001Y-162158667D01*
X52060402Y-162181283D01*
X51888806Y-162352879D01*
X51795939Y-162577079D01*
X46966432Y-162577079D01*
X47036893Y-162471627D01*
X47134684Y-161980000D01*
X47036893Y-161488373D01*
X46758409Y-161071591D01*
X46341627Y-160793107D01*
X45974094Y-160720000D01*
X45725906Y-160720000D01*
X45358373Y-160793107D01*
X44941591Y-161071591D01*
X44663107Y-161488373D01*
X44565316Y-161980000D01*
X40560000Y-161980000D01*
X40560000Y-159440000D01*
X44565316Y-159440000D01*
X44663107Y-159931627D01*
X44941591Y-160348409D01*
X45358373Y-160626893D01*
X45725906Y-160700000D01*
X45974094Y-160700000D01*
X46341627Y-160626893D01*
X46758409Y-160348409D01*
X47036893Y-159931627D01*
X47134684Y-159440000D01*
X47036893Y-158948373D01*
X46758409Y-158531591D01*
X46341627Y-158253107D01*
X45974094Y-158180000D01*
X45725906Y-158180000D01*
X45358373Y-158253107D01*
X44941591Y-158531591D01*
X44663107Y-158948373D01*
X44565316Y-159440000D01*
X40560000Y-159440000D01*
X40560000Y-156900000D01*
X44565316Y-156900000D01*
X44663107Y-157391627D01*
X44941591Y-157808409D01*
X45358373Y-158086893D01*
X45725906Y-158160000D01*
X45974094Y-158160000D01*
X46341627Y-158086893D01*
X46758409Y-157808409D01*
X47036893Y-157391627D01*
X47134684Y-156900000D01*
X47036893Y-156408373D01*
X46758409Y-155991591D01*
X46341627Y-155713107D01*
X45974094Y-155640000D01*
X45725906Y-155640000D01*
X45358373Y-155713107D01*
X44941591Y-155991591D01*
X44663107Y-156408373D01*
X44565316Y-156900000D01*
X40560000Y-156900000D01*
X40560000Y-154360000D01*
X44565316Y-154360000D01*
X44663107Y-154851627D01*
X44941591Y-155268409D01*
X45358373Y-155546893D01*
X45725906Y-155620000D01*
X45974094Y-155620000D01*
X46341627Y-155546893D01*
X46758409Y-155268409D01*
X47036893Y-154851627D01*
X47134684Y-154360000D01*
X47058832Y-153978663D01*
X65790000Y-153978663D01*
X65790000Y-154221337D01*
X65882867Y-154445537D01*
X66054463Y-154617133D01*
X66278663Y-154710000D01*
X66521337Y-154710000D01*
X66745537Y-154617133D01*
X66917133Y-154445537D01*
X67010000Y-154221337D01*
X67010000Y-153978663D01*
X66935000Y-153797598D01*
X66935000Y-153027670D01*
X67017133Y-152945537D01*
X67110000Y-152721337D01*
X67110000Y-152478663D01*
X67017133Y-152254463D01*
X66845537Y-152082867D01*
X66621337Y-151990000D01*
X66378663Y-151990000D01*
X66154463Y-152082867D01*
X65982867Y-152254463D01*
X65890000Y-152478663D01*
X65890000Y-152521624D01*
X65865000Y-152647309D01*
X65865000Y-152647312D01*
X65854520Y-152700000D01*
X65865000Y-152752688D01*
X65865001Y-153797596D01*
X65790000Y-153978663D01*
X47058832Y-153978663D01*
X47036893Y-153868373D01*
X46758409Y-153451591D01*
X46341627Y-153173107D01*
X45974094Y-153100000D01*
X45725906Y-153100000D01*
X45358373Y-153173107D01*
X44941591Y-153451591D01*
X44663107Y-153868373D01*
X44565316Y-154360000D01*
X40560000Y-154360000D01*
X40560000Y-151820000D01*
X44565316Y-151820000D01*
X44663107Y-152311627D01*
X44941591Y-152728409D01*
X45358373Y-153006893D01*
X45725906Y-153080000D01*
X45974094Y-153080000D01*
X46341627Y-153006893D01*
X46758409Y-152728409D01*
X47036893Y-152311627D01*
X47134684Y-151820000D01*
X47036893Y-151328373D01*
X46758409Y-150911591D01*
X46341627Y-150633107D01*
X45974094Y-150560000D01*
X45725906Y-150560000D01*
X45358373Y-150633107D01*
X44941591Y-150911591D01*
X44663107Y-151328373D01*
X44565316Y-151820000D01*
X40560000Y-151820000D01*
X40560000Y-149280000D01*
X44565316Y-149280000D01*
X44663107Y-149771627D01*
X44941591Y-150188409D01*
X45358373Y-150466893D01*
X45725906Y-150540000D01*
X45974094Y-150540000D01*
X46341627Y-150466893D01*
X46758409Y-150188409D01*
X47036893Y-149771627D01*
X47134684Y-149280000D01*
X47036893Y-148788373D01*
X46758409Y-148371591D01*
X46341627Y-148093107D01*
X45974094Y-148020000D01*
X45725906Y-148020000D01*
X45358373Y-148093107D01*
X44941591Y-148371591D01*
X44663107Y-148788373D01*
X44565316Y-149280000D01*
X40560000Y-149280000D01*
X40560000Y-146740000D01*
X44565316Y-146740000D01*
X44663107Y-147231627D01*
X44941591Y-147648409D01*
X45358373Y-147926893D01*
X45725906Y-148000000D01*
X45974094Y-148000000D01*
X46341627Y-147926893D01*
X46758409Y-147648409D01*
X47036893Y-147231627D01*
X47134684Y-146740000D01*
X47036893Y-146248373D01*
X46758409Y-145831591D01*
X46341627Y-145553107D01*
X45974094Y-145480000D01*
X45725906Y-145480000D01*
X45358373Y-145553107D01*
X44941591Y-145831591D01*
X44663107Y-146248373D01*
X44565316Y-146740000D01*
X40560000Y-146740000D01*
X40560000Y-141378663D01*
X48440000Y-141378663D01*
X48440000Y-141621337D01*
X48532867Y-141845537D01*
X48704463Y-142017133D01*
X48885531Y-142092134D01*
X56365001Y-149571605D01*
X56365000Y-150047597D01*
X56290000Y-150228663D01*
X56290000Y-150471337D01*
X56382867Y-150695537D01*
X56554463Y-150867133D01*
X56778663Y-150960000D01*
X57021337Y-150960000D01*
X57245537Y-150867133D01*
X57417133Y-150695537D01*
X57510000Y-150471337D01*
X57510000Y-150228663D01*
X57435000Y-150047598D01*
X57435000Y-149402687D01*
X57445480Y-149349999D01*
X57435000Y-149297311D01*
X57435000Y-149297308D01*
X57403959Y-149141253D01*
X57285713Y-148964287D01*
X57241044Y-148934440D01*
X50306604Y-142000000D01*
X63122173Y-142000000D01*
X63192800Y-142355064D01*
X63393927Y-142656073D01*
X63694936Y-142857200D01*
X63960378Y-142910000D01*
X64823067Y-142910000D01*
X66340000Y-144426934D01*
X66340001Y-146610374D01*
X66322173Y-146700000D01*
X66392800Y-147055063D01*
X66426778Y-147105915D01*
X66593928Y-147356073D01*
X66669908Y-147406841D01*
X67043157Y-147780090D01*
X67093927Y-147856073D01*
X67362777Y-148035712D01*
X67394936Y-148057200D01*
X67738633Y-148125566D01*
X71319905Y-151706839D01*
X71544936Y-151857200D01*
X71584144Y-151864999D01*
X68671603Y-151864999D01*
X68542134Y-151735530D01*
X68467133Y-151554463D01*
X68295537Y-151382867D01*
X68071337Y-151290000D01*
X67828663Y-151290000D01*
X67604463Y-151382867D01*
X67432867Y-151554463D01*
X67340000Y-151778663D01*
X67340000Y-152021337D01*
X67432867Y-152245537D01*
X67604463Y-152417133D01*
X67785530Y-152492134D01*
X68034438Y-152741042D01*
X68064286Y-152785712D01*
X68241252Y-152903958D01*
X68397307Y-152934999D01*
X68397311Y-152934999D01*
X68449998Y-152945479D01*
X68502685Y-152934999D01*
X71458399Y-152934999D01*
X69608956Y-154784443D01*
X69585531Y-154807868D01*
X69404463Y-154882869D01*
X69232867Y-155054465D01*
X69140000Y-155278665D01*
X69140000Y-155521339D01*
X69232867Y-155745539D01*
X69404463Y-155917135D01*
X69628663Y-156010002D01*
X69871337Y-156010002D01*
X70095537Y-155917135D01*
X70119679Y-155892993D01*
X70182865Y-156045537D01*
X70354461Y-156217133D01*
X70535529Y-156292134D01*
X72233393Y-157990000D01*
X68576935Y-157990000D01*
X66980094Y-156393161D01*
X66755063Y-156242800D01*
X66400000Y-156172173D01*
X66044937Y-156242800D01*
X65743928Y-156443928D01*
X65542800Y-156744937D01*
X65517361Y-156872825D01*
X65490000Y-156938881D01*
X65490000Y-157010378D01*
X65472173Y-157100000D01*
X65490000Y-157189622D01*
X65490000Y-157261119D01*
X65517361Y-157327175D01*
X65542800Y-157455063D01*
X65693161Y-157680094D01*
X67493161Y-159480096D01*
X67543927Y-159556073D01*
X67844936Y-159757200D01*
X68110378Y-159810000D01*
X68199999Y-159827827D01*
X68289620Y-159810000D01*
X70427330Y-159810000D01*
X70332867Y-159904463D01*
X70240000Y-160128663D01*
X70240000Y-160371337D01*
X70332867Y-160595537D01*
X70504463Y-160767133D01*
X70685531Y-160842134D01*
X73007969Y-163164573D01*
X72940000Y-163328663D01*
X72940000Y-163571337D01*
X73032867Y-163795537D01*
X73204463Y-163967133D01*
X73428663Y-164060000D01*
X73671337Y-164060000D01*
X73895537Y-163967133D01*
X74067133Y-163795537D01*
X74160000Y-163571337D01*
X74160000Y-163538881D01*
X74590000Y-163538881D01*
X74590000Y-163861119D01*
X74713315Y-164158828D01*
X74941172Y-164386685D01*
X75238881Y-164510000D01*
X75561119Y-164510000D01*
X75858828Y-164386685D01*
X76086685Y-164158828D01*
X76210000Y-163861119D01*
X76210000Y-163538881D01*
X76086685Y-163241172D01*
X75858828Y-163013315D01*
X75633546Y-162920000D01*
X84565316Y-162920000D01*
X84663107Y-163411627D01*
X84941591Y-163828409D01*
X85358373Y-164106893D01*
X85725906Y-164180000D01*
X85974094Y-164180000D01*
X86341627Y-164106893D01*
X86758409Y-163828409D01*
X87036893Y-163411627D01*
X87134684Y-162920000D01*
X87036893Y-162428373D01*
X86758409Y-162011591D01*
X86341627Y-161733107D01*
X85974094Y-161660000D01*
X85725906Y-161660000D01*
X85358373Y-161733107D01*
X84941591Y-162011591D01*
X84663107Y-162428373D01*
X84565316Y-162920000D01*
X75633546Y-162920000D01*
X75561119Y-162890000D01*
X75238881Y-162890000D01*
X74941172Y-163013315D01*
X74713315Y-163241172D01*
X74590000Y-163538881D01*
X74160000Y-163538881D01*
X74160000Y-163328663D01*
X74085000Y-163147598D01*
X74085000Y-163002688D01*
X74095480Y-162950000D01*
X74085000Y-162897312D01*
X74085000Y-162897308D01*
X74053959Y-162741253D01*
X73935713Y-162564287D01*
X73891044Y-162534440D01*
X71442134Y-160085531D01*
X71367133Y-159904463D01*
X71272670Y-159810000D01*
X73639622Y-159810000D01*
X73905064Y-159757200D01*
X74206073Y-159556073D01*
X74407200Y-159255064D01*
X74477827Y-158900000D01*
X74407200Y-158544936D01*
X74348439Y-158456993D01*
X83170390Y-158456993D01*
X84652930Y-159939535D01*
X84565316Y-160380000D01*
X84663107Y-160871627D01*
X84941591Y-161288409D01*
X85358373Y-161566893D01*
X85725906Y-161640000D01*
X85974094Y-161640000D01*
X86341627Y-161566893D01*
X86758409Y-161288409D01*
X87036893Y-160871627D01*
X87134684Y-160380000D01*
X87079341Y-160101770D01*
X91382478Y-160101770D01*
X91382478Y-162100750D01*
X91414299Y-162260724D01*
X91504917Y-162396343D01*
X91640536Y-162486961D01*
X91800510Y-162518782D01*
X93799490Y-162518782D01*
X93959464Y-162486961D01*
X94095083Y-162396343D01*
X94185701Y-162260724D01*
X94217522Y-162100750D01*
X94217522Y-161300000D01*
X113531968Y-161300000D01*
X113531968Y-162100000D01*
X113563789Y-162259974D01*
X113654407Y-162395593D01*
X113790026Y-162486211D01*
X113950000Y-162518032D01*
X115450000Y-162518032D01*
X115609974Y-162486211D01*
X115745593Y-162395593D01*
X115836211Y-162259974D01*
X115868032Y-162100000D01*
X115868032Y-161499099D01*
X118690000Y-161499099D01*
X118690000Y-161900901D01*
X118843763Y-162272119D01*
X119127881Y-162556237D01*
X119499099Y-162710000D01*
X119900901Y-162710000D01*
X120272119Y-162556237D01*
X120556237Y-162272119D01*
X120710000Y-161900901D01*
X120710000Y-161499099D01*
X120556237Y-161127881D01*
X120272119Y-160843763D01*
X119900901Y-160690000D01*
X119499099Y-160690000D01*
X119127881Y-160843763D01*
X118843763Y-161127881D01*
X118690000Y-161499099D01*
X115868032Y-161499099D01*
X115868032Y-161300000D01*
X115836211Y-161140026D01*
X115745593Y-161004407D01*
X115609974Y-160913789D01*
X115450000Y-160881968D01*
X113950000Y-160881968D01*
X113790026Y-160913789D01*
X113654407Y-161004407D01*
X113563789Y-161140026D01*
X113531968Y-161300000D01*
X94217522Y-161300000D01*
X94217522Y-160101770D01*
X94185701Y-159941796D01*
X94095083Y-159806177D01*
X93959464Y-159715559D01*
X93799490Y-159683738D01*
X91800510Y-159683738D01*
X91640536Y-159715559D01*
X91504917Y-159806177D01*
X91414299Y-159941796D01*
X91382478Y-160101770D01*
X87079341Y-160101770D01*
X87036893Y-159888373D01*
X86758409Y-159471591D01*
X86341627Y-159193107D01*
X85974094Y-159120000D01*
X85725906Y-159120000D01*
X85409535Y-159182930D01*
X84996605Y-158770000D01*
X97446295Y-158770000D01*
X97540205Y-159242118D01*
X97807639Y-159642361D01*
X98207882Y-159909795D01*
X98560827Y-159980000D01*
X98799173Y-159980000D01*
X99152118Y-159909795D01*
X99552361Y-159642361D01*
X99819795Y-159242118D01*
X99913705Y-158770000D01*
X99986295Y-158770000D01*
X100080205Y-159242118D01*
X100347639Y-159642361D01*
X100747882Y-159909795D01*
X101100827Y-159980000D01*
X101339173Y-159980000D01*
X101692118Y-159909795D01*
X102092361Y-159642361D01*
X102359795Y-159242118D01*
X102453705Y-158770000D01*
X102359795Y-158297882D01*
X102092361Y-157897639D01*
X101692118Y-157630205D01*
X101339173Y-157560000D01*
X101100827Y-157560000D01*
X100747882Y-157630205D01*
X100347639Y-157897639D01*
X100080205Y-158297882D01*
X99986295Y-158770000D01*
X99913705Y-158770000D01*
X99819795Y-158297882D01*
X99552361Y-157897639D01*
X99152118Y-157630205D01*
X98799173Y-157560000D01*
X98560827Y-157560000D01*
X98207882Y-157630205D01*
X97807639Y-157897639D01*
X97540205Y-158297882D01*
X97446295Y-158770000D01*
X84996605Y-158770000D01*
X83807555Y-157580952D01*
X83777706Y-157536280D01*
X83600740Y-157418034D01*
X83444685Y-157386993D01*
X83444681Y-157386993D01*
X83391993Y-157376513D01*
X83339305Y-157386993D01*
X73143596Y-157386993D01*
X71292132Y-155535531D01*
X71217131Y-155354463D01*
X71045535Y-155182867D01*
X70821335Y-155090000D01*
X70816605Y-155090000D01*
X71456605Y-154450000D01*
X84581968Y-154450000D01*
X84581968Y-156150000D01*
X84613789Y-156309974D01*
X84704407Y-156445593D01*
X84840026Y-156536211D01*
X85000000Y-156568032D01*
X86700000Y-156568032D01*
X86859974Y-156536211D01*
X86995593Y-156445593D01*
X87086211Y-156309974D01*
X87118032Y-156150000D01*
X87118032Y-154450000D01*
X87086211Y-154290026D01*
X86995593Y-154154407D01*
X86859974Y-154063789D01*
X86700000Y-154031968D01*
X85000000Y-154031968D01*
X84840026Y-154063789D01*
X84704407Y-154154407D01*
X84613789Y-154290026D01*
X84581968Y-154450000D01*
X71456605Y-154450000D01*
X72246606Y-153660000D01*
X74847598Y-153660000D01*
X75028663Y-153735000D01*
X75271337Y-153735000D01*
X75495537Y-153642133D01*
X75667133Y-153470537D01*
X75760000Y-153246337D01*
X75760000Y-153003663D01*
X75731558Y-152934999D01*
X93997313Y-152934999D01*
X94050001Y-152945479D01*
X94102689Y-152934999D01*
X94102693Y-152934999D01*
X94258748Y-152903958D01*
X94435714Y-152785712D01*
X94465563Y-152741040D01*
X95164470Y-152042133D01*
X95345537Y-151967133D01*
X95517133Y-151795537D01*
X95610000Y-151571337D01*
X95610000Y-151376603D01*
X102605451Y-158372056D01*
X102526295Y-158770000D01*
X102620205Y-159242118D01*
X102887639Y-159642361D01*
X103287882Y-159909795D01*
X103640827Y-159980000D01*
X103879173Y-159980000D01*
X104232118Y-159909795D01*
X104632361Y-159642361D01*
X104899795Y-159242118D01*
X104993705Y-158770000D01*
X105066295Y-158770000D01*
X105160205Y-159242118D01*
X105427639Y-159642361D01*
X105827882Y-159909795D01*
X106180827Y-159980000D01*
X106419173Y-159980000D01*
X106772118Y-159909795D01*
X107172361Y-159642361D01*
X107439795Y-159242118D01*
X107533705Y-158770000D01*
X107439795Y-158297882D01*
X107172361Y-157897639D01*
X106772118Y-157630205D01*
X106419173Y-157560000D01*
X106180827Y-157560000D01*
X105827882Y-157630205D01*
X105427639Y-157897639D01*
X105160205Y-158297882D01*
X105066295Y-158770000D01*
X104993705Y-158770000D01*
X104899795Y-158297882D01*
X104632361Y-157897639D01*
X104232118Y-157630205D01*
X103879173Y-157560000D01*
X103640827Y-157560000D01*
X103362056Y-157615451D01*
X102571834Y-156825229D01*
X113020000Y-156825229D01*
X113020000Y-157274771D01*
X113192032Y-157690094D01*
X113509906Y-158007968D01*
X113925229Y-158180000D01*
X114374771Y-158180000D01*
X114790094Y-158007968D01*
X115107968Y-157690094D01*
X115280000Y-157274771D01*
X115280000Y-156825229D01*
X115107968Y-156409906D01*
X114790094Y-156092032D01*
X114374771Y-155920000D01*
X113925229Y-155920000D01*
X113509906Y-156092032D01*
X113192032Y-156409906D01*
X113020000Y-156825229D01*
X102571834Y-156825229D01*
X99185485Y-153438881D01*
X108290000Y-153438881D01*
X108290000Y-153761119D01*
X108413315Y-154058828D01*
X108641172Y-154286685D01*
X108938881Y-154410000D01*
X109261119Y-154410000D01*
X109558828Y-154286685D01*
X109560284Y-154285229D01*
X113020000Y-154285229D01*
X113020000Y-154734771D01*
X113192032Y-155150094D01*
X113509906Y-155467968D01*
X113925229Y-155640000D01*
X114374771Y-155640000D01*
X114790094Y-155467968D01*
X115107968Y-155150094D01*
X115280000Y-154734771D01*
X115280000Y-154285229D01*
X115107968Y-153869906D01*
X114790094Y-153552032D01*
X114374771Y-153380000D01*
X113925229Y-153380000D01*
X113509906Y-153552032D01*
X113192032Y-153869906D01*
X113020000Y-154285229D01*
X109560284Y-154285229D01*
X109786685Y-154058828D01*
X109910000Y-153761119D01*
X109910000Y-153438881D01*
X109786685Y-153141172D01*
X109558828Y-152913315D01*
X109261119Y-152790000D01*
X108938881Y-152790000D01*
X108641172Y-152913315D01*
X108413315Y-153141172D01*
X108290000Y-153438881D01*
X99185485Y-153438881D01*
X95371592Y-149624989D01*
X96398386Y-149624989D01*
X97525451Y-150752055D01*
X97446295Y-151150000D01*
X97540205Y-151622118D01*
X97807639Y-152022361D01*
X98207882Y-152289795D01*
X98560827Y-152360000D01*
X98799173Y-152360000D01*
X99152118Y-152289795D01*
X99552361Y-152022361D01*
X99819795Y-151622118D01*
X99913705Y-151150000D01*
X99986295Y-151150000D01*
X100080205Y-151622118D01*
X100347639Y-152022361D01*
X100747882Y-152289795D01*
X101100827Y-152360000D01*
X101339173Y-152360000D01*
X101692118Y-152289795D01*
X102092361Y-152022361D01*
X102359795Y-151622118D01*
X102453705Y-151150000D01*
X102359795Y-150677882D01*
X102140712Y-150350000D01*
X105081968Y-150350000D01*
X105081968Y-151950000D01*
X105113789Y-152109974D01*
X105204407Y-152245593D01*
X105340026Y-152336211D01*
X105500000Y-152368032D01*
X107100000Y-152368032D01*
X107259974Y-152336211D01*
X107395593Y-152245593D01*
X107486211Y-152109974D01*
X107518032Y-151950000D01*
X107518032Y-151745229D01*
X113020000Y-151745229D01*
X113020000Y-152194771D01*
X113192032Y-152610094D01*
X113509906Y-152927968D01*
X113925229Y-153100000D01*
X114374771Y-153100000D01*
X114790094Y-152927968D01*
X115107968Y-152610094D01*
X115280000Y-152194771D01*
X115280000Y-151745229D01*
X115107968Y-151329906D01*
X114790094Y-151012032D01*
X114374771Y-150840000D01*
X113925229Y-150840000D01*
X113509906Y-151012032D01*
X113192032Y-151329906D01*
X113020000Y-151745229D01*
X107518032Y-151745229D01*
X107518032Y-150350000D01*
X107486211Y-150190026D01*
X107395593Y-150054407D01*
X107259974Y-149963789D01*
X107100000Y-149931968D01*
X105500000Y-149931968D01*
X105340026Y-149963789D01*
X105204407Y-150054407D01*
X105113789Y-150190026D01*
X105081968Y-150350000D01*
X102140712Y-150350000D01*
X102092361Y-150277639D01*
X101692118Y-150010205D01*
X101339173Y-149940000D01*
X101100827Y-149940000D01*
X100747882Y-150010205D01*
X100347639Y-150277639D01*
X100080205Y-150677882D01*
X99986295Y-151150000D01*
X99913705Y-151150000D01*
X99819795Y-150677882D01*
X99552361Y-150277639D01*
X99152118Y-150010205D01*
X98799173Y-149940000D01*
X98560827Y-149940000D01*
X98282055Y-149995451D01*
X97035551Y-148748948D01*
X97005702Y-148704276D01*
X96828736Y-148586030D01*
X96672681Y-148554989D01*
X96672677Y-148554989D01*
X96619989Y-148544509D01*
X96567301Y-148554989D01*
X96188660Y-148554989D01*
X96252066Y-148460095D01*
X96322693Y-148105031D01*
X96252066Y-147749968D01*
X96241265Y-147733803D01*
X96324212Y-147768161D01*
X96566886Y-147768161D01*
X96747951Y-147693161D01*
X105600359Y-147693161D01*
X105540000Y-147838881D01*
X105540000Y-148161119D01*
X105663315Y-148458828D01*
X105891172Y-148686685D01*
X106188881Y-148810000D01*
X106511119Y-148810000D01*
X106808828Y-148686685D01*
X107036685Y-148458828D01*
X107160000Y-148161119D01*
X107160000Y-147838881D01*
X107099641Y-147693161D01*
X114859151Y-147693161D01*
X114911839Y-147703641D01*
X114964527Y-147693161D01*
X114964531Y-147693161D01*
X115120586Y-147662120D01*
X115297552Y-147543874D01*
X115327401Y-147499202D01*
X118389534Y-144437070D01*
X118705906Y-144500000D01*
X118954094Y-144500000D01*
X119321627Y-144426893D01*
X119738409Y-144148409D01*
X120016893Y-143731627D01*
X120100000Y-143313821D01*
X120183107Y-143731627D01*
X120461591Y-144148409D01*
X120878373Y-144426893D01*
X121245906Y-144500000D01*
X121494094Y-144500000D01*
X121861627Y-144426893D01*
X122278409Y-144148409D01*
X122556893Y-143731627D01*
X122640000Y-143313821D01*
X122723107Y-143731627D01*
X123001591Y-144148409D01*
X123418373Y-144426893D01*
X123785906Y-144500000D01*
X124034094Y-144500000D01*
X124401627Y-144426893D01*
X124818409Y-144148409D01*
X125096893Y-143731627D01*
X125194684Y-143240000D01*
X125096893Y-142748373D01*
X124857437Y-142390000D01*
X127721968Y-142390000D01*
X127721968Y-144090000D01*
X127753789Y-144249974D01*
X127844407Y-144385593D01*
X127980026Y-144476211D01*
X128140000Y-144508032D01*
X129840000Y-144508032D01*
X129999974Y-144476211D01*
X130135593Y-144385593D01*
X130226211Y-144249974D01*
X130258032Y-144090000D01*
X130258032Y-142390000D01*
X130226211Y-142230026D01*
X130135593Y-142094407D01*
X129999974Y-142003789D01*
X129840000Y-141971968D01*
X128140000Y-141971968D01*
X127980026Y-142003789D01*
X127844407Y-142094407D01*
X127753789Y-142230026D01*
X127721968Y-142390000D01*
X124857437Y-142390000D01*
X124818409Y-142331591D01*
X124401627Y-142053107D01*
X124034094Y-141980000D01*
X123785906Y-141980000D01*
X123418373Y-142053107D01*
X123001591Y-142331591D01*
X122723107Y-142748373D01*
X122640000Y-143166179D01*
X122556893Y-142748373D01*
X122278409Y-142331591D01*
X121861627Y-142053107D01*
X121494094Y-141980000D01*
X121245906Y-141980000D01*
X120878373Y-142053107D01*
X120461591Y-142331591D01*
X120183107Y-142748373D01*
X120100000Y-143166179D01*
X120016893Y-142748373D01*
X119738409Y-142331591D01*
X119321627Y-142053107D01*
X118954094Y-141980000D01*
X118705906Y-141980000D01*
X118338373Y-142053107D01*
X117921591Y-142331591D01*
X117643107Y-142748373D01*
X117560000Y-143166179D01*
X117476893Y-142748373D01*
X117198409Y-142331591D01*
X116781627Y-142053107D01*
X116414094Y-141980000D01*
X116165906Y-141980000D01*
X115798373Y-142053107D01*
X115381591Y-142331591D01*
X115103107Y-142748373D01*
X115020000Y-143166179D01*
X114936893Y-142748373D01*
X114658409Y-142331591D01*
X114241627Y-142053107D01*
X113874094Y-141980000D01*
X113625906Y-141980000D01*
X113258373Y-142053107D01*
X112841591Y-142331591D01*
X112563107Y-142748373D01*
X112480000Y-143166179D01*
X112396893Y-142748373D01*
X112118409Y-142331591D01*
X111701627Y-142053107D01*
X111334094Y-141980000D01*
X111085906Y-141980000D01*
X110718373Y-142053107D01*
X110301591Y-142331591D01*
X110023107Y-142748373D01*
X109940000Y-143166179D01*
X109856893Y-142748373D01*
X109578409Y-142331591D01*
X109161627Y-142053107D01*
X108794094Y-141980000D01*
X108545906Y-141980000D01*
X108178373Y-142053107D01*
X107761591Y-142331591D01*
X107483107Y-142748373D01*
X107400000Y-143166179D01*
X107316893Y-142748373D01*
X107038409Y-142331591D01*
X106621627Y-142053107D01*
X106254094Y-141980000D01*
X106005906Y-141980000D01*
X105638373Y-142053107D01*
X105221591Y-142331591D01*
X104943107Y-142748373D01*
X104845316Y-143240000D01*
X104943107Y-143731627D01*
X105221591Y-144148409D01*
X105638373Y-144426893D01*
X106005906Y-144500000D01*
X106254094Y-144500000D01*
X106621627Y-144426893D01*
X107038409Y-144148409D01*
X107316893Y-143731627D01*
X107400000Y-143313821D01*
X107483107Y-143731627D01*
X107761591Y-144148409D01*
X108178373Y-144426893D01*
X108545906Y-144500000D01*
X108794094Y-144500000D01*
X109161627Y-144426893D01*
X109578409Y-144148409D01*
X109856893Y-143731627D01*
X109940000Y-143313821D01*
X110023107Y-143731627D01*
X110301591Y-144148409D01*
X110718373Y-144426893D01*
X111085906Y-144500000D01*
X111334094Y-144500000D01*
X111701627Y-144426893D01*
X112118409Y-144148409D01*
X112396893Y-143731627D01*
X112480000Y-143313821D01*
X112563107Y-143731627D01*
X112841591Y-144148409D01*
X113215001Y-144397913D01*
X113215001Y-144428395D01*
X112428397Y-145215000D01*
X96027670Y-145215000D01*
X95995537Y-145182867D01*
X95771337Y-145090000D01*
X95528663Y-145090000D01*
X95304463Y-145182867D01*
X95132867Y-145354463D01*
X95040000Y-145578663D01*
X95040000Y-145821337D01*
X95132867Y-146045537D01*
X95262258Y-146174928D01*
X95240000Y-146228663D01*
X95240000Y-146471337D01*
X95332867Y-146695537D01*
X95504463Y-146867133D01*
X95728663Y-146960000D01*
X95867371Y-146960000D01*
X95835549Y-147036824D01*
X95835549Y-147258782D01*
X95701710Y-147124943D01*
X95701706Y-147124937D01*
X92046677Y-143469910D01*
X91995907Y-143393927D01*
X91765539Y-143240000D01*
X97225316Y-143240000D01*
X97323107Y-143731627D01*
X97601591Y-144148409D01*
X98018373Y-144426893D01*
X98385906Y-144500000D01*
X98634094Y-144500000D01*
X99001627Y-144426893D01*
X99418409Y-144148409D01*
X99696893Y-143731627D01*
X99780000Y-143313821D01*
X99863107Y-143731627D01*
X100141591Y-144148409D01*
X100558373Y-144426893D01*
X100925906Y-144500000D01*
X101174094Y-144500000D01*
X101541627Y-144426893D01*
X101958409Y-144148409D01*
X102236893Y-143731627D01*
X102334684Y-143240000D01*
X102236893Y-142748373D01*
X101958409Y-142331591D01*
X101541627Y-142053107D01*
X101174094Y-141980000D01*
X100925906Y-141980000D01*
X100558373Y-142053107D01*
X100141591Y-142331591D01*
X99863107Y-142748373D01*
X99780000Y-143166179D01*
X99696893Y-142748373D01*
X99418409Y-142331591D01*
X99001627Y-142053107D01*
X98634094Y-141980000D01*
X98385906Y-141980000D01*
X98018373Y-142053107D01*
X97601591Y-142331591D01*
X97323107Y-142748373D01*
X97225316Y-143240000D01*
X91765539Y-143240000D01*
X91694898Y-143192800D01*
X91429456Y-143140000D01*
X91339834Y-143122173D01*
X91250212Y-143140000D01*
X87672670Y-143140000D01*
X87717133Y-143095537D01*
X87810000Y-142871337D01*
X87810000Y-142628663D01*
X87717133Y-142404463D01*
X87545537Y-142232867D01*
X87321337Y-142140000D01*
X87078663Y-142140000D01*
X86897598Y-142215000D01*
X79320490Y-142215000D01*
X79267802Y-142204520D01*
X79215114Y-142215000D01*
X79215110Y-142215000D01*
X79061880Y-142245479D01*
X79059055Y-142246041D01*
X78926758Y-142334439D01*
X78926755Y-142334442D01*
X78882089Y-142364287D01*
X78852243Y-142408954D01*
X78435000Y-142826198D01*
X78435000Y-141802688D01*
X78445480Y-141750000D01*
X78435000Y-141697312D01*
X78435000Y-141697308D01*
X78403959Y-141541253D01*
X78403819Y-141541044D01*
X78315561Y-141408956D01*
X78315558Y-141408953D01*
X78285713Y-141364287D01*
X78241046Y-141334441D01*
X74900610Y-137994007D01*
X74910000Y-137971337D01*
X74910000Y-137800000D01*
X80872173Y-137800000D01*
X80942800Y-138155063D01*
X81093161Y-138380094D01*
X81493158Y-138780092D01*
X81543927Y-138856073D01*
X81844936Y-139057200D01*
X82110378Y-139110000D01*
X82199999Y-139127827D01*
X82289620Y-139110000D01*
X85989622Y-139110000D01*
X86255064Y-139057200D01*
X86556073Y-138856073D01*
X86757200Y-138555064D01*
X86827827Y-138200000D01*
X86757200Y-137844936D01*
X86556073Y-137543927D01*
X86255064Y-137342800D01*
X85989622Y-137290000D01*
X82576933Y-137290000D01*
X82380094Y-137093161D01*
X82155063Y-136942800D01*
X81800000Y-136872173D01*
X81444937Y-136942800D01*
X81143928Y-137143928D01*
X80942800Y-137444937D01*
X80872173Y-137800000D01*
X74910000Y-137800000D01*
X74910000Y-137728663D01*
X74817133Y-137504463D01*
X74645537Y-137332867D01*
X74421337Y-137240000D01*
X74178663Y-137240000D01*
X73954463Y-137332867D01*
X73782867Y-137504463D01*
X73690000Y-137728663D01*
X73690000Y-137971337D01*
X73757597Y-138134530D01*
X73754520Y-138150000D01*
X73765000Y-138202688D01*
X73765000Y-138202691D01*
X73796041Y-138358746D01*
X73914287Y-138535713D01*
X73958959Y-138565562D01*
X77365001Y-141971606D01*
X77365000Y-143097597D01*
X77290000Y-143278663D01*
X77290000Y-143354438D01*
X77156252Y-143381042D01*
X76979286Y-143499288D01*
X76949438Y-143543958D01*
X75308956Y-145184441D01*
X75285531Y-145207866D01*
X75104463Y-145282867D01*
X74932867Y-145454463D01*
X74840000Y-145678663D01*
X74840000Y-145921337D01*
X74854604Y-145956595D01*
X72075484Y-148735717D01*
X72030815Y-148765564D01*
X72000968Y-148810233D01*
X72000967Y-148810234D01*
X71912568Y-148942531D01*
X71899937Y-149006034D01*
X71881527Y-149098585D01*
X71881527Y-149098589D01*
X71871047Y-149151277D01*
X71881527Y-149203965D01*
X71881527Y-149457081D01*
X71871047Y-149509769D01*
X71881527Y-149562457D01*
X71881527Y-149562460D01*
X71912568Y-149718515D01*
X71926904Y-149739970D01*
X68806843Y-146619910D01*
X68756073Y-146543927D01*
X68455064Y-146342800D01*
X68189622Y-146290000D01*
X68160000Y-146284108D01*
X68160000Y-144139622D01*
X68177827Y-144050000D01*
X68107200Y-143694936D01*
X68094717Y-143676254D01*
X67906073Y-143393927D01*
X67830093Y-143343159D01*
X66474792Y-141987858D01*
X66645537Y-141917133D01*
X66817133Y-141745537D01*
X66821497Y-141735001D01*
X66947311Y-141735001D01*
X66999999Y-141745481D01*
X67052687Y-141735001D01*
X67052691Y-141735001D01*
X67208746Y-141703960D01*
X67306117Y-141638898D01*
X67306117Y-141837454D01*
X67398984Y-142061654D01*
X67570580Y-142233250D01*
X67794780Y-142326117D01*
X68037454Y-142326117D01*
X68218519Y-142251117D01*
X69744512Y-142251117D01*
X72707865Y-145214471D01*
X72782865Y-145395537D01*
X72954461Y-145567133D01*
X73178661Y-145660000D01*
X73421335Y-145660000D01*
X73645535Y-145567133D01*
X73817131Y-145395537D01*
X73909998Y-145171337D01*
X73909998Y-144928663D01*
X73817131Y-144704463D01*
X73645535Y-144532867D01*
X73464469Y-144457867D01*
X70381677Y-141375076D01*
X70351828Y-141330404D01*
X70174862Y-141212158D01*
X70018807Y-141181117D01*
X70018803Y-141181117D01*
X69966115Y-141170637D01*
X69913427Y-141181117D01*
X68218519Y-141181117D01*
X68116553Y-141138881D01*
X71290000Y-141138881D01*
X71290000Y-141461119D01*
X71413315Y-141758828D01*
X71641172Y-141986685D01*
X71938881Y-142110000D01*
X72261119Y-142110000D01*
X72558828Y-141986685D01*
X72786685Y-141758828D01*
X72910000Y-141461119D01*
X72910000Y-141138881D01*
X72786685Y-140841172D01*
X72558828Y-140613315D01*
X72261119Y-140490000D01*
X71938881Y-140490000D01*
X71641172Y-140613315D01*
X71413315Y-140841172D01*
X71290000Y-141138881D01*
X68116553Y-141138881D01*
X68037454Y-141106117D01*
X67850486Y-141106117D01*
X70221604Y-138735000D01*
X70247598Y-138735000D01*
X70428663Y-138810000D01*
X70671337Y-138810000D01*
X70895537Y-138717133D01*
X71067133Y-138545537D01*
X71079279Y-138516213D01*
X72319906Y-139756840D01*
X72319909Y-139756842D01*
X72719906Y-140156839D01*
X72944936Y-140307200D01*
X73299999Y-140377827D01*
X73655063Y-140307200D01*
X73956072Y-140106072D01*
X74157200Y-139805063D01*
X74227827Y-139449999D01*
X74157200Y-139094936D01*
X74006839Y-138869906D01*
X73606842Y-138469909D01*
X73606840Y-138469906D01*
X70975815Y-135838881D01*
X74140000Y-135838881D01*
X74140000Y-136161119D01*
X74263315Y-136458828D01*
X74491172Y-136686685D01*
X74788881Y-136810000D01*
X75111119Y-136810000D01*
X75408828Y-136686685D01*
X75636685Y-136458828D01*
X75760000Y-136161119D01*
X75760000Y-135838881D01*
X75636685Y-135541172D01*
X75408828Y-135313315D01*
X75111119Y-135190000D01*
X74788881Y-135190000D01*
X74491172Y-135313315D01*
X74263315Y-135541172D01*
X74140000Y-135838881D01*
X70975815Y-135838881D01*
X70760000Y-135623067D01*
X70760000Y-133038881D01*
X74240000Y-133038881D01*
X74240000Y-133361119D01*
X74363315Y-133658828D01*
X74591172Y-133886685D01*
X74888881Y-134010000D01*
X75211119Y-134010000D01*
X75508828Y-133886685D01*
X75736685Y-133658828D01*
X75860000Y-133361119D01*
X75860000Y-133038881D01*
X75736685Y-132741172D01*
X75508828Y-132513315D01*
X75476683Y-132500000D01*
X80622173Y-132500000D01*
X80692800Y-132855063D01*
X80843161Y-133080094D01*
X84193161Y-136430096D01*
X84243927Y-136506073D01*
X84544936Y-136707200D01*
X84810378Y-136760000D01*
X84899999Y-136777827D01*
X84989620Y-136760000D01*
X85639622Y-136760000D01*
X85905064Y-136707200D01*
X86206073Y-136506073D01*
X86407200Y-136205064D01*
X86423770Y-136121760D01*
X122940260Y-136121760D01*
X122940260Y-137478240D01*
X123459362Y-138731463D01*
X124418537Y-139690638D01*
X125671760Y-140209740D01*
X127028240Y-140209740D01*
X128281463Y-139690638D01*
X129240638Y-138731463D01*
X129759740Y-137478240D01*
X129759740Y-136121760D01*
X129240638Y-134868537D01*
X128281463Y-133909362D01*
X127028240Y-133390260D01*
X125671760Y-133390260D01*
X124418537Y-133909362D01*
X123459362Y-134868537D01*
X122940260Y-136121760D01*
X86423770Y-136121760D01*
X86477827Y-135850000D01*
X86407200Y-135494936D01*
X86206073Y-135193927D01*
X85905064Y-134992800D01*
X85639622Y-134940000D01*
X85276935Y-134940000D01*
X82130094Y-131793161D01*
X82023545Y-131721968D01*
X82236685Y-131508828D01*
X82360000Y-131211119D01*
X82360000Y-130888881D01*
X82236685Y-130591172D01*
X82008828Y-130363315D01*
X81795617Y-130275000D01*
X82008828Y-130186685D01*
X82236685Y-129958828D01*
X82360000Y-129661119D01*
X82360000Y-129338881D01*
X82236685Y-129041172D01*
X82008828Y-128813315D01*
X81711119Y-128690000D01*
X81388881Y-128690000D01*
X81091172Y-128813315D01*
X80863315Y-129041172D01*
X80740000Y-129338881D01*
X80740000Y-129661119D01*
X80863315Y-129958828D01*
X81091172Y-130186685D01*
X81304383Y-130275000D01*
X81091172Y-130363315D01*
X80863315Y-130591172D01*
X80740000Y-130888881D01*
X80740000Y-131211119D01*
X80863315Y-131508828D01*
X81076455Y-131721968D01*
X80893928Y-131843928D01*
X80692800Y-132144937D01*
X80622173Y-132500000D01*
X75476683Y-132500000D01*
X75211119Y-132390000D01*
X74888881Y-132390000D01*
X74591172Y-132513315D01*
X74363315Y-132741172D01*
X74240000Y-133038881D01*
X70760000Y-133038881D01*
X70760000Y-131960378D01*
X70707200Y-131694936D01*
X70506073Y-131393927D01*
X70219989Y-131202773D01*
X70258828Y-131186685D01*
X70486685Y-130958828D01*
X70536368Y-130838881D01*
X74340000Y-130838881D01*
X74340000Y-131161119D01*
X74463315Y-131458828D01*
X74691172Y-131686685D01*
X74988881Y-131810000D01*
X75311119Y-131810000D01*
X75608828Y-131686685D01*
X75836685Y-131458828D01*
X75960000Y-131161119D01*
X75960000Y-130838881D01*
X75836685Y-130541172D01*
X75608828Y-130313315D01*
X75311119Y-130190000D01*
X74988881Y-130190000D01*
X74691172Y-130313315D01*
X74463315Y-130541172D01*
X74340000Y-130838881D01*
X70536368Y-130838881D01*
X70610000Y-130661119D01*
X70610000Y-130338881D01*
X70486685Y-130041172D01*
X70258828Y-129813315D01*
X70191327Y-129785355D01*
X70308828Y-129736685D01*
X70536685Y-129508828D01*
X70660000Y-129211119D01*
X70660000Y-128888881D01*
X70536685Y-128591172D01*
X70417273Y-128471760D01*
X123090260Y-128471760D01*
X123090260Y-129828240D01*
X123609362Y-131081463D01*
X124568537Y-132040638D01*
X125821760Y-132559740D01*
X127178240Y-132559740D01*
X128431463Y-132040638D01*
X129390638Y-131081463D01*
X129909740Y-129828240D01*
X129909740Y-128471760D01*
X129390638Y-127218537D01*
X128431463Y-126259362D01*
X127178240Y-125740260D01*
X125821760Y-125740260D01*
X124568537Y-126259362D01*
X123609362Y-127218537D01*
X123090260Y-128471760D01*
X70417273Y-128471760D01*
X70308828Y-128363315D01*
X70011119Y-128240000D01*
X69688881Y-128240000D01*
X69391172Y-128363315D01*
X69163315Y-128591172D01*
X69040000Y-128888881D01*
X69040000Y-129211119D01*
X69163315Y-129508828D01*
X69391172Y-129736685D01*
X69458673Y-129764645D01*
X69341172Y-129813315D01*
X69113315Y-130041172D01*
X68990000Y-130338881D01*
X68990000Y-130661119D01*
X69113315Y-130958828D01*
X69341172Y-131186685D01*
X69441742Y-131228343D01*
X69193927Y-131393927D01*
X68992800Y-131694937D01*
X68940000Y-131960379D01*
X68940001Y-135910374D01*
X68922173Y-136000000D01*
X68992800Y-136355063D01*
X69062134Y-136458828D01*
X69193928Y-136656073D01*
X69269908Y-136706841D01*
X70228067Y-137665000D01*
X70052687Y-137665000D01*
X69999999Y-137654520D01*
X69947311Y-137665000D01*
X69947308Y-137665000D01*
X69791253Y-137696041D01*
X69614287Y-137814287D01*
X69584440Y-137858957D01*
X66778396Y-140665001D01*
X66552686Y-140665001D01*
X66499998Y-140654521D01*
X66447310Y-140665001D01*
X66447307Y-140665001D01*
X66291252Y-140696042D01*
X66114286Y-140814288D01*
X66112089Y-140817576D01*
X65954463Y-140882867D01*
X65782867Y-141054463D01*
X65704827Y-141242868D01*
X65555064Y-141142800D01*
X65289622Y-141090000D01*
X65200000Y-141072173D01*
X65110378Y-141090000D01*
X63960378Y-141090000D01*
X63694936Y-141142800D01*
X63393927Y-141343927D01*
X63192800Y-141644936D01*
X63122173Y-142000000D01*
X50306604Y-142000000D01*
X49642134Y-141335531D01*
X49567133Y-141154463D01*
X49395537Y-140982867D01*
X49171337Y-140890000D01*
X48928663Y-140890000D01*
X48704463Y-140982867D01*
X48532867Y-141154463D01*
X48440000Y-141378663D01*
X40560000Y-141378663D01*
X40560000Y-136621760D01*
X40790260Y-136621760D01*
X40790260Y-137978240D01*
X41309362Y-139231463D01*
X42268537Y-140190638D01*
X43521760Y-140709740D01*
X44878240Y-140709740D01*
X46131463Y-140190638D01*
X47090638Y-139231463D01*
X47439646Y-138388881D01*
X55640000Y-138388881D01*
X55640000Y-138711119D01*
X55763315Y-139008828D01*
X55991172Y-139236685D01*
X56288881Y-139360000D01*
X56611119Y-139360000D01*
X56908828Y-139236685D01*
X57136685Y-139008828D01*
X57260000Y-138711119D01*
X57260000Y-138388881D01*
X57136685Y-138091172D01*
X56908828Y-137863315D01*
X56611119Y-137740000D01*
X56288881Y-137740000D01*
X55991172Y-137863315D01*
X55763315Y-138091172D01*
X55640000Y-138388881D01*
X47439646Y-138388881D01*
X47609740Y-137978240D01*
X47609740Y-136621760D01*
X47513279Y-136388881D01*
X55640000Y-136388881D01*
X55640000Y-136711119D01*
X55763315Y-137008828D01*
X55991172Y-137236685D01*
X56288881Y-137360000D01*
X56611119Y-137360000D01*
X56908828Y-137236685D01*
X57136685Y-137008828D01*
X57260000Y-136711119D01*
X57260000Y-136388881D01*
X57136685Y-136091172D01*
X56908828Y-135863315D01*
X56611119Y-135740000D01*
X56288881Y-135740000D01*
X55991172Y-135863315D01*
X55763315Y-136091172D01*
X55640000Y-136388881D01*
X47513279Y-136388881D01*
X47099065Y-135388881D01*
X62440000Y-135388881D01*
X62440000Y-135711119D01*
X62563315Y-136008828D01*
X62791172Y-136236685D01*
X63088881Y-136360000D01*
X63411119Y-136360000D01*
X63708828Y-136236685D01*
X63936685Y-136008828D01*
X64060000Y-135711119D01*
X64060000Y-135388881D01*
X63936685Y-135091172D01*
X63708828Y-134863315D01*
X63411119Y-134740000D01*
X63088881Y-134740000D01*
X62791172Y-134863315D01*
X62563315Y-135091172D01*
X62440000Y-135388881D01*
X47099065Y-135388881D01*
X47090638Y-135368537D01*
X46131463Y-134409362D01*
X44878240Y-133890260D01*
X43521760Y-133890260D01*
X42268537Y-134409362D01*
X41309362Y-135368537D01*
X40790260Y-136621760D01*
X40560000Y-136621760D01*
X40560000Y-130088881D01*
X51840000Y-130088881D01*
X51840000Y-130411119D01*
X51963315Y-130708828D01*
X52154487Y-130900000D01*
X51963315Y-131091172D01*
X51840000Y-131388881D01*
X51840000Y-131711119D01*
X51963315Y-132008828D01*
X52191172Y-132236685D01*
X52223317Y-132250000D01*
X52191172Y-132263315D01*
X51963315Y-132491172D01*
X51840000Y-132788881D01*
X51840000Y-133111119D01*
X51963315Y-133408828D01*
X52191172Y-133636685D01*
X52488881Y-133760000D01*
X52811119Y-133760000D01*
X53108828Y-133636685D01*
X53336685Y-133408828D01*
X53460000Y-133111119D01*
X53460000Y-132788881D01*
X53418579Y-132688881D01*
X62540000Y-132688881D01*
X62540000Y-133011119D01*
X62663315Y-133308828D01*
X62891172Y-133536685D01*
X63188881Y-133660000D01*
X63511119Y-133660000D01*
X63808828Y-133536685D01*
X64036685Y-133308828D01*
X64160000Y-133011119D01*
X64160000Y-132688881D01*
X64036685Y-132391172D01*
X63808828Y-132163315D01*
X63511119Y-132040000D01*
X63188881Y-132040000D01*
X62891172Y-132163315D01*
X62663315Y-132391172D01*
X62540000Y-132688881D01*
X53418579Y-132688881D01*
X53336685Y-132491172D01*
X53108828Y-132263315D01*
X53076683Y-132250000D01*
X53108828Y-132236685D01*
X53336685Y-132008828D01*
X53460000Y-131711119D01*
X53460000Y-131388881D01*
X53336685Y-131091172D01*
X53145513Y-130900000D01*
X53336685Y-130708828D01*
X53460000Y-130411119D01*
X53460000Y-130388881D01*
X62640000Y-130388881D01*
X62640000Y-130711119D01*
X62763315Y-131008828D01*
X62991172Y-131236685D01*
X63288881Y-131360000D01*
X63611119Y-131360000D01*
X63908828Y-131236685D01*
X64136685Y-131008828D01*
X64260000Y-130711119D01*
X64260000Y-130388881D01*
X64136685Y-130091172D01*
X63908828Y-129863315D01*
X63611119Y-129740000D01*
X63288881Y-129740000D01*
X62991172Y-129863315D01*
X62763315Y-130091172D01*
X62640000Y-130388881D01*
X53460000Y-130388881D01*
X53460000Y-130088881D01*
X53336685Y-129791172D01*
X53108828Y-129563315D01*
X52811119Y-129440000D01*
X52488881Y-129440000D01*
X52191172Y-129563315D01*
X51963315Y-129791172D01*
X51840000Y-130088881D01*
X40560000Y-130088881D01*
X40560000Y-123071760D01*
X40790260Y-123071760D01*
X40790260Y-124428240D01*
X41309362Y-125681463D01*
X42268537Y-126640638D01*
X43521760Y-127159740D01*
X44878240Y-127159740D01*
X46131463Y-126640638D01*
X47090638Y-125681463D01*
X47253250Y-125288881D01*
X65040000Y-125288881D01*
X65040000Y-125611119D01*
X65163315Y-125908828D01*
X65391172Y-126136685D01*
X65688881Y-126260000D01*
X66011119Y-126260000D01*
X66308828Y-126136685D01*
X66536685Y-125908828D01*
X66565657Y-125838881D01*
X76740000Y-125838881D01*
X76740000Y-126161119D01*
X76863315Y-126458828D01*
X77091172Y-126686685D01*
X77388881Y-126810000D01*
X77711119Y-126810000D01*
X78008828Y-126686685D01*
X78236685Y-126458828D01*
X78360000Y-126161119D01*
X78360000Y-126138881D01*
X88290000Y-126138881D01*
X88290000Y-126461119D01*
X88413315Y-126758828D01*
X88641172Y-126986685D01*
X88938881Y-127110000D01*
X89261119Y-127110000D01*
X89558828Y-126986685D01*
X89786685Y-126758828D01*
X89910000Y-126461119D01*
X89910000Y-126138881D01*
X89786685Y-125841172D01*
X89645513Y-125700000D01*
X89836685Y-125508828D01*
X89960000Y-125211119D01*
X89960000Y-124888881D01*
X89836685Y-124591172D01*
X89608828Y-124363315D01*
X89311119Y-124240000D01*
X88988881Y-124240000D01*
X88691172Y-124363315D01*
X88463315Y-124591172D01*
X88340000Y-124888881D01*
X88340000Y-125211119D01*
X88463315Y-125508828D01*
X88604487Y-125650000D01*
X88413315Y-125841172D01*
X88290000Y-126138881D01*
X78360000Y-126138881D01*
X78360000Y-125838881D01*
X78236685Y-125541172D01*
X78008828Y-125313315D01*
X77711119Y-125190000D01*
X77388881Y-125190000D01*
X77091172Y-125313315D01*
X76863315Y-125541172D01*
X76740000Y-125838881D01*
X66565657Y-125838881D01*
X66660000Y-125611119D01*
X66660000Y-125288881D01*
X66536685Y-124991172D01*
X66308828Y-124763315D01*
X66011119Y-124640000D01*
X65688881Y-124640000D01*
X65391172Y-124763315D01*
X65163315Y-124991172D01*
X65040000Y-125288881D01*
X47253250Y-125288881D01*
X47609740Y-124428240D01*
X47609740Y-123071760D01*
X47546879Y-122920000D01*
X97235316Y-122920000D01*
X97333107Y-123411627D01*
X97611591Y-123828409D01*
X98028373Y-124106893D01*
X98395906Y-124180000D01*
X98644094Y-124180000D01*
X99011627Y-124106893D01*
X99428409Y-123828409D01*
X99706893Y-123411627D01*
X99790000Y-122993821D01*
X99873107Y-123411627D01*
X100151591Y-123828409D01*
X100568373Y-124106893D01*
X100935906Y-124180000D01*
X101184094Y-124180000D01*
X101551627Y-124106893D01*
X101968409Y-123828409D01*
X102246893Y-123411627D01*
X102330000Y-122993821D01*
X102413107Y-123411627D01*
X102691591Y-123828409D01*
X103108373Y-124106893D01*
X103475906Y-124180000D01*
X103724094Y-124180000D01*
X104091627Y-124106893D01*
X104508409Y-123828409D01*
X104786893Y-123411627D01*
X104870000Y-122993821D01*
X104953107Y-123411627D01*
X105231591Y-123828409D01*
X105648373Y-124106893D01*
X106015906Y-124180000D01*
X106264094Y-124180000D01*
X106631627Y-124106893D01*
X107048409Y-123828409D01*
X107326893Y-123411627D01*
X107410000Y-122993821D01*
X107493107Y-123411627D01*
X107771591Y-123828409D01*
X108188373Y-124106893D01*
X108555906Y-124180000D01*
X108804094Y-124180000D01*
X109171627Y-124106893D01*
X109588409Y-123828409D01*
X109866893Y-123411627D01*
X109950000Y-122993821D01*
X110033107Y-123411627D01*
X110311591Y-123828409D01*
X110728373Y-124106893D01*
X111095906Y-124180000D01*
X111344094Y-124180000D01*
X111711627Y-124106893D01*
X112128409Y-123828409D01*
X112406893Y-123411627D01*
X112490000Y-122993821D01*
X112573107Y-123411627D01*
X112851591Y-123828409D01*
X113268373Y-124106893D01*
X113635906Y-124180000D01*
X113884094Y-124180000D01*
X114251627Y-124106893D01*
X114668409Y-123828409D01*
X114946893Y-123411627D01*
X115030000Y-122993821D01*
X115113107Y-123411627D01*
X115391591Y-123828409D01*
X115808373Y-124106893D01*
X116175906Y-124180000D01*
X116424094Y-124180000D01*
X116791627Y-124106893D01*
X117208409Y-123828409D01*
X117486893Y-123411627D01*
X117570000Y-122993821D01*
X117653107Y-123411627D01*
X117931591Y-123828409D01*
X118348373Y-124106893D01*
X118715906Y-124180000D01*
X118964094Y-124180000D01*
X119331627Y-124106893D01*
X119748409Y-123828409D01*
X120026893Y-123411627D01*
X120110000Y-122993821D01*
X120193107Y-123411627D01*
X120471591Y-123828409D01*
X120888373Y-124106893D01*
X121255906Y-124180000D01*
X121504094Y-124180000D01*
X121871627Y-124106893D01*
X122288409Y-123828409D01*
X122566893Y-123411627D01*
X122650000Y-122993821D01*
X122733107Y-123411627D01*
X123011591Y-123828409D01*
X123428373Y-124106893D01*
X123795906Y-124180000D01*
X124044094Y-124180000D01*
X124411627Y-124106893D01*
X124828409Y-123828409D01*
X125106893Y-123411627D01*
X125190000Y-122993821D01*
X125273107Y-123411627D01*
X125551591Y-123828409D01*
X125968373Y-124106893D01*
X126335906Y-124180000D01*
X126584094Y-124180000D01*
X126951627Y-124106893D01*
X127368409Y-123828409D01*
X127646893Y-123411627D01*
X127730000Y-122993821D01*
X127813107Y-123411627D01*
X128091591Y-123828409D01*
X128508373Y-124106893D01*
X128875906Y-124180000D01*
X129124094Y-124180000D01*
X129491627Y-124106893D01*
X129908409Y-123828409D01*
X130186893Y-123411627D01*
X130284684Y-122920000D01*
X130186893Y-122428373D01*
X129908409Y-122011591D01*
X129491627Y-121733107D01*
X129124094Y-121660000D01*
X128875906Y-121660000D01*
X128508373Y-121733107D01*
X128091591Y-122011591D01*
X127813107Y-122428373D01*
X127730000Y-122846179D01*
X127646893Y-122428373D01*
X127368409Y-122011591D01*
X126951627Y-121733107D01*
X126584094Y-121660000D01*
X126335906Y-121660000D01*
X125968373Y-121733107D01*
X125551591Y-122011591D01*
X125273107Y-122428373D01*
X125190000Y-122846179D01*
X125106893Y-122428373D01*
X124828409Y-122011591D01*
X124411627Y-121733107D01*
X124044094Y-121660000D01*
X123795906Y-121660000D01*
X123428373Y-121733107D01*
X123011591Y-122011591D01*
X122733107Y-122428373D01*
X122650000Y-122846179D01*
X122566893Y-122428373D01*
X122288409Y-122011591D01*
X121871627Y-121733107D01*
X121504094Y-121660000D01*
X121255906Y-121660000D01*
X120888373Y-121733107D01*
X120471591Y-122011591D01*
X120193107Y-122428373D01*
X120110000Y-122846179D01*
X120026893Y-122428373D01*
X119748409Y-122011591D01*
X119331627Y-121733107D01*
X118964094Y-121660000D01*
X118715906Y-121660000D01*
X118348373Y-121733107D01*
X117931591Y-122011591D01*
X117653107Y-122428373D01*
X117570000Y-122846179D01*
X117486893Y-122428373D01*
X117208409Y-122011591D01*
X116791627Y-121733107D01*
X116424094Y-121660000D01*
X116175906Y-121660000D01*
X115808373Y-121733107D01*
X115391591Y-122011591D01*
X115113107Y-122428373D01*
X115030000Y-122846179D01*
X114946893Y-122428373D01*
X114668409Y-122011591D01*
X114251627Y-121733107D01*
X113884094Y-121660000D01*
X113635906Y-121660000D01*
X113268373Y-121733107D01*
X112851591Y-122011591D01*
X112573107Y-122428373D01*
X112490000Y-122846179D01*
X112406893Y-122428373D01*
X112128409Y-122011591D01*
X111711627Y-121733107D01*
X111344094Y-121660000D01*
X111095906Y-121660000D01*
X110728373Y-121733107D01*
X110311591Y-122011591D01*
X110033107Y-122428373D01*
X109950000Y-122846179D01*
X109866893Y-122428373D01*
X109588409Y-122011591D01*
X109171627Y-121733107D01*
X108804094Y-121660000D01*
X108555906Y-121660000D01*
X108188373Y-121733107D01*
X107771591Y-122011591D01*
X107493107Y-122428373D01*
X107410000Y-122846179D01*
X107326893Y-122428373D01*
X107048409Y-122011591D01*
X106631627Y-121733107D01*
X106264094Y-121660000D01*
X106015906Y-121660000D01*
X105648373Y-121733107D01*
X105231591Y-122011591D01*
X104953107Y-122428373D01*
X104870000Y-122846179D01*
X104786893Y-122428373D01*
X104508409Y-122011591D01*
X104091627Y-121733107D01*
X103724094Y-121660000D01*
X103475906Y-121660000D01*
X103108373Y-121733107D01*
X102691591Y-122011591D01*
X102413107Y-122428373D01*
X102330000Y-122846179D01*
X102246893Y-122428373D01*
X101968409Y-122011591D01*
X101551627Y-121733107D01*
X101184094Y-121660000D01*
X100935906Y-121660000D01*
X100568373Y-121733107D01*
X100151591Y-122011591D01*
X99873107Y-122428373D01*
X99790000Y-122846179D01*
X99706893Y-122428373D01*
X99428409Y-122011591D01*
X99011627Y-121733107D01*
X98644094Y-121660000D01*
X98395906Y-121660000D01*
X98028373Y-121733107D01*
X97611591Y-122011591D01*
X97333107Y-122428373D01*
X97235316Y-122920000D01*
X47546879Y-122920000D01*
X47090638Y-121818537D01*
X46560982Y-121288881D01*
X65790000Y-121288881D01*
X65790000Y-121611119D01*
X65913315Y-121908828D01*
X66141172Y-122136685D01*
X66438881Y-122260000D01*
X66761119Y-122260000D01*
X67058828Y-122136685D01*
X67286685Y-121908828D01*
X67410000Y-121611119D01*
X67410000Y-121288881D01*
X67389290Y-121238881D01*
X68590000Y-121238881D01*
X68590000Y-121561119D01*
X68713315Y-121858828D01*
X68941172Y-122086685D01*
X69238881Y-122210000D01*
X69561119Y-122210000D01*
X69858828Y-122086685D01*
X70086685Y-121858828D01*
X70210000Y-121561119D01*
X70210000Y-121238881D01*
X70086685Y-120941172D01*
X69858828Y-120713315D01*
X69561119Y-120590000D01*
X69238881Y-120590000D01*
X68941172Y-120713315D01*
X68713315Y-120941172D01*
X68590000Y-121238881D01*
X67389290Y-121238881D01*
X67286685Y-120991172D01*
X67058828Y-120763315D01*
X66761119Y-120640000D01*
X66438881Y-120640000D01*
X66141172Y-120763315D01*
X65913315Y-120991172D01*
X65790000Y-121288881D01*
X46560982Y-121288881D01*
X46131463Y-120859362D01*
X44995622Y-120388881D01*
X91390000Y-120388881D01*
X91390000Y-120711119D01*
X91513315Y-121008828D01*
X91741172Y-121236685D01*
X92038881Y-121360000D01*
X92361119Y-121360000D01*
X92658828Y-121236685D01*
X92886685Y-121008828D01*
X93010000Y-120711119D01*
X93010000Y-120388881D01*
X92886685Y-120091172D01*
X92658828Y-119863315D01*
X92361119Y-119740000D01*
X92038881Y-119740000D01*
X91741172Y-119863315D01*
X91513315Y-120091172D01*
X91390000Y-120388881D01*
X44995622Y-120388881D01*
X44878240Y-120340260D01*
X43521760Y-120340260D01*
X42268537Y-120859362D01*
X41309362Y-121818537D01*
X40790260Y-123071760D01*
X40560000Y-123071760D01*
X40560000Y-112859262D01*
X61465000Y-112859262D01*
X61465000Y-113320738D01*
X61641599Y-113747087D01*
X61967913Y-114073401D01*
X62394262Y-114250000D01*
X62855738Y-114250000D01*
X63282087Y-114073401D01*
X63608401Y-113747087D01*
X63785000Y-113320738D01*
X63785000Y-112859262D01*
X64005000Y-112859262D01*
X64005000Y-113320738D01*
X64181599Y-113747087D01*
X64507913Y-114073401D01*
X64934262Y-114250000D01*
X65395738Y-114250000D01*
X65822087Y-114073401D01*
X65915000Y-113980488D01*
X65915000Y-115022312D01*
X65904520Y-115075000D01*
X65915000Y-115127688D01*
X65915000Y-115127691D01*
X65946041Y-115283746D01*
X66064287Y-115460713D01*
X66108959Y-115490562D01*
X66657867Y-116039471D01*
X66732867Y-116220537D01*
X66904463Y-116392133D01*
X67128663Y-116485000D01*
X67371337Y-116485000D01*
X67595537Y-116392133D01*
X67767133Y-116220537D01*
X67860000Y-115996337D01*
X67860000Y-115753663D01*
X67767133Y-115529463D01*
X67595537Y-115357867D01*
X67414471Y-115282867D01*
X66985000Y-114853397D01*
X66985000Y-114010488D01*
X67047913Y-114073401D01*
X67165222Y-114121992D01*
X67159520Y-114150660D01*
X67201041Y-114359406D01*
X67267560Y-114458957D01*
X67319288Y-114536373D01*
X67363957Y-114566220D01*
X68488781Y-115691046D01*
X68518627Y-115735713D01*
X68563293Y-115765558D01*
X68563296Y-115765561D01*
X68646328Y-115821041D01*
X68695593Y-115853959D01*
X68851648Y-115885000D01*
X68851652Y-115885000D01*
X68904340Y-115895480D01*
X68957028Y-115885000D01*
X71552330Y-115885000D01*
X71457867Y-115979463D01*
X71382866Y-116160530D01*
X69626369Y-117917028D01*
X69561119Y-117890000D01*
X69238881Y-117890000D01*
X68941172Y-118013315D01*
X68713315Y-118241172D01*
X68590000Y-118538881D01*
X68590000Y-118861119D01*
X68713315Y-119158828D01*
X68941172Y-119386685D01*
X69238881Y-119510000D01*
X69561119Y-119510000D01*
X69858828Y-119386685D01*
X70086685Y-119158828D01*
X70210000Y-118861119D01*
X70210000Y-118846603D01*
X72139470Y-116917134D01*
X72320537Y-116842133D01*
X72492133Y-116670537D01*
X72567134Y-116489469D01*
X72590559Y-116466044D01*
X73171605Y-115885000D01*
X83422312Y-115885000D01*
X83475000Y-115895480D01*
X83527688Y-115885000D01*
X86422312Y-115885000D01*
X86475000Y-115895480D01*
X86527688Y-115885000D01*
X98302310Y-115885000D01*
X98354998Y-115895480D01*
X98407686Y-115885000D01*
X114772310Y-115885000D01*
X114824998Y-115895480D01*
X114877686Y-115885000D01*
X114877690Y-115885000D01*
X115033745Y-115853959D01*
X115210711Y-115735713D01*
X115240560Y-115691041D01*
X116767173Y-114164429D01*
X116889261Y-114214999D01*
X117350737Y-114214999D01*
X117777086Y-114038400D01*
X118103400Y-113712086D01*
X118279999Y-113285737D01*
X118279999Y-112824261D01*
X118103400Y-112397912D01*
X117777086Y-112071598D01*
X117417816Y-111922784D01*
X117657569Y-111683031D01*
X119139999Y-111683031D01*
X119299973Y-111651210D01*
X119435592Y-111560592D01*
X119526210Y-111424973D01*
X119558031Y-111264999D01*
X119558031Y-109764999D01*
X119526210Y-109605025D01*
X119435592Y-109469406D01*
X119299973Y-109378788D01*
X119139999Y-109346967D01*
X117639999Y-109346967D01*
X117480025Y-109378788D01*
X117344406Y-109469406D01*
X117253788Y-109605025D01*
X117221967Y-109764999D01*
X117221967Y-110605425D01*
X116959331Y-110868062D01*
X117009999Y-110745737D01*
X117009999Y-110284261D01*
X116833400Y-109857912D01*
X116507086Y-109531598D01*
X116080737Y-109354999D01*
X115619261Y-109354999D01*
X115497173Y-109405569D01*
X113950552Y-107858949D01*
X113920703Y-107814277D01*
X113743737Y-107696031D01*
X113587682Y-107664990D01*
X113587678Y-107664990D01*
X113534990Y-107654510D01*
X113482302Y-107664990D01*
X101747695Y-107664990D01*
X101695007Y-107654510D01*
X101642319Y-107664990D01*
X101642316Y-107664990D01*
X101486261Y-107696031D01*
X101309295Y-107814277D01*
X101279447Y-107858947D01*
X99732825Y-109405569D01*
X99610737Y-109354999D01*
X99149261Y-109354999D01*
X99027174Y-109405569D01*
X97380552Y-107758949D01*
X97350703Y-107714277D01*
X97173737Y-107596031D01*
X97017682Y-107564990D01*
X97017678Y-107564990D01*
X96964990Y-107554510D01*
X96912302Y-107564990D01*
X85437696Y-107564990D01*
X85385009Y-107554510D01*
X85332322Y-107564990D01*
X85332318Y-107564990D01*
X85176263Y-107596031D01*
X84999297Y-107714277D01*
X84969449Y-107758947D01*
X83287826Y-109440570D01*
X83165738Y-109390000D01*
X82704262Y-109390000D01*
X82582175Y-109440570D01*
X81175562Y-108033959D01*
X81145713Y-107989287D01*
X80968747Y-107871041D01*
X80812692Y-107840000D01*
X80812688Y-107840000D01*
X80760000Y-107829520D01*
X80707312Y-107840000D01*
X76519608Y-107840000D01*
X76363564Y-107683957D01*
X76333715Y-107639285D01*
X76156749Y-107521039D01*
X76000694Y-107489998D01*
X76000690Y-107489998D01*
X75948002Y-107479518D01*
X75895314Y-107489998D01*
X69012689Y-107489998D01*
X68960001Y-107479518D01*
X68907313Y-107489998D01*
X68907310Y-107489998D01*
X68751255Y-107521039D01*
X68574289Y-107639285D01*
X68544441Y-107683955D01*
X66787826Y-109440570D01*
X66665738Y-109390000D01*
X66204262Y-109390000D01*
X65777913Y-109566599D01*
X65451599Y-109892913D01*
X65275000Y-110319262D01*
X65275000Y-110780738D01*
X65451599Y-111207087D01*
X65777913Y-111533401D01*
X66204262Y-111710000D01*
X66665738Y-111710000D01*
X67092087Y-111533401D01*
X67418401Y-111207087D01*
X67595000Y-110780738D01*
X67595000Y-110319262D01*
X67544430Y-110197174D01*
X67806968Y-109934635D01*
X67806968Y-111300000D01*
X67838789Y-111459974D01*
X67929407Y-111595593D01*
X68065026Y-111686211D01*
X68225000Y-111718032D01*
X69725000Y-111718032D01*
X69884974Y-111686211D01*
X70020593Y-111595593D01*
X70111211Y-111459974D01*
X70114058Y-111445661D01*
X70759439Y-112091043D01*
X70789287Y-112135713D01*
X70966253Y-112253959D01*
X71122308Y-112285000D01*
X71122311Y-112285000D01*
X71174999Y-112295480D01*
X71227687Y-112285000D01*
X78289512Y-112285000D01*
X78141599Y-112432913D01*
X77965000Y-112859262D01*
X77965000Y-113320738D01*
X78141599Y-113747087D01*
X78467913Y-114073401D01*
X78894262Y-114250000D01*
X79355738Y-114250000D01*
X79782087Y-114073401D01*
X80108401Y-113747087D01*
X80285000Y-113320738D01*
X80285000Y-112859262D01*
X80108401Y-112432913D01*
X79960488Y-112285000D01*
X80829512Y-112285000D01*
X80681599Y-112432913D01*
X80505000Y-112859262D01*
X80505000Y-113320738D01*
X80681599Y-113747087D01*
X81007913Y-114073401D01*
X81434262Y-114250000D01*
X81895738Y-114250000D01*
X82322087Y-114073401D01*
X82648401Y-113747087D01*
X82825000Y-113320738D01*
X82825000Y-112859262D01*
X82648401Y-112432913D01*
X82500488Y-112285000D01*
X83369512Y-112285000D01*
X83221599Y-112432913D01*
X83045000Y-112859262D01*
X83045000Y-113320738D01*
X83221599Y-113747087D01*
X83547913Y-114073401D01*
X83670000Y-114123971D01*
X83670000Y-114398395D01*
X83253397Y-114815000D01*
X73002688Y-114815000D01*
X72950000Y-114804520D01*
X72897312Y-114815000D01*
X69125945Y-114815000D01*
X68373216Y-114062272D01*
X68688401Y-113747087D01*
X68865000Y-113320738D01*
X68865000Y-112859262D01*
X68688401Y-112432913D01*
X68362087Y-112106599D01*
X67935738Y-111930000D01*
X67474262Y-111930000D01*
X67047913Y-112106599D01*
X66858591Y-112295921D01*
X66795537Y-112232867D01*
X66571337Y-112140000D01*
X66328663Y-112140000D01*
X66104463Y-112232867D01*
X66026409Y-112310921D01*
X65822087Y-112106599D01*
X65395738Y-111930000D01*
X64934262Y-111930000D01*
X64507913Y-112106599D01*
X64181599Y-112432913D01*
X64005000Y-112859262D01*
X63785000Y-112859262D01*
X63608401Y-112432913D01*
X63282087Y-112106599D01*
X62855738Y-111930000D01*
X62394262Y-111930000D01*
X61967913Y-112106599D01*
X61641599Y-112432913D01*
X61465000Y-112859262D01*
X40560000Y-112859262D01*
X40560000Y-110319262D01*
X62735000Y-110319262D01*
X62735000Y-110780738D01*
X62911599Y-111207087D01*
X63237913Y-111533401D01*
X63664262Y-111710000D01*
X64125738Y-111710000D01*
X64552087Y-111533401D01*
X64878401Y-111207087D01*
X65055000Y-110780738D01*
X65055000Y-110319262D01*
X64878401Y-109892913D01*
X64552087Y-109566599D01*
X64125738Y-109390000D01*
X63664262Y-109390000D01*
X63237913Y-109566599D01*
X62911599Y-109892913D01*
X62735000Y-110319262D01*
X40560000Y-110319262D01*
X40560000Y-103755431D01*
X56360000Y-103755431D01*
X56360000Y-104644569D01*
X56700259Y-105466026D01*
X57328974Y-106094741D01*
X58150431Y-106435000D01*
X59039569Y-106435000D01*
X59861026Y-106094741D01*
X60489741Y-105466026D01*
X60830000Y-104644569D01*
X60830000Y-103755431D01*
X68230000Y-103755431D01*
X68230000Y-104644569D01*
X68570259Y-105466026D01*
X69198974Y-106094741D01*
X70020431Y-106435000D01*
X70909569Y-106435000D01*
X71731026Y-106094741D01*
X72359741Y-105466026D01*
X72700000Y-104644569D01*
X72700000Y-103755431D01*
X72860000Y-103755431D01*
X72860000Y-104644569D01*
X73200259Y-105466026D01*
X73828974Y-106094741D01*
X74650431Y-106435000D01*
X75539569Y-106435000D01*
X76361026Y-106094741D01*
X76989741Y-105466026D01*
X77330000Y-104644569D01*
X77330000Y-103755431D01*
X84730000Y-103755431D01*
X84730000Y-104644569D01*
X85070259Y-105466026D01*
X85698974Y-106094741D01*
X86520431Y-106435000D01*
X87409569Y-106435000D01*
X88231026Y-106094741D01*
X88859741Y-105466026D01*
X89200000Y-104644569D01*
X89200000Y-103755431D01*
X89185503Y-103720430D01*
X89304999Y-103720430D01*
X89304999Y-104609568D01*
X89645258Y-105431025D01*
X90273973Y-106059740D01*
X91095430Y-106399999D01*
X91984568Y-106399999D01*
X92806025Y-106059740D01*
X93434740Y-105431025D01*
X93774999Y-104609568D01*
X93774999Y-103720430D01*
X101174999Y-103720430D01*
X101174999Y-104609568D01*
X101515258Y-105431025D01*
X102143973Y-106059740D01*
X102965430Y-106399999D01*
X103854568Y-106399999D01*
X104676025Y-106059740D01*
X105304740Y-105431025D01*
X105644999Y-104609568D01*
X105644999Y-103720430D01*
X105774999Y-103720430D01*
X105774999Y-104609568D01*
X106115258Y-105431025D01*
X106743973Y-106059740D01*
X107565430Y-106399999D01*
X108454568Y-106399999D01*
X109276025Y-106059740D01*
X109904740Y-105431025D01*
X110244999Y-104609568D01*
X110244999Y-103720430D01*
X117644999Y-103720430D01*
X117644999Y-104609568D01*
X117985258Y-105431025D01*
X118613973Y-106059740D01*
X119435430Y-106399999D01*
X120324568Y-106399999D01*
X121146025Y-106059740D01*
X121774740Y-105431025D01*
X122114999Y-104609568D01*
X122114999Y-103720430D01*
X121774740Y-102898973D01*
X121146025Y-102270258D01*
X120324568Y-101929999D01*
X119435430Y-101929999D01*
X118613973Y-102270258D01*
X117985258Y-102898973D01*
X117644999Y-103720430D01*
X110244999Y-103720430D01*
X109904740Y-102898973D01*
X109276025Y-102270258D01*
X108454568Y-101929999D01*
X107565430Y-101929999D01*
X106743973Y-102270258D01*
X106115258Y-102898973D01*
X105774999Y-103720430D01*
X105644999Y-103720430D01*
X105304740Y-102898973D01*
X104676025Y-102270258D01*
X103854568Y-101929999D01*
X102965430Y-101929999D01*
X102143973Y-102270258D01*
X101515258Y-102898973D01*
X101174999Y-103720430D01*
X93774999Y-103720430D01*
X93434740Y-102898973D01*
X92806025Y-102270258D01*
X91984568Y-101929999D01*
X91095430Y-101929999D01*
X90273973Y-102270258D01*
X89645258Y-102898973D01*
X89304999Y-103720430D01*
X89185503Y-103720430D01*
X88859741Y-102933974D01*
X88231026Y-102305259D01*
X87409569Y-101965000D01*
X86520431Y-101965000D01*
X85698974Y-102305259D01*
X85070259Y-102933974D01*
X84730000Y-103755431D01*
X77330000Y-103755431D01*
X76989741Y-102933974D01*
X76361026Y-102305259D01*
X75539569Y-101965000D01*
X74650431Y-101965000D01*
X73828974Y-102305259D01*
X73200259Y-102933974D01*
X72860000Y-103755431D01*
X72700000Y-103755431D01*
X72359741Y-102933974D01*
X71731026Y-102305259D01*
X70909569Y-101965000D01*
X70020431Y-101965000D01*
X69198974Y-102305259D01*
X68570259Y-102933974D01*
X68230000Y-103755431D01*
X60830000Y-103755431D01*
X60489741Y-102933974D01*
X59861026Y-102305259D01*
X59039569Y-101965000D01*
X58150431Y-101965000D01*
X57328974Y-102305259D01*
X56700259Y-102933974D01*
X56360000Y-103755431D01*
X40560000Y-103755431D01*
X40560000Y-96560000D01*
X139040001Y-96560000D01*
X139040000Y-111340000D01*
X139040000Y-111340000D01*
G37*
X139040000Y-111340000D02*
X131250228Y-111340000D01*
X131200000Y-111330009D01*
X131149772Y-111340000D01*
X131001008Y-111369591D01*
X130832311Y-111482311D01*
X130719591Y-111651008D01*
X130680009Y-111850000D01*
X130690001Y-111900233D01*
X130690000Y-146090000D01*
X123150228Y-146090000D01*
X123100000Y-146080009D01*
X123049772Y-146090000D01*
X122901008Y-146119591D01*
X122732311Y-146232311D01*
X122619591Y-146401008D01*
X122580009Y-146600000D01*
X122590000Y-146650227D01*
X122590000Y-160768327D01*
X122400901Y-160690000D01*
X121999099Y-160690000D01*
X121627881Y-160843763D01*
X121343763Y-161127881D01*
X121190000Y-161499099D01*
X121190000Y-161900901D01*
X121343763Y-162272119D01*
X121627881Y-162556237D01*
X121999099Y-162710000D01*
X122400901Y-162710000D01*
X122590001Y-162631673D01*
X122590001Y-170768327D01*
X122400901Y-170690000D01*
X121999099Y-170690000D01*
X121627881Y-170843763D01*
X121343763Y-171127881D01*
X121190000Y-171499099D01*
X121190000Y-171900901D01*
X121343763Y-172272119D01*
X121627881Y-172556237D01*
X121999099Y-172710000D01*
X122400901Y-172710000D01*
X122590001Y-172631673D01*
X122590001Y-174640000D01*
X40560000Y-174640000D01*
X40560000Y-171888881D01*
X44090000Y-171888881D01*
X44090000Y-172211119D01*
X44213315Y-172508828D01*
X44441172Y-172736685D01*
X44738881Y-172860000D01*
X45061119Y-172860000D01*
X45358828Y-172736685D01*
X45586685Y-172508828D01*
X45710000Y-172211119D01*
X45710000Y-171888881D01*
X45790000Y-171888881D01*
X45790000Y-172211119D01*
X45913315Y-172508828D01*
X46141172Y-172736685D01*
X46438881Y-172860000D01*
X46761119Y-172860000D01*
X47058828Y-172736685D01*
X47286685Y-172508828D01*
X47410000Y-172211119D01*
X47410000Y-171888881D01*
X47286685Y-171591172D01*
X47058828Y-171363315D01*
X46761119Y-171240000D01*
X46438881Y-171240000D01*
X46141172Y-171363315D01*
X45913315Y-171591172D01*
X45790000Y-171888881D01*
X45710000Y-171888881D01*
X45586685Y-171591172D01*
X45358828Y-171363315D01*
X45061119Y-171240000D01*
X44738881Y-171240000D01*
X44441172Y-171363315D01*
X44213315Y-171591172D01*
X44090000Y-171888881D01*
X40560000Y-171888881D01*
X40560000Y-169600000D01*
X42025316Y-169600000D01*
X42123107Y-170091627D01*
X42401591Y-170508409D01*
X42818373Y-170786893D01*
X43185906Y-170860000D01*
X43434094Y-170860000D01*
X43801627Y-170786893D01*
X44218409Y-170508409D01*
X44496893Y-170091627D01*
X44581968Y-169663927D01*
X44581968Y-170450000D01*
X44613789Y-170609974D01*
X44704407Y-170745593D01*
X44840026Y-170836211D01*
X45000000Y-170868032D01*
X46700000Y-170868032D01*
X46859974Y-170836211D01*
X46995593Y-170745593D01*
X47086211Y-170609974D01*
X47118032Y-170450000D01*
X47118032Y-169438881D01*
X47340000Y-169438881D01*
X47340000Y-169761119D01*
X47463315Y-170058828D01*
X47691172Y-170286685D01*
X47904383Y-170375000D01*
X47691172Y-170463315D01*
X47463315Y-170691172D01*
X47340000Y-170988881D01*
X47340000Y-171311119D01*
X47463315Y-171608828D01*
X47691172Y-171836685D01*
X47988881Y-171960000D01*
X48311119Y-171960000D01*
X48608828Y-171836685D01*
X48836685Y-171608828D01*
X48960000Y-171311119D01*
X48960000Y-170988881D01*
X48836685Y-170691172D01*
X48608828Y-170463315D01*
X48395617Y-170375000D01*
X48608828Y-170286685D01*
X48836685Y-170058828D01*
X48960000Y-169761119D01*
X48960000Y-169438881D01*
X48836685Y-169141172D01*
X48670513Y-168975000D01*
X48886685Y-168758828D01*
X49010000Y-168461119D01*
X49010000Y-168138881D01*
X48886685Y-167841172D01*
X48658828Y-167613315D01*
X48361119Y-167490000D01*
X48038881Y-167490000D01*
X47741172Y-167613315D01*
X47513315Y-167841172D01*
X47390000Y-168138881D01*
X47390000Y-168461119D01*
X47513315Y-168758828D01*
X47679487Y-168925000D01*
X47463315Y-169141172D01*
X47340000Y-169438881D01*
X47118032Y-169438881D01*
X47118032Y-168750000D01*
X47086211Y-168590026D01*
X46995593Y-168454407D01*
X46859974Y-168363789D01*
X46700000Y-168331968D01*
X45000000Y-168331968D01*
X44840026Y-168363789D01*
X44704407Y-168454407D01*
X44613789Y-168590026D01*
X44581968Y-168750000D01*
X44581968Y-169536073D01*
X44496893Y-169108373D01*
X44218409Y-168691591D01*
X43801627Y-168413107D01*
X43434094Y-168340000D01*
X43185906Y-168340000D01*
X42818373Y-168413107D01*
X42401591Y-168691591D01*
X42123107Y-169108373D01*
X42025316Y-169600000D01*
X40560000Y-169600000D01*
X40560000Y-167060000D01*
X44565316Y-167060000D01*
X44663107Y-167551627D01*
X44941591Y-167968409D01*
X45358373Y-168246893D01*
X45725906Y-168320000D01*
X45974094Y-168320000D01*
X46341627Y-168246893D01*
X46758409Y-167968409D01*
X47036893Y-167551627D01*
X47134684Y-167060000D01*
X47036893Y-166568373D01*
X46758409Y-166151591D01*
X46710431Y-166119533D01*
X54390000Y-166119533D01*
X54390000Y-166680467D01*
X54604659Y-167198701D01*
X54890000Y-167484042D01*
X54890001Y-171815957D01*
X54604659Y-172101299D01*
X54390000Y-172619533D01*
X54390000Y-173180467D01*
X54604659Y-173698701D01*
X55001299Y-174095341D01*
X55519533Y-174310000D01*
X56080467Y-174310000D01*
X56598701Y-174095341D01*
X56995341Y-173698701D01*
X57210000Y-173180467D01*
X57210000Y-172619533D01*
X56995341Y-172101299D01*
X56710000Y-171815958D01*
X56710000Y-167484042D01*
X56995341Y-167198701D01*
X57210000Y-166680467D01*
X57210000Y-166119533D01*
X57199645Y-166094533D01*
X67565000Y-166094533D01*
X67565000Y-166655467D01*
X67779659Y-167173701D01*
X68065000Y-167459042D01*
X68065001Y-171790957D01*
X67779659Y-172076299D01*
X67565000Y-172594533D01*
X67565000Y-173155467D01*
X67779659Y-173673701D01*
X68176299Y-174070341D01*
X68694533Y-174285000D01*
X69255467Y-174285000D01*
X69773701Y-174070341D01*
X70170341Y-173673701D01*
X70385000Y-173155467D01*
X70385000Y-172594533D01*
X70170341Y-172076299D01*
X69885000Y-171790958D01*
X69885000Y-167459042D01*
X70170341Y-167173701D01*
X70385000Y-166655467D01*
X70385000Y-166099532D01*
X76172500Y-166099532D01*
X76172500Y-166660466D01*
X76387159Y-167178700D01*
X76672500Y-167464041D01*
X76672501Y-171795956D01*
X76387159Y-172081298D01*
X76172500Y-172599532D01*
X76172500Y-173160466D01*
X76387159Y-173678700D01*
X76783799Y-174075340D01*
X77302033Y-174289999D01*
X77862967Y-174289999D01*
X78381201Y-174075340D01*
X78777841Y-173678700D01*
X78992500Y-173160466D01*
X78992500Y-173080000D01*
X84565316Y-173080000D01*
X84663107Y-173571627D01*
X84941591Y-173988409D01*
X85358373Y-174266893D01*
X85725906Y-174340000D01*
X85974094Y-174340000D01*
X86341627Y-174266893D01*
X86758409Y-173988409D01*
X87036893Y-173571627D01*
X87134684Y-173080000D01*
X87036893Y-172588373D01*
X86758409Y-172171591D01*
X86341627Y-171893107D01*
X85974094Y-171820000D01*
X85725906Y-171820000D01*
X85358373Y-171893107D01*
X84941591Y-172171591D01*
X84663107Y-172588373D01*
X84565316Y-173080000D01*
X78992500Y-173080000D01*
X78992500Y-172599532D01*
X78777841Y-172081298D01*
X78492500Y-171795957D01*
X78492500Y-171300000D01*
X113531968Y-171300000D01*
X113531968Y-172100000D01*
X113563789Y-172259974D01*
X113654407Y-172395593D01*
X113790026Y-172486211D01*
X113950000Y-172518032D01*
X115450000Y-172518032D01*
X115609974Y-172486211D01*
X115745593Y-172395593D01*
X115836211Y-172259974D01*
X115868032Y-172100000D01*
X115868032Y-171499099D01*
X118690000Y-171499099D01*
X118690000Y-171900901D01*
X118843763Y-172272119D01*
X119127881Y-172556237D01*
X119499099Y-172710000D01*
X119900901Y-172710000D01*
X120272119Y-172556237D01*
X120556237Y-172272119D01*
X120710000Y-171900901D01*
X120710000Y-171499099D01*
X120556237Y-171127881D01*
X120272119Y-170843763D01*
X119900901Y-170690000D01*
X119499099Y-170690000D01*
X119127881Y-170843763D01*
X118843763Y-171127881D01*
X118690000Y-171499099D01*
X115868032Y-171499099D01*
X115868032Y-171300000D01*
X115836211Y-171140026D01*
X115745593Y-171004407D01*
X115609974Y-170913789D01*
X115450000Y-170881968D01*
X113950000Y-170881968D01*
X113790026Y-170913789D01*
X113654407Y-171004407D01*
X113563789Y-171140026D01*
X113531968Y-171300000D01*
X78492500Y-171300000D01*
X78492500Y-168000000D01*
X84565316Y-168000000D01*
X84663107Y-168491627D01*
X84941591Y-168908409D01*
X85358373Y-169186893D01*
X85725906Y-169260000D01*
X85974094Y-169260000D01*
X86341627Y-169186893D01*
X86758409Y-168908409D01*
X87036893Y-168491627D01*
X87104745Y-168150510D01*
X98432238Y-168150510D01*
X98432238Y-170149490D01*
X98464059Y-170309464D01*
X98554677Y-170445083D01*
X98690296Y-170535701D01*
X98850270Y-170567522D01*
X100849250Y-170567522D01*
X101009224Y-170535701D01*
X101144843Y-170445083D01*
X101235461Y-170309464D01*
X101267282Y-170149490D01*
X101267282Y-168150510D01*
X108434758Y-168150510D01*
X108434758Y-170149490D01*
X108466579Y-170309464D01*
X108557197Y-170445083D01*
X108692816Y-170535701D01*
X108852790Y-170567522D01*
X110851770Y-170567522D01*
X111011744Y-170535701D01*
X111147363Y-170445083D01*
X111237981Y-170309464D01*
X111269802Y-170149490D01*
X111269802Y-168800000D01*
X113531968Y-168800000D01*
X113531968Y-169600000D01*
X113563789Y-169759974D01*
X113654407Y-169895593D01*
X113790026Y-169986211D01*
X113950000Y-170018032D01*
X115450000Y-170018032D01*
X115609974Y-169986211D01*
X115745593Y-169895593D01*
X115836211Y-169759974D01*
X115868032Y-169600000D01*
X115868032Y-168800000D01*
X115836211Y-168640026D01*
X115745593Y-168504407D01*
X115609974Y-168413789D01*
X115450000Y-168381968D01*
X113950000Y-168381968D01*
X113790026Y-168413789D01*
X113654407Y-168504407D01*
X113563789Y-168640026D01*
X113531968Y-168800000D01*
X111269802Y-168800000D01*
X111269802Y-168150510D01*
X111237981Y-167990536D01*
X111147363Y-167854917D01*
X111011744Y-167764299D01*
X110851770Y-167732478D01*
X108852790Y-167732478D01*
X108692816Y-167764299D01*
X108557197Y-167854917D01*
X108466579Y-167990536D01*
X108434758Y-168150510D01*
X101267282Y-168150510D01*
X101235461Y-167990536D01*
X101144843Y-167854917D01*
X101009224Y-167764299D01*
X100849250Y-167732478D01*
X98850270Y-167732478D01*
X98690296Y-167764299D01*
X98554677Y-167854917D01*
X98464059Y-167990536D01*
X98432238Y-168150510D01*
X87104745Y-168150510D01*
X87134684Y-168000000D01*
X87036893Y-167508373D01*
X86758409Y-167091591D01*
X86341627Y-166813107D01*
X85974094Y-166740000D01*
X85725906Y-166740000D01*
X85358373Y-166813107D01*
X84941591Y-167091591D01*
X84663107Y-167508373D01*
X84565316Y-168000000D01*
X78492500Y-168000000D01*
X78492500Y-167464041D01*
X78777841Y-167178700D01*
X78992500Y-166660466D01*
X78992500Y-166099532D01*
X78777841Y-165581298D01*
X78656543Y-165460000D01*
X84565316Y-165460000D01*
X84663107Y-165951627D01*
X84941591Y-166368409D01*
X85358373Y-166646893D01*
X85725906Y-166720000D01*
X85974094Y-166720000D01*
X86341627Y-166646893D01*
X86758409Y-166368409D01*
X87036893Y-165951627D01*
X87134684Y-165460000D01*
X87036893Y-164968373D01*
X86891323Y-164750510D01*
X98382238Y-164750510D01*
X98382238Y-166749490D01*
X98414059Y-166909464D01*
X98504677Y-167045083D01*
X98640296Y-167135701D01*
X98800270Y-167167522D01*
X100799250Y-167167522D01*
X100959224Y-167135701D01*
X101094843Y-167045083D01*
X101185461Y-166909464D01*
X101217282Y-166749490D01*
X101217282Y-164750510D01*
X108384758Y-164750510D01*
X108384758Y-166749490D01*
X108416579Y-166909464D01*
X108507197Y-167045083D01*
X108642816Y-167135701D01*
X108802790Y-167167522D01*
X110801770Y-167167522D01*
X110961744Y-167135701D01*
X111097363Y-167045083D01*
X111187981Y-166909464D01*
X111219802Y-166749490D01*
X111219802Y-166499099D01*
X113690000Y-166499099D01*
X113690000Y-166900901D01*
X113843763Y-167272119D01*
X114127881Y-167556237D01*
X114499099Y-167710000D01*
X114900901Y-167710000D01*
X115272119Y-167556237D01*
X115556237Y-167272119D01*
X115710000Y-166900901D01*
X115710000Y-166499099D01*
X115556237Y-166127881D01*
X115272119Y-165843763D01*
X114900901Y-165690000D01*
X114499099Y-165690000D01*
X114127881Y-165843763D01*
X113843763Y-166127881D01*
X113690000Y-166499099D01*
X111219802Y-166499099D01*
X111219802Y-164750510D01*
X111187981Y-164590536D01*
X111097363Y-164454917D01*
X110961744Y-164364299D01*
X110801770Y-164332478D01*
X108802790Y-164332478D01*
X108642816Y-164364299D01*
X108507197Y-164454917D01*
X108416579Y-164590536D01*
X108384758Y-164750510D01*
X101217282Y-164750510D01*
X101185461Y-164590536D01*
X101094843Y-164454917D01*
X100959224Y-164364299D01*
X100799250Y-164332478D01*
X98800270Y-164332478D01*
X98640296Y-164364299D01*
X98504677Y-164454917D01*
X98414059Y-164590536D01*
X98382238Y-164750510D01*
X86891323Y-164750510D01*
X86758409Y-164551591D01*
X86341627Y-164273107D01*
X85974094Y-164200000D01*
X85725906Y-164200000D01*
X85358373Y-164273107D01*
X84941591Y-164551591D01*
X84663107Y-164968373D01*
X84565316Y-165460000D01*
X78656543Y-165460000D01*
X78381201Y-165184658D01*
X77862967Y-164969999D01*
X77302033Y-164969999D01*
X76783799Y-165184658D01*
X76387159Y-165581298D01*
X76172500Y-166099532D01*
X70385000Y-166099532D01*
X70385000Y-166094533D01*
X70170341Y-165576299D01*
X69773701Y-165179659D01*
X69255467Y-164965000D01*
X68694533Y-164965000D01*
X68176299Y-165179659D01*
X67779659Y-165576299D01*
X67565000Y-166094533D01*
X57199645Y-166094533D01*
X56995341Y-165601299D01*
X56598701Y-165204659D01*
X56080467Y-164990000D01*
X55519533Y-164990000D01*
X55001299Y-165204659D01*
X54604659Y-165601299D01*
X54390000Y-166119533D01*
X46710431Y-166119533D01*
X46341627Y-165873107D01*
X45974094Y-165800000D01*
X45725906Y-165800000D01*
X45358373Y-165873107D01*
X44941591Y-166151591D01*
X44663107Y-166568373D01*
X44565316Y-167060000D01*
X40560000Y-167060000D01*
X40560000Y-164520000D01*
X44565316Y-164520000D01*
X44663107Y-165011627D01*
X44941591Y-165428409D01*
X45358373Y-165706893D01*
X45725906Y-165780000D01*
X45974094Y-165780000D01*
X46341627Y-165706893D01*
X46758409Y-165428409D01*
X47036893Y-165011627D01*
X47134684Y-164520000D01*
X47036893Y-164028373D01*
X46758409Y-163611591D01*
X46341627Y-163333107D01*
X45974094Y-163260000D01*
X45725906Y-163260000D01*
X45358373Y-163333107D01*
X44941591Y-163611591D01*
X44663107Y-164028373D01*
X44565316Y-164520000D01*
X40560000Y-164520000D01*
X40560000Y-161980000D01*
X44565316Y-161980000D01*
X44663107Y-162471627D01*
X44941591Y-162888409D01*
X45358373Y-163166893D01*
X45725906Y-163240000D01*
X45974094Y-163240000D01*
X46341627Y-163166893D01*
X46758409Y-162888409D01*
X46966432Y-162577079D01*
X51795939Y-162577079D01*
X51795939Y-162819753D01*
X51888806Y-163043953D01*
X52060402Y-163215549D01*
X52284602Y-163308416D01*
X52527276Y-163308416D01*
X52751476Y-163215549D01*
X52923072Y-163043953D01*
X52996737Y-162866111D01*
X53035713Y-162840068D01*
X53153959Y-162663102D01*
X53178667Y-162538881D01*
X53890000Y-162538881D01*
X53890000Y-162861119D01*
X54013315Y-163158828D01*
X54241172Y-163386685D01*
X54538881Y-163510000D01*
X54861119Y-163510000D01*
X55158828Y-163386685D01*
X55185513Y-163360000D01*
X57635002Y-163360000D01*
X57700000Y-163372929D01*
X57764998Y-163360000D01*
X57765003Y-163360000D01*
X57957519Y-163321706D01*
X58081475Y-163238881D01*
X64890000Y-163238881D01*
X64890000Y-163561119D01*
X65013315Y-163858828D01*
X65241172Y-164086685D01*
X65538881Y-164210000D01*
X65861119Y-164210000D01*
X66158828Y-164086685D01*
X66386685Y-163858828D01*
X66510000Y-163561119D01*
X66510000Y-163238881D01*
X66386685Y-162941172D01*
X66158828Y-162713315D01*
X65861119Y-162590000D01*
X65538881Y-162590000D01*
X65241172Y-162713315D01*
X65013315Y-162941172D01*
X64890000Y-163238881D01*
X58081475Y-163238881D01*
X58175833Y-163175833D01*
X58212655Y-163120725D01*
X58623381Y-162710000D01*
X58661119Y-162710000D01*
X58958828Y-162586685D01*
X59186685Y-162358828D01*
X59310000Y-162061119D01*
X59310000Y-161738881D01*
X59186685Y-161441172D01*
X58958828Y-161213315D01*
X58661119Y-161090000D01*
X58338881Y-161090000D01*
X58041172Y-161213315D01*
X57813315Y-161441172D01*
X57690000Y-161738881D01*
X57690000Y-161776619D01*
X57426620Y-162040000D01*
X55185513Y-162040000D01*
X55158828Y-162013315D01*
X54861119Y-161890000D01*
X54538881Y-161890000D01*
X54241172Y-162013315D01*
X54013315Y-162241172D01*
X53890000Y-162538881D01*
X53178667Y-162538881D01*
X53185000Y-162507047D01*
X53185000Y-162507044D01*
X53195480Y-162454356D01*
X53185000Y-162401668D01*
X53185000Y-160788881D01*
X53240000Y-160788881D01*
X53240000Y-161111119D01*
X53363315Y-161408828D01*
X53591172Y-161636685D01*
X53888881Y-161760000D01*
X54211119Y-161760000D01*
X54508828Y-161636685D01*
X54736685Y-161408828D01*
X54860000Y-161111119D01*
X54860000Y-160788881D01*
X54736685Y-160491172D01*
X54508828Y-160263315D01*
X54211119Y-160140000D01*
X53888881Y-160140000D01*
X53591172Y-160263315D01*
X53363315Y-160491172D01*
X53240000Y-160788881D01*
X53185000Y-160788881D01*
X53185000Y-158838881D01*
X53190000Y-158838881D01*
X53190000Y-159161119D01*
X53313315Y-159458828D01*
X53541172Y-159686685D01*
X53838881Y-159810000D01*
X54161119Y-159810000D01*
X54458828Y-159686685D01*
X54686685Y-159458828D01*
X54810000Y-159161119D01*
X54810000Y-158838881D01*
X54686685Y-158541172D01*
X54660000Y-158514487D01*
X54660000Y-156585513D01*
X54786685Y-156458828D01*
X54910000Y-156161119D01*
X54910000Y-155838881D01*
X54786685Y-155541172D01*
X54558828Y-155313315D01*
X54261119Y-155190000D01*
X53938881Y-155190000D01*
X53641172Y-155313315D01*
X53413315Y-155541172D01*
X53290000Y-155838881D01*
X53290000Y-156161119D01*
X53340001Y-156281832D01*
X53340000Y-158514487D01*
X53313315Y-158541172D01*
X53190000Y-158838881D01*
X53185000Y-158838881D01*
X53185000Y-156752402D01*
X53260000Y-156571337D01*
X53260000Y-156328663D01*
X53167133Y-156104463D01*
X52995537Y-155932867D01*
X52771337Y-155840000D01*
X52528663Y-155840000D01*
X52304463Y-155932867D01*
X52132867Y-156104463D01*
X52040000Y-156328663D01*
X52040000Y-156571337D01*
X52115000Y-156752403D01*
X52115001Y-162158667D01*
X52060402Y-162181283D01*
X51888806Y-162352879D01*
X51795939Y-162577079D01*
X46966432Y-162577079D01*
X47036893Y-162471627D01*
X47134684Y-161980000D01*
X47036893Y-161488373D01*
X46758409Y-161071591D01*
X46341627Y-160793107D01*
X45974094Y-160720000D01*
X45725906Y-160720000D01*
X45358373Y-160793107D01*
X44941591Y-161071591D01*
X44663107Y-161488373D01*
X44565316Y-161980000D01*
X40560000Y-161980000D01*
X40560000Y-159440000D01*
X44565316Y-159440000D01*
X44663107Y-159931627D01*
X44941591Y-160348409D01*
X45358373Y-160626893D01*
X45725906Y-160700000D01*
X45974094Y-160700000D01*
X46341627Y-160626893D01*
X46758409Y-160348409D01*
X47036893Y-159931627D01*
X47134684Y-159440000D01*
X47036893Y-158948373D01*
X46758409Y-158531591D01*
X46341627Y-158253107D01*
X45974094Y-158180000D01*
X45725906Y-158180000D01*
X45358373Y-158253107D01*
X44941591Y-158531591D01*
X44663107Y-158948373D01*
X44565316Y-159440000D01*
X40560000Y-159440000D01*
X40560000Y-156900000D01*
X44565316Y-156900000D01*
X44663107Y-157391627D01*
X44941591Y-157808409D01*
X45358373Y-158086893D01*
X45725906Y-158160000D01*
X45974094Y-158160000D01*
X46341627Y-158086893D01*
X46758409Y-157808409D01*
X47036893Y-157391627D01*
X47134684Y-156900000D01*
X47036893Y-156408373D01*
X46758409Y-155991591D01*
X46341627Y-155713107D01*
X45974094Y-155640000D01*
X45725906Y-155640000D01*
X45358373Y-155713107D01*
X44941591Y-155991591D01*
X44663107Y-156408373D01*
X44565316Y-156900000D01*
X40560000Y-156900000D01*
X40560000Y-154360000D01*
X44565316Y-154360000D01*
X44663107Y-154851627D01*
X44941591Y-155268409D01*
X45358373Y-155546893D01*
X45725906Y-155620000D01*
X45974094Y-155620000D01*
X46341627Y-155546893D01*
X46758409Y-155268409D01*
X47036893Y-154851627D01*
X47134684Y-154360000D01*
X47058832Y-153978663D01*
X65790000Y-153978663D01*
X65790000Y-154221337D01*
X65882867Y-154445537D01*
X66054463Y-154617133D01*
X66278663Y-154710000D01*
X66521337Y-154710000D01*
X66745537Y-154617133D01*
X66917133Y-154445537D01*
X67010000Y-154221337D01*
X67010000Y-153978663D01*
X66935000Y-153797598D01*
X66935000Y-153027670D01*
X67017133Y-152945537D01*
X67110000Y-152721337D01*
X67110000Y-152478663D01*
X67017133Y-152254463D01*
X66845537Y-152082867D01*
X66621337Y-151990000D01*
X66378663Y-151990000D01*
X66154463Y-152082867D01*
X65982867Y-152254463D01*
X65890000Y-152478663D01*
X65890000Y-152521624D01*
X65865000Y-152647309D01*
X65865000Y-152647312D01*
X65854520Y-152700000D01*
X65865000Y-152752688D01*
X65865001Y-153797596D01*
X65790000Y-153978663D01*
X47058832Y-153978663D01*
X47036893Y-153868373D01*
X46758409Y-153451591D01*
X46341627Y-153173107D01*
X45974094Y-153100000D01*
X45725906Y-153100000D01*
X45358373Y-153173107D01*
X44941591Y-153451591D01*
X44663107Y-153868373D01*
X44565316Y-154360000D01*
X40560000Y-154360000D01*
X40560000Y-151820000D01*
X44565316Y-151820000D01*
X44663107Y-152311627D01*
X44941591Y-152728409D01*
X45358373Y-153006893D01*
X45725906Y-153080000D01*
X45974094Y-153080000D01*
X46341627Y-153006893D01*
X46758409Y-152728409D01*
X47036893Y-152311627D01*
X47134684Y-151820000D01*
X47036893Y-151328373D01*
X46758409Y-150911591D01*
X46341627Y-150633107D01*
X45974094Y-150560000D01*
X45725906Y-150560000D01*
X45358373Y-150633107D01*
X44941591Y-150911591D01*
X44663107Y-151328373D01*
X44565316Y-151820000D01*
X40560000Y-151820000D01*
X40560000Y-149280000D01*
X44565316Y-149280000D01*
X44663107Y-149771627D01*
X44941591Y-150188409D01*
X45358373Y-150466893D01*
X45725906Y-150540000D01*
X45974094Y-150540000D01*
X46341627Y-150466893D01*
X46758409Y-150188409D01*
X47036893Y-149771627D01*
X47134684Y-149280000D01*
X47036893Y-148788373D01*
X46758409Y-148371591D01*
X46341627Y-148093107D01*
X45974094Y-148020000D01*
X45725906Y-148020000D01*
X45358373Y-148093107D01*
X44941591Y-148371591D01*
X44663107Y-148788373D01*
X44565316Y-149280000D01*
X40560000Y-149280000D01*
X40560000Y-146740000D01*
X44565316Y-146740000D01*
X44663107Y-147231627D01*
X44941591Y-147648409D01*
X45358373Y-147926893D01*
X45725906Y-148000000D01*
X45974094Y-148000000D01*
X46341627Y-147926893D01*
X46758409Y-147648409D01*
X47036893Y-147231627D01*
X47134684Y-146740000D01*
X47036893Y-146248373D01*
X46758409Y-145831591D01*
X46341627Y-145553107D01*
X45974094Y-145480000D01*
X45725906Y-145480000D01*
X45358373Y-145553107D01*
X44941591Y-145831591D01*
X44663107Y-146248373D01*
X44565316Y-146740000D01*
X40560000Y-146740000D01*
X40560000Y-141378663D01*
X48440000Y-141378663D01*
X48440000Y-141621337D01*
X48532867Y-141845537D01*
X48704463Y-142017133D01*
X48885531Y-142092134D01*
X56365001Y-149571605D01*
X56365000Y-150047597D01*
X56290000Y-150228663D01*
X56290000Y-150471337D01*
X56382867Y-150695537D01*
X56554463Y-150867133D01*
X56778663Y-150960000D01*
X57021337Y-150960000D01*
X57245537Y-150867133D01*
X57417133Y-150695537D01*
X57510000Y-150471337D01*
X57510000Y-150228663D01*
X57435000Y-150047598D01*
X57435000Y-149402687D01*
X57445480Y-149349999D01*
X57435000Y-149297311D01*
X57435000Y-149297308D01*
X57403959Y-149141253D01*
X57285713Y-148964287D01*
X57241044Y-148934440D01*
X50306604Y-142000000D01*
X63122173Y-142000000D01*
X63192800Y-142355064D01*
X63393927Y-142656073D01*
X63694936Y-142857200D01*
X63960378Y-142910000D01*
X64823067Y-142910000D01*
X66340000Y-144426934D01*
X66340001Y-146610374D01*
X66322173Y-146700000D01*
X66392800Y-147055063D01*
X66426778Y-147105915D01*
X66593928Y-147356073D01*
X66669908Y-147406841D01*
X67043157Y-147780090D01*
X67093927Y-147856073D01*
X67362777Y-148035712D01*
X67394936Y-148057200D01*
X67738633Y-148125566D01*
X71319905Y-151706839D01*
X71544936Y-151857200D01*
X71584144Y-151864999D01*
X68671603Y-151864999D01*
X68542134Y-151735530D01*
X68467133Y-151554463D01*
X68295537Y-151382867D01*
X68071337Y-151290000D01*
X67828663Y-151290000D01*
X67604463Y-151382867D01*
X67432867Y-151554463D01*
X67340000Y-151778663D01*
X67340000Y-152021337D01*
X67432867Y-152245537D01*
X67604463Y-152417133D01*
X67785530Y-152492134D01*
X68034438Y-152741042D01*
X68064286Y-152785712D01*
X68241252Y-152903958D01*
X68397307Y-152934999D01*
X68397311Y-152934999D01*
X68449998Y-152945479D01*
X68502685Y-152934999D01*
X71458399Y-152934999D01*
X69608956Y-154784443D01*
X69585531Y-154807868D01*
X69404463Y-154882869D01*
X69232867Y-155054465D01*
X69140000Y-155278665D01*
X69140000Y-155521339D01*
X69232867Y-155745539D01*
X69404463Y-155917135D01*
X69628663Y-156010002D01*
X69871337Y-156010002D01*
X70095537Y-155917135D01*
X70119679Y-155892993D01*
X70182865Y-156045537D01*
X70354461Y-156217133D01*
X70535529Y-156292134D01*
X72233393Y-157990000D01*
X68576935Y-157990000D01*
X66980094Y-156393161D01*
X66755063Y-156242800D01*
X66400000Y-156172173D01*
X66044937Y-156242800D01*
X65743928Y-156443928D01*
X65542800Y-156744937D01*
X65517361Y-156872825D01*
X65490000Y-156938881D01*
X65490000Y-157010378D01*
X65472173Y-157100000D01*
X65490000Y-157189622D01*
X65490000Y-157261119D01*
X65517361Y-157327175D01*
X65542800Y-157455063D01*
X65693161Y-157680094D01*
X67493161Y-159480096D01*
X67543927Y-159556073D01*
X67844936Y-159757200D01*
X68110378Y-159810000D01*
X68199999Y-159827827D01*
X68289620Y-159810000D01*
X70427330Y-159810000D01*
X70332867Y-159904463D01*
X70240000Y-160128663D01*
X70240000Y-160371337D01*
X70332867Y-160595537D01*
X70504463Y-160767133D01*
X70685531Y-160842134D01*
X73007969Y-163164573D01*
X72940000Y-163328663D01*
X72940000Y-163571337D01*
X73032867Y-163795537D01*
X73204463Y-163967133D01*
X73428663Y-164060000D01*
X73671337Y-164060000D01*
X73895537Y-163967133D01*
X74067133Y-163795537D01*
X74160000Y-163571337D01*
X74160000Y-163538881D01*
X74590000Y-163538881D01*
X74590000Y-163861119D01*
X74713315Y-164158828D01*
X74941172Y-164386685D01*
X75238881Y-164510000D01*
X75561119Y-164510000D01*
X75858828Y-164386685D01*
X76086685Y-164158828D01*
X76210000Y-163861119D01*
X76210000Y-163538881D01*
X76086685Y-163241172D01*
X75858828Y-163013315D01*
X75633546Y-162920000D01*
X84565316Y-162920000D01*
X84663107Y-163411627D01*
X84941591Y-163828409D01*
X85358373Y-164106893D01*
X85725906Y-164180000D01*
X85974094Y-164180000D01*
X86341627Y-164106893D01*
X86758409Y-163828409D01*
X87036893Y-163411627D01*
X87134684Y-162920000D01*
X87036893Y-162428373D01*
X86758409Y-162011591D01*
X86341627Y-161733107D01*
X85974094Y-161660000D01*
X85725906Y-161660000D01*
X85358373Y-161733107D01*
X84941591Y-162011591D01*
X84663107Y-162428373D01*
X84565316Y-162920000D01*
X75633546Y-162920000D01*
X75561119Y-162890000D01*
X75238881Y-162890000D01*
X74941172Y-163013315D01*
X74713315Y-163241172D01*
X74590000Y-163538881D01*
X74160000Y-163538881D01*
X74160000Y-163328663D01*
X74085000Y-163147598D01*
X74085000Y-163002688D01*
X74095480Y-162950000D01*
X74085000Y-162897312D01*
X74085000Y-162897308D01*
X74053959Y-162741253D01*
X73935713Y-162564287D01*
X73891044Y-162534440D01*
X71442134Y-160085531D01*
X71367133Y-159904463D01*
X71272670Y-159810000D01*
X73639622Y-159810000D01*
X73905064Y-159757200D01*
X74206073Y-159556073D01*
X74407200Y-159255064D01*
X74477827Y-158900000D01*
X74407200Y-158544936D01*
X74348439Y-158456993D01*
X83170390Y-158456993D01*
X84652930Y-159939535D01*
X84565316Y-160380000D01*
X84663107Y-160871627D01*
X84941591Y-161288409D01*
X85358373Y-161566893D01*
X85725906Y-161640000D01*
X85974094Y-161640000D01*
X86341627Y-161566893D01*
X86758409Y-161288409D01*
X87036893Y-160871627D01*
X87134684Y-160380000D01*
X87079341Y-160101770D01*
X91382478Y-160101770D01*
X91382478Y-162100750D01*
X91414299Y-162260724D01*
X91504917Y-162396343D01*
X91640536Y-162486961D01*
X91800510Y-162518782D01*
X93799490Y-162518782D01*
X93959464Y-162486961D01*
X94095083Y-162396343D01*
X94185701Y-162260724D01*
X94217522Y-162100750D01*
X94217522Y-161300000D01*
X113531968Y-161300000D01*
X113531968Y-162100000D01*
X113563789Y-162259974D01*
X113654407Y-162395593D01*
X113790026Y-162486211D01*
X113950000Y-162518032D01*
X115450000Y-162518032D01*
X115609974Y-162486211D01*
X115745593Y-162395593D01*
X115836211Y-162259974D01*
X115868032Y-162100000D01*
X115868032Y-161499099D01*
X118690000Y-161499099D01*
X118690000Y-161900901D01*
X118843763Y-162272119D01*
X119127881Y-162556237D01*
X119499099Y-162710000D01*
X119900901Y-162710000D01*
X120272119Y-162556237D01*
X120556237Y-162272119D01*
X120710000Y-161900901D01*
X120710000Y-161499099D01*
X120556237Y-161127881D01*
X120272119Y-160843763D01*
X119900901Y-160690000D01*
X119499099Y-160690000D01*
X119127881Y-160843763D01*
X118843763Y-161127881D01*
X118690000Y-161499099D01*
X115868032Y-161499099D01*
X115868032Y-161300000D01*
X115836211Y-161140026D01*
X115745593Y-161004407D01*
X115609974Y-160913789D01*
X115450000Y-160881968D01*
X113950000Y-160881968D01*
X113790026Y-160913789D01*
X113654407Y-161004407D01*
X113563789Y-161140026D01*
X113531968Y-161300000D01*
X94217522Y-161300000D01*
X94217522Y-160101770D01*
X94185701Y-159941796D01*
X94095083Y-159806177D01*
X93959464Y-159715559D01*
X93799490Y-159683738D01*
X91800510Y-159683738D01*
X91640536Y-159715559D01*
X91504917Y-159806177D01*
X91414299Y-159941796D01*
X91382478Y-160101770D01*
X87079341Y-160101770D01*
X87036893Y-159888373D01*
X86758409Y-159471591D01*
X86341627Y-159193107D01*
X85974094Y-159120000D01*
X85725906Y-159120000D01*
X85409535Y-159182930D01*
X84996605Y-158770000D01*
X97446295Y-158770000D01*
X97540205Y-159242118D01*
X97807639Y-159642361D01*
X98207882Y-159909795D01*
X98560827Y-159980000D01*
X98799173Y-159980000D01*
X99152118Y-159909795D01*
X99552361Y-159642361D01*
X99819795Y-159242118D01*
X99913705Y-158770000D01*
X99986295Y-158770000D01*
X100080205Y-159242118D01*
X100347639Y-159642361D01*
X100747882Y-159909795D01*
X101100827Y-159980000D01*
X101339173Y-159980000D01*
X101692118Y-159909795D01*
X102092361Y-159642361D01*
X102359795Y-159242118D01*
X102453705Y-158770000D01*
X102359795Y-158297882D01*
X102092361Y-157897639D01*
X101692118Y-157630205D01*
X101339173Y-157560000D01*
X101100827Y-157560000D01*
X100747882Y-157630205D01*
X100347639Y-157897639D01*
X100080205Y-158297882D01*
X99986295Y-158770000D01*
X99913705Y-158770000D01*
X99819795Y-158297882D01*
X99552361Y-157897639D01*
X99152118Y-157630205D01*
X98799173Y-157560000D01*
X98560827Y-157560000D01*
X98207882Y-157630205D01*
X97807639Y-157897639D01*
X97540205Y-158297882D01*
X97446295Y-158770000D01*
X84996605Y-158770000D01*
X83807555Y-157580952D01*
X83777706Y-157536280D01*
X83600740Y-157418034D01*
X83444685Y-157386993D01*
X83444681Y-157386993D01*
X83391993Y-157376513D01*
X83339305Y-157386993D01*
X73143596Y-157386993D01*
X71292132Y-155535531D01*
X71217131Y-155354463D01*
X71045535Y-155182867D01*
X70821335Y-155090000D01*
X70816605Y-155090000D01*
X71456605Y-154450000D01*
X84581968Y-154450000D01*
X84581968Y-156150000D01*
X84613789Y-156309974D01*
X84704407Y-156445593D01*
X84840026Y-156536211D01*
X85000000Y-156568032D01*
X86700000Y-156568032D01*
X86859974Y-156536211D01*
X86995593Y-156445593D01*
X87086211Y-156309974D01*
X87118032Y-156150000D01*
X87118032Y-154450000D01*
X87086211Y-154290026D01*
X86995593Y-154154407D01*
X86859974Y-154063789D01*
X86700000Y-154031968D01*
X85000000Y-154031968D01*
X84840026Y-154063789D01*
X84704407Y-154154407D01*
X84613789Y-154290026D01*
X84581968Y-154450000D01*
X71456605Y-154450000D01*
X72246606Y-153660000D01*
X74847598Y-153660000D01*
X75028663Y-153735000D01*
X75271337Y-153735000D01*
X75495537Y-153642133D01*
X75667133Y-153470537D01*
X75760000Y-153246337D01*
X75760000Y-153003663D01*
X75731558Y-152934999D01*
X93997313Y-152934999D01*
X94050001Y-152945479D01*
X94102689Y-152934999D01*
X94102693Y-152934999D01*
X94258748Y-152903958D01*
X94435714Y-152785712D01*
X94465563Y-152741040D01*
X95164470Y-152042133D01*
X95345537Y-151967133D01*
X95517133Y-151795537D01*
X95610000Y-151571337D01*
X95610000Y-151376603D01*
X102605451Y-158372056D01*
X102526295Y-158770000D01*
X102620205Y-159242118D01*
X102887639Y-159642361D01*
X103287882Y-159909795D01*
X103640827Y-159980000D01*
X103879173Y-159980000D01*
X104232118Y-159909795D01*
X104632361Y-159642361D01*
X104899795Y-159242118D01*
X104993705Y-158770000D01*
X105066295Y-158770000D01*
X105160205Y-159242118D01*
X105427639Y-159642361D01*
X105827882Y-159909795D01*
X106180827Y-159980000D01*
X106419173Y-159980000D01*
X106772118Y-159909795D01*
X107172361Y-159642361D01*
X107439795Y-159242118D01*
X107533705Y-158770000D01*
X107439795Y-158297882D01*
X107172361Y-157897639D01*
X106772118Y-157630205D01*
X106419173Y-157560000D01*
X106180827Y-157560000D01*
X105827882Y-157630205D01*
X105427639Y-157897639D01*
X105160205Y-158297882D01*
X105066295Y-158770000D01*
X104993705Y-158770000D01*
X104899795Y-158297882D01*
X104632361Y-157897639D01*
X104232118Y-157630205D01*
X103879173Y-157560000D01*
X103640827Y-157560000D01*
X103362056Y-157615451D01*
X102571834Y-156825229D01*
X113020000Y-156825229D01*
X113020000Y-157274771D01*
X113192032Y-157690094D01*
X113509906Y-158007968D01*
X113925229Y-158180000D01*
X114374771Y-158180000D01*
X114790094Y-158007968D01*
X115107968Y-157690094D01*
X115280000Y-157274771D01*
X115280000Y-156825229D01*
X115107968Y-156409906D01*
X114790094Y-156092032D01*
X114374771Y-155920000D01*
X113925229Y-155920000D01*
X113509906Y-156092032D01*
X113192032Y-156409906D01*
X113020000Y-156825229D01*
X102571834Y-156825229D01*
X99185485Y-153438881D01*
X108290000Y-153438881D01*
X108290000Y-153761119D01*
X108413315Y-154058828D01*
X108641172Y-154286685D01*
X108938881Y-154410000D01*
X109261119Y-154410000D01*
X109558828Y-154286685D01*
X109560284Y-154285229D01*
X113020000Y-154285229D01*
X113020000Y-154734771D01*
X113192032Y-155150094D01*
X113509906Y-155467968D01*
X113925229Y-155640000D01*
X114374771Y-155640000D01*
X114790094Y-155467968D01*
X115107968Y-155150094D01*
X115280000Y-154734771D01*
X115280000Y-154285229D01*
X115107968Y-153869906D01*
X114790094Y-153552032D01*
X114374771Y-153380000D01*
X113925229Y-153380000D01*
X113509906Y-153552032D01*
X113192032Y-153869906D01*
X113020000Y-154285229D01*
X109560284Y-154285229D01*
X109786685Y-154058828D01*
X109910000Y-153761119D01*
X109910000Y-153438881D01*
X109786685Y-153141172D01*
X109558828Y-152913315D01*
X109261119Y-152790000D01*
X108938881Y-152790000D01*
X108641172Y-152913315D01*
X108413315Y-153141172D01*
X108290000Y-153438881D01*
X99185485Y-153438881D01*
X95371592Y-149624989D01*
X96398386Y-149624989D01*
X97525451Y-150752055D01*
X97446295Y-151150000D01*
X97540205Y-151622118D01*
X97807639Y-152022361D01*
X98207882Y-152289795D01*
X98560827Y-152360000D01*
X98799173Y-152360000D01*
X99152118Y-152289795D01*
X99552361Y-152022361D01*
X99819795Y-151622118D01*
X99913705Y-151150000D01*
X99986295Y-151150000D01*
X100080205Y-151622118D01*
X100347639Y-152022361D01*
X100747882Y-152289795D01*
X101100827Y-152360000D01*
X101339173Y-152360000D01*
X101692118Y-152289795D01*
X102092361Y-152022361D01*
X102359795Y-151622118D01*
X102453705Y-151150000D01*
X102359795Y-150677882D01*
X102140712Y-150350000D01*
X105081968Y-150350000D01*
X105081968Y-151950000D01*
X105113789Y-152109974D01*
X105204407Y-152245593D01*
X105340026Y-152336211D01*
X105500000Y-152368032D01*
X107100000Y-152368032D01*
X107259974Y-152336211D01*
X107395593Y-152245593D01*
X107486211Y-152109974D01*
X107518032Y-151950000D01*
X107518032Y-151745229D01*
X113020000Y-151745229D01*
X113020000Y-152194771D01*
X113192032Y-152610094D01*
X113509906Y-152927968D01*
X113925229Y-153100000D01*
X114374771Y-153100000D01*
X114790094Y-152927968D01*
X115107968Y-152610094D01*
X115280000Y-152194771D01*
X115280000Y-151745229D01*
X115107968Y-151329906D01*
X114790094Y-151012032D01*
X114374771Y-150840000D01*
X113925229Y-150840000D01*
X113509906Y-151012032D01*
X113192032Y-151329906D01*
X113020000Y-151745229D01*
X107518032Y-151745229D01*
X107518032Y-150350000D01*
X107486211Y-150190026D01*
X107395593Y-150054407D01*
X107259974Y-149963789D01*
X107100000Y-149931968D01*
X105500000Y-149931968D01*
X105340026Y-149963789D01*
X105204407Y-150054407D01*
X105113789Y-150190026D01*
X105081968Y-150350000D01*
X102140712Y-150350000D01*
X102092361Y-150277639D01*
X101692118Y-150010205D01*
X101339173Y-149940000D01*
X101100827Y-149940000D01*
X100747882Y-150010205D01*
X100347639Y-150277639D01*
X100080205Y-150677882D01*
X99986295Y-151150000D01*
X99913705Y-151150000D01*
X99819795Y-150677882D01*
X99552361Y-150277639D01*
X99152118Y-150010205D01*
X98799173Y-149940000D01*
X98560827Y-149940000D01*
X98282055Y-149995451D01*
X97035551Y-148748948D01*
X97005702Y-148704276D01*
X96828736Y-148586030D01*
X96672681Y-148554989D01*
X96672677Y-148554989D01*
X96619989Y-148544509D01*
X96567301Y-148554989D01*
X96188660Y-148554989D01*
X96252066Y-148460095D01*
X96322693Y-148105031D01*
X96252066Y-147749968D01*
X96241265Y-147733803D01*
X96324212Y-147768161D01*
X96566886Y-147768161D01*
X96747951Y-147693161D01*
X105600359Y-147693161D01*
X105540000Y-147838881D01*
X105540000Y-148161119D01*
X105663315Y-148458828D01*
X105891172Y-148686685D01*
X106188881Y-148810000D01*
X106511119Y-148810000D01*
X106808828Y-148686685D01*
X107036685Y-148458828D01*
X107160000Y-148161119D01*
X107160000Y-147838881D01*
X107099641Y-147693161D01*
X114859151Y-147693161D01*
X114911839Y-147703641D01*
X114964527Y-147693161D01*
X114964531Y-147693161D01*
X115120586Y-147662120D01*
X115297552Y-147543874D01*
X115327401Y-147499202D01*
X118389534Y-144437070D01*
X118705906Y-144500000D01*
X118954094Y-144500000D01*
X119321627Y-144426893D01*
X119738409Y-144148409D01*
X120016893Y-143731627D01*
X120100000Y-143313821D01*
X120183107Y-143731627D01*
X120461591Y-144148409D01*
X120878373Y-144426893D01*
X121245906Y-144500000D01*
X121494094Y-144500000D01*
X121861627Y-144426893D01*
X122278409Y-144148409D01*
X122556893Y-143731627D01*
X122640000Y-143313821D01*
X122723107Y-143731627D01*
X123001591Y-144148409D01*
X123418373Y-144426893D01*
X123785906Y-144500000D01*
X124034094Y-144500000D01*
X124401627Y-144426893D01*
X124818409Y-144148409D01*
X125096893Y-143731627D01*
X125194684Y-143240000D01*
X125096893Y-142748373D01*
X124857437Y-142390000D01*
X127721968Y-142390000D01*
X127721968Y-144090000D01*
X127753789Y-144249974D01*
X127844407Y-144385593D01*
X127980026Y-144476211D01*
X128140000Y-144508032D01*
X129840000Y-144508032D01*
X129999974Y-144476211D01*
X130135593Y-144385593D01*
X130226211Y-144249974D01*
X130258032Y-144090000D01*
X130258032Y-142390000D01*
X130226211Y-142230026D01*
X130135593Y-142094407D01*
X129999974Y-142003789D01*
X129840000Y-141971968D01*
X128140000Y-141971968D01*
X127980026Y-142003789D01*
X127844407Y-142094407D01*
X127753789Y-142230026D01*
X127721968Y-142390000D01*
X124857437Y-142390000D01*
X124818409Y-142331591D01*
X124401627Y-142053107D01*
X124034094Y-141980000D01*
X123785906Y-141980000D01*
X123418373Y-142053107D01*
X123001591Y-142331591D01*
X122723107Y-142748373D01*
X122640000Y-143166179D01*
X122556893Y-142748373D01*
X122278409Y-142331591D01*
X121861627Y-142053107D01*
X121494094Y-141980000D01*
X121245906Y-141980000D01*
X120878373Y-142053107D01*
X120461591Y-142331591D01*
X120183107Y-142748373D01*
X120100000Y-143166179D01*
X120016893Y-142748373D01*
X119738409Y-142331591D01*
X119321627Y-142053107D01*
X118954094Y-141980000D01*
X118705906Y-141980000D01*
X118338373Y-142053107D01*
X117921591Y-142331591D01*
X117643107Y-142748373D01*
X117560000Y-143166179D01*
X117476893Y-142748373D01*
X117198409Y-142331591D01*
X116781627Y-142053107D01*
X116414094Y-141980000D01*
X116165906Y-141980000D01*
X115798373Y-142053107D01*
X115381591Y-142331591D01*
X115103107Y-142748373D01*
X115020000Y-143166179D01*
X114936893Y-142748373D01*
X114658409Y-142331591D01*
X114241627Y-142053107D01*
X113874094Y-141980000D01*
X113625906Y-141980000D01*
X113258373Y-142053107D01*
X112841591Y-142331591D01*
X112563107Y-142748373D01*
X112480000Y-143166179D01*
X112396893Y-142748373D01*
X112118409Y-142331591D01*
X111701627Y-142053107D01*
X111334094Y-141980000D01*
X111085906Y-141980000D01*
X110718373Y-142053107D01*
X110301591Y-142331591D01*
X110023107Y-142748373D01*
X109940000Y-143166179D01*
X109856893Y-142748373D01*
X109578409Y-142331591D01*
X109161627Y-142053107D01*
X108794094Y-141980000D01*
X108545906Y-141980000D01*
X108178373Y-142053107D01*
X107761591Y-142331591D01*
X107483107Y-142748373D01*
X107400000Y-143166179D01*
X107316893Y-142748373D01*
X107038409Y-142331591D01*
X106621627Y-142053107D01*
X106254094Y-141980000D01*
X106005906Y-141980000D01*
X105638373Y-142053107D01*
X105221591Y-142331591D01*
X104943107Y-142748373D01*
X104845316Y-143240000D01*
X104943107Y-143731627D01*
X105221591Y-144148409D01*
X105638373Y-144426893D01*
X106005906Y-144500000D01*
X106254094Y-144500000D01*
X106621627Y-144426893D01*
X107038409Y-144148409D01*
X107316893Y-143731627D01*
X107400000Y-143313821D01*
X107483107Y-143731627D01*
X107761591Y-144148409D01*
X108178373Y-144426893D01*
X108545906Y-144500000D01*
X108794094Y-144500000D01*
X109161627Y-144426893D01*
X109578409Y-144148409D01*
X109856893Y-143731627D01*
X109940000Y-143313821D01*
X110023107Y-143731627D01*
X110301591Y-144148409D01*
X110718373Y-144426893D01*
X111085906Y-144500000D01*
X111334094Y-144500000D01*
X111701627Y-144426893D01*
X112118409Y-144148409D01*
X112396893Y-143731627D01*
X112480000Y-143313821D01*
X112563107Y-143731627D01*
X112841591Y-144148409D01*
X113215001Y-144397913D01*
X113215001Y-144428395D01*
X112428397Y-145215000D01*
X96027670Y-145215000D01*
X95995537Y-145182867D01*
X95771337Y-145090000D01*
X95528663Y-145090000D01*
X95304463Y-145182867D01*
X95132867Y-145354463D01*
X95040000Y-145578663D01*
X95040000Y-145821337D01*
X95132867Y-146045537D01*
X95262258Y-146174928D01*
X95240000Y-146228663D01*
X95240000Y-146471337D01*
X95332867Y-146695537D01*
X95504463Y-146867133D01*
X95728663Y-146960000D01*
X95867371Y-146960000D01*
X95835549Y-147036824D01*
X95835549Y-147258782D01*
X95701710Y-147124943D01*
X95701706Y-147124937D01*
X92046677Y-143469910D01*
X91995907Y-143393927D01*
X91765539Y-143240000D01*
X97225316Y-143240000D01*
X97323107Y-143731627D01*
X97601591Y-144148409D01*
X98018373Y-144426893D01*
X98385906Y-144500000D01*
X98634094Y-144500000D01*
X99001627Y-144426893D01*
X99418409Y-144148409D01*
X99696893Y-143731627D01*
X99780000Y-143313821D01*
X99863107Y-143731627D01*
X100141591Y-144148409D01*
X100558373Y-144426893D01*
X100925906Y-144500000D01*
X101174094Y-144500000D01*
X101541627Y-144426893D01*
X101958409Y-144148409D01*
X102236893Y-143731627D01*
X102334684Y-143240000D01*
X102236893Y-142748373D01*
X101958409Y-142331591D01*
X101541627Y-142053107D01*
X101174094Y-141980000D01*
X100925906Y-141980000D01*
X100558373Y-142053107D01*
X100141591Y-142331591D01*
X99863107Y-142748373D01*
X99780000Y-143166179D01*
X99696893Y-142748373D01*
X99418409Y-142331591D01*
X99001627Y-142053107D01*
X98634094Y-141980000D01*
X98385906Y-141980000D01*
X98018373Y-142053107D01*
X97601591Y-142331591D01*
X97323107Y-142748373D01*
X97225316Y-143240000D01*
X91765539Y-143240000D01*
X91694898Y-143192800D01*
X91429456Y-143140000D01*
X91339834Y-143122173D01*
X91250212Y-143140000D01*
X87672670Y-143140000D01*
X87717133Y-143095537D01*
X87810000Y-142871337D01*
X87810000Y-142628663D01*
X87717133Y-142404463D01*
X87545537Y-142232867D01*
X87321337Y-142140000D01*
X87078663Y-142140000D01*
X86897598Y-142215000D01*
X79320490Y-142215000D01*
X79267802Y-142204520D01*
X79215114Y-142215000D01*
X79215110Y-142215000D01*
X79061880Y-142245479D01*
X79059055Y-142246041D01*
X78926758Y-142334439D01*
X78926755Y-142334442D01*
X78882089Y-142364287D01*
X78852243Y-142408954D01*
X78435000Y-142826198D01*
X78435000Y-141802688D01*
X78445480Y-141750000D01*
X78435000Y-141697312D01*
X78435000Y-141697308D01*
X78403959Y-141541253D01*
X78403819Y-141541044D01*
X78315561Y-141408956D01*
X78315558Y-141408953D01*
X78285713Y-141364287D01*
X78241046Y-141334441D01*
X74900610Y-137994007D01*
X74910000Y-137971337D01*
X74910000Y-137800000D01*
X80872173Y-137800000D01*
X80942800Y-138155063D01*
X81093161Y-138380094D01*
X81493158Y-138780092D01*
X81543927Y-138856073D01*
X81844936Y-139057200D01*
X82110378Y-139110000D01*
X82199999Y-139127827D01*
X82289620Y-139110000D01*
X85989622Y-139110000D01*
X86255064Y-139057200D01*
X86556073Y-138856073D01*
X86757200Y-138555064D01*
X86827827Y-138200000D01*
X86757200Y-137844936D01*
X86556073Y-137543927D01*
X86255064Y-137342800D01*
X85989622Y-137290000D01*
X82576933Y-137290000D01*
X82380094Y-137093161D01*
X82155063Y-136942800D01*
X81800000Y-136872173D01*
X81444937Y-136942800D01*
X81143928Y-137143928D01*
X80942800Y-137444937D01*
X80872173Y-137800000D01*
X74910000Y-137800000D01*
X74910000Y-137728663D01*
X74817133Y-137504463D01*
X74645537Y-137332867D01*
X74421337Y-137240000D01*
X74178663Y-137240000D01*
X73954463Y-137332867D01*
X73782867Y-137504463D01*
X73690000Y-137728663D01*
X73690000Y-137971337D01*
X73757597Y-138134530D01*
X73754520Y-138150000D01*
X73765000Y-138202688D01*
X73765000Y-138202691D01*
X73796041Y-138358746D01*
X73914287Y-138535713D01*
X73958959Y-138565562D01*
X77365001Y-141971606D01*
X77365000Y-143097597D01*
X77290000Y-143278663D01*
X77290000Y-143354438D01*
X77156252Y-143381042D01*
X76979286Y-143499288D01*
X76949438Y-143543958D01*
X75308956Y-145184441D01*
X75285531Y-145207866D01*
X75104463Y-145282867D01*
X74932867Y-145454463D01*
X74840000Y-145678663D01*
X74840000Y-145921337D01*
X74854604Y-145956595D01*
X72075484Y-148735717D01*
X72030815Y-148765564D01*
X72000968Y-148810233D01*
X72000967Y-148810234D01*
X71912568Y-148942531D01*
X71899937Y-149006034D01*
X71881527Y-149098585D01*
X71881527Y-149098589D01*
X71871047Y-149151277D01*
X71881527Y-149203965D01*
X71881527Y-149457081D01*
X71871047Y-149509769D01*
X71881527Y-149562457D01*
X71881527Y-149562460D01*
X71912568Y-149718515D01*
X71926904Y-149739970D01*
X68806843Y-146619910D01*
X68756073Y-146543927D01*
X68455064Y-146342800D01*
X68189622Y-146290000D01*
X68160000Y-146284108D01*
X68160000Y-144139622D01*
X68177827Y-144050000D01*
X68107200Y-143694936D01*
X68094717Y-143676254D01*
X67906073Y-143393927D01*
X67830093Y-143343159D01*
X66474792Y-141987858D01*
X66645537Y-141917133D01*
X66817133Y-141745537D01*
X66821497Y-141735001D01*
X66947311Y-141735001D01*
X66999999Y-141745481D01*
X67052687Y-141735001D01*
X67052691Y-141735001D01*
X67208746Y-141703960D01*
X67306117Y-141638898D01*
X67306117Y-141837454D01*
X67398984Y-142061654D01*
X67570580Y-142233250D01*
X67794780Y-142326117D01*
X68037454Y-142326117D01*
X68218519Y-142251117D01*
X69744512Y-142251117D01*
X72707865Y-145214471D01*
X72782865Y-145395537D01*
X72954461Y-145567133D01*
X73178661Y-145660000D01*
X73421335Y-145660000D01*
X73645535Y-145567133D01*
X73817131Y-145395537D01*
X73909998Y-145171337D01*
X73909998Y-144928663D01*
X73817131Y-144704463D01*
X73645535Y-144532867D01*
X73464469Y-144457867D01*
X70381677Y-141375076D01*
X70351828Y-141330404D01*
X70174862Y-141212158D01*
X70018807Y-141181117D01*
X70018803Y-141181117D01*
X69966115Y-141170637D01*
X69913427Y-141181117D01*
X68218519Y-141181117D01*
X68116553Y-141138881D01*
X71290000Y-141138881D01*
X71290000Y-141461119D01*
X71413315Y-141758828D01*
X71641172Y-141986685D01*
X71938881Y-142110000D01*
X72261119Y-142110000D01*
X72558828Y-141986685D01*
X72786685Y-141758828D01*
X72910000Y-141461119D01*
X72910000Y-141138881D01*
X72786685Y-140841172D01*
X72558828Y-140613315D01*
X72261119Y-140490000D01*
X71938881Y-140490000D01*
X71641172Y-140613315D01*
X71413315Y-140841172D01*
X71290000Y-141138881D01*
X68116553Y-141138881D01*
X68037454Y-141106117D01*
X67850486Y-141106117D01*
X70221604Y-138735000D01*
X70247598Y-138735000D01*
X70428663Y-138810000D01*
X70671337Y-138810000D01*
X70895537Y-138717133D01*
X71067133Y-138545537D01*
X71079279Y-138516213D01*
X72319906Y-139756840D01*
X72319909Y-139756842D01*
X72719906Y-140156839D01*
X72944936Y-140307200D01*
X73299999Y-140377827D01*
X73655063Y-140307200D01*
X73956072Y-140106072D01*
X74157200Y-139805063D01*
X74227827Y-139449999D01*
X74157200Y-139094936D01*
X74006839Y-138869906D01*
X73606842Y-138469909D01*
X73606840Y-138469906D01*
X70975815Y-135838881D01*
X74140000Y-135838881D01*
X74140000Y-136161119D01*
X74263315Y-136458828D01*
X74491172Y-136686685D01*
X74788881Y-136810000D01*
X75111119Y-136810000D01*
X75408828Y-136686685D01*
X75636685Y-136458828D01*
X75760000Y-136161119D01*
X75760000Y-135838881D01*
X75636685Y-135541172D01*
X75408828Y-135313315D01*
X75111119Y-135190000D01*
X74788881Y-135190000D01*
X74491172Y-135313315D01*
X74263315Y-135541172D01*
X74140000Y-135838881D01*
X70975815Y-135838881D01*
X70760000Y-135623067D01*
X70760000Y-133038881D01*
X74240000Y-133038881D01*
X74240000Y-133361119D01*
X74363315Y-133658828D01*
X74591172Y-133886685D01*
X74888881Y-134010000D01*
X75211119Y-134010000D01*
X75508828Y-133886685D01*
X75736685Y-133658828D01*
X75860000Y-133361119D01*
X75860000Y-133038881D01*
X75736685Y-132741172D01*
X75508828Y-132513315D01*
X75476683Y-132500000D01*
X80622173Y-132500000D01*
X80692800Y-132855063D01*
X80843161Y-133080094D01*
X84193161Y-136430096D01*
X84243927Y-136506073D01*
X84544936Y-136707200D01*
X84810378Y-136760000D01*
X84899999Y-136777827D01*
X84989620Y-136760000D01*
X85639622Y-136760000D01*
X85905064Y-136707200D01*
X86206073Y-136506073D01*
X86407200Y-136205064D01*
X86423770Y-136121760D01*
X122940260Y-136121760D01*
X122940260Y-137478240D01*
X123459362Y-138731463D01*
X124418537Y-139690638D01*
X125671760Y-140209740D01*
X127028240Y-140209740D01*
X128281463Y-139690638D01*
X129240638Y-138731463D01*
X129759740Y-137478240D01*
X129759740Y-136121760D01*
X129240638Y-134868537D01*
X128281463Y-133909362D01*
X127028240Y-133390260D01*
X125671760Y-133390260D01*
X124418537Y-133909362D01*
X123459362Y-134868537D01*
X122940260Y-136121760D01*
X86423770Y-136121760D01*
X86477827Y-135850000D01*
X86407200Y-135494936D01*
X86206073Y-135193927D01*
X85905064Y-134992800D01*
X85639622Y-134940000D01*
X85276935Y-134940000D01*
X82130094Y-131793161D01*
X82023545Y-131721968D01*
X82236685Y-131508828D01*
X82360000Y-131211119D01*
X82360000Y-130888881D01*
X82236685Y-130591172D01*
X82008828Y-130363315D01*
X81795617Y-130275000D01*
X82008828Y-130186685D01*
X82236685Y-129958828D01*
X82360000Y-129661119D01*
X82360000Y-129338881D01*
X82236685Y-129041172D01*
X82008828Y-128813315D01*
X81711119Y-128690000D01*
X81388881Y-128690000D01*
X81091172Y-128813315D01*
X80863315Y-129041172D01*
X80740000Y-129338881D01*
X80740000Y-129661119D01*
X80863315Y-129958828D01*
X81091172Y-130186685D01*
X81304383Y-130275000D01*
X81091172Y-130363315D01*
X80863315Y-130591172D01*
X80740000Y-130888881D01*
X80740000Y-131211119D01*
X80863315Y-131508828D01*
X81076455Y-131721968D01*
X80893928Y-131843928D01*
X80692800Y-132144937D01*
X80622173Y-132500000D01*
X75476683Y-132500000D01*
X75211119Y-132390000D01*
X74888881Y-132390000D01*
X74591172Y-132513315D01*
X74363315Y-132741172D01*
X74240000Y-133038881D01*
X70760000Y-133038881D01*
X70760000Y-131960378D01*
X70707200Y-131694936D01*
X70506073Y-131393927D01*
X70219989Y-131202773D01*
X70258828Y-131186685D01*
X70486685Y-130958828D01*
X70536368Y-130838881D01*
X74340000Y-130838881D01*
X74340000Y-131161119D01*
X74463315Y-131458828D01*
X74691172Y-131686685D01*
X74988881Y-131810000D01*
X75311119Y-131810000D01*
X75608828Y-131686685D01*
X75836685Y-131458828D01*
X75960000Y-131161119D01*
X75960000Y-130838881D01*
X75836685Y-130541172D01*
X75608828Y-130313315D01*
X75311119Y-130190000D01*
X74988881Y-130190000D01*
X74691172Y-130313315D01*
X74463315Y-130541172D01*
X74340000Y-130838881D01*
X70536368Y-130838881D01*
X70610000Y-130661119D01*
X70610000Y-130338881D01*
X70486685Y-130041172D01*
X70258828Y-129813315D01*
X70191327Y-129785355D01*
X70308828Y-129736685D01*
X70536685Y-129508828D01*
X70660000Y-129211119D01*
X70660000Y-128888881D01*
X70536685Y-128591172D01*
X70417273Y-128471760D01*
X123090260Y-128471760D01*
X123090260Y-129828240D01*
X123609362Y-131081463D01*
X124568537Y-132040638D01*
X125821760Y-132559740D01*
X127178240Y-132559740D01*
X128431463Y-132040638D01*
X129390638Y-131081463D01*
X129909740Y-129828240D01*
X129909740Y-128471760D01*
X129390638Y-127218537D01*
X128431463Y-126259362D01*
X127178240Y-125740260D01*
X125821760Y-125740260D01*
X124568537Y-126259362D01*
X123609362Y-127218537D01*
X123090260Y-128471760D01*
X70417273Y-128471760D01*
X70308828Y-128363315D01*
X70011119Y-128240000D01*
X69688881Y-128240000D01*
X69391172Y-128363315D01*
X69163315Y-128591172D01*
X69040000Y-128888881D01*
X69040000Y-129211119D01*
X69163315Y-129508828D01*
X69391172Y-129736685D01*
X69458673Y-129764645D01*
X69341172Y-129813315D01*
X69113315Y-130041172D01*
X68990000Y-130338881D01*
X68990000Y-130661119D01*
X69113315Y-130958828D01*
X69341172Y-131186685D01*
X69441742Y-131228343D01*
X69193927Y-131393927D01*
X68992800Y-131694937D01*
X68940000Y-131960379D01*
X68940001Y-135910374D01*
X68922173Y-136000000D01*
X68992800Y-136355063D01*
X69062134Y-136458828D01*
X69193928Y-136656073D01*
X69269908Y-136706841D01*
X70228067Y-137665000D01*
X70052687Y-137665000D01*
X69999999Y-137654520D01*
X69947311Y-137665000D01*
X69947308Y-137665000D01*
X69791253Y-137696041D01*
X69614287Y-137814287D01*
X69584440Y-137858957D01*
X66778396Y-140665001D01*
X66552686Y-140665001D01*
X66499998Y-140654521D01*
X66447310Y-140665001D01*
X66447307Y-140665001D01*
X66291252Y-140696042D01*
X66114286Y-140814288D01*
X66112089Y-140817576D01*
X65954463Y-140882867D01*
X65782867Y-141054463D01*
X65704827Y-141242868D01*
X65555064Y-141142800D01*
X65289622Y-141090000D01*
X65200000Y-141072173D01*
X65110378Y-141090000D01*
X63960378Y-141090000D01*
X63694936Y-141142800D01*
X63393927Y-141343927D01*
X63192800Y-141644936D01*
X63122173Y-142000000D01*
X50306604Y-142000000D01*
X49642134Y-141335531D01*
X49567133Y-141154463D01*
X49395537Y-140982867D01*
X49171337Y-140890000D01*
X48928663Y-140890000D01*
X48704463Y-140982867D01*
X48532867Y-141154463D01*
X48440000Y-141378663D01*
X40560000Y-141378663D01*
X40560000Y-136621760D01*
X40790260Y-136621760D01*
X40790260Y-137978240D01*
X41309362Y-139231463D01*
X42268537Y-140190638D01*
X43521760Y-140709740D01*
X44878240Y-140709740D01*
X46131463Y-140190638D01*
X47090638Y-139231463D01*
X47439646Y-138388881D01*
X55640000Y-138388881D01*
X55640000Y-138711119D01*
X55763315Y-139008828D01*
X55991172Y-139236685D01*
X56288881Y-139360000D01*
X56611119Y-139360000D01*
X56908828Y-139236685D01*
X57136685Y-139008828D01*
X57260000Y-138711119D01*
X57260000Y-138388881D01*
X57136685Y-138091172D01*
X56908828Y-137863315D01*
X56611119Y-137740000D01*
X56288881Y-137740000D01*
X55991172Y-137863315D01*
X55763315Y-138091172D01*
X55640000Y-138388881D01*
X47439646Y-138388881D01*
X47609740Y-137978240D01*
X47609740Y-136621760D01*
X47513279Y-136388881D01*
X55640000Y-136388881D01*
X55640000Y-136711119D01*
X55763315Y-137008828D01*
X55991172Y-137236685D01*
X56288881Y-137360000D01*
X56611119Y-137360000D01*
X56908828Y-137236685D01*
X57136685Y-137008828D01*
X57260000Y-136711119D01*
X57260000Y-136388881D01*
X57136685Y-136091172D01*
X56908828Y-135863315D01*
X56611119Y-135740000D01*
X56288881Y-135740000D01*
X55991172Y-135863315D01*
X55763315Y-136091172D01*
X55640000Y-136388881D01*
X47513279Y-136388881D01*
X47099065Y-135388881D01*
X62440000Y-135388881D01*
X62440000Y-135711119D01*
X62563315Y-136008828D01*
X62791172Y-136236685D01*
X63088881Y-136360000D01*
X63411119Y-136360000D01*
X63708828Y-136236685D01*
X63936685Y-136008828D01*
X64060000Y-135711119D01*
X64060000Y-135388881D01*
X63936685Y-135091172D01*
X63708828Y-134863315D01*
X63411119Y-134740000D01*
X63088881Y-134740000D01*
X62791172Y-134863315D01*
X62563315Y-135091172D01*
X62440000Y-135388881D01*
X47099065Y-135388881D01*
X47090638Y-135368537D01*
X46131463Y-134409362D01*
X44878240Y-133890260D01*
X43521760Y-133890260D01*
X42268537Y-134409362D01*
X41309362Y-135368537D01*
X40790260Y-136621760D01*
X40560000Y-136621760D01*
X40560000Y-130088881D01*
X51840000Y-130088881D01*
X51840000Y-130411119D01*
X51963315Y-130708828D01*
X52154487Y-130900000D01*
X51963315Y-131091172D01*
X51840000Y-131388881D01*
X51840000Y-131711119D01*
X51963315Y-132008828D01*
X52191172Y-132236685D01*
X52223317Y-132250000D01*
X52191172Y-132263315D01*
X51963315Y-132491172D01*
X51840000Y-132788881D01*
X51840000Y-133111119D01*
X51963315Y-133408828D01*
X52191172Y-133636685D01*
X52488881Y-133760000D01*
X52811119Y-133760000D01*
X53108828Y-133636685D01*
X53336685Y-133408828D01*
X53460000Y-133111119D01*
X53460000Y-132788881D01*
X53418579Y-132688881D01*
X62540000Y-132688881D01*
X62540000Y-133011119D01*
X62663315Y-133308828D01*
X62891172Y-133536685D01*
X63188881Y-133660000D01*
X63511119Y-133660000D01*
X63808828Y-133536685D01*
X64036685Y-133308828D01*
X64160000Y-133011119D01*
X64160000Y-132688881D01*
X64036685Y-132391172D01*
X63808828Y-132163315D01*
X63511119Y-132040000D01*
X63188881Y-132040000D01*
X62891172Y-132163315D01*
X62663315Y-132391172D01*
X62540000Y-132688881D01*
X53418579Y-132688881D01*
X53336685Y-132491172D01*
X53108828Y-132263315D01*
X53076683Y-132250000D01*
X53108828Y-132236685D01*
X53336685Y-132008828D01*
X53460000Y-131711119D01*
X53460000Y-131388881D01*
X53336685Y-131091172D01*
X53145513Y-130900000D01*
X53336685Y-130708828D01*
X53460000Y-130411119D01*
X53460000Y-130388881D01*
X62640000Y-130388881D01*
X62640000Y-130711119D01*
X62763315Y-131008828D01*
X62991172Y-131236685D01*
X63288881Y-131360000D01*
X63611119Y-131360000D01*
X63908828Y-131236685D01*
X64136685Y-131008828D01*
X64260000Y-130711119D01*
X64260000Y-130388881D01*
X64136685Y-130091172D01*
X63908828Y-129863315D01*
X63611119Y-129740000D01*
X63288881Y-129740000D01*
X62991172Y-129863315D01*
X62763315Y-130091172D01*
X62640000Y-130388881D01*
X53460000Y-130388881D01*
X53460000Y-130088881D01*
X53336685Y-129791172D01*
X53108828Y-129563315D01*
X52811119Y-129440000D01*
X52488881Y-129440000D01*
X52191172Y-129563315D01*
X51963315Y-129791172D01*
X51840000Y-130088881D01*
X40560000Y-130088881D01*
X40560000Y-123071760D01*
X40790260Y-123071760D01*
X40790260Y-124428240D01*
X41309362Y-125681463D01*
X42268537Y-126640638D01*
X43521760Y-127159740D01*
X44878240Y-127159740D01*
X46131463Y-126640638D01*
X47090638Y-125681463D01*
X47253250Y-125288881D01*
X65040000Y-125288881D01*
X65040000Y-125611119D01*
X65163315Y-125908828D01*
X65391172Y-126136685D01*
X65688881Y-126260000D01*
X66011119Y-126260000D01*
X66308828Y-126136685D01*
X66536685Y-125908828D01*
X66565657Y-125838881D01*
X76740000Y-125838881D01*
X76740000Y-126161119D01*
X76863315Y-126458828D01*
X77091172Y-126686685D01*
X77388881Y-126810000D01*
X77711119Y-126810000D01*
X78008828Y-126686685D01*
X78236685Y-126458828D01*
X78360000Y-126161119D01*
X78360000Y-126138881D01*
X88290000Y-126138881D01*
X88290000Y-126461119D01*
X88413315Y-126758828D01*
X88641172Y-126986685D01*
X88938881Y-127110000D01*
X89261119Y-127110000D01*
X89558828Y-126986685D01*
X89786685Y-126758828D01*
X89910000Y-126461119D01*
X89910000Y-126138881D01*
X89786685Y-125841172D01*
X89645513Y-125700000D01*
X89836685Y-125508828D01*
X89960000Y-125211119D01*
X89960000Y-124888881D01*
X89836685Y-124591172D01*
X89608828Y-124363315D01*
X89311119Y-124240000D01*
X88988881Y-124240000D01*
X88691172Y-124363315D01*
X88463315Y-124591172D01*
X88340000Y-124888881D01*
X88340000Y-125211119D01*
X88463315Y-125508828D01*
X88604487Y-125650000D01*
X88413315Y-125841172D01*
X88290000Y-126138881D01*
X78360000Y-126138881D01*
X78360000Y-125838881D01*
X78236685Y-125541172D01*
X78008828Y-125313315D01*
X77711119Y-125190000D01*
X77388881Y-125190000D01*
X77091172Y-125313315D01*
X76863315Y-125541172D01*
X76740000Y-125838881D01*
X66565657Y-125838881D01*
X66660000Y-125611119D01*
X66660000Y-125288881D01*
X66536685Y-124991172D01*
X66308828Y-124763315D01*
X66011119Y-124640000D01*
X65688881Y-124640000D01*
X65391172Y-124763315D01*
X65163315Y-124991172D01*
X65040000Y-125288881D01*
X47253250Y-125288881D01*
X47609740Y-124428240D01*
X47609740Y-123071760D01*
X47546879Y-122920000D01*
X97235316Y-122920000D01*
X97333107Y-123411627D01*
X97611591Y-123828409D01*
X98028373Y-124106893D01*
X98395906Y-124180000D01*
X98644094Y-124180000D01*
X99011627Y-124106893D01*
X99428409Y-123828409D01*
X99706893Y-123411627D01*
X99790000Y-122993821D01*
X99873107Y-123411627D01*
X100151591Y-123828409D01*
X100568373Y-124106893D01*
X100935906Y-124180000D01*
X101184094Y-124180000D01*
X101551627Y-124106893D01*
X101968409Y-123828409D01*
X102246893Y-123411627D01*
X102330000Y-122993821D01*
X102413107Y-123411627D01*
X102691591Y-123828409D01*
X103108373Y-124106893D01*
X103475906Y-124180000D01*
X103724094Y-124180000D01*
X104091627Y-124106893D01*
X104508409Y-123828409D01*
X104786893Y-123411627D01*
X104870000Y-122993821D01*
X104953107Y-123411627D01*
X105231591Y-123828409D01*
X105648373Y-124106893D01*
X106015906Y-124180000D01*
X106264094Y-124180000D01*
X106631627Y-124106893D01*
X107048409Y-123828409D01*
X107326893Y-123411627D01*
X107410000Y-122993821D01*
X107493107Y-123411627D01*
X107771591Y-123828409D01*
X108188373Y-124106893D01*
X108555906Y-124180000D01*
X108804094Y-124180000D01*
X109171627Y-124106893D01*
X109588409Y-123828409D01*
X109866893Y-123411627D01*
X109950000Y-122993821D01*
X110033107Y-123411627D01*
X110311591Y-123828409D01*
X110728373Y-124106893D01*
X111095906Y-124180000D01*
X111344094Y-124180000D01*
X111711627Y-124106893D01*
X112128409Y-123828409D01*
X112406893Y-123411627D01*
X112490000Y-122993821D01*
X112573107Y-123411627D01*
X112851591Y-123828409D01*
X113268373Y-124106893D01*
X113635906Y-124180000D01*
X113884094Y-124180000D01*
X114251627Y-124106893D01*
X114668409Y-123828409D01*
X114946893Y-123411627D01*
X115030000Y-122993821D01*
X115113107Y-123411627D01*
X115391591Y-123828409D01*
X115808373Y-124106893D01*
X116175906Y-124180000D01*
X116424094Y-124180000D01*
X116791627Y-124106893D01*
X117208409Y-123828409D01*
X117486893Y-123411627D01*
X117570000Y-122993821D01*
X117653107Y-123411627D01*
X117931591Y-123828409D01*
X118348373Y-124106893D01*
X118715906Y-124180000D01*
X118964094Y-124180000D01*
X119331627Y-124106893D01*
X119748409Y-123828409D01*
X120026893Y-123411627D01*
X120110000Y-122993821D01*
X120193107Y-123411627D01*
X120471591Y-123828409D01*
X120888373Y-124106893D01*
X121255906Y-124180000D01*
X121504094Y-124180000D01*
X121871627Y-124106893D01*
X122288409Y-123828409D01*
X122566893Y-123411627D01*
X122650000Y-122993821D01*
X122733107Y-123411627D01*
X123011591Y-123828409D01*
X123428373Y-124106893D01*
X123795906Y-124180000D01*
X124044094Y-124180000D01*
X124411627Y-124106893D01*
X124828409Y-123828409D01*
X125106893Y-123411627D01*
X125190000Y-122993821D01*
X125273107Y-123411627D01*
X125551591Y-123828409D01*
X125968373Y-124106893D01*
X126335906Y-124180000D01*
X126584094Y-124180000D01*
X126951627Y-124106893D01*
X127368409Y-123828409D01*
X127646893Y-123411627D01*
X127730000Y-122993821D01*
X127813107Y-123411627D01*
X128091591Y-123828409D01*
X128508373Y-124106893D01*
X128875906Y-124180000D01*
X129124094Y-124180000D01*
X129491627Y-124106893D01*
X129908409Y-123828409D01*
X130186893Y-123411627D01*
X130284684Y-122920000D01*
X130186893Y-122428373D01*
X129908409Y-122011591D01*
X129491627Y-121733107D01*
X129124094Y-121660000D01*
X128875906Y-121660000D01*
X128508373Y-121733107D01*
X128091591Y-122011591D01*
X127813107Y-122428373D01*
X127730000Y-122846179D01*
X127646893Y-122428373D01*
X127368409Y-122011591D01*
X126951627Y-121733107D01*
X126584094Y-121660000D01*
X126335906Y-121660000D01*
X125968373Y-121733107D01*
X125551591Y-122011591D01*
X125273107Y-122428373D01*
X125190000Y-122846179D01*
X125106893Y-122428373D01*
X124828409Y-122011591D01*
X124411627Y-121733107D01*
X124044094Y-121660000D01*
X123795906Y-121660000D01*
X123428373Y-121733107D01*
X123011591Y-122011591D01*
X122733107Y-122428373D01*
X122650000Y-122846179D01*
X122566893Y-122428373D01*
X122288409Y-122011591D01*
X121871627Y-121733107D01*
X121504094Y-121660000D01*
X121255906Y-121660000D01*
X120888373Y-121733107D01*
X120471591Y-122011591D01*
X120193107Y-122428373D01*
X120110000Y-122846179D01*
X120026893Y-122428373D01*
X119748409Y-122011591D01*
X119331627Y-121733107D01*
X118964094Y-121660000D01*
X118715906Y-121660000D01*
X118348373Y-121733107D01*
X117931591Y-122011591D01*
X117653107Y-122428373D01*
X117570000Y-122846179D01*
X117486893Y-122428373D01*
X117208409Y-122011591D01*
X116791627Y-121733107D01*
X116424094Y-121660000D01*
X116175906Y-121660000D01*
X115808373Y-121733107D01*
X115391591Y-122011591D01*
X115113107Y-122428373D01*
X115030000Y-122846179D01*
X114946893Y-122428373D01*
X114668409Y-122011591D01*
X114251627Y-121733107D01*
X113884094Y-121660000D01*
X113635906Y-121660000D01*
X113268373Y-121733107D01*
X112851591Y-122011591D01*
X112573107Y-122428373D01*
X112490000Y-122846179D01*
X112406893Y-122428373D01*
X112128409Y-122011591D01*
X111711627Y-121733107D01*
X111344094Y-121660000D01*
X111095906Y-121660000D01*
X110728373Y-121733107D01*
X110311591Y-122011591D01*
X110033107Y-122428373D01*
X109950000Y-122846179D01*
X109866893Y-122428373D01*
X109588409Y-122011591D01*
X109171627Y-121733107D01*
X108804094Y-121660000D01*
X108555906Y-121660000D01*
X108188373Y-121733107D01*
X107771591Y-122011591D01*
X107493107Y-122428373D01*
X107410000Y-122846179D01*
X107326893Y-122428373D01*
X107048409Y-122011591D01*
X106631627Y-121733107D01*
X106264094Y-121660000D01*
X106015906Y-121660000D01*
X105648373Y-121733107D01*
X105231591Y-122011591D01*
X104953107Y-122428373D01*
X104870000Y-122846179D01*
X104786893Y-122428373D01*
X104508409Y-122011591D01*
X104091627Y-121733107D01*
X103724094Y-121660000D01*
X103475906Y-121660000D01*
X103108373Y-121733107D01*
X102691591Y-122011591D01*
X102413107Y-122428373D01*
X102330000Y-122846179D01*
X102246893Y-122428373D01*
X101968409Y-122011591D01*
X101551627Y-121733107D01*
X101184094Y-121660000D01*
X100935906Y-121660000D01*
X100568373Y-121733107D01*
X100151591Y-122011591D01*
X99873107Y-122428373D01*
X99790000Y-122846179D01*
X99706893Y-122428373D01*
X99428409Y-122011591D01*
X99011627Y-121733107D01*
X98644094Y-121660000D01*
X98395906Y-121660000D01*
X98028373Y-121733107D01*
X97611591Y-122011591D01*
X97333107Y-122428373D01*
X97235316Y-122920000D01*
X47546879Y-122920000D01*
X47090638Y-121818537D01*
X46560982Y-121288881D01*
X65790000Y-121288881D01*
X65790000Y-121611119D01*
X65913315Y-121908828D01*
X66141172Y-122136685D01*
X66438881Y-122260000D01*
X66761119Y-122260000D01*
X67058828Y-122136685D01*
X67286685Y-121908828D01*
X67410000Y-121611119D01*
X67410000Y-121288881D01*
X67389290Y-121238881D01*
X68590000Y-121238881D01*
X68590000Y-121561119D01*
X68713315Y-121858828D01*
X68941172Y-122086685D01*
X69238881Y-122210000D01*
X69561119Y-122210000D01*
X69858828Y-122086685D01*
X70086685Y-121858828D01*
X70210000Y-121561119D01*
X70210000Y-121238881D01*
X70086685Y-120941172D01*
X69858828Y-120713315D01*
X69561119Y-120590000D01*
X69238881Y-120590000D01*
X68941172Y-120713315D01*
X68713315Y-120941172D01*
X68590000Y-121238881D01*
X67389290Y-121238881D01*
X67286685Y-120991172D01*
X67058828Y-120763315D01*
X66761119Y-120640000D01*
X66438881Y-120640000D01*
X66141172Y-120763315D01*
X65913315Y-120991172D01*
X65790000Y-121288881D01*
X46560982Y-121288881D01*
X46131463Y-120859362D01*
X44995622Y-120388881D01*
X91390000Y-120388881D01*
X91390000Y-120711119D01*
X91513315Y-121008828D01*
X91741172Y-121236685D01*
X92038881Y-121360000D01*
X92361119Y-121360000D01*
X92658828Y-121236685D01*
X92886685Y-121008828D01*
X93010000Y-120711119D01*
X93010000Y-120388881D01*
X92886685Y-120091172D01*
X92658828Y-119863315D01*
X92361119Y-119740000D01*
X92038881Y-119740000D01*
X91741172Y-119863315D01*
X91513315Y-120091172D01*
X91390000Y-120388881D01*
X44995622Y-120388881D01*
X44878240Y-120340260D01*
X43521760Y-120340260D01*
X42268537Y-120859362D01*
X41309362Y-121818537D01*
X40790260Y-123071760D01*
X40560000Y-123071760D01*
X40560000Y-112859262D01*
X61465000Y-112859262D01*
X61465000Y-113320738D01*
X61641599Y-113747087D01*
X61967913Y-114073401D01*
X62394262Y-114250000D01*
X62855738Y-114250000D01*
X63282087Y-114073401D01*
X63608401Y-113747087D01*
X63785000Y-113320738D01*
X63785000Y-112859262D01*
X64005000Y-112859262D01*
X64005000Y-113320738D01*
X64181599Y-113747087D01*
X64507913Y-114073401D01*
X64934262Y-114250000D01*
X65395738Y-114250000D01*
X65822087Y-114073401D01*
X65915000Y-113980488D01*
X65915000Y-115022312D01*
X65904520Y-115075000D01*
X65915000Y-115127688D01*
X65915000Y-115127691D01*
X65946041Y-115283746D01*
X66064287Y-115460713D01*
X66108959Y-115490562D01*
X66657867Y-116039471D01*
X66732867Y-116220537D01*
X66904463Y-116392133D01*
X67128663Y-116485000D01*
X67371337Y-116485000D01*
X67595537Y-116392133D01*
X67767133Y-116220537D01*
X67860000Y-115996337D01*
X67860000Y-115753663D01*
X67767133Y-115529463D01*
X67595537Y-115357867D01*
X67414471Y-115282867D01*
X66985000Y-114853397D01*
X66985000Y-114010488D01*
X67047913Y-114073401D01*
X67165222Y-114121992D01*
X67159520Y-114150660D01*
X67201041Y-114359406D01*
X67267560Y-114458957D01*
X67319288Y-114536373D01*
X67363957Y-114566220D01*
X68488781Y-115691046D01*
X68518627Y-115735713D01*
X68563293Y-115765558D01*
X68563296Y-115765561D01*
X68646328Y-115821041D01*
X68695593Y-115853959D01*
X68851648Y-115885000D01*
X68851652Y-115885000D01*
X68904340Y-115895480D01*
X68957028Y-115885000D01*
X71552330Y-115885000D01*
X71457867Y-115979463D01*
X71382866Y-116160530D01*
X69626369Y-117917028D01*
X69561119Y-117890000D01*
X69238881Y-117890000D01*
X68941172Y-118013315D01*
X68713315Y-118241172D01*
X68590000Y-118538881D01*
X68590000Y-118861119D01*
X68713315Y-119158828D01*
X68941172Y-119386685D01*
X69238881Y-119510000D01*
X69561119Y-119510000D01*
X69858828Y-119386685D01*
X70086685Y-119158828D01*
X70210000Y-118861119D01*
X70210000Y-118846603D01*
X72139470Y-116917134D01*
X72320537Y-116842133D01*
X72492133Y-116670537D01*
X72567134Y-116489469D01*
X72590559Y-116466044D01*
X73171605Y-115885000D01*
X83422312Y-115885000D01*
X83475000Y-115895480D01*
X83527688Y-115885000D01*
X86422312Y-115885000D01*
X86475000Y-115895480D01*
X86527688Y-115885000D01*
X98302310Y-115885000D01*
X98354998Y-115895480D01*
X98407686Y-115885000D01*
X114772310Y-115885000D01*
X114824998Y-115895480D01*
X114877686Y-115885000D01*
X114877690Y-115885000D01*
X115033745Y-115853959D01*
X115210711Y-115735713D01*
X115240560Y-115691041D01*
X116767173Y-114164429D01*
X116889261Y-114214999D01*
X117350737Y-114214999D01*
X117777086Y-114038400D01*
X118103400Y-113712086D01*
X118279999Y-113285737D01*
X118279999Y-112824261D01*
X118103400Y-112397912D01*
X117777086Y-112071598D01*
X117417816Y-111922784D01*
X117657569Y-111683031D01*
X119139999Y-111683031D01*
X119299973Y-111651210D01*
X119435592Y-111560592D01*
X119526210Y-111424973D01*
X119558031Y-111264999D01*
X119558031Y-109764999D01*
X119526210Y-109605025D01*
X119435592Y-109469406D01*
X119299973Y-109378788D01*
X119139999Y-109346967D01*
X117639999Y-109346967D01*
X117480025Y-109378788D01*
X117344406Y-109469406D01*
X117253788Y-109605025D01*
X117221967Y-109764999D01*
X117221967Y-110605425D01*
X116959331Y-110868062D01*
X117009999Y-110745737D01*
X117009999Y-110284261D01*
X116833400Y-109857912D01*
X116507086Y-109531598D01*
X116080737Y-109354999D01*
X115619261Y-109354999D01*
X115497173Y-109405569D01*
X113950552Y-107858949D01*
X113920703Y-107814277D01*
X113743737Y-107696031D01*
X113587682Y-107664990D01*
X113587678Y-107664990D01*
X113534990Y-107654510D01*
X113482302Y-107664990D01*
X101747695Y-107664990D01*
X101695007Y-107654510D01*
X101642319Y-107664990D01*
X101642316Y-107664990D01*
X101486261Y-107696031D01*
X101309295Y-107814277D01*
X101279447Y-107858947D01*
X99732825Y-109405569D01*
X99610737Y-109354999D01*
X99149261Y-109354999D01*
X99027174Y-109405569D01*
X97380552Y-107758949D01*
X97350703Y-107714277D01*
X97173737Y-107596031D01*
X97017682Y-107564990D01*
X97017678Y-107564990D01*
X96964990Y-107554510D01*
X96912302Y-107564990D01*
X85437696Y-107564990D01*
X85385009Y-107554510D01*
X85332322Y-107564990D01*
X85332318Y-107564990D01*
X85176263Y-107596031D01*
X84999297Y-107714277D01*
X84969449Y-107758947D01*
X83287826Y-109440570D01*
X83165738Y-109390000D01*
X82704262Y-109390000D01*
X82582175Y-109440570D01*
X81175562Y-108033959D01*
X81145713Y-107989287D01*
X80968747Y-107871041D01*
X80812692Y-107840000D01*
X80812688Y-107840000D01*
X80760000Y-107829520D01*
X80707312Y-107840000D01*
X76519608Y-107840000D01*
X76363564Y-107683957D01*
X76333715Y-107639285D01*
X76156749Y-107521039D01*
X76000694Y-107489998D01*
X76000690Y-107489998D01*
X75948002Y-107479518D01*
X75895314Y-107489998D01*
X69012689Y-107489998D01*
X68960001Y-107479518D01*
X68907313Y-107489998D01*
X68907310Y-107489998D01*
X68751255Y-107521039D01*
X68574289Y-107639285D01*
X68544441Y-107683955D01*
X66787826Y-109440570D01*
X66665738Y-109390000D01*
X66204262Y-109390000D01*
X65777913Y-109566599D01*
X65451599Y-109892913D01*
X65275000Y-110319262D01*
X65275000Y-110780738D01*
X65451599Y-111207087D01*
X65777913Y-111533401D01*
X66204262Y-111710000D01*
X66665738Y-111710000D01*
X67092087Y-111533401D01*
X67418401Y-111207087D01*
X67595000Y-110780738D01*
X67595000Y-110319262D01*
X67544430Y-110197174D01*
X67806968Y-109934635D01*
X67806968Y-111300000D01*
X67838789Y-111459974D01*
X67929407Y-111595593D01*
X68065026Y-111686211D01*
X68225000Y-111718032D01*
X69725000Y-111718032D01*
X69884974Y-111686211D01*
X70020593Y-111595593D01*
X70111211Y-111459974D01*
X70114058Y-111445661D01*
X70759439Y-112091043D01*
X70789287Y-112135713D01*
X70966253Y-112253959D01*
X71122308Y-112285000D01*
X71122311Y-112285000D01*
X71174999Y-112295480D01*
X71227687Y-112285000D01*
X78289512Y-112285000D01*
X78141599Y-112432913D01*
X77965000Y-112859262D01*
X77965000Y-113320738D01*
X78141599Y-113747087D01*
X78467913Y-114073401D01*
X78894262Y-114250000D01*
X79355738Y-114250000D01*
X79782087Y-114073401D01*
X80108401Y-113747087D01*
X80285000Y-113320738D01*
X80285000Y-112859262D01*
X80108401Y-112432913D01*
X79960488Y-112285000D01*
X80829512Y-112285000D01*
X80681599Y-112432913D01*
X80505000Y-112859262D01*
X80505000Y-113320738D01*
X80681599Y-113747087D01*
X81007913Y-114073401D01*
X81434262Y-114250000D01*
X81895738Y-114250000D01*
X82322087Y-114073401D01*
X82648401Y-113747087D01*
X82825000Y-113320738D01*
X82825000Y-112859262D01*
X82648401Y-112432913D01*
X82500488Y-112285000D01*
X83369512Y-112285000D01*
X83221599Y-112432913D01*
X83045000Y-112859262D01*
X83045000Y-113320738D01*
X83221599Y-113747087D01*
X83547913Y-114073401D01*
X83670000Y-114123971D01*
X83670000Y-114398395D01*
X83253397Y-114815000D01*
X73002688Y-114815000D01*
X72950000Y-114804520D01*
X72897312Y-114815000D01*
X69125945Y-114815000D01*
X68373216Y-114062272D01*
X68688401Y-113747087D01*
X68865000Y-113320738D01*
X68865000Y-112859262D01*
X68688401Y-112432913D01*
X68362087Y-112106599D01*
X67935738Y-111930000D01*
X67474262Y-111930000D01*
X67047913Y-112106599D01*
X66858591Y-112295921D01*
X66795537Y-112232867D01*
X66571337Y-112140000D01*
X66328663Y-112140000D01*
X66104463Y-112232867D01*
X66026409Y-112310921D01*
X65822087Y-112106599D01*
X65395738Y-111930000D01*
X64934262Y-111930000D01*
X64507913Y-112106599D01*
X64181599Y-112432913D01*
X64005000Y-112859262D01*
X63785000Y-112859262D01*
X63608401Y-112432913D01*
X63282087Y-112106599D01*
X62855738Y-111930000D01*
X62394262Y-111930000D01*
X61967913Y-112106599D01*
X61641599Y-112432913D01*
X61465000Y-112859262D01*
X40560000Y-112859262D01*
X40560000Y-110319262D01*
X62735000Y-110319262D01*
X62735000Y-110780738D01*
X62911599Y-111207087D01*
X63237913Y-111533401D01*
X63664262Y-111710000D01*
X64125738Y-111710000D01*
X64552087Y-111533401D01*
X64878401Y-111207087D01*
X65055000Y-110780738D01*
X65055000Y-110319262D01*
X64878401Y-109892913D01*
X64552087Y-109566599D01*
X64125738Y-109390000D01*
X63664262Y-109390000D01*
X63237913Y-109566599D01*
X62911599Y-109892913D01*
X62735000Y-110319262D01*
X40560000Y-110319262D01*
X40560000Y-103755431D01*
X56360000Y-103755431D01*
X56360000Y-104644569D01*
X56700259Y-105466026D01*
X57328974Y-106094741D01*
X58150431Y-106435000D01*
X59039569Y-106435000D01*
X59861026Y-106094741D01*
X60489741Y-105466026D01*
X60830000Y-104644569D01*
X60830000Y-103755431D01*
X68230000Y-103755431D01*
X68230000Y-104644569D01*
X68570259Y-105466026D01*
X69198974Y-106094741D01*
X70020431Y-106435000D01*
X70909569Y-106435000D01*
X71731026Y-106094741D01*
X72359741Y-105466026D01*
X72700000Y-104644569D01*
X72700000Y-103755431D01*
X72860000Y-103755431D01*
X72860000Y-104644569D01*
X73200259Y-105466026D01*
X73828974Y-106094741D01*
X74650431Y-106435000D01*
X75539569Y-106435000D01*
X76361026Y-106094741D01*
X76989741Y-105466026D01*
X77330000Y-104644569D01*
X77330000Y-103755431D01*
X84730000Y-103755431D01*
X84730000Y-104644569D01*
X85070259Y-105466026D01*
X85698974Y-106094741D01*
X86520431Y-106435000D01*
X87409569Y-106435000D01*
X88231026Y-106094741D01*
X88859741Y-105466026D01*
X89200000Y-104644569D01*
X89200000Y-103755431D01*
X89185503Y-103720430D01*
X89304999Y-103720430D01*
X89304999Y-104609568D01*
X89645258Y-105431025D01*
X90273973Y-106059740D01*
X91095430Y-106399999D01*
X91984568Y-106399999D01*
X92806025Y-106059740D01*
X93434740Y-105431025D01*
X93774999Y-104609568D01*
X93774999Y-103720430D01*
X101174999Y-103720430D01*
X101174999Y-104609568D01*
X101515258Y-105431025D01*
X102143973Y-106059740D01*
X102965430Y-106399999D01*
X103854568Y-106399999D01*
X104676025Y-106059740D01*
X105304740Y-105431025D01*
X105644999Y-104609568D01*
X105644999Y-103720430D01*
X105774999Y-103720430D01*
X105774999Y-104609568D01*
X106115258Y-105431025D01*
X106743973Y-106059740D01*
X107565430Y-106399999D01*
X108454568Y-106399999D01*
X109276025Y-106059740D01*
X109904740Y-105431025D01*
X110244999Y-104609568D01*
X110244999Y-103720430D01*
X117644999Y-103720430D01*
X117644999Y-104609568D01*
X117985258Y-105431025D01*
X118613973Y-106059740D01*
X119435430Y-106399999D01*
X120324568Y-106399999D01*
X121146025Y-106059740D01*
X121774740Y-105431025D01*
X122114999Y-104609568D01*
X122114999Y-103720430D01*
X121774740Y-102898973D01*
X121146025Y-102270258D01*
X120324568Y-101929999D01*
X119435430Y-101929999D01*
X118613973Y-102270258D01*
X117985258Y-102898973D01*
X117644999Y-103720430D01*
X110244999Y-103720430D01*
X109904740Y-102898973D01*
X109276025Y-102270258D01*
X108454568Y-101929999D01*
X107565430Y-101929999D01*
X106743973Y-102270258D01*
X106115258Y-102898973D01*
X105774999Y-103720430D01*
X105644999Y-103720430D01*
X105304740Y-102898973D01*
X104676025Y-102270258D01*
X103854568Y-101929999D01*
X102965430Y-101929999D01*
X102143973Y-102270258D01*
X101515258Y-102898973D01*
X101174999Y-103720430D01*
X93774999Y-103720430D01*
X93434740Y-102898973D01*
X92806025Y-102270258D01*
X91984568Y-101929999D01*
X91095430Y-101929999D01*
X90273973Y-102270258D01*
X89645258Y-102898973D01*
X89304999Y-103720430D01*
X89185503Y-103720430D01*
X88859741Y-102933974D01*
X88231026Y-102305259D01*
X87409569Y-101965000D01*
X86520431Y-101965000D01*
X85698974Y-102305259D01*
X85070259Y-102933974D01*
X84730000Y-103755431D01*
X77330000Y-103755431D01*
X76989741Y-102933974D01*
X76361026Y-102305259D01*
X75539569Y-101965000D01*
X74650431Y-101965000D01*
X73828974Y-102305259D01*
X73200259Y-102933974D01*
X72860000Y-103755431D01*
X72700000Y-103755431D01*
X72359741Y-102933974D01*
X71731026Y-102305259D01*
X70909569Y-101965000D01*
X70020431Y-101965000D01*
X69198974Y-102305259D01*
X68570259Y-102933974D01*
X68230000Y-103755431D01*
X60830000Y-103755431D01*
X60489741Y-102933974D01*
X59861026Y-102305259D01*
X59039569Y-101965000D01*
X58150431Y-101965000D01*
X57328974Y-102305259D01*
X56700259Y-102933974D01*
X56360000Y-103755431D01*
X40560000Y-103755431D01*
X40560000Y-96560000D01*
X139040001Y-96560000D01*
X139040000Y-111340000D01*
G36*
X79689096Y-148373844D02*
X79718944Y-148418514D01*
X79895910Y-148536760D01*
X80051965Y-148567801D01*
X80051969Y-148567801D01*
X80104656Y-148578281D01*
X80157343Y-148567801D01*
X83781354Y-148567801D01*
X83839597Y-148626044D01*
X83869445Y-148670714D01*
X83914114Y-148700561D01*
X83914115Y-148700562D01*
X84046411Y-148788960D01*
X84202466Y-148820001D01*
X84202470Y-148820001D01*
X84255158Y-148830481D01*
X84307846Y-148820001D01*
X90593552Y-148820001D01*
X90279245Y-149134309D01*
X80707075Y-149134309D01*
X80707075Y-149097561D01*
X80614208Y-148873361D01*
X80442612Y-148701765D01*
X80218412Y-148608898D01*
X79975738Y-148608898D01*
X79751538Y-148701765D01*
X79579942Y-148873361D01*
X79504942Y-149054426D01*
X77169370Y-151390000D01*
X76865342Y-151390000D01*
X76920548Y-151367133D01*
X77092144Y-151195537D01*
X77185011Y-150971337D01*
X77185011Y-150728663D01*
X77110011Y-150547598D01*
X77110011Y-149815083D01*
X78397761Y-148527334D01*
X78513422Y-148642995D01*
X78737622Y-148735862D01*
X78980296Y-148735862D01*
X79204496Y-148642995D01*
X79376092Y-148471399D01*
X79468959Y-148247199D01*
X79468959Y-148153707D01*
X79689096Y-148373844D01*
X79689096Y-148373844D01*
G37*
X79689096Y-148373844D02*
X79718944Y-148418514D01*
X79895910Y-148536760D01*
X80051965Y-148567801D01*
X80051969Y-148567801D01*
X80104656Y-148578281D01*
X80157343Y-148567801D01*
X83781354Y-148567801D01*
X83839597Y-148626044D01*
X83869445Y-148670714D01*
X83914114Y-148700561D01*
X83914115Y-148700562D01*
X84046411Y-148788960D01*
X84202466Y-148820001D01*
X84202470Y-148820001D01*
X84255158Y-148830481D01*
X84307846Y-148820001D01*
X90593552Y-148820001D01*
X90279245Y-149134309D01*
X80707075Y-149134309D01*
X80707075Y-149097561D01*
X80614208Y-148873361D01*
X80442612Y-148701765D01*
X80218412Y-148608898D01*
X79975738Y-148608898D01*
X79751538Y-148701765D01*
X79579942Y-148873361D01*
X79504942Y-149054426D01*
X77169370Y-151390000D01*
X76865342Y-151390000D01*
X76920548Y-151367133D01*
X77092144Y-151195537D01*
X77185011Y-150971337D01*
X77185011Y-150728663D01*
X77110011Y-150547598D01*
X77110011Y-149815083D01*
X78397761Y-148527334D01*
X78513422Y-148642995D01*
X78737622Y-148735862D01*
X78980296Y-148735862D01*
X79204496Y-148642995D01*
X79376092Y-148471399D01*
X79468959Y-148247199D01*
X79468959Y-148153707D01*
X79689096Y-148373844D01*
G36*
X98270569Y-110162174D02*
X98219999Y-110284261D01*
X98219999Y-110745737D01*
X98396598Y-111172086D01*
X98722912Y-111498400D01*
X99149261Y-111674999D01*
X99343398Y-111674999D01*
X99058957Y-111959440D01*
X99014288Y-111989287D01*
X98984441Y-112033956D01*
X98984440Y-112033957D01*
X98896041Y-112166254D01*
X98890351Y-112194863D01*
X98767086Y-112071598D01*
X98340737Y-111894999D01*
X97879261Y-111894999D01*
X97452912Y-112071598D01*
X97126598Y-112397912D01*
X96949999Y-112824261D01*
X96949999Y-113285737D01*
X97126598Y-113712086D01*
X97452912Y-114038400D01*
X97879261Y-114214999D01*
X98028398Y-114214999D01*
X97928397Y-114315000D01*
X90996604Y-114315000D01*
X89505865Y-112824261D01*
X94409999Y-112824261D01*
X94409999Y-113285737D01*
X94586598Y-113712086D01*
X94912912Y-114038400D01*
X95339261Y-114214999D01*
X95800737Y-114214999D01*
X96227086Y-114038400D01*
X96553400Y-113712086D01*
X96729999Y-113285737D01*
X96729999Y-112824261D01*
X96553400Y-112397912D01*
X96227086Y-112071598D01*
X95800737Y-111894999D01*
X95339261Y-111894999D01*
X94912912Y-112071598D01*
X94586598Y-112397912D01*
X94409999Y-112824261D01*
X89505865Y-112824261D01*
X86965865Y-110284261D01*
X95679999Y-110284261D01*
X95679999Y-110745737D01*
X95856598Y-111172086D01*
X96182912Y-111498400D01*
X96609261Y-111674999D01*
X97070737Y-111674999D01*
X97497086Y-111498400D01*
X97823400Y-111172086D01*
X97999999Y-110745737D01*
X97999999Y-110284261D01*
X97823400Y-109857912D01*
X97497086Y-109531598D01*
X97070737Y-109354999D01*
X96609261Y-109354999D01*
X96182912Y-109531598D01*
X95856598Y-109857912D01*
X95679999Y-110284261D01*
X86965865Y-110284261D01*
X86890562Y-110208959D01*
X86860713Y-110164287D01*
X86683747Y-110046041D01*
X86643032Y-110037942D01*
X86643032Y-109800000D01*
X86611211Y-109640026D01*
X86520593Y-109504407D01*
X86384974Y-109413789D01*
X86225000Y-109381968D01*
X84859636Y-109381968D01*
X85606614Y-108634990D01*
X96743387Y-108634990D01*
X98270569Y-110162174D01*
X98270569Y-110162174D01*
G37*
X98270569Y-110162174D02*
X98219999Y-110284261D01*
X98219999Y-110745737D01*
X98396598Y-111172086D01*
X98722912Y-111498400D01*
X99149261Y-111674999D01*
X99343398Y-111674999D01*
X99058957Y-111959440D01*
X99014288Y-111989287D01*
X98984441Y-112033956D01*
X98984440Y-112033957D01*
X98896041Y-112166254D01*
X98890351Y-112194863D01*
X98767086Y-112071598D01*
X98340737Y-111894999D01*
X97879261Y-111894999D01*
X97452912Y-112071598D01*
X97126598Y-112397912D01*
X96949999Y-112824261D01*
X96949999Y-113285737D01*
X97126598Y-113712086D01*
X97452912Y-114038400D01*
X97879261Y-114214999D01*
X98028398Y-114214999D01*
X97928397Y-114315000D01*
X90996604Y-114315000D01*
X89505865Y-112824261D01*
X94409999Y-112824261D01*
X94409999Y-113285737D01*
X94586598Y-113712086D01*
X94912912Y-114038400D01*
X95339261Y-114214999D01*
X95800737Y-114214999D01*
X96227086Y-114038400D01*
X96553400Y-113712086D01*
X96729999Y-113285737D01*
X96729999Y-112824261D01*
X96553400Y-112397912D01*
X96227086Y-112071598D01*
X95800737Y-111894999D01*
X95339261Y-111894999D01*
X94912912Y-112071598D01*
X94586598Y-112397912D01*
X94409999Y-112824261D01*
X89505865Y-112824261D01*
X86965865Y-110284261D01*
X95679999Y-110284261D01*
X95679999Y-110745737D01*
X95856598Y-111172086D01*
X96182912Y-111498400D01*
X96609261Y-111674999D01*
X97070737Y-111674999D01*
X97497086Y-111498400D01*
X97823400Y-111172086D01*
X97999999Y-110745737D01*
X97999999Y-110284261D01*
X97823400Y-109857912D01*
X97497086Y-109531598D01*
X97070737Y-109354999D01*
X96609261Y-109354999D01*
X96182912Y-109531598D01*
X95856598Y-109857912D01*
X95679999Y-110284261D01*
X86965865Y-110284261D01*
X86890562Y-110208959D01*
X86860713Y-110164287D01*
X86683747Y-110046041D01*
X86643032Y-110037942D01*
X86643032Y-109800000D01*
X86611211Y-109640026D01*
X86520593Y-109504407D01*
X86384974Y-109413789D01*
X86225000Y-109381968D01*
X84859636Y-109381968D01*
X85606614Y-108634990D01*
X96743387Y-108634990D01*
X98270569Y-110162174D01*
G36*
X114740569Y-110162173D02*
X114689999Y-110284261D01*
X114689999Y-110745737D01*
X114866598Y-111172086D01*
X115192912Y-111498400D01*
X115619261Y-111674999D01*
X116080737Y-111674999D01*
X116203062Y-111624330D01*
X115533957Y-112293436D01*
X115489288Y-112323283D01*
X115489081Y-112323593D01*
X115237086Y-112071598D01*
X114810737Y-111894999D01*
X114349261Y-111894999D01*
X113922912Y-112071598D01*
X113596598Y-112397912D01*
X113419999Y-112824261D01*
X113419999Y-113285737D01*
X113596598Y-113712086D01*
X113922912Y-114038400D01*
X114282183Y-114187214D01*
X114154397Y-114315000D01*
X106446605Y-114315000D01*
X104955866Y-112824261D01*
X110879999Y-112824261D01*
X110879999Y-113285737D01*
X111056598Y-113712086D01*
X111382912Y-114038400D01*
X111809261Y-114214999D01*
X112270737Y-114214999D01*
X112697086Y-114038400D01*
X113023400Y-113712086D01*
X113199999Y-113285737D01*
X113199999Y-112824261D01*
X113023400Y-112397912D01*
X112697086Y-112071598D01*
X112270737Y-111894999D01*
X111809261Y-111894999D01*
X111382912Y-112071598D01*
X111056598Y-112397912D01*
X110879999Y-112824261D01*
X104955866Y-112824261D01*
X103088031Y-110956428D01*
X103088031Y-110284261D01*
X112149999Y-110284261D01*
X112149999Y-110745737D01*
X112326598Y-111172086D01*
X112652912Y-111498400D01*
X113079261Y-111674999D01*
X113540737Y-111674999D01*
X113967086Y-111498400D01*
X114293400Y-111172086D01*
X114469999Y-110745737D01*
X114469999Y-110284261D01*
X114293400Y-109857912D01*
X113967086Y-109531598D01*
X113540737Y-109354999D01*
X113079261Y-109354999D01*
X112652912Y-109531598D01*
X112326598Y-109857912D01*
X112149999Y-110284261D01*
X103088031Y-110284261D01*
X103088031Y-109764999D01*
X103056210Y-109605025D01*
X102965592Y-109469406D01*
X102829973Y-109378788D01*
X102669999Y-109346967D01*
X101304635Y-109346967D01*
X101916612Y-108734990D01*
X113313387Y-108734990D01*
X114740569Y-110162173D01*
X114740569Y-110162173D01*
G37*
X114740569Y-110162173D02*
X114689999Y-110284261D01*
X114689999Y-110745737D01*
X114866598Y-111172086D01*
X115192912Y-111498400D01*
X115619261Y-111674999D01*
X116080737Y-111674999D01*
X116203062Y-111624330D01*
X115533957Y-112293436D01*
X115489288Y-112323283D01*
X115489081Y-112323593D01*
X115237086Y-112071598D01*
X114810737Y-111894999D01*
X114349261Y-111894999D01*
X113922912Y-112071598D01*
X113596598Y-112397912D01*
X113419999Y-112824261D01*
X113419999Y-113285737D01*
X113596598Y-113712086D01*
X113922912Y-114038400D01*
X114282183Y-114187214D01*
X114154397Y-114315000D01*
X106446605Y-114315000D01*
X104955866Y-112824261D01*
X110879999Y-112824261D01*
X110879999Y-113285737D01*
X111056598Y-113712086D01*
X111382912Y-114038400D01*
X111809261Y-114214999D01*
X112270737Y-114214999D01*
X112697086Y-114038400D01*
X113023400Y-113712086D01*
X113199999Y-113285737D01*
X113199999Y-112824261D01*
X113023400Y-112397912D01*
X112697086Y-112071598D01*
X112270737Y-111894999D01*
X111809261Y-111894999D01*
X111382912Y-112071598D01*
X111056598Y-112397912D01*
X110879999Y-112824261D01*
X104955866Y-112824261D01*
X103088031Y-110956428D01*
X103088031Y-110284261D01*
X112149999Y-110284261D01*
X112149999Y-110745737D01*
X112326598Y-111172086D01*
X112652912Y-111498400D01*
X113079261Y-111674999D01*
X113540737Y-111674999D01*
X113967086Y-111498400D01*
X114293400Y-111172086D01*
X114469999Y-110745737D01*
X114469999Y-110284261D01*
X114293400Y-109857912D01*
X113967086Y-109531598D01*
X113540737Y-109354999D01*
X113079261Y-109354999D01*
X112652912Y-109531598D01*
X112326598Y-109857912D01*
X112149999Y-110284261D01*
X103088031Y-110284261D01*
X103088031Y-109764999D01*
X103056210Y-109605025D01*
X102965592Y-109469406D01*
X102829973Y-109378788D01*
X102669999Y-109346967D01*
X101304635Y-109346967D01*
X101916612Y-108734990D01*
X113313387Y-108734990D01*
X114740569Y-110162173D01*
G36*
X75882443Y-108716043D02*
X75912291Y-108760713D01*
X76089257Y-108878959D01*
X76245312Y-108910000D01*
X76245316Y-108910000D01*
X76298004Y-108920480D01*
X76350692Y-108910000D01*
X80538397Y-108910000D01*
X81825570Y-110197175D01*
X81775000Y-110319262D01*
X81775000Y-110780738D01*
X81951599Y-111207087D01*
X81959512Y-111215000D01*
X81370488Y-111215000D01*
X81378401Y-111207087D01*
X81555000Y-110780738D01*
X81555000Y-110319262D01*
X81378401Y-109892913D01*
X81052087Y-109566599D01*
X80625738Y-109390000D01*
X80164262Y-109390000D01*
X79737913Y-109566599D01*
X79411599Y-109892913D01*
X79235000Y-110319262D01*
X79235000Y-110780738D01*
X79411599Y-111207087D01*
X79419512Y-111215000D01*
X71396604Y-111215000D01*
X70390562Y-110208959D01*
X70360713Y-110164287D01*
X70183747Y-110046041D01*
X70143032Y-110037942D01*
X70143032Y-109800000D01*
X70111211Y-109640026D01*
X70020593Y-109504407D01*
X69884974Y-109413789D01*
X69725000Y-109381968D01*
X68359636Y-109381968D01*
X69181606Y-108559998D01*
X75726399Y-108559998D01*
X75882443Y-108716043D01*
X75882443Y-108716043D01*
G37*
X75882443Y-108716043D02*
X75912291Y-108760713D01*
X76089257Y-108878959D01*
X76245312Y-108910000D01*
X76245316Y-108910000D01*
X76298004Y-108920480D01*
X76350692Y-108910000D01*
X80538397Y-108910000D01*
X81825570Y-110197175D01*
X81775000Y-110319262D01*
X81775000Y-110780738D01*
X81951599Y-111207087D01*
X81959512Y-111215000D01*
X81370488Y-111215000D01*
X81378401Y-111207087D01*
X81555000Y-110780738D01*
X81555000Y-110319262D01*
X81378401Y-109892913D01*
X81052087Y-109566599D01*
X80625738Y-109390000D01*
X80164262Y-109390000D01*
X79737913Y-109566599D01*
X79411599Y-109892913D01*
X79235000Y-110319262D01*
X79235000Y-110780738D01*
X79411599Y-111207087D01*
X79419512Y-111215000D01*
X71396604Y-111215000D01*
X70390562Y-110208959D01*
X70360713Y-110164287D01*
X70183747Y-110046041D01*
X70143032Y-110037942D01*
X70143032Y-109800000D01*
X70111211Y-109640026D01*
X70020593Y-109504407D01*
X69884974Y-109413789D01*
X69725000Y-109381968D01*
X68359636Y-109381968D01*
X69181606Y-108559998D01*
X75726399Y-108559998D01*
X75882443Y-108716043D01*
M02*
