G04 #@! TF.GenerationSoftware,KiCad,Pcbnew,(5.0.0-rc2-dev-340-g7483a73a5)*
G04 #@! TF.CreationDate,2018-06-13T08:56:42+02:00*
G04 #@! TF.ProjectId,AudiA6Main,4175646941364D61696E2E6B69636164,rev?*
G04 #@! TF.SameCoordinates,Original*
G04 #@! TF.FileFunction,Legend,Bot*
G04 #@! TF.FilePolarity,Positive*
%FSLAX46Y46*%
G04 Gerber Fmt 4.6, Leading zero omitted, Abs format (unit mm)*
G04 Created by KiCad (PCBNEW (5.0.0-rc2-dev-340-g7483a73a5)) date 06/13/18 08:56:42*
%MOMM*%
%LPD*%
G01*
G04 APERTURE LIST*
%ADD10C,0.300000*%
%ADD11C,0.010000*%
G04 APERTURE END LIST*
D10*
X77350000Y-171478571D02*
X77350000Y-169978571D01*
X76778571Y-169978571D01*
X76635714Y-170050000D01*
X76564285Y-170121428D01*
X76492857Y-170264285D01*
X76492857Y-170478571D01*
X76564285Y-170621428D01*
X76635714Y-170692857D01*
X76778571Y-170764285D01*
X77350000Y-170764285D01*
X75992857Y-169978571D02*
X75635714Y-171478571D01*
X75350000Y-170407142D01*
X75064285Y-171478571D01*
X74707142Y-169978571D01*
X73278571Y-171478571D02*
X73778571Y-170764285D01*
X74135714Y-171478571D02*
X74135714Y-169978571D01*
X73564285Y-169978571D01*
X73421428Y-170050000D01*
X73350000Y-170121428D01*
X73278571Y-170264285D01*
X73278571Y-170478571D01*
X73350000Y-170621428D01*
X73421428Y-170692857D01*
X73564285Y-170764285D01*
X74135714Y-170764285D01*
X76764285Y-169428571D02*
X76764285Y-167928571D01*
X76121428Y-168071428D02*
X76050000Y-168000000D01*
X75907142Y-167928571D01*
X75550000Y-167928571D01*
X75407142Y-168000000D01*
X75335714Y-168071428D01*
X75264285Y-168214285D01*
X75264285Y-168357142D01*
X75335714Y-168571428D01*
X76192857Y-169428571D01*
X75264285Y-169428571D01*
X73764285Y-169285714D02*
X73835714Y-169357142D01*
X74050000Y-169428571D01*
X74192857Y-169428571D01*
X74407142Y-169357142D01*
X74550000Y-169214285D01*
X74621428Y-169071428D01*
X74692857Y-168785714D01*
X74692857Y-168571428D01*
X74621428Y-168285714D01*
X74550000Y-168142857D01*
X74407142Y-168000000D01*
X74192857Y-167928571D01*
X74050000Y-167928571D01*
X73835714Y-168000000D01*
X73764285Y-168071428D01*
X68214285Y-169378571D02*
X68214285Y-167878571D01*
X67571428Y-168021428D02*
X67500000Y-167950000D01*
X67357142Y-167878571D01*
X67000000Y-167878571D01*
X66857142Y-167950000D01*
X66785714Y-168021428D01*
X66714285Y-168164285D01*
X66714285Y-168307142D01*
X66785714Y-168521428D01*
X67642857Y-169378571D01*
X66714285Y-169378571D01*
X65214285Y-169235714D02*
X65285714Y-169307142D01*
X65500000Y-169378571D01*
X65642857Y-169378571D01*
X65857142Y-169307142D01*
X66000000Y-169164285D01*
X66071428Y-169021428D01*
X66142857Y-168735714D01*
X66142857Y-168521428D01*
X66071428Y-168235714D01*
X66000000Y-168092857D01*
X65857142Y-167950000D01*
X65642857Y-167878571D01*
X65500000Y-167878571D01*
X65285714Y-167950000D01*
X65214285Y-168021428D01*
X68878571Y-171478571D02*
X69378571Y-170764285D01*
X69735714Y-171478571D02*
X69735714Y-169978571D01*
X69164285Y-169978571D01*
X69021428Y-170050000D01*
X68950000Y-170121428D01*
X68878571Y-170264285D01*
X68878571Y-170478571D01*
X68950000Y-170621428D01*
X69021428Y-170692857D01*
X69164285Y-170764285D01*
X69735714Y-170764285D01*
X68235714Y-170692857D02*
X67735714Y-170692857D01*
X67521428Y-171478571D02*
X68235714Y-171478571D01*
X68235714Y-169978571D01*
X67521428Y-169978571D01*
X66950000Y-171407142D02*
X66735714Y-171478571D01*
X66378571Y-171478571D01*
X66235714Y-171407142D01*
X66164285Y-171335714D01*
X66092857Y-171192857D01*
X66092857Y-171050000D01*
X66164285Y-170907142D01*
X66235714Y-170835714D01*
X66378571Y-170764285D01*
X66664285Y-170692857D01*
X66807142Y-170621428D01*
X66878571Y-170550000D01*
X66950000Y-170407142D01*
X66950000Y-170264285D01*
X66878571Y-170121428D01*
X66807142Y-170050000D01*
X66664285Y-169978571D01*
X66307142Y-169978571D01*
X66092857Y-170050000D01*
X65450000Y-170692857D02*
X64950000Y-170692857D01*
X64735714Y-171478571D02*
X65450000Y-171478571D01*
X65450000Y-169978571D01*
X64735714Y-169978571D01*
X64307142Y-169978571D02*
X63450000Y-169978571D01*
X63878571Y-171478571D02*
X63878571Y-169978571D01*
X60278571Y-171478571D02*
X60778571Y-170764285D01*
X61135714Y-171478571D02*
X61135714Y-169978571D01*
X60564285Y-169978571D01*
X60421428Y-170050000D01*
X60350000Y-170121428D01*
X60278571Y-170264285D01*
X60278571Y-170478571D01*
X60350000Y-170621428D01*
X60421428Y-170692857D01*
X60564285Y-170764285D01*
X61135714Y-170764285D01*
X59635714Y-170692857D02*
X59135714Y-170692857D01*
X58921428Y-171478571D02*
X59635714Y-171478571D01*
X59635714Y-169978571D01*
X58921428Y-169978571D01*
X58350000Y-171407142D02*
X58135714Y-171478571D01*
X57778571Y-171478571D01*
X57635714Y-171407142D01*
X57564285Y-171335714D01*
X57492857Y-171192857D01*
X57492857Y-171050000D01*
X57564285Y-170907142D01*
X57635714Y-170835714D01*
X57778571Y-170764285D01*
X58064285Y-170692857D01*
X58207142Y-170621428D01*
X58278571Y-170550000D01*
X58350000Y-170407142D01*
X58350000Y-170264285D01*
X58278571Y-170121428D01*
X58207142Y-170050000D01*
X58064285Y-169978571D01*
X57707142Y-169978571D01*
X57492857Y-170050000D01*
X56850000Y-170692857D02*
X56350000Y-170692857D01*
X56135714Y-171478571D02*
X56850000Y-171478571D01*
X56850000Y-169978571D01*
X56135714Y-169978571D01*
X55707142Y-169978571D02*
X54850000Y-169978571D01*
X55278571Y-171478571D02*
X55278571Y-169978571D01*
X60135714Y-169528571D02*
X60135714Y-168028571D01*
X59635714Y-169100000D01*
X59135714Y-168028571D01*
X59135714Y-169528571D01*
X57564285Y-169385714D02*
X57635714Y-169457142D01*
X57850000Y-169528571D01*
X57992857Y-169528571D01*
X58207142Y-169457142D01*
X58350000Y-169314285D01*
X58421428Y-169171428D01*
X58492857Y-168885714D01*
X58492857Y-168671428D01*
X58421428Y-168385714D01*
X58350000Y-168242857D01*
X58207142Y-168100000D01*
X57992857Y-168028571D01*
X57850000Y-168028571D01*
X57635714Y-168100000D01*
X57564285Y-168171428D01*
X56921428Y-168028571D02*
X56921428Y-169242857D01*
X56850000Y-169385714D01*
X56778571Y-169457142D01*
X56635714Y-169528571D01*
X56350000Y-169528571D01*
X56207142Y-169457142D01*
X56135714Y-169385714D01*
X56064285Y-169242857D01*
X56064285Y-168028571D01*
D11*
G36*
X97543164Y-134768554D02*
X97183496Y-134753979D01*
X96823828Y-134739403D01*
X96823828Y-133370954D01*
X97129856Y-133285871D01*
X97378255Y-133193417D01*
X97572309Y-133061237D01*
X97625950Y-133010722D01*
X97816015Y-132820657D01*
X97816015Y-132106523D01*
X97810546Y-131752025D01*
X97786196Y-131484379D01*
X97731047Y-131291462D01*
X97633185Y-131161151D01*
X97480694Y-131081324D01*
X97261658Y-131039859D01*
X96964160Y-131024632D01*
X96751007Y-131023046D01*
X96178906Y-131023046D01*
X96178906Y-131221484D01*
X96823828Y-131221484D01*
X97110446Y-131221484D01*
X97328666Y-131238084D01*
X97483493Y-131284399D01*
X97507321Y-131298711D01*
X97552654Y-131336204D01*
X97583511Y-131385738D01*
X97602662Y-131465303D01*
X97612876Y-131592890D01*
X97616921Y-131786488D01*
X97617578Y-132015007D01*
X97617578Y-132654076D01*
X97381933Y-132687617D01*
X97149920Y-132756123D01*
X96985058Y-132874021D01*
X96823828Y-133026885D01*
X96823828Y-131221484D01*
X96178906Y-131221484D01*
X96178906Y-135339062D01*
X97572920Y-135339062D01*
X97543164Y-134768554D01*
X97543164Y-134768554D01*
G37*
X97543164Y-134768554D02*
X97183496Y-134753979D01*
X96823828Y-134739403D01*
X96823828Y-133370954D01*
X97129856Y-133285871D01*
X97378255Y-133193417D01*
X97572309Y-133061237D01*
X97625950Y-133010722D01*
X97816015Y-132820657D01*
X97816015Y-132106523D01*
X97810546Y-131752025D01*
X97786196Y-131484379D01*
X97731047Y-131291462D01*
X97633185Y-131161151D01*
X97480694Y-131081324D01*
X97261658Y-131039859D01*
X96964160Y-131024632D01*
X96751007Y-131023046D01*
X96178906Y-131023046D01*
X96178906Y-131221484D01*
X96823828Y-131221484D01*
X97110446Y-131221484D01*
X97328666Y-131238084D01*
X97483493Y-131284399D01*
X97507321Y-131298711D01*
X97552654Y-131336204D01*
X97583511Y-131385738D01*
X97602662Y-131465303D01*
X97612876Y-131592890D01*
X97616921Y-131786488D01*
X97617578Y-132015007D01*
X97617578Y-132654076D01*
X97381933Y-132687617D01*
X97149920Y-132756123D01*
X96985058Y-132874021D01*
X96823828Y-133026885D01*
X96823828Y-131221484D01*
X96178906Y-131221484D01*
X96178906Y-135339062D01*
X97572920Y-135339062D01*
X97543164Y-134768554D01*
G36*
X112649219Y-133301816D02*
X112647989Y-132813595D01*
X112644429Y-132377995D01*
X112638728Y-132003066D01*
X112631078Y-131696854D01*
X112621670Y-131467408D01*
X112610696Y-131322775D01*
X112601056Y-131273798D01*
X112495927Y-131170574D01*
X112321075Y-131092488D01*
X112103844Y-131044107D01*
X111871574Y-131030000D01*
X111651608Y-131054735D01*
X111526970Y-131094331D01*
X111449749Y-131128494D01*
X111386234Y-131163677D01*
X111335089Y-131209280D01*
X111294972Y-131274704D01*
X111264547Y-131369348D01*
X111242474Y-131502613D01*
X111227415Y-131683897D01*
X111218031Y-131922602D01*
X111212982Y-132228127D01*
X111210931Y-132609872D01*
X111210539Y-133077237D01*
X111210547Y-133316116D01*
X111210547Y-134594921D01*
X111855469Y-134594921D01*
X111855469Y-131221484D01*
X112025872Y-131221484D01*
X112186110Y-131236107D01*
X112323528Y-131269866D01*
X112450781Y-131318247D01*
X112450781Y-134594921D01*
X111855469Y-134594921D01*
X111210547Y-134594921D01*
X111210547Y-135239843D01*
X112649219Y-135239843D01*
X112649219Y-133301816D01*
X112649219Y-133301816D01*
G37*
X112649219Y-133301816D02*
X112647989Y-132813595D01*
X112644429Y-132377995D01*
X112638728Y-132003066D01*
X112631078Y-131696854D01*
X112621670Y-131467408D01*
X112610696Y-131322775D01*
X112601056Y-131273798D01*
X112495927Y-131170574D01*
X112321075Y-131092488D01*
X112103844Y-131044107D01*
X111871574Y-131030000D01*
X111651608Y-131054735D01*
X111526970Y-131094331D01*
X111449749Y-131128494D01*
X111386234Y-131163677D01*
X111335089Y-131209280D01*
X111294972Y-131274704D01*
X111264547Y-131369348D01*
X111242474Y-131502613D01*
X111227415Y-131683897D01*
X111218031Y-131922602D01*
X111212982Y-132228127D01*
X111210931Y-132609872D01*
X111210539Y-133077237D01*
X111210547Y-133316116D01*
X111210547Y-134594921D01*
X111855469Y-134594921D01*
X111855469Y-131221484D01*
X112025872Y-131221484D01*
X112186110Y-131236107D01*
X112323528Y-131269866D01*
X112450781Y-131318247D01*
X112450781Y-134594921D01*
X111855469Y-134594921D01*
X111210547Y-134594921D01*
X111210547Y-135239843D01*
X112649219Y-135239843D01*
X112649219Y-133301816D01*
G36*
X103855957Y-137074713D02*
X104378237Y-137074084D01*
X104872869Y-137072519D01*
X105330577Y-137070110D01*
X105742085Y-137066954D01*
X106098114Y-137063145D01*
X106389390Y-137058777D01*
X106606635Y-137053946D01*
X106740573Y-137048745D01*
X106780118Y-137044852D01*
X106854906Y-136997517D01*
X106976693Y-136890697D01*
X107128252Y-136740535D01*
X107282897Y-136573805D01*
X107459072Y-136371669D01*
X107583030Y-136213298D01*
X107671598Y-136071207D01*
X107741608Y-135917909D01*
X107809889Y-135725920D01*
X107818990Y-135698294D01*
X107913299Y-135360773D01*
X107956154Y-135058899D01*
X107946931Y-134761991D01*
X107885007Y-134439369D01*
X107786737Y-134110767D01*
X107710753Y-133874247D01*
X107666383Y-133709490D01*
X107649922Y-133595540D01*
X107657665Y-133511439D01*
X107672688Y-133465845D01*
X107716303Y-133361068D01*
X107787086Y-133193374D01*
X107873085Y-132991026D01*
X107919034Y-132883398D01*
X108109961Y-132436914D01*
X108124089Y-130588964D01*
X108138217Y-128741015D01*
X105530273Y-128744633D01*
X105245019Y-129013523D01*
X104959765Y-129282412D01*
X104959765Y-132654076D01*
X104741060Y-132686873D01*
X104512915Y-132762543D01*
X104384513Y-132863546D01*
X104287995Y-132954701D01*
X104217543Y-133004361D01*
X104206343Y-133007421D01*
X104197850Y-132959501D01*
X104189965Y-132822490D01*
X104182880Y-132606519D01*
X104176786Y-132321715D01*
X104171875Y-131978207D01*
X104168338Y-131586123D01*
X104166367Y-131155593D01*
X104166015Y-130874218D01*
X104166015Y-128741015D01*
X102863769Y-128742085D01*
X101561523Y-128743156D01*
X101040625Y-129244146D01*
X101040625Y-136876953D01*
X101239062Y-136876953D01*
X101239062Y-129385937D01*
X103521094Y-129385937D01*
X103521094Y-135339062D01*
X104910156Y-135339062D01*
X104910156Y-134743750D01*
X104166015Y-134743750D01*
X104166015Y-133359183D01*
X104352051Y-133325366D01*
X104562650Y-133265535D01*
X104774854Y-133170017D01*
X104955980Y-133056306D01*
X105073342Y-132941897D01*
X105076067Y-132937830D01*
X105098305Y-132894534D01*
X105116193Y-132832772D01*
X105130188Y-132742253D01*
X105140753Y-132612682D01*
X105148345Y-132433768D01*
X105153426Y-132195218D01*
X105156455Y-131886740D01*
X105157891Y-131498040D01*
X105158203Y-131099206D01*
X105158203Y-129385937D01*
X107489844Y-129385937D01*
X107489844Y-131089694D01*
X107489719Y-131565508D01*
X107488153Y-131955118D01*
X107483361Y-132271539D01*
X107473557Y-132527786D01*
X107456955Y-132736873D01*
X107431768Y-132911814D01*
X107396211Y-133065625D01*
X107348497Y-133211320D01*
X107286841Y-133361914D01*
X107209457Y-133530420D01*
X107132795Y-133691549D01*
X106960451Y-134053215D01*
X107125919Y-134559713D01*
X107199669Y-134801006D01*
X107263412Y-135037939D01*
X107308311Y-135236221D01*
X107322550Y-135322560D01*
X107325146Y-135579680D01*
X107283001Y-135873194D01*
X107204777Y-136173752D01*
X107099136Y-136452003D01*
X106974741Y-136678596D01*
X106892473Y-136779792D01*
X106868742Y-136800613D01*
X106837294Y-136818227D01*
X106790204Y-136832902D01*
X106719548Y-136844907D01*
X106617404Y-136854509D01*
X106475847Y-136861975D01*
X106286953Y-136867574D01*
X106042799Y-136871573D01*
X105735462Y-136874241D01*
X105357017Y-136875844D01*
X104899541Y-136876650D01*
X104355110Y-136876928D01*
X104017187Y-136876953D01*
X101239062Y-136876953D01*
X101040625Y-136876953D01*
X101040625Y-137075390D01*
X103855957Y-137074713D01*
X103855957Y-137074713D01*
G37*
X103855957Y-137074713D02*
X104378237Y-137074084D01*
X104872869Y-137072519D01*
X105330577Y-137070110D01*
X105742085Y-137066954D01*
X106098114Y-137063145D01*
X106389390Y-137058777D01*
X106606635Y-137053946D01*
X106740573Y-137048745D01*
X106780118Y-137044852D01*
X106854906Y-136997517D01*
X106976693Y-136890697D01*
X107128252Y-136740535D01*
X107282897Y-136573805D01*
X107459072Y-136371669D01*
X107583030Y-136213298D01*
X107671598Y-136071207D01*
X107741608Y-135917909D01*
X107809889Y-135725920D01*
X107818990Y-135698294D01*
X107913299Y-135360773D01*
X107956154Y-135058899D01*
X107946931Y-134761991D01*
X107885007Y-134439369D01*
X107786737Y-134110767D01*
X107710753Y-133874247D01*
X107666383Y-133709490D01*
X107649922Y-133595540D01*
X107657665Y-133511439D01*
X107672688Y-133465845D01*
X107716303Y-133361068D01*
X107787086Y-133193374D01*
X107873085Y-132991026D01*
X107919034Y-132883398D01*
X108109961Y-132436914D01*
X108124089Y-130588964D01*
X108138217Y-128741015D01*
X105530273Y-128744633D01*
X105245019Y-129013523D01*
X104959765Y-129282412D01*
X104959765Y-132654076D01*
X104741060Y-132686873D01*
X104512915Y-132762543D01*
X104384513Y-132863546D01*
X104287995Y-132954701D01*
X104217543Y-133004361D01*
X104206343Y-133007421D01*
X104197850Y-132959501D01*
X104189965Y-132822490D01*
X104182880Y-132606519D01*
X104176786Y-132321715D01*
X104171875Y-131978207D01*
X104168338Y-131586123D01*
X104166367Y-131155593D01*
X104166015Y-130874218D01*
X104166015Y-128741015D01*
X102863769Y-128742085D01*
X101561523Y-128743156D01*
X101040625Y-129244146D01*
X101040625Y-136876953D01*
X101239062Y-136876953D01*
X101239062Y-129385937D01*
X103521094Y-129385937D01*
X103521094Y-135339062D01*
X104910156Y-135339062D01*
X104910156Y-134743750D01*
X104166015Y-134743750D01*
X104166015Y-133359183D01*
X104352051Y-133325366D01*
X104562650Y-133265535D01*
X104774854Y-133170017D01*
X104955980Y-133056306D01*
X105073342Y-132941897D01*
X105076067Y-132937830D01*
X105098305Y-132894534D01*
X105116193Y-132832772D01*
X105130188Y-132742253D01*
X105140753Y-132612682D01*
X105148345Y-132433768D01*
X105153426Y-132195218D01*
X105156455Y-131886740D01*
X105157891Y-131498040D01*
X105158203Y-131099206D01*
X105158203Y-129385937D01*
X107489844Y-129385937D01*
X107489844Y-131089694D01*
X107489719Y-131565508D01*
X107488153Y-131955118D01*
X107483361Y-132271539D01*
X107473557Y-132527786D01*
X107456955Y-132736873D01*
X107431768Y-132911814D01*
X107396211Y-133065625D01*
X107348497Y-133211320D01*
X107286841Y-133361914D01*
X107209457Y-133530420D01*
X107132795Y-133691549D01*
X106960451Y-134053215D01*
X107125919Y-134559713D01*
X107199669Y-134801006D01*
X107263412Y-135037939D01*
X107308311Y-135236221D01*
X107322550Y-135322560D01*
X107325146Y-135579680D01*
X107283001Y-135873194D01*
X107204777Y-136173752D01*
X107099136Y-136452003D01*
X106974741Y-136678596D01*
X106892473Y-136779792D01*
X106868742Y-136800613D01*
X106837294Y-136818227D01*
X106790204Y-136832902D01*
X106719548Y-136844907D01*
X106617404Y-136854509D01*
X106475847Y-136861975D01*
X106286953Y-136867574D01*
X106042799Y-136871573D01*
X105735462Y-136874241D01*
X105357017Y-136875844D01*
X104899541Y-136876650D01*
X104355110Y-136876928D01*
X104017187Y-136876953D01*
X101239062Y-136876953D01*
X101040625Y-136876953D01*
X101040625Y-137075390D01*
X103855957Y-137074713D01*
G36*
X98219774Y-137066006D02*
X98641720Y-137061770D01*
X98975022Y-137055341D01*
X99216710Y-137046753D01*
X99363814Y-137036045D01*
X99403515Y-137029210D01*
X99533089Y-136963724D01*
X99694145Y-136830107D01*
X99896133Y-136620393D01*
X99919850Y-136593917D01*
X100124473Y-136351424D01*
X100274034Y-136136098D01*
X100386119Y-135914579D01*
X100478314Y-135653506D01*
X100546768Y-135404728D01*
X100592479Y-135196235D01*
X100612507Y-135007161D01*
X100604359Y-134815052D01*
X100565545Y-134597458D01*
X100493570Y-134331923D01*
X100392620Y-134016041D01*
X100241378Y-133561184D01*
X100392583Y-133261648D01*
X100612852Y-132750799D01*
X100751419Y-132241825D01*
X100817051Y-131717578D01*
X100827780Y-131155126D01*
X100782592Y-130668842D01*
X100680541Y-130252296D01*
X100559683Y-129969427D01*
X100366617Y-129664233D01*
X100119809Y-129366144D01*
X99846606Y-129104624D01*
X99577148Y-128910766D01*
X99329101Y-128765820D01*
X96774219Y-128754136D01*
X94219336Y-128742453D01*
X93933779Y-129012714D01*
X93648222Y-129282976D01*
X93660927Y-133166781D01*
X93673064Y-136876953D01*
X93847265Y-136876953D01*
X93847265Y-129385937D01*
X96235162Y-129385937D01*
X96880579Y-129387009D01*
X97429246Y-129390261D01*
X97883608Y-129395746D01*
X98246112Y-129403518D01*
X98519202Y-129413630D01*
X98705324Y-129426135D01*
X98806925Y-129441087D01*
X98810804Y-129442187D01*
X99031488Y-129544800D01*
X99271357Y-129717599D01*
X99507542Y-129940904D01*
X99717174Y-130195035D01*
X99763210Y-130261768D01*
X99901446Y-130480298D01*
X100003634Y-130672943D01*
X100075107Y-130861574D01*
X100121201Y-131068063D01*
X100147250Y-131314280D01*
X100158588Y-131622097D01*
X100160634Y-131891211D01*
X100159698Y-132198874D01*
X100154481Y-132429927D01*
X100142487Y-132606962D01*
X100121218Y-132752571D01*
X100088177Y-132889346D01*
X100040867Y-133039881D01*
X100030168Y-133071583D01*
X99943882Y-133305912D01*
X99843003Y-133551145D01*
X99749120Y-133754846D01*
X99747655Y-133757754D01*
X99596444Y-134057303D01*
X99769464Y-134586561D01*
X99867999Y-134898402D01*
X99933748Y-135140678D01*
X99969419Y-135336480D01*
X99977719Y-135508897D01*
X99961355Y-135681018D01*
X99923035Y-135875932D01*
X99921466Y-135882852D01*
X99847425Y-136176458D01*
X99772395Y-136396714D01*
X99685872Y-136569032D01*
X99577354Y-136718824D01*
X99574575Y-136722136D01*
X99444305Y-136876953D01*
X93847265Y-136876953D01*
X93673064Y-136876953D01*
X93673633Y-137050586D01*
X96451758Y-137065188D01*
X97121824Y-137067751D01*
X97712152Y-137068011D01*
X98219774Y-137066006D01*
X98219774Y-137066006D01*
G37*
X98219774Y-137066006D02*
X98641720Y-137061770D01*
X98975022Y-137055341D01*
X99216710Y-137046753D01*
X99363814Y-137036045D01*
X99403515Y-137029210D01*
X99533089Y-136963724D01*
X99694145Y-136830107D01*
X99896133Y-136620393D01*
X99919850Y-136593917D01*
X100124473Y-136351424D01*
X100274034Y-136136098D01*
X100386119Y-135914579D01*
X100478314Y-135653506D01*
X100546768Y-135404728D01*
X100592479Y-135196235D01*
X100612507Y-135007161D01*
X100604359Y-134815052D01*
X100565545Y-134597458D01*
X100493570Y-134331923D01*
X100392620Y-134016041D01*
X100241378Y-133561184D01*
X100392583Y-133261648D01*
X100612852Y-132750799D01*
X100751419Y-132241825D01*
X100817051Y-131717578D01*
X100827780Y-131155126D01*
X100782592Y-130668842D01*
X100680541Y-130252296D01*
X100559683Y-129969427D01*
X100366617Y-129664233D01*
X100119809Y-129366144D01*
X99846606Y-129104624D01*
X99577148Y-128910766D01*
X99329101Y-128765820D01*
X96774219Y-128754136D01*
X94219336Y-128742453D01*
X93933779Y-129012714D01*
X93648222Y-129282976D01*
X93660927Y-133166781D01*
X93673064Y-136876953D01*
X93847265Y-136876953D01*
X93847265Y-129385937D01*
X96235162Y-129385937D01*
X96880579Y-129387009D01*
X97429246Y-129390261D01*
X97883608Y-129395746D01*
X98246112Y-129403518D01*
X98519202Y-129413630D01*
X98705324Y-129426135D01*
X98806925Y-129441087D01*
X98810804Y-129442187D01*
X99031488Y-129544800D01*
X99271357Y-129717599D01*
X99507542Y-129940904D01*
X99717174Y-130195035D01*
X99763210Y-130261768D01*
X99901446Y-130480298D01*
X100003634Y-130672943D01*
X100075107Y-130861574D01*
X100121201Y-131068063D01*
X100147250Y-131314280D01*
X100158588Y-131622097D01*
X100160634Y-131891211D01*
X100159698Y-132198874D01*
X100154481Y-132429927D01*
X100142487Y-132606962D01*
X100121218Y-132752571D01*
X100088177Y-132889346D01*
X100040867Y-133039881D01*
X100030168Y-133071583D01*
X99943882Y-133305912D01*
X99843003Y-133551145D01*
X99749120Y-133754846D01*
X99747655Y-133757754D01*
X99596444Y-134057303D01*
X99769464Y-134586561D01*
X99867999Y-134898402D01*
X99933748Y-135140678D01*
X99969419Y-135336480D01*
X99977719Y-135508897D01*
X99961355Y-135681018D01*
X99923035Y-135875932D01*
X99921466Y-135882852D01*
X99847425Y-136176458D01*
X99772395Y-136396714D01*
X99685872Y-136569032D01*
X99577354Y-136718824D01*
X99574575Y-136722136D01*
X99444305Y-136876953D01*
X93847265Y-136876953D01*
X93673064Y-136876953D01*
X93673633Y-137050586D01*
X96451758Y-137065188D01*
X97121824Y-137067751D01*
X97712152Y-137068011D01*
X98219774Y-137066006D01*
G36*
X93154918Y-136478641D02*
X93141424Y-135549183D01*
X93127929Y-134619726D01*
X92566628Y-134594921D01*
X92005327Y-134570117D01*
X92325032Y-134215414D01*
X92484199Y-134024816D01*
X92631626Y-133823912D01*
X92742777Y-133646940D01*
X92769367Y-133595297D01*
X92912808Y-133208316D01*
X93017091Y-132755839D01*
X93082319Y-132258846D01*
X93108593Y-131738317D01*
X93096015Y-131215232D01*
X93044685Y-130710572D01*
X92954705Y-130245317D01*
X92826177Y-129840447D01*
X92750412Y-129672915D01*
X92617400Y-129465173D01*
X92433696Y-129246223D01*
X92228642Y-129046864D01*
X92031580Y-128897898D01*
X91988135Y-128872745D01*
X91941159Y-128848817D01*
X91891394Y-128828692D01*
X91830171Y-128811984D01*
X91748819Y-128798307D01*
X91638669Y-128787277D01*
X91491052Y-128778507D01*
X91297299Y-128771612D01*
X91048740Y-128766206D01*
X90736705Y-128761904D01*
X90352526Y-128758321D01*
X89887533Y-128755070D01*
X89333057Y-128751765D01*
X89258367Y-128751337D01*
X86728257Y-128736854D01*
X86507120Y-128962177D01*
X86382206Y-129079657D01*
X86277158Y-129161173D01*
X86220870Y-129187500D01*
X86198329Y-129205948D01*
X86182096Y-129268579D01*
X86171611Y-129386316D01*
X86166312Y-129570086D01*
X86165635Y-129830815D01*
X86169019Y-130179427D01*
X86169187Y-130192089D01*
X86182617Y-131196679D01*
X87973402Y-131221484D01*
X88464926Y-131229020D01*
X88865820Y-131236961D01*
X89184675Y-131245732D01*
X89430081Y-131255761D01*
X89610626Y-131267473D01*
X89734902Y-131281294D01*
X89811497Y-131297650D01*
X89846156Y-131314375D01*
X89882291Y-131360635D01*
X89906320Y-131439907D01*
X89920467Y-131569904D01*
X89926952Y-131768333D01*
X89928125Y-131967834D01*
X89928125Y-132553207D01*
X88997949Y-132569474D01*
X88631279Y-132577528D01*
X88344347Y-132591628D01*
X88117677Y-132618352D01*
X87931788Y-132664280D01*
X87767202Y-132735991D01*
X87604442Y-132840062D01*
X87424029Y-132983074D01*
X87206484Y-133171604D01*
X87201087Y-133176353D01*
X86927222Y-133435940D01*
X86705245Y-133693387D01*
X86530225Y-133962697D01*
X86397234Y-134257873D01*
X86301341Y-134592917D01*
X86237617Y-134981833D01*
X86201132Y-135438624D01*
X86186956Y-135977292D01*
X86186478Y-136058398D01*
X86183293Y-136876953D01*
X86345727Y-136876953D01*
X86369268Y-135921972D01*
X86392084Y-135395183D01*
X86434626Y-134953273D01*
X86500448Y-134583231D01*
X86593106Y-134272044D01*
X86716154Y-134006701D01*
X86873148Y-133774189D01*
X86993902Y-133635737D01*
X87109685Y-133517976D01*
X87216142Y-133425535D01*
X87327262Y-133354984D01*
X87457030Y-133302892D01*
X87619434Y-133265828D01*
X87828461Y-133240363D01*
X88098098Y-133223066D01*
X88442332Y-133210505D01*
X88762304Y-133202021D01*
X89094725Y-133193472D01*
X89392119Y-133185220D01*
X89640800Y-133177694D01*
X89827082Y-133171324D01*
X89937276Y-133166539D01*
X89961788Y-133164391D01*
X90022273Y-133105319D01*
X90065791Y-133045483D01*
X90095133Y-132968242D01*
X90113090Y-132856959D01*
X90122453Y-132694994D01*
X90126013Y-132465707D01*
X90126562Y-132182062D01*
X90123736Y-131901240D01*
X90115923Y-131650669D01*
X90104122Y-131449185D01*
X90089331Y-131315623D01*
X90078400Y-131273798D01*
X90003903Y-131199777D01*
X89876172Y-131124008D01*
X89829349Y-131103426D01*
X89760629Y-131080900D01*
X89671868Y-131062899D01*
X89552112Y-131048944D01*
X89390404Y-131038555D01*
X89175789Y-131031253D01*
X88897312Y-131026558D01*
X88544016Y-131023992D01*
X88104946Y-131023075D01*
X87992355Y-131023046D01*
X86356250Y-131023046D01*
X86356250Y-129382387D01*
X88799511Y-129396564D01*
X89354926Y-129399886D01*
X89819974Y-129403118D01*
X90203510Y-129406669D01*
X90514384Y-129410950D01*
X90761450Y-129416368D01*
X90953558Y-129423333D01*
X91099561Y-129432253D01*
X91208312Y-129443538D01*
X91288662Y-129457597D01*
X91349464Y-129474838D01*
X91399569Y-129495670D01*
X91444595Y-129518770D01*
X91723529Y-129722164D01*
X91966997Y-130010204D01*
X92168723Y-130372710D01*
X92322430Y-130799499D01*
X92379689Y-131035628D01*
X92418016Y-131297454D01*
X92443076Y-131628547D01*
X92454770Y-131999836D01*
X92452995Y-132382247D01*
X92437651Y-132746706D01*
X92408637Y-133064142D01*
X92387234Y-133205859D01*
X92290929Y-133609460D01*
X92159608Y-133969288D01*
X92000443Y-134272205D01*
X91820607Y-134505069D01*
X91627276Y-134654742D01*
X91585457Y-134674447D01*
X91507068Y-134697117D01*
X91386360Y-134714648D01*
X91212588Y-134727554D01*
X90975004Y-134736348D01*
X90662862Y-134741540D01*
X90265416Y-134743644D01*
X90131699Y-134743750D01*
X89712668Y-134744381D01*
X89382549Y-134747790D01*
X89131041Y-134756249D01*
X88947837Y-134772031D01*
X88822635Y-134797408D01*
X88745130Y-134834653D01*
X88705017Y-134886038D01*
X88691994Y-134953836D01*
X88695756Y-135040319D01*
X88697614Y-135060031D01*
X88712695Y-135215039D01*
X90585449Y-135228038D01*
X92458203Y-135241036D01*
X92458203Y-136876953D01*
X86345727Y-136876953D01*
X86183293Y-136876953D01*
X86182617Y-137050586D01*
X89407226Y-137058833D01*
X92631836Y-137067081D01*
X93154918Y-136478641D01*
X93154918Y-136478641D01*
G37*
X93154918Y-136478641D02*
X93141424Y-135549183D01*
X93127929Y-134619726D01*
X92566628Y-134594921D01*
X92005327Y-134570117D01*
X92325032Y-134215414D01*
X92484199Y-134024816D01*
X92631626Y-133823912D01*
X92742777Y-133646940D01*
X92769367Y-133595297D01*
X92912808Y-133208316D01*
X93017091Y-132755839D01*
X93082319Y-132258846D01*
X93108593Y-131738317D01*
X93096015Y-131215232D01*
X93044685Y-130710572D01*
X92954705Y-130245317D01*
X92826177Y-129840447D01*
X92750412Y-129672915D01*
X92617400Y-129465173D01*
X92433696Y-129246223D01*
X92228642Y-129046864D01*
X92031580Y-128897898D01*
X91988135Y-128872745D01*
X91941159Y-128848817D01*
X91891394Y-128828692D01*
X91830171Y-128811984D01*
X91748819Y-128798307D01*
X91638669Y-128787277D01*
X91491052Y-128778507D01*
X91297299Y-128771612D01*
X91048740Y-128766206D01*
X90736705Y-128761904D01*
X90352526Y-128758321D01*
X89887533Y-128755070D01*
X89333057Y-128751765D01*
X89258367Y-128751337D01*
X86728257Y-128736854D01*
X86507120Y-128962177D01*
X86382206Y-129079657D01*
X86277158Y-129161173D01*
X86220870Y-129187500D01*
X86198329Y-129205948D01*
X86182096Y-129268579D01*
X86171611Y-129386316D01*
X86166312Y-129570086D01*
X86165635Y-129830815D01*
X86169019Y-130179427D01*
X86169187Y-130192089D01*
X86182617Y-131196679D01*
X87973402Y-131221484D01*
X88464926Y-131229020D01*
X88865820Y-131236961D01*
X89184675Y-131245732D01*
X89430081Y-131255761D01*
X89610626Y-131267473D01*
X89734902Y-131281294D01*
X89811497Y-131297650D01*
X89846156Y-131314375D01*
X89882291Y-131360635D01*
X89906320Y-131439907D01*
X89920467Y-131569904D01*
X89926952Y-131768333D01*
X89928125Y-131967834D01*
X89928125Y-132553207D01*
X88997949Y-132569474D01*
X88631279Y-132577528D01*
X88344347Y-132591628D01*
X88117677Y-132618352D01*
X87931788Y-132664280D01*
X87767202Y-132735991D01*
X87604442Y-132840062D01*
X87424029Y-132983074D01*
X87206484Y-133171604D01*
X87201087Y-133176353D01*
X86927222Y-133435940D01*
X86705245Y-133693387D01*
X86530225Y-133962697D01*
X86397234Y-134257873D01*
X86301341Y-134592917D01*
X86237617Y-134981833D01*
X86201132Y-135438624D01*
X86186956Y-135977292D01*
X86186478Y-136058398D01*
X86183293Y-136876953D01*
X86345727Y-136876953D01*
X86369268Y-135921972D01*
X86392084Y-135395183D01*
X86434626Y-134953273D01*
X86500448Y-134583231D01*
X86593106Y-134272044D01*
X86716154Y-134006701D01*
X86873148Y-133774189D01*
X86993902Y-133635737D01*
X87109685Y-133517976D01*
X87216142Y-133425535D01*
X87327262Y-133354984D01*
X87457030Y-133302892D01*
X87619434Y-133265828D01*
X87828461Y-133240363D01*
X88098098Y-133223066D01*
X88442332Y-133210505D01*
X88762304Y-133202021D01*
X89094725Y-133193472D01*
X89392119Y-133185220D01*
X89640800Y-133177694D01*
X89827082Y-133171324D01*
X89937276Y-133166539D01*
X89961788Y-133164391D01*
X90022273Y-133105319D01*
X90065791Y-133045483D01*
X90095133Y-132968242D01*
X90113090Y-132856959D01*
X90122453Y-132694994D01*
X90126013Y-132465707D01*
X90126562Y-132182062D01*
X90123736Y-131901240D01*
X90115923Y-131650669D01*
X90104122Y-131449185D01*
X90089331Y-131315623D01*
X90078400Y-131273798D01*
X90003903Y-131199777D01*
X89876172Y-131124008D01*
X89829349Y-131103426D01*
X89760629Y-131080900D01*
X89671868Y-131062899D01*
X89552112Y-131048944D01*
X89390404Y-131038555D01*
X89175789Y-131031253D01*
X88897312Y-131026558D01*
X88544016Y-131023992D01*
X88104946Y-131023075D01*
X87992355Y-131023046D01*
X86356250Y-131023046D01*
X86356250Y-129382387D01*
X88799511Y-129396564D01*
X89354926Y-129399886D01*
X89819974Y-129403118D01*
X90203510Y-129406669D01*
X90514384Y-129410950D01*
X90761450Y-129416368D01*
X90953558Y-129423333D01*
X91099561Y-129432253D01*
X91208312Y-129443538D01*
X91288662Y-129457597D01*
X91349464Y-129474838D01*
X91399569Y-129495670D01*
X91444595Y-129518770D01*
X91723529Y-129722164D01*
X91966997Y-130010204D01*
X92168723Y-130372710D01*
X92322430Y-130799499D01*
X92379689Y-131035628D01*
X92418016Y-131297454D01*
X92443076Y-131628547D01*
X92454770Y-131999836D01*
X92452995Y-132382247D01*
X92437651Y-132746706D01*
X92408637Y-133064142D01*
X92387234Y-133205859D01*
X92290929Y-133609460D01*
X92159608Y-133969288D01*
X92000443Y-134272205D01*
X91820607Y-134505069D01*
X91627276Y-134654742D01*
X91585457Y-134674447D01*
X91507068Y-134697117D01*
X91386360Y-134714648D01*
X91212588Y-134727554D01*
X90975004Y-134736348D01*
X90662862Y-134741540D01*
X90265416Y-134743644D01*
X90131699Y-134743750D01*
X89712668Y-134744381D01*
X89382549Y-134747790D01*
X89131041Y-134756249D01*
X88947837Y-134772031D01*
X88822635Y-134797408D01*
X88745130Y-134834653D01*
X88705017Y-134886038D01*
X88691994Y-134953836D01*
X88695756Y-135040319D01*
X88697614Y-135060031D01*
X88712695Y-135215039D01*
X90585449Y-135228038D01*
X92458203Y-135241036D01*
X92458203Y-136876953D01*
X86345727Y-136876953D01*
X86183293Y-136876953D01*
X86182617Y-137050586D01*
X89407226Y-137058833D01*
X92631836Y-137067081D01*
X93154918Y-136478641D01*
G36*
X81422063Y-137064149D02*
X84326158Y-137050586D01*
X84698691Y-136653711D01*
X84958604Y-136351740D01*
X85149368Y-136064937D01*
X85289174Y-135761400D01*
X85386472Y-135447523D01*
X85435179Y-135230341D01*
X85456378Y-135038083D01*
X85447916Y-134844857D01*
X85407637Y-134624769D01*
X85333389Y-134351929D01*
X85281248Y-134182533D01*
X85202898Y-133926572D01*
X85154360Y-133745224D01*
X85132250Y-133619598D01*
X85133184Y-133530806D01*
X85152406Y-133463197D01*
X85196047Y-133359574D01*
X85266588Y-133192773D01*
X85352122Y-132990932D01*
X85397753Y-132883398D01*
X85587304Y-132436914D01*
X85601432Y-130588964D01*
X85615560Y-128741015D01*
X84311589Y-128742085D01*
X83007617Y-128743156D01*
X82747816Y-128993033D01*
X82488014Y-129242910D01*
X82474964Y-130938794D01*
X82461914Y-132634677D01*
X82229270Y-132684624D01*
X82011041Y-132764708D01*
X81844798Y-132880277D01*
X81692969Y-133025984D01*
X81692969Y-128741015D01*
X80365918Y-128742085D01*
X79038867Y-128743156D01*
X78517969Y-129244146D01*
X78517969Y-136876953D01*
X78716406Y-136876953D01*
X78716406Y-129385937D01*
X80998437Y-129385937D01*
X80998437Y-135339062D01*
X82387500Y-135339062D01*
X82387500Y-134743750D01*
X81643359Y-134743750D01*
X81643359Y-133365729D01*
X81826654Y-133331343D01*
X82021054Y-133275173D01*
X82226526Y-133184976D01*
X82409930Y-133078143D01*
X82538129Y-132972066D01*
X82557679Y-132947688D01*
X82578795Y-132906405D01*
X82595802Y-132842441D01*
X82609125Y-132745777D01*
X82619189Y-132606393D01*
X82626419Y-132414269D01*
X82631240Y-132159387D01*
X82634076Y-131831727D01*
X82635352Y-131421270D01*
X82635547Y-131111227D01*
X82635547Y-129385937D01*
X84970762Y-129385937D01*
X84956573Y-131159472D01*
X84942383Y-132933007D01*
X84752831Y-133379492D01*
X84664191Y-133588479D01*
X84584425Y-133776900D01*
X84525458Y-133916571D01*
X84507231Y-133959963D01*
X84485856Y-134036296D01*
X84487162Y-134129287D01*
X84514921Y-134260513D01*
X84572908Y-134451548D01*
X84615717Y-134580080D01*
X84690109Y-134820109D01*
X84752758Y-135059465D01*
X84794524Y-135261476D01*
X84804906Y-135339062D01*
X84803588Y-135570935D01*
X84766771Y-135834275D01*
X84701717Y-136106566D01*
X84615685Y-136365289D01*
X84515936Y-136587930D01*
X84409731Y-136751971D01*
X84325594Y-136825562D01*
X84250919Y-136838241D01*
X84078438Y-136849173D01*
X83809551Y-136858333D01*
X83445655Y-136865696D01*
X82988150Y-136871237D01*
X82438433Y-136874930D01*
X81797903Y-136876751D01*
X81472988Y-136876953D01*
X78716406Y-136876953D01*
X78517969Y-136876953D01*
X78517969Y-137077713D01*
X81422063Y-137064149D01*
X81422063Y-137064149D01*
G37*
X81422063Y-137064149D02*
X84326158Y-137050586D01*
X84698691Y-136653711D01*
X84958604Y-136351740D01*
X85149368Y-136064937D01*
X85289174Y-135761400D01*
X85386472Y-135447523D01*
X85435179Y-135230341D01*
X85456378Y-135038083D01*
X85447916Y-134844857D01*
X85407637Y-134624769D01*
X85333389Y-134351929D01*
X85281248Y-134182533D01*
X85202898Y-133926572D01*
X85154360Y-133745224D01*
X85132250Y-133619598D01*
X85133184Y-133530806D01*
X85152406Y-133463197D01*
X85196047Y-133359574D01*
X85266588Y-133192773D01*
X85352122Y-132990932D01*
X85397753Y-132883398D01*
X85587304Y-132436914D01*
X85601432Y-130588964D01*
X85615560Y-128741015D01*
X84311589Y-128742085D01*
X83007617Y-128743156D01*
X82747816Y-128993033D01*
X82488014Y-129242910D01*
X82474964Y-130938794D01*
X82461914Y-132634677D01*
X82229270Y-132684624D01*
X82011041Y-132764708D01*
X81844798Y-132880277D01*
X81692969Y-133025984D01*
X81692969Y-128741015D01*
X80365918Y-128742085D01*
X79038867Y-128743156D01*
X78517969Y-129244146D01*
X78517969Y-136876953D01*
X78716406Y-136876953D01*
X78716406Y-129385937D01*
X80998437Y-129385937D01*
X80998437Y-135339062D01*
X82387500Y-135339062D01*
X82387500Y-134743750D01*
X81643359Y-134743750D01*
X81643359Y-133365729D01*
X81826654Y-133331343D01*
X82021054Y-133275173D01*
X82226526Y-133184976D01*
X82409930Y-133078143D01*
X82538129Y-132972066D01*
X82557679Y-132947688D01*
X82578795Y-132906405D01*
X82595802Y-132842441D01*
X82609125Y-132745777D01*
X82619189Y-132606393D01*
X82626419Y-132414269D01*
X82631240Y-132159387D01*
X82634076Y-131831727D01*
X82635352Y-131421270D01*
X82635547Y-131111227D01*
X82635547Y-129385937D01*
X84970762Y-129385937D01*
X84956573Y-131159472D01*
X84942383Y-132933007D01*
X84752831Y-133379492D01*
X84664191Y-133588479D01*
X84584425Y-133776900D01*
X84525458Y-133916571D01*
X84507231Y-133959963D01*
X84485856Y-134036296D01*
X84487162Y-134129287D01*
X84514921Y-134260513D01*
X84572908Y-134451548D01*
X84615717Y-134580080D01*
X84690109Y-134820109D01*
X84752758Y-135059465D01*
X84794524Y-135261476D01*
X84804906Y-135339062D01*
X84803588Y-135570935D01*
X84766771Y-135834275D01*
X84701717Y-136106566D01*
X84615685Y-136365289D01*
X84515936Y-136587930D01*
X84409731Y-136751971D01*
X84325594Y-136825562D01*
X84250919Y-136838241D01*
X84078438Y-136849173D01*
X83809551Y-136858333D01*
X83445655Y-136865696D01*
X82988150Y-136871237D01*
X82438433Y-136874930D01*
X81797903Y-136876751D01*
X81472988Y-136876953D01*
X78716406Y-136876953D01*
X78517969Y-136876953D01*
X78517969Y-137077713D01*
X81422063Y-137064149D01*
G36*
X77698989Y-136790963D02*
X77968648Y-136504882D01*
X77970456Y-132622949D01*
X77972265Y-128741015D01*
X75363627Y-128741015D01*
X75144531Y-128964257D01*
X75020245Y-129081123D01*
X74915969Y-129161934D01*
X74861052Y-129187500D01*
X74849027Y-129203282D01*
X74838649Y-129254431D01*
X74829841Y-129346647D01*
X74822529Y-129485634D01*
X74816637Y-129677092D01*
X74812091Y-129926725D01*
X74808817Y-130240233D01*
X74806738Y-130623319D01*
X74805780Y-131081684D01*
X74805868Y-131621032D01*
X74806927Y-132247063D01*
X74808883Y-132965479D01*
X74809369Y-133119043D01*
X74821509Y-136876953D01*
X74995703Y-136876953D01*
X74995703Y-129385937D01*
X77327344Y-129385937D01*
X77327344Y-136876953D01*
X74995703Y-136876953D01*
X74821509Y-136876953D01*
X74822070Y-137050586D01*
X76125700Y-137063814D01*
X77429330Y-137077043D01*
X77698989Y-136790963D01*
X77698989Y-136790963D01*
G37*
X77698989Y-136790963D02*
X77968648Y-136504882D01*
X77970456Y-132622949D01*
X77972265Y-128741015D01*
X75363627Y-128741015D01*
X75144531Y-128964257D01*
X75020245Y-129081123D01*
X74915969Y-129161934D01*
X74861052Y-129187500D01*
X74849027Y-129203282D01*
X74838649Y-129254431D01*
X74829841Y-129346647D01*
X74822529Y-129485634D01*
X74816637Y-129677092D01*
X74812091Y-129926725D01*
X74808817Y-130240233D01*
X74806738Y-130623319D01*
X74805780Y-131081684D01*
X74805868Y-131621032D01*
X74806927Y-132247063D01*
X74808883Y-132965479D01*
X74809369Y-133119043D01*
X74821509Y-136876953D01*
X74995703Y-136876953D01*
X74995703Y-129385937D01*
X77327344Y-129385937D01*
X77327344Y-136876953D01*
X74995703Y-136876953D01*
X74821509Y-136876953D01*
X74822070Y-137050586D01*
X76125700Y-137063814D01*
X77429330Y-137077043D01*
X77698989Y-136790963D01*
G36*
X69209056Y-137074475D02*
X69533677Y-137071432D01*
X69777695Y-137065816D01*
X69950411Y-137057182D01*
X70061126Y-137045086D01*
X70119140Y-137029083D01*
X70133984Y-137011305D01*
X70167236Y-136945125D01*
X70253791Y-136836980D01*
X70357226Y-136728125D01*
X70580469Y-136509029D01*
X70580469Y-134942187D01*
X71126172Y-134942187D01*
X71126172Y-137075390D01*
X72465625Y-137075390D01*
X72880150Y-137074475D01*
X73204771Y-137071432D01*
X73448789Y-137065816D01*
X73621505Y-137057182D01*
X73732220Y-137045086D01*
X73790234Y-137029083D01*
X73805078Y-137011305D01*
X73838330Y-136945125D01*
X73924884Y-136836980D01*
X74028320Y-136728125D01*
X74251562Y-136509029D01*
X74251562Y-128741015D01*
X72949316Y-128742085D01*
X71647070Y-128743156D01*
X71126172Y-129244146D01*
X71126172Y-132709765D01*
X71016912Y-132709765D01*
X70915883Y-132743002D01*
X70790992Y-132826585D01*
X70744061Y-132868325D01*
X70580469Y-133026885D01*
X70580469Y-128741015D01*
X69278222Y-128742085D01*
X67975976Y-128743156D01*
X67455078Y-129244146D01*
X67455078Y-136876953D01*
X67603906Y-136876953D01*
X67603906Y-129385937D01*
X69935547Y-129385937D01*
X69935547Y-134739403D01*
X70580469Y-134739403D01*
X70580469Y-133366466D01*
X70793263Y-133312884D01*
X71029508Y-133208373D01*
X71197179Y-133033388D01*
X71276184Y-132854462D01*
X71288187Y-132763458D01*
X71299033Y-132585737D01*
X71308390Y-132333799D01*
X71315925Y-132020142D01*
X71321306Y-131657266D01*
X71324198Y-131257668D01*
X71324609Y-131035776D01*
X71324609Y-129385937D01*
X73606640Y-129385937D01*
X73606640Y-136876953D01*
X71326582Y-136876953D01*
X71313193Y-135822754D01*
X71299804Y-134768554D01*
X70940136Y-134753979D01*
X70580469Y-134739403D01*
X69935547Y-134739403D01*
X69935547Y-136876953D01*
X67603906Y-136876953D01*
X67455078Y-136876953D01*
X67455078Y-137075390D01*
X68794531Y-137075390D01*
X69209056Y-137074475D01*
X69209056Y-137074475D01*
G37*
X69209056Y-137074475D02*
X69533677Y-137071432D01*
X69777695Y-137065816D01*
X69950411Y-137057182D01*
X70061126Y-137045086D01*
X70119140Y-137029083D01*
X70133984Y-137011305D01*
X70167236Y-136945125D01*
X70253791Y-136836980D01*
X70357226Y-136728125D01*
X70580469Y-136509029D01*
X70580469Y-134942187D01*
X71126172Y-134942187D01*
X71126172Y-137075390D01*
X72465625Y-137075390D01*
X72880150Y-137074475D01*
X73204771Y-137071432D01*
X73448789Y-137065816D01*
X73621505Y-137057182D01*
X73732220Y-137045086D01*
X73790234Y-137029083D01*
X73805078Y-137011305D01*
X73838330Y-136945125D01*
X73924884Y-136836980D01*
X74028320Y-136728125D01*
X74251562Y-136509029D01*
X74251562Y-128741015D01*
X72949316Y-128742085D01*
X71647070Y-128743156D01*
X71126172Y-129244146D01*
X71126172Y-132709765D01*
X71016912Y-132709765D01*
X70915883Y-132743002D01*
X70790992Y-132826585D01*
X70744061Y-132868325D01*
X70580469Y-133026885D01*
X70580469Y-128741015D01*
X69278222Y-128742085D01*
X67975976Y-128743156D01*
X67455078Y-129244146D01*
X67455078Y-136876953D01*
X67603906Y-136876953D01*
X67603906Y-129385937D01*
X69935547Y-129385937D01*
X69935547Y-134739403D01*
X70580469Y-134739403D01*
X70580469Y-133366466D01*
X70793263Y-133312884D01*
X71029508Y-133208373D01*
X71197179Y-133033388D01*
X71276184Y-132854462D01*
X71288187Y-132763458D01*
X71299033Y-132585737D01*
X71308390Y-132333799D01*
X71315925Y-132020142D01*
X71321306Y-131657266D01*
X71324198Y-131257668D01*
X71324609Y-131035776D01*
X71324609Y-129385937D01*
X73606640Y-129385937D01*
X73606640Y-136876953D01*
X71326582Y-136876953D01*
X71313193Y-135822754D01*
X71299804Y-134768554D01*
X70940136Y-134753979D01*
X70580469Y-134739403D01*
X69935547Y-134739403D01*
X69935547Y-136876953D01*
X67603906Y-136876953D01*
X67455078Y-136876953D01*
X67455078Y-137075390D01*
X68794531Y-137075390D01*
X69209056Y-137074475D01*
G36*
X63317562Y-141043920D02*
X64046835Y-141043216D01*
X64687026Y-141041961D01*
X65243205Y-141040087D01*
X65720440Y-141037529D01*
X66123798Y-141034219D01*
X66458349Y-141030090D01*
X66729161Y-141025076D01*
X66941302Y-141019110D01*
X67099840Y-141012125D01*
X67209845Y-141004054D01*
X67276384Y-140994831D01*
X67304525Y-140984388D01*
X67306250Y-140980695D01*
X67339578Y-140919657D01*
X67428820Y-140809520D01*
X67557864Y-140669426D01*
X67628711Y-140597656D01*
X67951172Y-140278061D01*
X67951172Y-137422656D01*
X65173047Y-137422656D01*
X65173047Y-128741015D01*
X61275605Y-128741015D01*
X60979501Y-129043033D01*
X60829477Y-129188051D01*
X60692004Y-129306992D01*
X60591039Y-129379528D01*
X60571777Y-129389071D01*
X60460156Y-129433091D01*
X60460156Y-137422656D01*
X58448110Y-137422656D01*
X58128515Y-137745117D01*
X57980877Y-137887463D01*
X57854072Y-137997689D01*
X57767239Y-138059684D01*
X57745476Y-138067578D01*
X57726716Y-138087023D01*
X57711812Y-138151193D01*
X57700391Y-138268844D01*
X57695938Y-138365234D01*
X57928314Y-138365234D01*
X60757812Y-138365234D01*
X60757812Y-129683593D01*
X64230469Y-129683593D01*
X64230469Y-138365234D01*
X67008594Y-138365234D01*
X67008594Y-140796615D01*
X62481738Y-140783952D01*
X57954883Y-140771289D01*
X57941598Y-139568261D01*
X57928314Y-138365234D01*
X57695938Y-138365234D01*
X57692079Y-138448730D01*
X57686504Y-138699605D01*
X57683292Y-139030224D01*
X57682070Y-139449341D01*
X57682031Y-139555859D01*
X57682031Y-141044140D01*
X62494140Y-141044140D01*
X63317562Y-141043920D01*
X63317562Y-141043920D01*
G37*
X63317562Y-141043920D02*
X64046835Y-141043216D01*
X64687026Y-141041961D01*
X65243205Y-141040087D01*
X65720440Y-141037529D01*
X66123798Y-141034219D01*
X66458349Y-141030090D01*
X66729161Y-141025076D01*
X66941302Y-141019110D01*
X67099840Y-141012125D01*
X67209845Y-141004054D01*
X67276384Y-140994831D01*
X67304525Y-140984388D01*
X67306250Y-140980695D01*
X67339578Y-140919657D01*
X67428820Y-140809520D01*
X67557864Y-140669426D01*
X67628711Y-140597656D01*
X67951172Y-140278061D01*
X67951172Y-137422656D01*
X65173047Y-137422656D01*
X65173047Y-128741015D01*
X61275605Y-128741015D01*
X60979501Y-129043033D01*
X60829477Y-129188051D01*
X60692004Y-129306992D01*
X60591039Y-129379528D01*
X60571777Y-129389071D01*
X60460156Y-129433091D01*
X60460156Y-137422656D01*
X58448110Y-137422656D01*
X58128515Y-137745117D01*
X57980877Y-137887463D01*
X57854072Y-137997689D01*
X57767239Y-138059684D01*
X57745476Y-138067578D01*
X57726716Y-138087023D01*
X57711812Y-138151193D01*
X57700391Y-138268844D01*
X57695938Y-138365234D01*
X57928314Y-138365234D01*
X60757812Y-138365234D01*
X60757812Y-129683593D01*
X64230469Y-129683593D01*
X64230469Y-138365234D01*
X67008594Y-138365234D01*
X67008594Y-140796615D01*
X62481738Y-140783952D01*
X57954883Y-140771289D01*
X57941598Y-139568261D01*
X57928314Y-138365234D01*
X57695938Y-138365234D01*
X57692079Y-138448730D01*
X57686504Y-138699605D01*
X57683292Y-139030224D01*
X57682070Y-139449341D01*
X57682031Y-139555859D01*
X57682031Y-141044140D01*
X62494140Y-141044140D01*
X63317562Y-141043920D01*
G36*
X111147122Y-137065159D02*
X111706399Y-137061735D01*
X112175337Y-137058368D01*
X112562813Y-137054666D01*
X112877706Y-137050233D01*
X113128895Y-137044676D01*
X113325256Y-137037600D01*
X113475669Y-137028611D01*
X113589011Y-137017315D01*
X113674161Y-137003318D01*
X113739997Y-136986226D01*
X113795397Y-136965645D01*
X113839844Y-136945616D01*
X114022361Y-136845411D01*
X114209174Y-136721584D01*
X114261523Y-136681683D01*
X114443637Y-136520036D01*
X114652970Y-136309274D01*
X114872050Y-136069709D01*
X115083408Y-135821650D01*
X115269574Y-135585407D01*
X115413076Y-135381290D01*
X115480954Y-135264040D01*
X115628624Y-134964079D01*
X115600976Y-130254101D01*
X115452148Y-129956445D01*
X115309579Y-129726530D01*
X115112053Y-129481110D01*
X114884315Y-129245616D01*
X114651113Y-129045477D01*
X114437189Y-128906122D01*
X114423357Y-128899194D01*
X114166972Y-128803089D01*
X113830878Y-128722234D01*
X113433790Y-128659359D01*
X112994426Y-128617193D01*
X112531500Y-128598465D01*
X112357965Y-128598022D01*
X112077116Y-128602887D01*
X111811120Y-128612175D01*
X111585690Y-128624670D01*
X111426537Y-128639158D01*
X111397246Y-128643424D01*
X111079117Y-128710763D01*
X110793662Y-128805193D01*
X110518823Y-128938000D01*
X110232539Y-129120474D01*
X109912753Y-129363903D01*
X109786068Y-129467893D01*
X109450621Y-129760931D01*
X109189328Y-130021725D01*
X108988897Y-130264914D01*
X108836036Y-130505135D01*
X108823970Y-130527461D01*
X108705273Y-130750195D01*
X108691458Y-133914964D01*
X108678512Y-136880574D01*
X108875998Y-136880574D01*
X108889854Y-133815384D01*
X108892513Y-133178034D01*
X108894829Y-132631939D01*
X108897607Y-132169144D01*
X108901657Y-131781692D01*
X108907784Y-131461629D01*
X108916796Y-131200996D01*
X108929500Y-130991839D01*
X108946702Y-130826202D01*
X108969210Y-130696127D01*
X108997830Y-130593659D01*
X109033370Y-130510842D01*
X109076636Y-130439720D01*
X109128437Y-130372337D01*
X109189577Y-130300735D01*
X109254010Y-130225210D01*
X109610243Y-129874430D01*
X110030705Y-129596086D01*
X110506799Y-129395235D01*
X110797556Y-129317835D01*
X111092514Y-129273459D01*
X111457826Y-129247773D01*
X111866451Y-129240547D01*
X112291343Y-129251552D01*
X112705461Y-129280557D01*
X113081761Y-129327332D01*
X113144509Y-129337816D01*
X113438793Y-129395031D01*
X113661169Y-129453562D01*
X113838693Y-129521813D01*
X113981236Y-129597752D01*
X114288322Y-129829953D01*
X114569300Y-130133814D01*
X114799435Y-130481785D01*
X114833702Y-130547279D01*
X114980859Y-130840456D01*
X114980781Y-135413476D01*
X114839300Y-135711132D01*
X114615280Y-136077911D01*
X114317963Y-136406880D01*
X113972778Y-136670099D01*
X113958916Y-136678515D01*
X113670220Y-136852148D01*
X108875998Y-136880574D01*
X108678512Y-136880574D01*
X108677642Y-137079732D01*
X111147122Y-137065159D01*
X111147122Y-137065159D01*
G37*
X111147122Y-137065159D02*
X111706399Y-137061735D01*
X112175337Y-137058368D01*
X112562813Y-137054666D01*
X112877706Y-137050233D01*
X113128895Y-137044676D01*
X113325256Y-137037600D01*
X113475669Y-137028611D01*
X113589011Y-137017315D01*
X113674161Y-137003318D01*
X113739997Y-136986226D01*
X113795397Y-136965645D01*
X113839844Y-136945616D01*
X114022361Y-136845411D01*
X114209174Y-136721584D01*
X114261523Y-136681683D01*
X114443637Y-136520036D01*
X114652970Y-136309274D01*
X114872050Y-136069709D01*
X115083408Y-135821650D01*
X115269574Y-135585407D01*
X115413076Y-135381290D01*
X115480954Y-135264040D01*
X115628624Y-134964079D01*
X115600976Y-130254101D01*
X115452148Y-129956445D01*
X115309579Y-129726530D01*
X115112053Y-129481110D01*
X114884315Y-129245616D01*
X114651113Y-129045477D01*
X114437189Y-128906122D01*
X114423357Y-128899194D01*
X114166972Y-128803089D01*
X113830878Y-128722234D01*
X113433790Y-128659359D01*
X112994426Y-128617193D01*
X112531500Y-128598465D01*
X112357965Y-128598022D01*
X112077116Y-128602887D01*
X111811120Y-128612175D01*
X111585690Y-128624670D01*
X111426537Y-128639158D01*
X111397246Y-128643424D01*
X111079117Y-128710763D01*
X110793662Y-128805193D01*
X110518823Y-128938000D01*
X110232539Y-129120474D01*
X109912753Y-129363903D01*
X109786068Y-129467893D01*
X109450621Y-129760931D01*
X109189328Y-130021725D01*
X108988897Y-130264914D01*
X108836036Y-130505135D01*
X108823970Y-130527461D01*
X108705273Y-130750195D01*
X108691458Y-133914964D01*
X108678512Y-136880574D01*
X108875998Y-136880574D01*
X108889854Y-133815384D01*
X108892513Y-133178034D01*
X108894829Y-132631939D01*
X108897607Y-132169144D01*
X108901657Y-131781692D01*
X108907784Y-131461629D01*
X108916796Y-131200996D01*
X108929500Y-130991839D01*
X108946702Y-130826202D01*
X108969210Y-130696127D01*
X108997830Y-130593659D01*
X109033370Y-130510842D01*
X109076636Y-130439720D01*
X109128437Y-130372337D01*
X109189577Y-130300735D01*
X109254010Y-130225210D01*
X109610243Y-129874430D01*
X110030705Y-129596086D01*
X110506799Y-129395235D01*
X110797556Y-129317835D01*
X111092514Y-129273459D01*
X111457826Y-129247773D01*
X111866451Y-129240547D01*
X112291343Y-129251552D01*
X112705461Y-129280557D01*
X113081761Y-129327332D01*
X113144509Y-129337816D01*
X113438793Y-129395031D01*
X113661169Y-129453562D01*
X113838693Y-129521813D01*
X113981236Y-129597752D01*
X114288322Y-129829953D01*
X114569300Y-130133814D01*
X114799435Y-130481785D01*
X114833702Y-130547279D01*
X114980859Y-130840456D01*
X114980781Y-135413476D01*
X114839300Y-135711132D01*
X114615280Y-136077911D01*
X114317963Y-136406880D01*
X113972778Y-136670099D01*
X113958916Y-136678515D01*
X113670220Y-136852148D01*
X108875998Y-136880574D01*
X108678512Y-136880574D01*
X108677642Y-137079732D01*
X111147122Y-137065159D01*
M02*
