G04 #@! TF.GenerationSoftware,KiCad,Pcbnew,(5.0.0-rc2-dev-340-g7483a73a5)*
G04 #@! TF.CreationDate,2018-05-31T20:40:01+02:00*
G04 #@! TF.ProjectId,AudiA6Main,4175646941364D61696E2E6B69636164,rev?*
G04 #@! TF.SameCoordinates,Original*
G04 #@! TF.FileFunction,Legend,Bot*
G04 #@! TF.FilePolarity,Positive*
%FSLAX46Y46*%
G04 Gerber Fmt 4.6, Leading zero omitted, Abs format (unit mm)*
G04 Created by KiCad (PCBNEW (5.0.0-rc2-dev-340-g7483a73a5)) date 05/31/18 20:40:01*
%MOMM*%
%LPD*%
G01*
G04 APERTURE LIST*
%ADD10C,0.300000*%
G04 APERTURE END LIST*
D10*
X77350000Y-171478571D02*
X77350000Y-169978571D01*
X76778571Y-169978571D01*
X76635714Y-170050000D01*
X76564285Y-170121428D01*
X76492857Y-170264285D01*
X76492857Y-170478571D01*
X76564285Y-170621428D01*
X76635714Y-170692857D01*
X76778571Y-170764285D01*
X77350000Y-170764285D01*
X75992857Y-169978571D02*
X75635714Y-171478571D01*
X75350000Y-170407142D01*
X75064285Y-171478571D01*
X74707142Y-169978571D01*
X73278571Y-171478571D02*
X73778571Y-170764285D01*
X74135714Y-171478571D02*
X74135714Y-169978571D01*
X73564285Y-169978571D01*
X73421428Y-170050000D01*
X73350000Y-170121428D01*
X73278571Y-170264285D01*
X73278571Y-170478571D01*
X73350000Y-170621428D01*
X73421428Y-170692857D01*
X73564285Y-170764285D01*
X74135714Y-170764285D01*
X76764285Y-169428571D02*
X76764285Y-167928571D01*
X76121428Y-168071428D02*
X76050000Y-168000000D01*
X75907142Y-167928571D01*
X75550000Y-167928571D01*
X75407142Y-168000000D01*
X75335714Y-168071428D01*
X75264285Y-168214285D01*
X75264285Y-168357142D01*
X75335714Y-168571428D01*
X76192857Y-169428571D01*
X75264285Y-169428571D01*
X73764285Y-169285714D02*
X73835714Y-169357142D01*
X74050000Y-169428571D01*
X74192857Y-169428571D01*
X74407142Y-169357142D01*
X74550000Y-169214285D01*
X74621428Y-169071428D01*
X74692857Y-168785714D01*
X74692857Y-168571428D01*
X74621428Y-168285714D01*
X74550000Y-168142857D01*
X74407142Y-168000000D01*
X74192857Y-167928571D01*
X74050000Y-167928571D01*
X73835714Y-168000000D01*
X73764285Y-168071428D01*
X68214285Y-169378571D02*
X68214285Y-167878571D01*
X67571428Y-168021428D02*
X67500000Y-167950000D01*
X67357142Y-167878571D01*
X67000000Y-167878571D01*
X66857142Y-167950000D01*
X66785714Y-168021428D01*
X66714285Y-168164285D01*
X66714285Y-168307142D01*
X66785714Y-168521428D01*
X67642857Y-169378571D01*
X66714285Y-169378571D01*
X65214285Y-169235714D02*
X65285714Y-169307142D01*
X65500000Y-169378571D01*
X65642857Y-169378571D01*
X65857142Y-169307142D01*
X66000000Y-169164285D01*
X66071428Y-169021428D01*
X66142857Y-168735714D01*
X66142857Y-168521428D01*
X66071428Y-168235714D01*
X66000000Y-168092857D01*
X65857142Y-167950000D01*
X65642857Y-167878571D01*
X65500000Y-167878571D01*
X65285714Y-167950000D01*
X65214285Y-168021428D01*
X68878571Y-171478571D02*
X69378571Y-170764285D01*
X69735714Y-171478571D02*
X69735714Y-169978571D01*
X69164285Y-169978571D01*
X69021428Y-170050000D01*
X68950000Y-170121428D01*
X68878571Y-170264285D01*
X68878571Y-170478571D01*
X68950000Y-170621428D01*
X69021428Y-170692857D01*
X69164285Y-170764285D01*
X69735714Y-170764285D01*
X68235714Y-170692857D02*
X67735714Y-170692857D01*
X67521428Y-171478571D02*
X68235714Y-171478571D01*
X68235714Y-169978571D01*
X67521428Y-169978571D01*
X66950000Y-171407142D02*
X66735714Y-171478571D01*
X66378571Y-171478571D01*
X66235714Y-171407142D01*
X66164285Y-171335714D01*
X66092857Y-171192857D01*
X66092857Y-171050000D01*
X66164285Y-170907142D01*
X66235714Y-170835714D01*
X66378571Y-170764285D01*
X66664285Y-170692857D01*
X66807142Y-170621428D01*
X66878571Y-170550000D01*
X66950000Y-170407142D01*
X66950000Y-170264285D01*
X66878571Y-170121428D01*
X66807142Y-170050000D01*
X66664285Y-169978571D01*
X66307142Y-169978571D01*
X66092857Y-170050000D01*
X65450000Y-170692857D02*
X64950000Y-170692857D01*
X64735714Y-171478571D02*
X65450000Y-171478571D01*
X65450000Y-169978571D01*
X64735714Y-169978571D01*
X64307142Y-169978571D02*
X63450000Y-169978571D01*
X63878571Y-171478571D02*
X63878571Y-169978571D01*
X60278571Y-171478571D02*
X60778571Y-170764285D01*
X61135714Y-171478571D02*
X61135714Y-169978571D01*
X60564285Y-169978571D01*
X60421428Y-170050000D01*
X60350000Y-170121428D01*
X60278571Y-170264285D01*
X60278571Y-170478571D01*
X60350000Y-170621428D01*
X60421428Y-170692857D01*
X60564285Y-170764285D01*
X61135714Y-170764285D01*
X59635714Y-170692857D02*
X59135714Y-170692857D01*
X58921428Y-171478571D02*
X59635714Y-171478571D01*
X59635714Y-169978571D01*
X58921428Y-169978571D01*
X58350000Y-171407142D02*
X58135714Y-171478571D01*
X57778571Y-171478571D01*
X57635714Y-171407142D01*
X57564285Y-171335714D01*
X57492857Y-171192857D01*
X57492857Y-171050000D01*
X57564285Y-170907142D01*
X57635714Y-170835714D01*
X57778571Y-170764285D01*
X58064285Y-170692857D01*
X58207142Y-170621428D01*
X58278571Y-170550000D01*
X58350000Y-170407142D01*
X58350000Y-170264285D01*
X58278571Y-170121428D01*
X58207142Y-170050000D01*
X58064285Y-169978571D01*
X57707142Y-169978571D01*
X57492857Y-170050000D01*
X56850000Y-170692857D02*
X56350000Y-170692857D01*
X56135714Y-171478571D02*
X56850000Y-171478571D01*
X56850000Y-169978571D01*
X56135714Y-169978571D01*
X55707142Y-169978571D02*
X54850000Y-169978571D01*
X55278571Y-171478571D02*
X55278571Y-169978571D01*
X60135714Y-169528571D02*
X60135714Y-168028571D01*
X59635714Y-169100000D01*
X59135714Y-168028571D01*
X59135714Y-169528571D01*
X57564285Y-169385714D02*
X57635714Y-169457142D01*
X57850000Y-169528571D01*
X57992857Y-169528571D01*
X58207142Y-169457142D01*
X58350000Y-169314285D01*
X58421428Y-169171428D01*
X58492857Y-168885714D01*
X58492857Y-168671428D01*
X58421428Y-168385714D01*
X58350000Y-168242857D01*
X58207142Y-168100000D01*
X57992857Y-168028571D01*
X57850000Y-168028571D01*
X57635714Y-168100000D01*
X57564285Y-168171428D01*
X56921428Y-168028571D02*
X56921428Y-169242857D01*
X56850000Y-169385714D01*
X56778571Y-169457142D01*
X56635714Y-169528571D01*
X56350000Y-169528571D01*
X56207142Y-169457142D01*
X56135714Y-169385714D01*
X56064285Y-169242857D01*
X56064285Y-168028571D01*
M02*
