G04 #@! TF.GenerationSoftware,KiCad,Pcbnew,(5.0.0-rc2-dev-340-g7483a73a5)*
G04 #@! TF.CreationDate,2018-05-31T20:40:01+02:00*
G04 #@! TF.ProjectId,AudiA6Main,4175646941364D61696E2E6B69636164,rev?*
G04 #@! TF.SameCoordinates,Original*
G04 #@! TF.FileFunction,Soldermask,Bot*
G04 #@! TF.FilePolarity,Negative*
%FSLAX46Y46*%
G04 Gerber Fmt 4.6, Leading zero omitted, Abs format (unit mm)*
G04 Created by KiCad (PCBNEW (5.0.0-rc2-dev-340-g7483a73a5)) date 05/31/18 20:40:01*
%MOMM*%
%LPD*%
G01*
G04 APERTURE LIST*
%ADD10C,9.000000*%
%ADD11R,2.100000X2.100000*%
%ADD12O,2.100000X2.100000*%
%ADD13R,1.900000X1.200000*%
%ADD14C,1.600000*%
%ADD15R,1.200000X1.900000*%
%ADD16C,1.900000*%
%ADD17R,1.900000X1.900000*%
%ADD18C,4.050000*%
%ADD19C,2.400000*%
%ADD20O,2.000000X2.000000*%
%ADD21R,2.000000X2.000000*%
%ADD22C,6.399480*%
%ADD23R,2.398980X2.398980*%
%ADD24C,1.840000*%
G04 APERTURE END LIST*
D10*
X47900000Y-104050000D03*
X133400000Y-104050000D03*
D11*
X95980000Y-122920000D03*
D12*
X98520000Y-122920000D03*
X101060000Y-122920000D03*
X103600000Y-122920000D03*
X106140000Y-122920000D03*
X108680000Y-122920000D03*
X111220000Y-122920000D03*
X113760000Y-122920000D03*
X116300000Y-122920000D03*
X118840000Y-122920000D03*
X121380000Y-122920000D03*
X123920000Y-122920000D03*
X126460000Y-122920000D03*
X129000000Y-122920000D03*
D13*
X114700000Y-161700000D03*
X114700000Y-171700000D03*
X114700000Y-164200000D03*
X114700000Y-169200000D03*
D14*
X114700000Y-166700000D03*
X119700000Y-161700000D03*
X122200000Y-161700000D03*
X119700000Y-171700000D03*
X122200000Y-171700000D03*
D15*
X119700000Y-166700000D03*
D11*
X85850000Y-155300000D03*
D12*
X85850000Y-157840000D03*
X85850000Y-160380000D03*
X85850000Y-162920000D03*
X85850000Y-165460000D03*
X85850000Y-168000000D03*
X85850000Y-170540000D03*
X85850000Y-173080000D03*
D16*
X109499999Y-113054999D03*
X110769999Y-110514999D03*
X112039999Y-113054999D03*
X113309999Y-110514999D03*
X114579999Y-113054999D03*
X115849999Y-110514999D03*
X117119999Y-113054999D03*
D17*
X118389999Y-110514999D03*
D18*
X119879999Y-104164999D03*
X108009999Y-104164999D03*
X91539999Y-104164999D03*
X103409999Y-104164999D03*
D17*
X101919999Y-110514999D03*
D16*
X100649999Y-113054999D03*
X99379999Y-110514999D03*
X98109999Y-113054999D03*
X96839999Y-110514999D03*
X95569999Y-113054999D03*
X94299999Y-110514999D03*
X93029999Y-113054999D03*
X60085000Y-113090000D03*
X61355000Y-110550000D03*
X62625000Y-113090000D03*
X63895000Y-110550000D03*
X65165000Y-113090000D03*
X66435000Y-110550000D03*
X67705000Y-113090000D03*
D17*
X68975000Y-110550000D03*
D18*
X70465000Y-104200000D03*
X58595000Y-104200000D03*
X75095000Y-104200000D03*
X86965000Y-104200000D03*
D17*
X85475000Y-110550000D03*
D16*
X84205000Y-113090000D03*
X82935000Y-110550000D03*
X81665000Y-113090000D03*
X80395000Y-110550000D03*
X79125000Y-113090000D03*
X77855000Y-110550000D03*
X76585000Y-113090000D03*
D12*
X95970000Y-143240000D03*
X98510000Y-143240000D03*
X101050000Y-143240000D03*
X103590000Y-143240000D03*
X106130000Y-143240000D03*
X108670000Y-143240000D03*
X111210000Y-143240000D03*
X113750000Y-143240000D03*
X116290000Y-143240000D03*
X118830000Y-143240000D03*
X121370000Y-143240000D03*
X123910000Y-143240000D03*
X126450000Y-143240000D03*
D11*
X128990000Y-143240000D03*
D19*
X60300000Y-172900000D03*
X55800000Y-172900000D03*
X60300000Y-166400000D03*
X55800000Y-166400000D03*
D20*
X106300000Y-158770000D03*
X98680000Y-151150000D03*
X103760000Y-158770000D03*
X101220000Y-151150000D03*
X101220000Y-158770000D03*
X103760000Y-151150000D03*
X98680000Y-158770000D03*
D21*
X106300000Y-151150000D03*
D19*
X73082500Y-166379999D03*
X77582500Y-166379999D03*
X73082500Y-172879999D03*
X77582500Y-172879999D03*
X68975000Y-172875000D03*
X64475000Y-172875000D03*
X68975000Y-166375000D03*
X64475000Y-166375000D03*
D12*
X43310000Y-146740000D03*
X45850000Y-146740000D03*
X43310000Y-149280000D03*
X45850000Y-149280000D03*
X43310000Y-151820000D03*
X45850000Y-151820000D03*
X43310000Y-154360000D03*
X45850000Y-154360000D03*
X43310000Y-156900000D03*
X45850000Y-156900000D03*
X43310000Y-159440000D03*
X45850000Y-159440000D03*
X43310000Y-161980000D03*
X45850000Y-161980000D03*
X43310000Y-164520000D03*
X45850000Y-164520000D03*
X43310000Y-167060000D03*
X45850000Y-167060000D03*
X43310000Y-169600000D03*
D11*
X45850000Y-169600000D03*
D22*
X126350000Y-136800000D03*
X126500000Y-129150000D03*
X44200000Y-137300000D03*
X44200000Y-123750000D03*
D23*
X109802280Y-165750000D03*
X99799760Y-165750000D03*
X99849760Y-169150000D03*
X109852280Y-169150000D03*
D24*
X114150000Y-151970000D03*
X114150000Y-154510000D03*
X114150000Y-157050000D03*
D10*
X93400000Y-167050000D03*
M02*
