G04 #@! TF.GenerationSoftware,KiCad,Pcbnew,(5.0.0-rc2-dev-340-g7483a73a5)*
G04 #@! TF.CreationDate,2018-04-20T19:56:18+02:00*
G04 #@! TF.ProjectId,AudiA6Main,4175646941364D61696E2E6B69636164,rev?*
G04 #@! TF.SameCoordinates,Original*
G04 #@! TF.FileFunction,Soldermask,Top*
G04 #@! TF.FilePolarity,Negative*
%FSLAX46Y46*%
G04 Gerber Fmt 4.6, Leading zero omitted, Abs format (unit mm)*
G04 Created by KiCad (PCBNEW (5.0.0-rc2-dev-340-g7483a73a5)) date 04/20/18 19:56:18*
%MOMM*%
%LPD*%
G01*
G04 APERTURE LIST*
%ADD10R,2.400000X1.000000*%
%ADD11C,7.400000*%
%ADD12R,1.900000X1.650000*%
%ADD13R,1.650000X1.900000*%
%ADD14C,1.650000*%
%ADD15C,0.100000*%
%ADD16R,1.300000X1.200000*%
%ADD17R,1.300000X0.800000*%
%ADD18R,2.000000X0.700000*%
%ADD19R,0.700000X2.000000*%
%ADD20C,3.400000*%
%ADD21C,1.920000*%
%ADD22R,1.200000X1.900000*%
%ADD23C,1.600000*%
%ADD24R,1.900000X1.200000*%
%ADD25O,2.100000X2.100000*%
%ADD26R,2.100000X2.100000*%
%ADD27C,1.900000*%
%ADD28R,1.900000X1.900000*%
%ADD29C,4.050000*%
%ADD30R,1.900000X1.000000*%
%ADD31R,1.600000X1.150000*%
%ADD32R,1.700000X1.900000*%
%ADD33R,1.900000X1.700000*%
%ADD34C,2.400000*%
%ADD35C,6.399480*%
%ADD36R,1.960000X1.050000*%
%ADD37R,1.050000X1.960000*%
%ADD38R,2.400000X1.900000*%
%ADD39R,2.400000X4.200000*%
%ADD40O,2.000000X2.000000*%
%ADD41R,2.000000X2.000000*%
%ADD42R,4.200000X2.400000*%
%ADD43R,1.900000X2.400000*%
%ADD44R,2.200000X2.150000*%
G04 APERTURE END LIST*
D10*
X84450000Y-93545000D03*
X84450000Y-94815000D03*
X84450000Y-96085000D03*
X84450000Y-97355000D03*
X84450000Y-98625000D03*
X84450000Y-99895000D03*
X84450000Y-101165000D03*
X84450000Y-102435000D03*
X84450000Y-103705000D03*
X84450000Y-104975000D03*
X84450000Y-106245000D03*
X84450000Y-107515000D03*
X84450000Y-108785000D03*
X84450000Y-110055000D03*
X75050000Y-110055000D03*
X75050000Y-108785000D03*
X75050000Y-107515000D03*
X75050000Y-106245000D03*
X75050000Y-104975000D03*
X75050000Y-103705000D03*
X75050000Y-102435000D03*
X75050000Y-101165000D03*
X75050000Y-99895000D03*
X75050000Y-98625000D03*
X75050000Y-97355000D03*
X75050000Y-96085000D03*
X75050000Y-94815000D03*
X75050000Y-93545000D03*
D11*
X114750000Y-93500000D03*
X55750000Y-83500000D03*
X52750000Y-141500000D03*
D12*
X71750000Y-122150000D03*
X74250000Y-122150000D03*
X71750000Y-124850000D03*
X74250000Y-124850000D03*
X141691903Y-92473186D03*
X144191903Y-92473186D03*
X141691903Y-94373186D03*
X144191903Y-94373186D03*
X143808097Y-106126814D03*
X146308097Y-106126814D03*
X143808097Y-104226814D03*
X146308097Y-104226814D03*
X71250000Y-91850000D03*
X68750000Y-91850000D03*
X80350000Y-81050000D03*
X77850000Y-81050000D03*
D13*
X63200000Y-83500000D03*
X63200000Y-81000000D03*
D12*
X80350000Y-86150000D03*
X77850000Y-86150000D03*
D13*
X87800000Y-108950000D03*
X87800000Y-106450000D03*
X125200000Y-71700000D03*
X125200000Y-74200000D03*
X108400000Y-74300000D03*
X108400000Y-71800000D03*
X75600000Y-71700000D03*
X75600000Y-74200000D03*
X92100000Y-74200000D03*
X92100000Y-71700000D03*
X115000000Y-71700000D03*
X115000000Y-74200000D03*
X98400000Y-74200000D03*
X98400000Y-71700000D03*
X65600000Y-71700000D03*
X65600000Y-74200000D03*
X82100000Y-71700000D03*
X82100000Y-74200000D03*
X112500000Y-99900000D03*
X112500000Y-102400000D03*
D12*
X55050000Y-134850000D03*
X52550000Y-134850000D03*
D14*
X85716117Y-116166117D03*
D15*
G36*
X84461002Y-116077729D02*
X85627729Y-114911002D01*
X86971232Y-116254505D01*
X85804505Y-117421232D01*
X84461002Y-116077729D01*
X84461002Y-116077729D01*
G37*
D14*
X87483883Y-117933883D03*
D15*
G36*
X86228768Y-117845495D02*
X87395495Y-116678768D01*
X88738998Y-118022271D01*
X87572271Y-119188998D01*
X86228768Y-117845495D01*
X86228768Y-117845495D01*
G37*
D13*
X78000000Y-128000000D03*
X78000000Y-130500000D03*
D12*
X88850000Y-134650000D03*
X86350000Y-134650000D03*
D14*
X85983883Y-119533883D03*
D15*
G36*
X84728768Y-119445495D02*
X85895495Y-118278768D01*
X87238998Y-119622271D01*
X86072271Y-120788998D01*
X84728768Y-119445495D01*
X84728768Y-119445495D01*
G37*
D14*
X84216117Y-117766117D03*
D15*
G36*
X82961002Y-117677729D02*
X84127729Y-116511002D01*
X85471232Y-117854505D01*
X84304505Y-119021232D01*
X82961002Y-117677729D01*
X82961002Y-117677729D01*
G37*
D13*
X75600000Y-130500000D03*
X75600000Y-128000000D03*
D14*
X82483883Y-119233883D03*
D15*
G36*
X81228768Y-119145495D02*
X82395495Y-117978768D01*
X83738998Y-119322271D01*
X82572271Y-120488998D01*
X81228768Y-119145495D01*
X81228768Y-119145495D01*
G37*
D14*
X80716117Y-117466117D03*
D15*
G36*
X79461002Y-117377729D02*
X80627729Y-116211002D01*
X81971232Y-117554505D01*
X80804505Y-118721232D01*
X79461002Y-117377729D01*
X79461002Y-117377729D01*
G37*
D16*
X114700000Y-102200000D03*
X114700000Y-100100000D03*
D17*
X142500000Y-83025000D03*
X142500000Y-81875000D03*
X139700000Y-83025000D03*
X139700000Y-81875000D03*
D18*
X82200000Y-124600000D03*
X82200000Y-125100000D03*
X82200000Y-125600000D03*
X82200000Y-126100000D03*
X82200000Y-126600000D03*
X82200000Y-127100000D03*
X82200000Y-127600000D03*
X82200000Y-128100000D03*
X82200000Y-128600000D03*
X82200000Y-129100000D03*
X82200000Y-129600000D03*
X82200000Y-130100000D03*
D19*
X83550000Y-131450000D03*
X84050000Y-131450000D03*
X84550000Y-131450000D03*
X85050000Y-131450000D03*
X85550000Y-131450000D03*
X86050000Y-131450000D03*
X86550000Y-131450000D03*
X87050000Y-131450000D03*
X87550000Y-131450000D03*
X88050000Y-131450000D03*
X88550000Y-131450000D03*
X89050000Y-131450000D03*
D18*
X90400000Y-130100000D03*
X90400000Y-129600000D03*
X90400000Y-129100000D03*
X90400000Y-128600000D03*
X90400000Y-128100000D03*
X90400000Y-127600000D03*
X90400000Y-127100000D03*
X90400000Y-126600000D03*
X90400000Y-126100000D03*
X90400000Y-125600000D03*
X90400000Y-125100000D03*
X90400000Y-124600000D03*
D19*
X89050000Y-123250000D03*
X88550000Y-123250000D03*
X88050000Y-123250000D03*
X87550000Y-123250000D03*
X87050000Y-123250000D03*
X86550000Y-123250000D03*
X86050000Y-123250000D03*
X85550000Y-123250000D03*
X85050000Y-123250000D03*
X84550000Y-123250000D03*
X84050000Y-123250000D03*
X83550000Y-123250000D03*
D20*
X145810000Y-52720000D03*
X132340000Y-52720000D03*
D21*
X137170000Y-54750000D03*
X139710000Y-54750000D03*
X142250000Y-54750000D03*
X135900000Y-57290000D03*
X140980000Y-57290000D03*
X138440000Y-57290000D03*
D22*
X51250000Y-54000000D03*
X61250000Y-54000000D03*
X53750000Y-54000000D03*
X58750000Y-54000000D03*
D23*
X56250000Y-54000000D03*
X51250000Y-49000000D03*
X51250000Y-46500000D03*
X61250000Y-49000000D03*
X61250000Y-46500000D03*
D24*
X56250000Y-49000000D03*
D25*
X51420000Y-104150000D03*
X53960000Y-104150000D03*
X56500000Y-104150000D03*
X59040000Y-104150000D03*
X61580000Y-104150000D03*
X64120000Y-104150000D03*
X66660000Y-104150000D03*
D26*
X69200000Y-104150000D03*
X77600000Y-137750000D03*
D25*
X80140000Y-137750000D03*
X82680000Y-137750000D03*
X85220000Y-137750000D03*
X87760000Y-137750000D03*
X90300000Y-137750000D03*
X92840000Y-137750000D03*
X95380000Y-137750000D03*
D27*
X116774999Y-63004999D03*
X118044999Y-60464999D03*
X119314999Y-63004999D03*
X120584999Y-60464999D03*
X121854999Y-63004999D03*
X123124999Y-60464999D03*
X124394999Y-63004999D03*
D28*
X125664999Y-60464999D03*
D29*
X127154999Y-54114999D03*
X115284999Y-54114999D03*
X98814999Y-54114999D03*
X110684999Y-54114999D03*
D28*
X109194999Y-60464999D03*
D27*
X107924999Y-63004999D03*
X106654999Y-60464999D03*
X105384999Y-63004999D03*
X104114999Y-60464999D03*
X102844999Y-63004999D03*
X101574999Y-60464999D03*
X100304999Y-63004999D03*
X67360000Y-63040000D03*
X68630000Y-60500000D03*
X69900000Y-63040000D03*
X71170000Y-60500000D03*
X72440000Y-63040000D03*
X73710000Y-60500000D03*
X74980000Y-63040000D03*
D28*
X76250000Y-60500000D03*
D29*
X77740000Y-54150000D03*
X65870000Y-54150000D03*
X82370000Y-54150000D03*
X94240000Y-54150000D03*
D28*
X92750000Y-60500000D03*
D27*
X91480000Y-63040000D03*
X90210000Y-60500000D03*
X88940000Y-63040000D03*
X87670000Y-60500000D03*
X86400000Y-63040000D03*
X85130000Y-60500000D03*
X83860000Y-63040000D03*
D30*
X102700000Y-103960000D03*
X102700000Y-102690000D03*
X102700000Y-101420000D03*
X102700000Y-100150000D03*
X102700000Y-98880000D03*
X102700000Y-97610000D03*
X102700000Y-96340000D03*
X108100000Y-96340000D03*
X108100000Y-97610000D03*
X108100000Y-98880000D03*
X108100000Y-100150000D03*
X108100000Y-101420000D03*
X108100000Y-102690000D03*
X108100000Y-103960000D03*
D26*
X146670000Y-130930000D03*
D25*
X144130000Y-130930000D03*
X141590000Y-130930000D03*
X139050000Y-130930000D03*
X136510000Y-130930000D03*
X133970000Y-130930000D03*
X131430000Y-130930000D03*
X128890000Y-130930000D03*
X126350000Y-130930000D03*
X123810000Y-130930000D03*
X121270000Y-130930000D03*
X118730000Y-130930000D03*
X116190000Y-130930000D03*
X113650000Y-130930000D03*
X146680000Y-110610000D03*
X144140000Y-110610000D03*
X141600000Y-110610000D03*
X139060000Y-110610000D03*
X136520000Y-110610000D03*
X133980000Y-110610000D03*
X131440000Y-110610000D03*
X128900000Y-110610000D03*
X126360000Y-110610000D03*
X123820000Y-110610000D03*
X121280000Y-110610000D03*
X118740000Y-110610000D03*
X116200000Y-110610000D03*
D26*
X113660000Y-110610000D03*
D31*
X79150000Y-132850000D03*
X77250000Y-132850000D03*
D25*
X62250000Y-142660000D03*
X59710000Y-142660000D03*
X62250000Y-140120000D03*
X59710000Y-140120000D03*
X62250000Y-137580000D03*
X59710000Y-137580000D03*
X62250000Y-135040000D03*
X59710000Y-135040000D03*
X62250000Y-132500000D03*
X59710000Y-132500000D03*
X62250000Y-129960000D03*
X59710000Y-129960000D03*
X62250000Y-127420000D03*
X59710000Y-127420000D03*
X62250000Y-124880000D03*
X59710000Y-124880000D03*
X62250000Y-122340000D03*
X59710000Y-122340000D03*
X62250000Y-119800000D03*
D26*
X59710000Y-119800000D03*
D16*
X94650000Y-104550000D03*
X94650000Y-106450000D03*
X96650000Y-105500000D03*
X93050000Y-103250000D03*
X91050000Y-104200000D03*
X91050000Y-102300000D03*
X96650000Y-101900000D03*
X94650000Y-102850000D03*
X94650000Y-100950000D03*
X91050000Y-94950000D03*
X91050000Y-96850000D03*
X93050000Y-95900000D03*
X93050000Y-99600000D03*
X91050000Y-100550000D03*
X91050000Y-98650000D03*
X94650000Y-97350000D03*
X94650000Y-99250000D03*
X96650000Y-98300000D03*
X91050000Y-91350000D03*
X91050000Y-93250000D03*
X93050000Y-92300000D03*
X96650000Y-94700000D03*
X94650000Y-95650000D03*
X94650000Y-93750000D03*
D32*
X60000000Y-113400000D03*
X60000000Y-116100000D03*
D33*
X135750000Y-143050000D03*
X138450000Y-143050000D03*
X135700000Y-140750000D03*
X138400000Y-140750000D03*
X120050000Y-140550000D03*
X122750000Y-140550000D03*
X120050000Y-142850000D03*
X122750000Y-142850000D03*
D32*
X61200000Y-61500000D03*
X61200000Y-58800000D03*
X51300000Y-61500000D03*
X51300000Y-58800000D03*
D33*
X71450000Y-78250000D03*
X68750000Y-78250000D03*
X100050000Y-124150000D03*
X97350000Y-124150000D03*
D32*
X89900000Y-106450000D03*
X89900000Y-109150000D03*
D33*
X97350000Y-126250000D03*
X100050000Y-126250000D03*
D32*
X104300000Y-109600000D03*
X104300000Y-106900000D03*
X99500000Y-106850000D03*
X99500000Y-104150000D03*
X104900000Y-91400000D03*
X104900000Y-88700000D03*
X102500000Y-92900000D03*
X102500000Y-90200000D03*
X88800000Y-92600000D03*
X88800000Y-89900000D03*
D33*
X138150000Y-107250000D03*
X135450000Y-107250000D03*
X138150000Y-105150000D03*
X135450000Y-105150000D03*
X52350000Y-132850000D03*
X55050000Y-132850000D03*
X55200000Y-129950000D03*
X52500000Y-129950000D03*
X52450000Y-127850000D03*
X55150000Y-127850000D03*
D34*
X51200000Y-109950000D03*
X55700000Y-109950000D03*
X51200000Y-116450000D03*
X55700000Y-116450000D03*
D35*
X69700000Y-134550000D03*
X69650000Y-142000000D03*
X144900000Y-78050000D03*
X144900000Y-87150000D03*
D36*
X88250000Y-82300000D03*
X88250000Y-83250000D03*
X88250000Y-84200000D03*
X90950000Y-84200000D03*
X90950000Y-82300000D03*
X90950000Y-83250000D03*
X88250000Y-79350000D03*
X88250000Y-80300000D03*
X88250000Y-78400000D03*
X90950000Y-78400000D03*
X90950000Y-79350000D03*
X90950000Y-80300000D03*
D37*
X56300000Y-67400000D03*
X55350000Y-67400000D03*
X57250000Y-67400000D03*
X57250000Y-70100000D03*
X56300000Y-70100000D03*
X55350000Y-70100000D03*
D38*
X146391903Y-101473186D03*
X146391903Y-96873186D03*
X146391903Y-99173186D03*
D39*
X140091903Y-99173186D03*
D40*
X73920000Y-81050000D03*
X66300000Y-88670000D03*
X73920000Y-83590000D03*
X66300000Y-86130000D03*
X73920000Y-86130000D03*
X66300000Y-83590000D03*
X73920000Y-88670000D03*
D41*
X66300000Y-81050000D03*
D42*
X120000000Y-67700000D03*
D43*
X120000000Y-74000000D03*
X122300000Y-74000000D03*
X117700000Y-74000000D03*
X101200000Y-74000000D03*
X105800000Y-74000000D03*
X103500000Y-74000000D03*
D42*
X103500000Y-67700000D03*
X70600000Y-67700000D03*
D43*
X70600000Y-74000000D03*
X72900000Y-74000000D03*
X68300000Y-74000000D03*
X84800000Y-74000000D03*
X89400000Y-74000000D03*
X87100000Y-74000000D03*
D42*
X87100000Y-67700000D03*
D44*
X76900000Y-125350000D03*
X76900000Y-122100000D03*
D11*
X110750000Y-138500000D03*
D35*
X143500000Y-138150000D03*
X128800000Y-138350000D03*
M02*
