G04 #@! TF.GenerationSoftware,KiCad,Pcbnew,(5.0.0-rc2-dev-340-g7483a73a5)*
G04 #@! TF.CreationDate,2018-04-20T19:56:18+02:00*
G04 #@! TF.ProjectId,AudiA6Main,4175646941364D61696E2E6B69636164,rev?*
G04 #@! TF.SameCoordinates,Original*
G04 #@! TF.FileFunction,Soldermask,Bot*
G04 #@! TF.FilePolarity,Negative*
%FSLAX46Y46*%
G04 Gerber Fmt 4.6, Leading zero omitted, Abs format (unit mm)*
G04 Created by KiCad (PCBNEW (5.0.0-rc2-dev-340-g7483a73a5)) date 04/20/18 19:56:18*
%MOMM*%
%LPD*%
G01*
G04 APERTURE LIST*
%ADD10C,7.400000*%
%ADD11C,3.400000*%
%ADD12C,1.920000*%
%ADD13R,1.200000X1.900000*%
%ADD14C,1.600000*%
%ADD15R,1.900000X1.200000*%
%ADD16O,2.100000X2.100000*%
%ADD17R,2.100000X2.100000*%
%ADD18C,1.900000*%
%ADD19R,1.900000X1.900000*%
%ADD20C,4.050000*%
%ADD21C,2.400000*%
%ADD22C,6.399480*%
%ADD23O,2.000000X2.000000*%
%ADD24R,2.000000X2.000000*%
G04 APERTURE END LIST*
D10*
X114750000Y-93500000D03*
X55750000Y-83500000D03*
X52750000Y-141500000D03*
D11*
X145810000Y-52720000D03*
X132340000Y-52720000D03*
D12*
X137170000Y-54750000D03*
X139710000Y-54750000D03*
X142250000Y-54750000D03*
X135900000Y-57290000D03*
X140980000Y-57290000D03*
X138440000Y-57290000D03*
D13*
X51250000Y-54000000D03*
X61250000Y-54000000D03*
X53750000Y-54000000D03*
X58750000Y-54000000D03*
D14*
X56250000Y-54000000D03*
X51250000Y-49000000D03*
X51250000Y-46500000D03*
X61250000Y-49000000D03*
X61250000Y-46500000D03*
D15*
X56250000Y-49000000D03*
D16*
X51420000Y-104150000D03*
X53960000Y-104150000D03*
X56500000Y-104150000D03*
X59040000Y-104150000D03*
X61580000Y-104150000D03*
X64120000Y-104150000D03*
X66660000Y-104150000D03*
D17*
X69200000Y-104150000D03*
X77600000Y-137750000D03*
D16*
X80140000Y-137750000D03*
X82680000Y-137750000D03*
X85220000Y-137750000D03*
X87760000Y-137750000D03*
X90300000Y-137750000D03*
X92840000Y-137750000D03*
X95380000Y-137750000D03*
D18*
X116774999Y-63004999D03*
X118044999Y-60464999D03*
X119314999Y-63004999D03*
X120584999Y-60464999D03*
X121854999Y-63004999D03*
X123124999Y-60464999D03*
X124394999Y-63004999D03*
D19*
X125664999Y-60464999D03*
D20*
X127154999Y-54114999D03*
X115284999Y-54114999D03*
X98814999Y-54114999D03*
X110684999Y-54114999D03*
D19*
X109194999Y-60464999D03*
D18*
X107924999Y-63004999D03*
X106654999Y-60464999D03*
X105384999Y-63004999D03*
X104114999Y-60464999D03*
X102844999Y-63004999D03*
X101574999Y-60464999D03*
X100304999Y-63004999D03*
X67360000Y-63040000D03*
X68630000Y-60500000D03*
X69900000Y-63040000D03*
X71170000Y-60500000D03*
X72440000Y-63040000D03*
X73710000Y-60500000D03*
X74980000Y-63040000D03*
D19*
X76250000Y-60500000D03*
D20*
X77740000Y-54150000D03*
X65870000Y-54150000D03*
X82370000Y-54150000D03*
X94240000Y-54150000D03*
D19*
X92750000Y-60500000D03*
D18*
X91480000Y-63040000D03*
X90210000Y-60500000D03*
X88940000Y-63040000D03*
X87670000Y-60500000D03*
X86400000Y-63040000D03*
X85130000Y-60500000D03*
X83860000Y-63040000D03*
D17*
X146670000Y-130930000D03*
D16*
X144130000Y-130930000D03*
X141590000Y-130930000D03*
X139050000Y-130930000D03*
X136510000Y-130930000D03*
X133970000Y-130930000D03*
X131430000Y-130930000D03*
X128890000Y-130930000D03*
X126350000Y-130930000D03*
X123810000Y-130930000D03*
X121270000Y-130930000D03*
X118730000Y-130930000D03*
X116190000Y-130930000D03*
X113650000Y-130930000D03*
X146680000Y-110610000D03*
X144140000Y-110610000D03*
X141600000Y-110610000D03*
X139060000Y-110610000D03*
X136520000Y-110610000D03*
X133980000Y-110610000D03*
X131440000Y-110610000D03*
X128900000Y-110610000D03*
X126360000Y-110610000D03*
X123820000Y-110610000D03*
X121280000Y-110610000D03*
X118740000Y-110610000D03*
X116200000Y-110610000D03*
D17*
X113660000Y-110610000D03*
D16*
X62250000Y-142660000D03*
X59710000Y-142660000D03*
X62250000Y-140120000D03*
X59710000Y-140120000D03*
X62250000Y-137580000D03*
X59710000Y-137580000D03*
X62250000Y-135040000D03*
X59710000Y-135040000D03*
X62250000Y-132500000D03*
X59710000Y-132500000D03*
X62250000Y-129960000D03*
X59710000Y-129960000D03*
X62250000Y-127420000D03*
X59710000Y-127420000D03*
X62250000Y-124880000D03*
X59710000Y-124880000D03*
X62250000Y-122340000D03*
X59710000Y-122340000D03*
X62250000Y-119800000D03*
D17*
X59710000Y-119800000D03*
D21*
X51200000Y-109950000D03*
X55700000Y-109950000D03*
X51200000Y-116450000D03*
X55700000Y-116450000D03*
D22*
X69700000Y-134550000D03*
X69650000Y-142000000D03*
X144900000Y-78050000D03*
X144900000Y-87150000D03*
D23*
X73920000Y-81050000D03*
X66300000Y-88670000D03*
X73920000Y-83590000D03*
X66300000Y-86130000D03*
X73920000Y-86130000D03*
X66300000Y-83590000D03*
X73920000Y-88670000D03*
D24*
X66300000Y-81050000D03*
D10*
X110750000Y-138500000D03*
D22*
X143500000Y-138150000D03*
X128800000Y-138350000D03*
M02*
