G04 #@! TF.GenerationSoftware,KiCad,Pcbnew,(5.0.0-rc2-dev-340-g7483a73a5)*
G04 #@! TF.CreationDate,2018-04-20T20:11:43+02:00*
G04 #@! TF.ProjectId,AudiA6Main,4175646941364D61696E2E6B69636164,rev?*
G04 #@! TF.SameCoordinates,Original*
G04 #@! TF.FileFunction,Paste,Top*
G04 #@! TF.FilePolarity,Positive*
%FSLAX46Y46*%
G04 Gerber Fmt 4.6, Leading zero omitted, Abs format (unit mm)*
G04 Created by KiCad (PCBNEW (5.0.0-rc2-dev-340-g7483a73a5)) date 04/20/18 20:11:43*
%MOMM*%
%LPD*%
G01*
G04 APERTURE LIST*
%ADD10R,2.000000X0.600000*%
%ADD11R,1.500000X1.250000*%
%ADD12R,1.250000X1.500000*%
%ADD13C,1.250000*%
%ADD14C,0.100000*%
%ADD15R,0.900000X0.800000*%
%ADD16R,0.900000X0.400000*%
%ADD17R,1.600000X0.300000*%
%ADD18R,0.300000X1.600000*%
%ADD19R,1.500000X0.600000*%
%ADD20R,1.200000X0.750000*%
%ADD21R,1.300000X1.500000*%
%ADD22R,1.500000X1.300000*%
%ADD23R,1.560000X0.650000*%
%ADD24R,0.650000X1.560000*%
%ADD25R,2.000000X1.500000*%
%ADD26R,2.000000X3.800000*%
%ADD27R,3.800000X2.000000*%
%ADD28R,1.500000X2.000000*%
%ADD29R,1.800000X1.750000*%
G04 APERTURE END LIST*
D10*
X84450000Y-93545000D03*
X84450000Y-94815000D03*
X84450000Y-96085000D03*
X84450000Y-97355000D03*
X84450000Y-98625000D03*
X84450000Y-99895000D03*
X84450000Y-101165000D03*
X84450000Y-102435000D03*
X84450000Y-103705000D03*
X84450000Y-104975000D03*
X84450000Y-106245000D03*
X84450000Y-107515000D03*
X84450000Y-108785000D03*
X84450000Y-110055000D03*
X75050000Y-110055000D03*
X75050000Y-108785000D03*
X75050000Y-107515000D03*
X75050000Y-106245000D03*
X75050000Y-104975000D03*
X75050000Y-103705000D03*
X75050000Y-102435000D03*
X75050000Y-101165000D03*
X75050000Y-99895000D03*
X75050000Y-98625000D03*
X75050000Y-97355000D03*
X75050000Y-96085000D03*
X75050000Y-94815000D03*
X75050000Y-93545000D03*
D11*
X71750000Y-122150000D03*
X74250000Y-122150000D03*
X71750000Y-124850000D03*
X74250000Y-124850000D03*
X141691903Y-92473186D03*
X144191903Y-92473186D03*
X141691903Y-94373186D03*
X144191903Y-94373186D03*
X143808097Y-106126814D03*
X146308097Y-106126814D03*
X143808097Y-104226814D03*
X146308097Y-104226814D03*
X71250000Y-91850000D03*
X68750000Y-91850000D03*
X80350000Y-81050000D03*
X77850000Y-81050000D03*
D12*
X63200000Y-83500000D03*
X63200000Y-81000000D03*
D11*
X80350000Y-86150000D03*
X77850000Y-86150000D03*
D12*
X87800000Y-108950000D03*
X87800000Y-106450000D03*
X125200000Y-71700000D03*
X125200000Y-74200000D03*
X108400000Y-74300000D03*
X108400000Y-71800000D03*
X75600000Y-71700000D03*
X75600000Y-74200000D03*
X92100000Y-74200000D03*
X92100000Y-71700000D03*
X115000000Y-71700000D03*
X115000000Y-74200000D03*
X98400000Y-74200000D03*
X98400000Y-71700000D03*
X65600000Y-71700000D03*
X65600000Y-74200000D03*
X82100000Y-71700000D03*
X82100000Y-74200000D03*
X112500000Y-99900000D03*
X112500000Y-102400000D03*
D11*
X55050000Y-134850000D03*
X52550000Y-134850000D03*
D13*
X85716117Y-116166117D03*
D14*
G36*
X84743845Y-116077729D02*
X85627729Y-115193845D01*
X86688389Y-116254505D01*
X85804505Y-117138389D01*
X84743845Y-116077729D01*
X84743845Y-116077729D01*
G37*
D13*
X87483883Y-117933883D03*
D14*
G36*
X86511611Y-117845495D02*
X87395495Y-116961611D01*
X88456155Y-118022271D01*
X87572271Y-118906155D01*
X86511611Y-117845495D01*
X86511611Y-117845495D01*
G37*
D12*
X78000000Y-128000000D03*
X78000000Y-130500000D03*
D11*
X88850000Y-134650000D03*
X86350000Y-134650000D03*
D13*
X85983883Y-119533883D03*
D14*
G36*
X85011611Y-119445495D02*
X85895495Y-118561611D01*
X86956155Y-119622271D01*
X86072271Y-120506155D01*
X85011611Y-119445495D01*
X85011611Y-119445495D01*
G37*
D13*
X84216117Y-117766117D03*
D14*
G36*
X83243845Y-117677729D02*
X84127729Y-116793845D01*
X85188389Y-117854505D01*
X84304505Y-118738389D01*
X83243845Y-117677729D01*
X83243845Y-117677729D01*
G37*
D12*
X75600000Y-130500000D03*
X75600000Y-128000000D03*
D13*
X82483883Y-119233883D03*
D14*
G36*
X81511611Y-119145495D02*
X82395495Y-118261611D01*
X83456155Y-119322271D01*
X82572271Y-120206155D01*
X81511611Y-119145495D01*
X81511611Y-119145495D01*
G37*
D13*
X80716117Y-117466117D03*
D14*
G36*
X79743845Y-117377729D02*
X80627729Y-116493845D01*
X81688389Y-117554505D01*
X80804505Y-118438389D01*
X79743845Y-117377729D01*
X79743845Y-117377729D01*
G37*
D15*
X114700000Y-102200000D03*
X114700000Y-100100000D03*
D16*
X142500000Y-83025000D03*
X142500000Y-81875000D03*
X139700000Y-83025000D03*
X139700000Y-81875000D03*
D17*
X82200000Y-124600000D03*
X82200000Y-125100000D03*
X82200000Y-125600000D03*
X82200000Y-126100000D03*
X82200000Y-126600000D03*
X82200000Y-127100000D03*
X82200000Y-127600000D03*
X82200000Y-128100000D03*
X82200000Y-128600000D03*
X82200000Y-129100000D03*
X82200000Y-129600000D03*
X82200000Y-130100000D03*
D18*
X83550000Y-131450000D03*
X84050000Y-131450000D03*
X84550000Y-131450000D03*
X85050000Y-131450000D03*
X85550000Y-131450000D03*
X86050000Y-131450000D03*
X86550000Y-131450000D03*
X87050000Y-131450000D03*
X87550000Y-131450000D03*
X88050000Y-131450000D03*
X88550000Y-131450000D03*
X89050000Y-131450000D03*
D17*
X90400000Y-130100000D03*
X90400000Y-129600000D03*
X90400000Y-129100000D03*
X90400000Y-128600000D03*
X90400000Y-128100000D03*
X90400000Y-127600000D03*
X90400000Y-127100000D03*
X90400000Y-126600000D03*
X90400000Y-126100000D03*
X90400000Y-125600000D03*
X90400000Y-125100000D03*
X90400000Y-124600000D03*
D18*
X89050000Y-123250000D03*
X88550000Y-123250000D03*
X88050000Y-123250000D03*
X87550000Y-123250000D03*
X87050000Y-123250000D03*
X86550000Y-123250000D03*
X86050000Y-123250000D03*
X85550000Y-123250000D03*
X85050000Y-123250000D03*
X84550000Y-123250000D03*
X84050000Y-123250000D03*
X83550000Y-123250000D03*
D19*
X102700000Y-103960000D03*
X102700000Y-102690000D03*
X102700000Y-101420000D03*
X102700000Y-100150000D03*
X102700000Y-98880000D03*
X102700000Y-97610000D03*
X102700000Y-96340000D03*
X108100000Y-96340000D03*
X108100000Y-97610000D03*
X108100000Y-98880000D03*
X108100000Y-100150000D03*
X108100000Y-101420000D03*
X108100000Y-102690000D03*
X108100000Y-103960000D03*
D20*
X79150000Y-132850000D03*
X77250000Y-132850000D03*
D15*
X94650000Y-104550000D03*
X94650000Y-106450000D03*
X96650000Y-105500000D03*
X93050000Y-103250000D03*
X91050000Y-104200000D03*
X91050000Y-102300000D03*
X96650000Y-101900000D03*
X94650000Y-102850000D03*
X94650000Y-100950000D03*
X91050000Y-94950000D03*
X91050000Y-96850000D03*
X93050000Y-95900000D03*
X93050000Y-99600000D03*
X91050000Y-100550000D03*
X91050000Y-98650000D03*
X94650000Y-97350000D03*
X94650000Y-99250000D03*
X96650000Y-98300000D03*
X91050000Y-91350000D03*
X91050000Y-93250000D03*
X93050000Y-92300000D03*
X96650000Y-94700000D03*
X94650000Y-95650000D03*
X94650000Y-93750000D03*
D21*
X60000000Y-113400000D03*
X60000000Y-116100000D03*
D22*
X135750000Y-143050000D03*
X138450000Y-143050000D03*
X135700000Y-140750000D03*
X138400000Y-140750000D03*
X120050000Y-140550000D03*
X122750000Y-140550000D03*
X120050000Y-142850000D03*
X122750000Y-142850000D03*
D21*
X61200000Y-61500000D03*
X61200000Y-58800000D03*
X51300000Y-61500000D03*
X51300000Y-58800000D03*
D22*
X71450000Y-78250000D03*
X68750000Y-78250000D03*
X100050000Y-124150000D03*
X97350000Y-124150000D03*
D21*
X89900000Y-106450000D03*
X89900000Y-109150000D03*
D22*
X97350000Y-126250000D03*
X100050000Y-126250000D03*
D21*
X104300000Y-109600000D03*
X104300000Y-106900000D03*
X99500000Y-106850000D03*
X99500000Y-104150000D03*
X104900000Y-91400000D03*
X104900000Y-88700000D03*
X102500000Y-92900000D03*
X102500000Y-90200000D03*
X88800000Y-92600000D03*
X88800000Y-89900000D03*
D22*
X138150000Y-107250000D03*
X135450000Y-107250000D03*
X138150000Y-105150000D03*
X135450000Y-105150000D03*
X52350000Y-132850000D03*
X55050000Y-132850000D03*
X55200000Y-129950000D03*
X52500000Y-129950000D03*
X52450000Y-127850000D03*
X55150000Y-127850000D03*
D23*
X88250000Y-82300000D03*
X88250000Y-83250000D03*
X88250000Y-84200000D03*
X90950000Y-84200000D03*
X90950000Y-82300000D03*
X90950000Y-83250000D03*
X88250000Y-79350000D03*
X88250000Y-80300000D03*
X88250000Y-78400000D03*
X90950000Y-78400000D03*
X90950000Y-79350000D03*
X90950000Y-80300000D03*
D24*
X56300000Y-67400000D03*
X55350000Y-67400000D03*
X57250000Y-67400000D03*
X57250000Y-70100000D03*
X56300000Y-70100000D03*
X55350000Y-70100000D03*
D25*
X146391903Y-101473186D03*
X146391903Y-96873186D03*
X146391903Y-99173186D03*
D26*
X140091903Y-99173186D03*
D27*
X120000000Y-67700000D03*
D28*
X120000000Y-74000000D03*
X122300000Y-74000000D03*
X117700000Y-74000000D03*
X101200000Y-74000000D03*
X105800000Y-74000000D03*
X103500000Y-74000000D03*
D27*
X103500000Y-67700000D03*
X70600000Y-67700000D03*
D28*
X70600000Y-74000000D03*
X72900000Y-74000000D03*
X68300000Y-74000000D03*
X84800000Y-74000000D03*
X89400000Y-74000000D03*
X87100000Y-74000000D03*
D27*
X87100000Y-67700000D03*
D29*
X76900000Y-125350000D03*
X76900000Y-122100000D03*
M02*
