M48
;DRILL file {KiCad (5.0.0-rc2-dev-340-g7483a73a5)} date 04/20/18 19:56:22
;FORMAT={-:-/ absolute / metric / decimal}
FMAT,2
METRIC,TZ
T1C0.200
T2C0.400
T3C0.800
T4C0.810
T5C0.900
T6C1.000
T7C1.100
T8C1.200
T9C2.499
T10C4.300
T11C3.250
%
G90
G05
M71
T1
X49.9Y-137.65
X51.Y-136.95
X53.5Y-50.75
X53.7Y-136.85
X54.7Y-131.35
X55.5Y-137.85
X55.6Y-126.05
X55.7Y-72.15
X55.7Y-122.55
X56.3Y-70.15
X56.6Y-128.15
X57.3Y-132.75
X57.3Y-139.45
X57.3Y-144.25
X57.4Y-131.05
X57.4Y-135.15
X57.5Y-141.95
X57.6Y-120.65
X57.6Y-123.55
X57.7Y-126.25
X57.9Y-129.25
X63.5Y-50.75
X64.2Y-113.825
X64.7Y-118.75
X65.6Y-74.25
X68.3Y-74.15
X68.7Y-91.85
X72.8Y-118.65
X73.1Y-127.25
X73.2Y-113.825
X73.5Y-50.75
X73.5Y-140.75
X73.8Y-129.65
X75.Y-103.75
X75.Y-104.95
X75.05Y-107.515
X75.05Y-108.785
X75.6Y-71.75
X77.Y-113.375
X78.Y-62.35
X78.479Y-118.771
X78.8Y-113.825
X79.1Y-92.25
X79.2Y-129.85
X79.2Y-132.85
X79.3Y-128.35
X79.4Y-130.85
X79.461Y-126.511
X79.5Y-125.55
X79.6Y-123.85
X79.725Y-129.55
X79.8Y-120.75
X79.9Y-91.75
X80.2Y-95.45
X80.4Y-81.05
X80.4Y-86.05
X80.5Y-123.75
X80.634Y-127.759
X80.716Y-117.466
X80.975Y-94.747
X81.3Y-122.05
X81.5Y-78.75
X81.5Y-90.25
X81.6Y-81.95
X81.6Y-94.15
X82.Y-74.15
X82.Y-122.45
X82.2Y-66.85
X82.2Y-107.75
X82.221Y-109.129
X82.4Y-90.15
X82.5Y-78.85
X82.5Y-82.05
X82.5Y-93.15
X82.5Y-119.25
X83.5Y-50.75
X83.5Y-140.75
X84.2Y-117.75
X84.4Y-108.85
X84.5Y-107.55
X84.5Y-110.05
X84.7Y-73.95
X85.7Y-116.25
X86.Y-119.55
X86.Y-121.85
X86.1Y-65.45
X86.5Y-134.65
X87.Y-121.25
X87.5Y-117.95
X87.8Y-108.95
X88.2Y-83.25
X88.3Y-79.35
X88.9Y-120.35
X89.Y-134.55
X90.9Y-79.35
X90.9Y-83.25
X91.3Y-124.05
X91.9Y-125.05
X92.1Y-71.65
X92.595Y-119.825
X92.6Y-121.15
X93.5Y-50.75
X93.5Y-140.75
X95.221Y-119.529
X95.971Y-120.279
X97.3Y-126.25
X98.4Y-74.25
X99.4Y-84.25
X101.2Y-74.15
X103.5Y-50.75
X103.5Y-80.75
X103.5Y-140.75
X103.7Y-84.05
X104.348Y-85.525
X104.9Y-88.75
X107.Y-86.05
X107.4Y-88.85
X107.5Y-124.85
X108.2Y-124.15
X108.5Y-71.85
X109.8Y-131.85
X110.6Y-131.45
X113.5Y-50.75
X113.5Y-80.75
X113.5Y-85.75
X115.2Y-74.35
X117.9Y-73.85
X118.5Y-90.75
X118.5Y-100.75
X118.5Y-135.75
X118.5Y-140.75
X123.5Y-50.75
X123.5Y-80.75
X123.5Y-85.75
X123.5Y-95.75
X123.5Y-135.75
X125.2Y-71.65
X128.5Y-75.75
X128.5Y-90.75
X128.5Y-105.75
X133.5Y-65.75
X133.5Y-85.75
X133.5Y-100.75
X138.5Y-50.75
X138.5Y-75.75
X138.5Y-90.75
X143.5Y-60.75
X143.5Y-70.75
T2
X52.3Y-132.85
X52.4Y-127.85
X52.5Y-129.85
X56.3Y-67.45
X71.7Y-122.15
X71.7Y-124.95
X72.9Y-74.15
X75.6Y-74.25
X89.3Y-74.15
X89.9Y-109.15
X91.Y-100.55
X91.Y-104.15
X91.1Y-96.85
X92.1Y-74.25
X93.05Y-92.3
X94.6Y-106.45
X94.7Y-95.65
X94.7Y-99.25
X94.7Y-102.85
X94.9Y-88.85
X97.8Y-101.85
X97.899Y-99.874
X99.7Y-101.35
X100.Y-126.25
X100.1Y-124.15
X100.2Y-97.75
X100.5Y-100.35
X102.6Y-100.25
X103.2Y-96.34
X105.7Y-74.15
X108.1Y-102.75
X108.1Y-101.45
X108.4Y-74.35
X111.Y-110.55
X113.6Y-108.15
X113.6Y-113.05
X122.3Y-74.05
X125.1Y-74.25
X139.7Y-81.85
X139.9Y-97.85
X139.9Y-99.15
X139.9Y-100.55
X143.7Y-104.15
X143.7Y-106.15
T3
X66.3Y-81.05
X66.3Y-83.59
X66.3Y-86.13
X66.3Y-88.67
X73.92Y-81.05
X73.92Y-83.59
X73.92Y-86.13
X73.92Y-88.67
T4
X132.34Y-52.72
X135.9Y-57.29
X137.17Y-54.75
X138.44Y-57.29
X139.71Y-54.75
X140.98Y-57.29
X142.25Y-54.75
X145.81Y-52.72
T5
X67.36Y-63.04
X68.63Y-60.5
X69.9Y-63.04
X71.17Y-60.5
X72.44Y-63.04
X73.71Y-60.5
X74.98Y-63.04
X76.25Y-60.5
X100.305Y-63.005
X101.575Y-60.465
X102.845Y-63.005
X104.115Y-60.465
X105.385Y-63.005
X106.655Y-60.465
X107.925Y-63.005
X109.195Y-60.465
X116.775Y-63.005
X118.045Y-60.465
X119.315Y-63.005
X120.585Y-60.465
X121.855Y-63.005
X123.125Y-60.465
X124.395Y-63.005
X125.665Y-60.465
X83.86Y-63.04
X85.13Y-60.5
X86.4Y-63.04
X87.67Y-60.5
X88.94Y-63.04
X90.21Y-60.5
X91.48Y-63.04
X92.75Y-60.5
T6
X113.65Y-130.93
X116.19Y-130.93
X118.73Y-130.93
X121.27Y-130.93
X123.81Y-130.93
X126.35Y-130.93
X128.89Y-130.93
X131.43Y-130.93
X133.97Y-130.93
X136.51Y-130.93
X139.05Y-130.93
X141.59Y-130.93
X144.13Y-130.93
X146.67Y-130.93
X77.6Y-137.75
X80.14Y-137.75
X82.68Y-137.75
X85.22Y-137.75
X87.76Y-137.75
X90.3Y-137.75
X92.84Y-137.75
X95.38Y-137.75
X59.71Y-119.8
X59.71Y-122.34
X59.71Y-124.88
X59.71Y-127.42
X59.71Y-129.96
X59.71Y-132.5
X59.71Y-135.04
X59.71Y-137.58
X59.71Y-140.12
X59.71Y-142.66
X62.25Y-119.8
X62.25Y-122.34
X62.25Y-124.88
X62.25Y-127.42
X62.25Y-129.96
X62.25Y-132.5
X62.25Y-135.04
X62.25Y-137.58
X62.25Y-140.12
X62.25Y-142.66
X113.66Y-110.61
X116.2Y-110.61
X118.74Y-110.61
X121.28Y-110.61
X123.82Y-110.61
X126.36Y-110.61
X128.9Y-110.61
X131.44Y-110.61
X133.98Y-110.61
X136.52Y-110.61
X139.06Y-110.61
X141.6Y-110.61
X144.14Y-110.61
X146.68Y-110.61
X51.42Y-104.15
X53.96Y-104.15
X56.5Y-104.15
X59.04Y-104.15
X61.58Y-104.15
X64.12Y-104.15
X66.66Y-104.15
X69.2Y-104.15
T7
X51.2Y-109.95
X51.2Y-116.45
X55.7Y-109.95
X55.7Y-116.45
T8
X51.25Y-46.5
X51.25Y-49.
X56.25Y-54.
X61.25Y-46.5
X61.25Y-49.
T9
X144.9Y-87.15
X69.65Y-142.
X128.8Y-138.35
X69.7Y-134.55
X143.5Y-138.15
X144.9Y-78.05
T10
X52.75Y-141.5
X55.75Y-83.5
X110.75Y-138.5
X114.75Y-93.5
T11
X65.87Y-54.15
X77.74Y-54.15
X98.815Y-54.115
X110.685Y-54.115
X115.285Y-54.115
X127.155Y-54.115
X82.37Y-54.15
X94.24Y-54.15
T1
X51.25Y-53.6G85X51.25Y-54.4
G05
X53.75Y-53.6G85X53.75Y-54.4
G05
X56.65Y-49.G85X55.85Y-49.
G05
X58.75Y-53.6G85X58.75Y-54.4
G05
X61.25Y-53.6G85X61.25Y-54.4
G05
T0
M30
