G04 #@! TF.GenerationSoftware,KiCad,Pcbnew,(5.0.0-rc2-dev-340-g7483a73a5)*
G04 #@! TF.CreationDate,2018-04-20T19:56:18+02:00*
G04 #@! TF.ProjectId,AudiA6Main,4175646941364D61696E2E6B69636164,rev?*
G04 #@! TF.SameCoordinates,Original*
G04 #@! TF.FileFunction,Legend,Top*
G04 #@! TF.FilePolarity,Positive*
%FSLAX46Y46*%
G04 Gerber Fmt 4.6, Leading zero omitted, Abs format (unit mm)*
G04 Created by KiCad (PCBNEW (5.0.0-rc2-dev-340-g7483a73a5)) date 04/20/18 19:56:18*
%MOMM*%
%LPD*%
G01*
G04 APERTURE LIST*
%ADD10C,0.300000*%
%ADD11C,0.200000*%
%ADD12C,0.150000*%
%ADD13C,0.120000*%
%ADD14C,0.127000*%
%ADD15C,0.203200*%
%ADD16C,0.100000*%
%ADD17C,0.010000*%
%ADD18C,0.050000*%
G04 APERTURE END LIST*
D10*
X83142857Y-143928571D02*
X83428571Y-144928571D01*
X83714285Y-144214285D01*
X84000000Y-144928571D01*
X84285714Y-143928571D01*
X84714285Y-143928571D02*
X85000000Y-144928571D01*
X85285714Y-144214285D01*
X85571428Y-144928571D01*
X85857142Y-143928571D01*
X86285714Y-143928571D02*
X86571428Y-144928571D01*
X86857142Y-144214285D01*
X87142857Y-144928571D01*
X87428571Y-143928571D01*
X88000000Y-144785714D02*
X88071428Y-144857142D01*
X88000000Y-144928571D01*
X87928571Y-144857142D01*
X88000000Y-144785714D01*
X88000000Y-144928571D01*
X88500000Y-143928571D02*
X89071428Y-143928571D01*
X88714285Y-143428571D02*
X88714285Y-144714285D01*
X88785714Y-144857142D01*
X88928571Y-144928571D01*
X89071428Y-144928571D01*
X89571428Y-144928571D02*
X89571428Y-143428571D01*
X90214285Y-144928571D02*
X90214285Y-144142857D01*
X90142857Y-144000000D01*
X90000000Y-143928571D01*
X89785714Y-143928571D01*
X89642857Y-144000000D01*
X89571428Y-144071428D01*
X91500000Y-144857142D02*
X91357142Y-144928571D01*
X91071428Y-144928571D01*
X90928571Y-144857142D01*
X90857142Y-144714285D01*
X90857142Y-144142857D01*
X90928571Y-144000000D01*
X91071428Y-143928571D01*
X91357142Y-143928571D01*
X91500000Y-144000000D01*
X91571428Y-144142857D01*
X91571428Y-144285714D01*
X90857142Y-144428571D01*
X92214285Y-144928571D02*
X92214285Y-143928571D01*
X92214285Y-144071428D02*
X92285714Y-144000000D01*
X92428571Y-143928571D01*
X92642857Y-143928571D01*
X92785714Y-144000000D01*
X92857142Y-144142857D01*
X92857142Y-144928571D01*
X92857142Y-144142857D02*
X92928571Y-144000000D01*
X93071428Y-143928571D01*
X93285714Y-143928571D01*
X93428571Y-144000000D01*
X93500000Y-144142857D01*
X93500000Y-144928571D01*
X94214285Y-144928571D02*
X94214285Y-143928571D01*
X94214285Y-143428571D02*
X94142857Y-143500000D01*
X94214285Y-143571428D01*
X94285714Y-143500000D01*
X94214285Y-143428571D01*
X94214285Y-143571428D01*
X94857142Y-144857142D02*
X95000000Y-144928571D01*
X95285714Y-144928571D01*
X95428571Y-144857142D01*
X95500000Y-144714285D01*
X95500000Y-144642857D01*
X95428571Y-144500000D01*
X95285714Y-144428571D01*
X95071428Y-144428571D01*
X94928571Y-144357142D01*
X94857142Y-144214285D01*
X94857142Y-144142857D01*
X94928571Y-144000000D01*
X95071428Y-143928571D01*
X95285714Y-143928571D01*
X95428571Y-144000000D01*
X96071428Y-144857142D02*
X96214285Y-144928571D01*
X96500000Y-144928571D01*
X96642857Y-144857142D01*
X96714285Y-144714285D01*
X96714285Y-144642857D01*
X96642857Y-144500000D01*
X96500000Y-144428571D01*
X96285714Y-144428571D01*
X96142857Y-144357142D01*
X96071428Y-144214285D01*
X96071428Y-144142857D01*
X96142857Y-144000000D01*
X96285714Y-143928571D01*
X96500000Y-143928571D01*
X96642857Y-144000000D01*
X97357142Y-144928571D02*
X97357142Y-143928571D01*
X97357142Y-143428571D02*
X97285714Y-143500000D01*
X97357142Y-143571428D01*
X97428571Y-143500000D01*
X97357142Y-143428571D01*
X97357142Y-143571428D01*
X98071428Y-143928571D02*
X98071428Y-144928571D01*
X98071428Y-144071428D02*
X98142857Y-144000000D01*
X98285714Y-143928571D01*
X98500000Y-143928571D01*
X98642857Y-144000000D01*
X98714285Y-144142857D01*
X98714285Y-144928571D01*
X100071428Y-143928571D02*
X100071428Y-145142857D01*
X100000000Y-145285714D01*
X99928571Y-145357142D01*
X99785714Y-145428571D01*
X99571428Y-145428571D01*
X99428571Y-145357142D01*
X100071428Y-144857142D02*
X99928571Y-144928571D01*
X99642857Y-144928571D01*
X99500000Y-144857142D01*
X99428571Y-144785714D01*
X99357142Y-144642857D01*
X99357142Y-144214285D01*
X99428571Y-144071428D01*
X99500000Y-144000000D01*
X99642857Y-143928571D01*
X99928571Y-143928571D01*
X100071428Y-144000000D01*
X100714285Y-144857142D02*
X100857142Y-144928571D01*
X101142857Y-144928571D01*
X101285714Y-144857142D01*
X101357142Y-144714285D01*
X101357142Y-144642857D01*
X101285714Y-144500000D01*
X101142857Y-144428571D01*
X100928571Y-144428571D01*
X100785714Y-144357142D01*
X100714285Y-144214285D01*
X100714285Y-144142857D01*
X100785714Y-144000000D01*
X100928571Y-143928571D01*
X101142857Y-143928571D01*
X101285714Y-144000000D01*
X102571428Y-144857142D02*
X102428571Y-144928571D01*
X102142857Y-144928571D01*
X102000000Y-144857142D01*
X101928571Y-144714285D01*
X101928571Y-144142857D01*
X102000000Y-144000000D01*
X102142857Y-143928571D01*
X102428571Y-143928571D01*
X102571428Y-144000000D01*
X102642857Y-144142857D01*
X102642857Y-144285714D01*
X101928571Y-144428571D01*
X103285714Y-144928571D02*
X103285714Y-143928571D01*
X103285714Y-144071428D02*
X103357142Y-144000000D01*
X103500000Y-143928571D01*
X103714285Y-143928571D01*
X103857142Y-144000000D01*
X103928571Y-144142857D01*
X103928571Y-144928571D01*
X103928571Y-144142857D02*
X104000000Y-144000000D01*
X104142857Y-143928571D01*
X104357142Y-143928571D01*
X104500000Y-144000000D01*
X104571428Y-144142857D01*
X104571428Y-144928571D01*
X105285714Y-144928571D02*
X105285714Y-143928571D01*
X105285714Y-143428571D02*
X105214285Y-143500000D01*
X105285714Y-143571428D01*
X105357142Y-143500000D01*
X105285714Y-143428571D01*
X105285714Y-143571428D01*
X106642857Y-144857142D02*
X106500000Y-144928571D01*
X106214285Y-144928571D01*
X106071428Y-144857142D01*
X106000000Y-144785714D01*
X105928571Y-144642857D01*
X105928571Y-144214285D01*
X106000000Y-144071428D01*
X106071428Y-144000000D01*
X106214285Y-143928571D01*
X106500000Y-143928571D01*
X106642857Y-144000000D01*
X107500000Y-144928571D02*
X107357142Y-144857142D01*
X107285714Y-144785714D01*
X107214285Y-144642857D01*
X107214285Y-144214285D01*
X107285714Y-144071428D01*
X107357142Y-144000000D01*
X107500000Y-143928571D01*
X107714285Y-143928571D01*
X107857142Y-144000000D01*
X107928571Y-144071428D01*
X108000000Y-144214285D01*
X108000000Y-144642857D01*
X107928571Y-144785714D01*
X107857142Y-144857142D01*
X107714285Y-144928571D01*
X107500000Y-144928571D01*
X108857142Y-144928571D02*
X108714285Y-144857142D01*
X108642857Y-144714285D01*
X108642857Y-143428571D01*
X109642857Y-144928571D02*
X109500000Y-144857142D01*
X109428571Y-144785714D01*
X109357142Y-144642857D01*
X109357142Y-144214285D01*
X109428571Y-144071428D01*
X109500000Y-144000000D01*
X109642857Y-143928571D01*
X109857142Y-143928571D01*
X110000000Y-144000000D01*
X110071428Y-144071428D01*
X110142857Y-144214285D01*
X110142857Y-144642857D01*
X110071428Y-144785714D01*
X110000000Y-144857142D01*
X109857142Y-144928571D01*
X109642857Y-144928571D01*
X110785714Y-143928571D02*
X110785714Y-144928571D01*
X110785714Y-144071428D02*
X110857142Y-144000000D01*
X111000000Y-143928571D01*
X111214285Y-143928571D01*
X111357142Y-144000000D01*
X111428571Y-144142857D01*
X111428571Y-144928571D01*
X112142857Y-144785714D02*
X112214285Y-144857142D01*
X112142857Y-144928571D01*
X112071428Y-144857142D01*
X112142857Y-144785714D01*
X112142857Y-144928571D01*
X113500000Y-144928571D02*
X113500000Y-143428571D01*
X113500000Y-144857142D02*
X113357142Y-144928571D01*
X113071428Y-144928571D01*
X112928571Y-144857142D01*
X112857142Y-144785714D01*
X112785714Y-144642857D01*
X112785714Y-144214285D01*
X112857142Y-144071428D01*
X112928571Y-144000000D01*
X113071428Y-143928571D01*
X113357142Y-143928571D01*
X113500000Y-144000000D01*
X114214285Y-144928571D02*
X114214285Y-143428571D01*
X114357142Y-144357142D02*
X114785714Y-144928571D01*
X114785714Y-143928571D02*
X114214285Y-144500000D01*
X80928571Y-140642857D02*
X81142857Y-140714285D01*
X81214285Y-140785714D01*
X81285714Y-140928571D01*
X81285714Y-141142857D01*
X81214285Y-141285714D01*
X81142857Y-141357142D01*
X81000000Y-141428571D01*
X80428571Y-141428571D01*
X80428571Y-139928571D01*
X80928571Y-139928571D01*
X81071428Y-140000000D01*
X81142857Y-140071428D01*
X81214285Y-140214285D01*
X81214285Y-140357142D01*
X81142857Y-140500000D01*
X81071428Y-140571428D01*
X80928571Y-140642857D01*
X80428571Y-140642857D01*
X82642857Y-141428571D02*
X81928571Y-141428571D01*
X81928571Y-139928571D01*
X83142857Y-139928571D02*
X83142857Y-141142857D01*
X83214285Y-141285714D01*
X83285714Y-141357142D01*
X83428571Y-141428571D01*
X83714285Y-141428571D01*
X83857142Y-141357142D01*
X83928571Y-141285714D01*
X84000000Y-141142857D01*
X84000000Y-139928571D01*
X84714285Y-140642857D02*
X85214285Y-140642857D01*
X85428571Y-141428571D02*
X84714285Y-141428571D01*
X84714285Y-139928571D01*
X85428571Y-139928571D01*
X86571428Y-140642857D02*
X86071428Y-140642857D01*
X86071428Y-141428571D02*
X86071428Y-139928571D01*
X86785714Y-139928571D01*
X88214285Y-141428571D02*
X87714285Y-140714285D01*
X87357142Y-141428571D02*
X87357142Y-139928571D01*
X87928571Y-139928571D01*
X88071428Y-140000000D01*
X88142857Y-140071428D01*
X88214285Y-140214285D01*
X88214285Y-140428571D01*
X88142857Y-140571428D01*
X88071428Y-140642857D01*
X87928571Y-140714285D01*
X87357142Y-140714285D01*
X88857142Y-139928571D02*
X88857142Y-141142857D01*
X88928571Y-141285714D01*
X89000000Y-141357142D01*
X89142857Y-141428571D01*
X89428571Y-141428571D01*
X89571428Y-141357142D01*
X89642857Y-141285714D01*
X89714285Y-141142857D01*
X89714285Y-139928571D01*
X90428571Y-141428571D02*
X90428571Y-139928571D01*
X90928571Y-139928571D02*
X91785714Y-139928571D01*
X91357142Y-141428571D02*
X91357142Y-139928571D01*
X114178571Y-83928571D02*
X113678571Y-83214285D01*
X113321428Y-83928571D02*
X113321428Y-82428571D01*
X113892857Y-82428571D01*
X114035714Y-82500000D01*
X114107142Y-82571428D01*
X114178571Y-82714285D01*
X114178571Y-82928571D01*
X114107142Y-83071428D01*
X114035714Y-83142857D01*
X113892857Y-83214285D01*
X113321428Y-83214285D01*
X115392857Y-83857142D02*
X115250000Y-83928571D01*
X114964285Y-83928571D01*
X114821428Y-83857142D01*
X114750000Y-83714285D01*
X114750000Y-83142857D01*
X114821428Y-83000000D01*
X114964285Y-82928571D01*
X115250000Y-82928571D01*
X115392857Y-83000000D01*
X115464285Y-83142857D01*
X115464285Y-83285714D01*
X114750000Y-83428571D01*
X115964285Y-82928571D02*
X116321428Y-83928571D01*
X116678571Y-82928571D01*
X119178571Y-83928571D02*
X118321428Y-83928571D01*
X118750000Y-83928571D02*
X118750000Y-82428571D01*
X118607142Y-82642857D01*
X118464285Y-82785714D01*
X118321428Y-82857142D01*
X119821428Y-83785714D02*
X119892857Y-83857142D01*
X119821428Y-83928571D01*
X119750000Y-83857142D01*
X119821428Y-83785714D01*
X119821428Y-83928571D01*
X122107142Y-84500000D02*
X122035714Y-84428571D01*
X121892857Y-84214285D01*
X121821428Y-84071428D01*
X121750000Y-83857142D01*
X121678571Y-83500000D01*
X121678571Y-83214285D01*
X121750000Y-82857142D01*
X121821428Y-82642857D01*
X121892857Y-82500000D01*
X122035714Y-82285714D01*
X122107142Y-82214285D01*
X123464285Y-83928571D02*
X122607142Y-83928571D01*
X123035714Y-83928571D02*
X123035714Y-82428571D01*
X122892857Y-82642857D01*
X122750000Y-82785714D01*
X122607142Y-82857142D01*
X124321428Y-83071428D02*
X124178571Y-83000000D01*
X124107142Y-82928571D01*
X124035714Y-82785714D01*
X124035714Y-82714285D01*
X124107142Y-82571428D01*
X124178571Y-82500000D01*
X124321428Y-82428571D01*
X124607142Y-82428571D01*
X124750000Y-82500000D01*
X124821428Y-82571428D01*
X124892857Y-82714285D01*
X124892857Y-82785714D01*
X124821428Y-82928571D01*
X124750000Y-83000000D01*
X124607142Y-83071428D01*
X124321428Y-83071428D01*
X124178571Y-83142857D01*
X124107142Y-83214285D01*
X124035714Y-83357142D01*
X124035714Y-83642857D01*
X124107142Y-83785714D01*
X124178571Y-83857142D01*
X124321428Y-83928571D01*
X124607142Y-83928571D01*
X124750000Y-83857142D01*
X124821428Y-83785714D01*
X124892857Y-83642857D01*
X124892857Y-83357142D01*
X124821428Y-83214285D01*
X124750000Y-83142857D01*
X124607142Y-83071428D01*
X126321428Y-83928571D02*
X125464285Y-83928571D01*
X125892857Y-83928571D02*
X125892857Y-82428571D01*
X125750000Y-82642857D01*
X125607142Y-82785714D01*
X125464285Y-82857142D01*
X127607142Y-82428571D02*
X127321428Y-82428571D01*
X127178571Y-82500000D01*
X127107142Y-82571428D01*
X126964285Y-82785714D01*
X126892857Y-83071428D01*
X126892857Y-83642857D01*
X126964285Y-83785714D01*
X127035714Y-83857142D01*
X127178571Y-83928571D01*
X127464285Y-83928571D01*
X127607142Y-83857142D01*
X127678571Y-83785714D01*
X127750000Y-83642857D01*
X127750000Y-83285714D01*
X127678571Y-83142857D01*
X127607142Y-83071428D01*
X127464285Y-83000000D01*
X127178571Y-83000000D01*
X127035714Y-83071428D01*
X126964285Y-83142857D01*
X126892857Y-83285714D01*
X128250000Y-84500000D02*
X128321428Y-84428571D01*
X128464285Y-84214285D01*
X128535714Y-84071428D01*
X128607142Y-83857142D01*
X128678571Y-83500000D01*
X128678571Y-83214285D01*
X128607142Y-82857142D01*
X128535714Y-82642857D01*
X128464285Y-82500000D01*
X128321428Y-82285714D01*
X128250000Y-82214285D01*
X110642857Y-80642857D02*
X111142857Y-80642857D01*
X111357142Y-81428571D02*
X110642857Y-81428571D01*
X110642857Y-79928571D01*
X111357142Y-79928571D01*
X112214285Y-81428571D02*
X112071428Y-81357142D01*
X112000000Y-81214285D01*
X112000000Y-79928571D01*
X113357142Y-81357142D02*
X113214285Y-81428571D01*
X112928571Y-81428571D01*
X112785714Y-81357142D01*
X112714285Y-81214285D01*
X112714285Y-80642857D01*
X112785714Y-80500000D01*
X112928571Y-80428571D01*
X113214285Y-80428571D01*
X113357142Y-80500000D01*
X113428571Y-80642857D01*
X113428571Y-80785714D01*
X112714285Y-80928571D01*
X114714285Y-81357142D02*
X114571428Y-81428571D01*
X114285714Y-81428571D01*
X114142857Y-81357142D01*
X114071428Y-81285714D01*
X114000000Y-81142857D01*
X114000000Y-80714285D01*
X114071428Y-80571428D01*
X114142857Y-80500000D01*
X114285714Y-80428571D01*
X114571428Y-80428571D01*
X114714285Y-80500000D01*
X115142857Y-80428571D02*
X115714285Y-80428571D01*
X115357142Y-79928571D02*
X115357142Y-81214285D01*
X115428571Y-81357142D01*
X115571428Y-81428571D01*
X115714285Y-81428571D01*
X116214285Y-81428571D02*
X116214285Y-80428571D01*
X116214285Y-80714285D02*
X116285714Y-80571428D01*
X116357142Y-80500000D01*
X116500000Y-80428571D01*
X116642857Y-80428571D01*
X117142857Y-81428571D02*
X117142857Y-80428571D01*
X117142857Y-79928571D02*
X117071428Y-80000000D01*
X117142857Y-80071428D01*
X117214285Y-80000000D01*
X117142857Y-79928571D01*
X117142857Y-80071428D01*
X117642857Y-80428571D02*
X118214285Y-80428571D01*
X117857142Y-81428571D02*
X117857142Y-80142857D01*
X117928571Y-80000000D01*
X118071428Y-79928571D01*
X118214285Y-79928571D01*
X118571428Y-80428571D02*
X118928571Y-81428571D01*
X119285714Y-80428571D02*
X118928571Y-81428571D01*
X118785714Y-81785714D01*
X118714285Y-81857142D01*
X118571428Y-81928571D01*
X119857142Y-80642857D02*
X120357142Y-80642857D01*
X120571428Y-81428571D02*
X119857142Y-81428571D01*
X119857142Y-79928571D01*
X120571428Y-79928571D01*
X121071428Y-80428571D02*
X121428571Y-81428571D01*
X121785714Y-80428571D01*
X122928571Y-81357142D02*
X122785714Y-81428571D01*
X122500000Y-81428571D01*
X122357142Y-81357142D01*
X122285714Y-81214285D01*
X122285714Y-80642857D01*
X122357142Y-80500000D01*
X122500000Y-80428571D01*
X122785714Y-80428571D01*
X122928571Y-80500000D01*
X123000000Y-80642857D01*
X123000000Y-80785714D01*
X122285714Y-80928571D01*
X123642857Y-81428571D02*
X123642857Y-80428571D01*
X123642857Y-80714285D02*
X123714285Y-80571428D01*
X123785714Y-80500000D01*
X123928571Y-80428571D01*
X124071428Y-80428571D01*
X124428571Y-80428571D02*
X124785714Y-81428571D01*
X125142857Y-80428571D02*
X124785714Y-81428571D01*
X124642857Y-81785714D01*
X124571428Y-81857142D01*
X124428571Y-81928571D01*
X125500000Y-80428571D02*
X126071428Y-80428571D01*
X125714285Y-79928571D02*
X125714285Y-81214285D01*
X125785714Y-81357142D01*
X125928571Y-81428571D01*
X126071428Y-81428571D01*
X126571428Y-81428571D02*
X126571428Y-79928571D01*
X127214285Y-81428571D02*
X127214285Y-80642857D01*
X127142857Y-80500000D01*
X127000000Y-80428571D01*
X126785714Y-80428571D01*
X126642857Y-80500000D01*
X126571428Y-80571428D01*
X127928571Y-81428571D02*
X127928571Y-80428571D01*
X127928571Y-79928571D02*
X127857142Y-80000000D01*
X127928571Y-80071428D01*
X128000000Y-80000000D01*
X127928571Y-79928571D01*
X127928571Y-80071428D01*
X128642857Y-80428571D02*
X128642857Y-81428571D01*
X128642857Y-80571428D02*
X128714285Y-80500000D01*
X128857142Y-80428571D01*
X129071428Y-80428571D01*
X129214285Y-80500000D01*
X129285714Y-80642857D01*
X129285714Y-81428571D01*
X130642857Y-80428571D02*
X130642857Y-81642857D01*
X130571428Y-81785714D01*
X130500000Y-81857142D01*
X130357142Y-81928571D01*
X130142857Y-81928571D01*
X130000000Y-81857142D01*
X130642857Y-81357142D02*
X130500000Y-81428571D01*
X130214285Y-81428571D01*
X130071428Y-81357142D01*
X130000000Y-81285714D01*
X129928571Y-81142857D01*
X129928571Y-80714285D01*
X130000000Y-80571428D01*
X130071428Y-80500000D01*
X130214285Y-80428571D01*
X130500000Y-80428571D01*
X130642857Y-80500000D01*
X131357142Y-81285714D02*
X131428571Y-81357142D01*
X131357142Y-81428571D01*
X131285714Y-81357142D01*
X131357142Y-81285714D01*
X131357142Y-81428571D01*
X131357142Y-80857142D02*
X131285714Y-80000000D01*
X131357142Y-79928571D01*
X131428571Y-80000000D01*
X131357142Y-80857142D01*
X131357142Y-79928571D01*
X107142857Y-108028571D02*
X107142857Y-106528571D01*
X107642857Y-107600000D01*
X108142857Y-106528571D01*
X108142857Y-108028571D01*
X108642857Y-106528571D02*
X109500000Y-106528571D01*
X109071428Y-108028571D02*
X109071428Y-106528571D01*
X110000000Y-108028571D02*
X110000000Y-106528571D01*
X110000000Y-107242857D02*
X110857142Y-107242857D01*
X110857142Y-108028571D02*
X110857142Y-106528571D01*
X119571428Y-126200000D02*
X120285714Y-126200000D01*
X119428571Y-126628571D02*
X119928571Y-125128571D01*
X120428571Y-126628571D01*
X120928571Y-126628571D02*
X120928571Y-125128571D01*
X121285714Y-125128571D01*
X121500000Y-125200000D01*
X121642857Y-125342857D01*
X121714285Y-125485714D01*
X121785714Y-125771428D01*
X121785714Y-125985714D01*
X121714285Y-126271428D01*
X121642857Y-126414285D01*
X121500000Y-126557142D01*
X121285714Y-126628571D01*
X120928571Y-126628571D01*
X122357142Y-126200000D02*
X123071428Y-126200000D01*
X122214285Y-126628571D02*
X122714285Y-125128571D01*
X123214285Y-126628571D01*
X124214285Y-125842857D02*
X123714285Y-125842857D01*
X123714285Y-126628571D02*
X123714285Y-125128571D01*
X124428571Y-125128571D01*
X125857142Y-126628571D02*
X125357142Y-125914285D01*
X125000000Y-126628571D02*
X125000000Y-125128571D01*
X125571428Y-125128571D01*
X125714285Y-125200000D01*
X125785714Y-125271428D01*
X125857142Y-125414285D01*
X125857142Y-125628571D01*
X125785714Y-125771428D01*
X125714285Y-125842857D01*
X125571428Y-125914285D01*
X125000000Y-125914285D01*
X126500000Y-125128571D02*
X126500000Y-126342857D01*
X126571428Y-126485714D01*
X126642857Y-126557142D01*
X126785714Y-126628571D01*
X127071428Y-126628571D01*
X127214285Y-126557142D01*
X127285714Y-126485714D01*
X127357142Y-126342857D01*
X127357142Y-125128571D01*
X128071428Y-126628571D02*
X128071428Y-125128571D01*
X128571428Y-125128571D02*
X129428571Y-125128571D01*
X129000000Y-126628571D02*
X129000000Y-125128571D01*
X131000000Y-126557142D02*
X131214285Y-126628571D01*
X131571428Y-126628571D01*
X131714285Y-126557142D01*
X131785714Y-126485714D01*
X131857142Y-126342857D01*
X131857142Y-126200000D01*
X131785714Y-126057142D01*
X131714285Y-125985714D01*
X131571428Y-125914285D01*
X131285714Y-125842857D01*
X131142857Y-125771428D01*
X131071428Y-125700000D01*
X131000000Y-125557142D01*
X131000000Y-125414285D01*
X131071428Y-125271428D01*
X131142857Y-125200000D01*
X131285714Y-125128571D01*
X131642857Y-125128571D01*
X131857142Y-125200000D01*
X132785714Y-125128571D02*
X133071428Y-125128571D01*
X133214285Y-125200000D01*
X133357142Y-125342857D01*
X133428571Y-125628571D01*
X133428571Y-126128571D01*
X133357142Y-126414285D01*
X133214285Y-126557142D01*
X133071428Y-126628571D01*
X132785714Y-126628571D01*
X132642857Y-126557142D01*
X132500000Y-126414285D01*
X132428571Y-126128571D01*
X132428571Y-125628571D01*
X132500000Y-125342857D01*
X132642857Y-125200000D01*
X132785714Y-125128571D01*
X134071428Y-125128571D02*
X134071428Y-126342857D01*
X134142857Y-126485714D01*
X134214285Y-126557142D01*
X134357142Y-126628571D01*
X134642857Y-126628571D01*
X134785714Y-126557142D01*
X134857142Y-126485714D01*
X134928571Y-126342857D01*
X134928571Y-125128571D01*
X135642857Y-126628571D02*
X135642857Y-125128571D01*
X136500000Y-126628571D01*
X136500000Y-125128571D01*
X137214285Y-126628571D02*
X137214285Y-125128571D01*
X137571428Y-125128571D01*
X137785714Y-125200000D01*
X137928571Y-125342857D01*
X138000000Y-125485714D01*
X138071428Y-125771428D01*
X138071428Y-125985714D01*
X138000000Y-126271428D01*
X137928571Y-126414285D01*
X137785714Y-126557142D01*
X137571428Y-126628571D01*
X137214285Y-126628571D01*
X139214285Y-125842857D02*
X139428571Y-125914285D01*
X139500000Y-125985714D01*
X139571428Y-126128571D01*
X139571428Y-126342857D01*
X139500000Y-126485714D01*
X139428571Y-126557142D01*
X139285714Y-126628571D01*
X138714285Y-126628571D01*
X138714285Y-125128571D01*
X139214285Y-125128571D01*
X139357142Y-125200000D01*
X139428571Y-125271428D01*
X139500000Y-125414285D01*
X139500000Y-125557142D01*
X139428571Y-125700000D01*
X139357142Y-125771428D01*
X139214285Y-125842857D01*
X138714285Y-125842857D01*
X140500000Y-125128571D02*
X140785714Y-125128571D01*
X140928571Y-125200000D01*
X141071428Y-125342857D01*
X141142857Y-125628571D01*
X141142857Y-126128571D01*
X141071428Y-126414285D01*
X140928571Y-126557142D01*
X140785714Y-126628571D01*
X140500000Y-126628571D01*
X140357142Y-126557142D01*
X140214285Y-126414285D01*
X140142857Y-126128571D01*
X140142857Y-125628571D01*
X140214285Y-125342857D01*
X140357142Y-125200000D01*
X140500000Y-125128571D01*
X141714285Y-126200000D02*
X142428571Y-126200000D01*
X141571428Y-126628571D02*
X142071428Y-125128571D01*
X142571428Y-126628571D01*
X143928571Y-126628571D02*
X143428571Y-125914285D01*
X143071428Y-126628571D02*
X143071428Y-125128571D01*
X143642857Y-125128571D01*
X143785714Y-125200000D01*
X143857142Y-125271428D01*
X143928571Y-125414285D01*
X143928571Y-125628571D01*
X143857142Y-125771428D01*
X143785714Y-125842857D01*
X143642857Y-125914285D01*
X143071428Y-125914285D01*
X144571428Y-126628571D02*
X144571428Y-125128571D01*
X144928571Y-125128571D01*
X145142857Y-125200000D01*
X145285714Y-125342857D01*
X145357142Y-125485714D01*
X145428571Y-125771428D01*
X145428571Y-125985714D01*
X145357142Y-126271428D01*
X145285714Y-126414285D01*
X145142857Y-126557142D01*
X144928571Y-126628571D01*
X144571428Y-126628571D01*
X66078571Y-127207142D02*
X64578571Y-127207142D01*
X64578571Y-126850000D01*
X64650000Y-126635714D01*
X64792857Y-126492857D01*
X64935714Y-126421428D01*
X65221428Y-126350000D01*
X65435714Y-126350000D01*
X65721428Y-126421428D01*
X65864285Y-126492857D01*
X66007142Y-126635714D01*
X66078571Y-126850000D01*
X66078571Y-127207142D01*
X65292857Y-125707142D02*
X65292857Y-125207142D01*
X66078571Y-124992857D02*
X66078571Y-125707142D01*
X64578571Y-125707142D01*
X64578571Y-124992857D01*
X65292857Y-123850000D02*
X65364285Y-123635714D01*
X65435714Y-123564285D01*
X65578571Y-123492857D01*
X65792857Y-123492857D01*
X65935714Y-123564285D01*
X66007142Y-123635714D01*
X66078571Y-123778571D01*
X66078571Y-124350000D01*
X64578571Y-124350000D01*
X64578571Y-123850000D01*
X64650000Y-123707142D01*
X64721428Y-123635714D01*
X64864285Y-123564285D01*
X65007142Y-123564285D01*
X65150000Y-123635714D01*
X65221428Y-123707142D01*
X65292857Y-123850000D01*
X65292857Y-124350000D01*
X64578571Y-122850000D02*
X65792857Y-122850000D01*
X65935714Y-122778571D01*
X66007142Y-122707142D01*
X66078571Y-122564285D01*
X66078571Y-122278571D01*
X66007142Y-122135714D01*
X65935714Y-122064285D01*
X65792857Y-121992857D01*
X64578571Y-121992857D01*
X64650000Y-120492857D02*
X64578571Y-120635714D01*
X64578571Y-120850000D01*
X64650000Y-121064285D01*
X64792857Y-121207142D01*
X64935714Y-121278571D01*
X65221428Y-121350000D01*
X65435714Y-121350000D01*
X65721428Y-121278571D01*
X65864285Y-121207142D01*
X66007142Y-121064285D01*
X66078571Y-120850000D01*
X66078571Y-120707142D01*
X66007142Y-120492857D01*
X65935714Y-120421428D01*
X65435714Y-120421428D01*
X65435714Y-120707142D01*
X59278571Y-108128571D02*
X59278571Y-106628571D01*
X59850000Y-106628571D01*
X59992857Y-106700000D01*
X60064285Y-106771428D01*
X60135714Y-106914285D01*
X60135714Y-107128571D01*
X60064285Y-107271428D01*
X59992857Y-107342857D01*
X59850000Y-107414285D01*
X59278571Y-107414285D01*
X61064285Y-106628571D02*
X61350000Y-106628571D01*
X61492857Y-106700000D01*
X61635714Y-106842857D01*
X61707142Y-107128571D01*
X61707142Y-107628571D01*
X61635714Y-107914285D01*
X61492857Y-108057142D01*
X61350000Y-108128571D01*
X61064285Y-108128571D01*
X60921428Y-108057142D01*
X60778571Y-107914285D01*
X60707142Y-107628571D01*
X60707142Y-107128571D01*
X60778571Y-106842857D01*
X60921428Y-106700000D01*
X61064285Y-106628571D01*
X63207142Y-108128571D02*
X62707142Y-107414285D01*
X62350000Y-108128571D02*
X62350000Y-106628571D01*
X62921428Y-106628571D01*
X63064285Y-106700000D01*
X63135714Y-106771428D01*
X63207142Y-106914285D01*
X63207142Y-107128571D01*
X63135714Y-107271428D01*
X63064285Y-107342857D01*
X62921428Y-107414285D01*
X62350000Y-107414285D01*
X63635714Y-106628571D02*
X64492857Y-106628571D01*
X64064285Y-108128571D02*
X64064285Y-106628571D01*
X66635714Y-107342857D02*
X66850000Y-107414285D01*
X66921428Y-107485714D01*
X66992857Y-107628571D01*
X66992857Y-107842857D01*
X66921428Y-107985714D01*
X66850000Y-108057142D01*
X66707142Y-108128571D01*
X66135714Y-108128571D01*
X66135714Y-106628571D01*
X66635714Y-106628571D01*
X66778571Y-106700000D01*
X66850000Y-106771428D01*
X66921428Y-106914285D01*
X66921428Y-107057142D01*
X66850000Y-107200000D01*
X66778571Y-107271428D01*
X66635714Y-107342857D01*
X66135714Y-107342857D01*
X56057142Y-90528571D02*
X56057142Y-89028571D01*
X56557142Y-90100000D01*
X57057142Y-89028571D01*
X57057142Y-90528571D01*
X57700000Y-90457142D02*
X57914285Y-90528571D01*
X58271428Y-90528571D01*
X58414285Y-90457142D01*
X58485714Y-90385714D01*
X58557142Y-90242857D01*
X58557142Y-90100000D01*
X58485714Y-89957142D01*
X58414285Y-89885714D01*
X58271428Y-89814285D01*
X57985714Y-89742857D01*
X57842857Y-89671428D01*
X57771428Y-89600000D01*
X57700000Y-89457142D01*
X57700000Y-89314285D01*
X57771428Y-89171428D01*
X57842857Y-89100000D01*
X57985714Y-89028571D01*
X58342857Y-89028571D01*
X58557142Y-89100000D01*
X59985714Y-89100000D02*
X59842857Y-89028571D01*
X59628571Y-89028571D01*
X59414285Y-89100000D01*
X59271428Y-89242857D01*
X59200000Y-89385714D01*
X59128571Y-89671428D01*
X59128571Y-89885714D01*
X59200000Y-90171428D01*
X59271428Y-90314285D01*
X59414285Y-90457142D01*
X59628571Y-90528571D01*
X59771428Y-90528571D01*
X59985714Y-90457142D01*
X60057142Y-90385714D01*
X60057142Y-89885714D01*
X59771428Y-89885714D01*
X60700000Y-89742857D02*
X61200000Y-89742857D01*
X61414285Y-90528571D02*
X60700000Y-90528571D01*
X60700000Y-89028571D01*
X61414285Y-89028571D01*
X63057142Y-90671428D02*
X62914285Y-90600000D01*
X62771428Y-90457142D01*
X62557142Y-90242857D01*
X62414285Y-90171428D01*
X62271428Y-90171428D01*
X62342857Y-90528571D02*
X62200000Y-90457142D01*
X62057142Y-90314285D01*
X61985714Y-90028571D01*
X61985714Y-89528571D01*
X62057142Y-89242857D01*
X62200000Y-89100000D01*
X62342857Y-89028571D01*
X62628571Y-89028571D01*
X62771428Y-89100000D01*
X62914285Y-89242857D01*
X62985714Y-89528571D01*
X62985714Y-90028571D01*
X62914285Y-90314285D01*
X62771428Y-90457142D01*
X62628571Y-90528571D01*
X62342857Y-90528571D01*
X63485714Y-89028571D02*
X64485714Y-89028571D01*
X63842857Y-90528571D01*
D11*
X148500000Y-45750000D02*
X148500000Y-145750000D01*
X148500000Y-45750000D02*
X48500000Y-45750000D01*
D12*
X75875000Y-92925000D02*
X74050000Y-92925000D01*
X75875000Y-110925000D02*
X83625000Y-110925000D01*
X75875000Y-92675000D02*
X83625000Y-92675000D01*
X75875000Y-110925000D02*
X75875000Y-110580000D01*
X83625000Y-110925000D02*
X83625000Y-110580000D01*
X83625000Y-92675000D02*
X83625000Y-93020000D01*
X75875000Y-92675000D02*
X75875000Y-92925000D01*
D13*
X73500000Y-121300000D02*
X72500000Y-121300000D01*
X72500000Y-123000000D02*
X73500000Y-123000000D01*
X73500000Y-124000000D02*
X72500000Y-124000000D01*
X72500000Y-125700000D02*
X73500000Y-125700000D01*
X143441903Y-91623186D02*
X142441903Y-91623186D01*
X142441903Y-93323186D02*
X143441903Y-93323186D01*
X143441903Y-93523186D02*
X142441903Y-93523186D01*
X142441903Y-95223186D02*
X143441903Y-95223186D01*
X145558097Y-105276814D02*
X144558097Y-105276814D01*
X144558097Y-106976814D02*
X145558097Y-106976814D01*
X145558097Y-103376814D02*
X144558097Y-103376814D01*
X144558097Y-105076814D02*
X145558097Y-105076814D01*
X69500000Y-92700000D02*
X70500000Y-92700000D01*
X70500000Y-91000000D02*
X69500000Y-91000000D01*
X78600000Y-81900000D02*
X79600000Y-81900000D01*
X79600000Y-80200000D02*
X78600000Y-80200000D01*
X62350000Y-81750000D02*
X62350000Y-82750000D01*
X64050000Y-82750000D02*
X64050000Y-81750000D01*
X78600000Y-87000000D02*
X79600000Y-87000000D01*
X79600000Y-85300000D02*
X78600000Y-85300000D01*
X86950000Y-107200000D02*
X86950000Y-108200000D01*
X88650000Y-108200000D02*
X88650000Y-107200000D01*
X126050000Y-73450000D02*
X126050000Y-72450000D01*
X124350000Y-72450000D02*
X124350000Y-73450000D01*
X107550000Y-72550000D02*
X107550000Y-73550000D01*
X109250000Y-73550000D02*
X109250000Y-72550000D01*
X76450000Y-73450000D02*
X76450000Y-72450000D01*
X74750000Y-72450000D02*
X74750000Y-73450000D01*
X91250000Y-72450000D02*
X91250000Y-73450000D01*
X92950000Y-73450000D02*
X92950000Y-72450000D01*
X115850000Y-73450000D02*
X115850000Y-72450000D01*
X114150000Y-72450000D02*
X114150000Y-73450000D01*
X97550000Y-72450000D02*
X97550000Y-73450000D01*
X99250000Y-73450000D02*
X99250000Y-72450000D01*
X66450000Y-73450000D02*
X66450000Y-72450000D01*
X64750000Y-72450000D02*
X64750000Y-73450000D01*
X82950000Y-73450000D02*
X82950000Y-72450000D01*
X81250000Y-72450000D02*
X81250000Y-73450000D01*
X113350000Y-101650000D02*
X113350000Y-100650000D01*
X111650000Y-100650000D02*
X111650000Y-101650000D01*
X53300000Y-135700000D02*
X54300000Y-135700000D01*
X54300000Y-134000000D02*
X53300000Y-134000000D01*
X87554594Y-116802513D02*
X86847487Y-116095406D01*
X85645406Y-117297487D02*
X86352513Y-118004594D01*
X78850000Y-129750000D02*
X78850000Y-128750000D01*
X77150000Y-128750000D02*
X77150000Y-129750000D01*
X87100000Y-135500000D02*
X88100000Y-135500000D01*
X88100000Y-133800000D02*
X87100000Y-133800000D01*
X84145406Y-118897487D02*
X84852513Y-119604594D01*
X86054594Y-118402513D02*
X85347487Y-117695406D01*
X74750000Y-128750000D02*
X74750000Y-129750000D01*
X76450000Y-129750000D02*
X76450000Y-128750000D01*
X80645406Y-118597487D02*
X81352513Y-119304594D01*
X82554594Y-118102513D02*
X81847487Y-117395406D01*
X115500000Y-99550000D02*
X115500000Y-102150000D01*
X113900000Y-99550000D02*
X113900000Y-102150000D01*
X115500000Y-99550000D02*
X113900000Y-99550000D01*
D12*
X139500000Y-83700000D02*
X142700000Y-83700000D01*
X142700000Y-83700000D02*
X142700000Y-83300000D01*
X139500000Y-83700000D02*
X139500000Y-83300000D01*
X139500000Y-82750000D02*
X139500000Y-82150000D01*
X139500000Y-81600000D02*
X139500000Y-81200000D01*
X139500000Y-81200000D02*
X142700000Y-81200000D01*
X142700000Y-81200000D02*
X142700000Y-81600000D01*
X142700000Y-82750000D02*
X142700000Y-82150000D01*
D14*
X84150100Y-124900100D02*
G75*
G03X84150100Y-124900100I-300000J0D01*
G01*
D15*
X82800000Y-130450000D02*
X82800000Y-130850000D01*
X82800000Y-130850000D02*
X83200000Y-130850000D01*
X89400000Y-130850000D02*
X89800000Y-130850000D01*
X89800000Y-130850000D02*
X89800000Y-130450000D01*
X89800000Y-124250000D02*
X89800000Y-123850000D01*
X89800000Y-123850000D02*
X89400000Y-123850000D01*
X83200000Y-123850000D02*
X82800000Y-123850000D01*
X82800000Y-123850000D02*
X82800000Y-124250000D01*
D16*
X82304000Y-123850000D02*
G75*
G03X82304000Y-123850000I-254000J0D01*
G01*
D13*
X132340000Y-50990000D02*
X132340000Y-46110000D01*
X145810000Y-50990000D02*
X145810000Y-46110000D01*
X145810000Y-59320000D02*
X133110000Y-59320000D01*
X133110000Y-59320000D02*
X132340000Y-59320000D01*
X145810000Y-46110000D02*
X132340000Y-46110000D01*
X132340000Y-59320000D02*
X132340000Y-54440000D01*
X145810000Y-59320000D02*
X145810000Y-54440000D01*
D12*
X50250000Y-45500000D02*
X50250000Y-56700000D01*
X62250000Y-56700000D02*
X62250000Y-45500000D01*
X60750000Y-44500000D02*
X58250000Y-44500000D01*
X51750000Y-44500000D02*
X54250000Y-44500000D01*
X51750000Y-45500000D02*
X51750000Y-44500000D01*
X50250000Y-45500000D02*
X51750000Y-45500000D01*
X60750000Y-45500000D02*
X60750000Y-44500000D01*
X62250000Y-45500000D02*
X60750000Y-45500000D01*
X62250000Y-56700000D02*
X50250000Y-56700000D01*
X54250000Y-42700000D02*
X54250000Y-43700000D01*
X58250000Y-42700000D02*
X54250000Y-42700000D01*
X58250000Y-42700000D02*
X58250000Y-43700000D01*
X54250000Y-43700000D02*
X54250000Y-44500000D01*
X58250000Y-43700000D02*
X54250000Y-43700000D01*
X58250000Y-44500000D02*
X58250000Y-43700000D01*
X58250000Y-45700000D02*
X58250000Y-45500000D01*
X54250000Y-45700000D02*
X58250000Y-45700000D01*
X54250000Y-45500000D02*
X54250000Y-45700000D01*
X54250000Y-44500000D02*
X54250000Y-45500000D01*
X58250000Y-44500000D02*
X58250000Y-45500000D01*
D13*
X70530000Y-102820000D02*
X70530000Y-104150000D01*
X69200000Y-102820000D02*
X70530000Y-102820000D01*
X67930000Y-102820000D02*
X67930000Y-105480000D01*
X67930000Y-105480000D02*
X50090000Y-105480000D01*
X67930000Y-102820000D02*
X50090000Y-102820000D01*
X50090000Y-102820000D02*
X50090000Y-105480000D01*
X96710000Y-139080000D02*
X96710000Y-136420000D01*
X78870000Y-139080000D02*
X96710000Y-139080000D01*
X78870000Y-136420000D02*
X96710000Y-136420000D01*
X78870000Y-139080000D02*
X78870000Y-136420000D01*
X77600000Y-139080000D02*
X76270000Y-139080000D01*
X76270000Y-139080000D02*
X76270000Y-137750000D01*
X128834999Y-52954999D02*
X128834999Y-46244999D01*
X113604999Y-52944999D02*
X113594999Y-46244999D01*
X128834999Y-64274999D02*
X128834999Y-55274999D01*
X113594999Y-64274999D02*
X128834999Y-64274999D01*
X113594999Y-64274999D02*
X113604999Y-55284999D01*
X128834999Y-46244999D02*
X113594999Y-46244999D01*
X112364999Y-46244999D02*
X97124999Y-46244999D01*
X97124999Y-64274999D02*
X97134999Y-55284999D01*
X97124999Y-64274999D02*
X112364999Y-64274999D01*
X112364999Y-64274999D02*
X112364999Y-55274999D01*
X97134999Y-52944999D02*
X97124999Y-46244999D01*
X112364999Y-52954999D02*
X112364999Y-46244999D01*
X79420000Y-52990000D02*
X79420000Y-46280000D01*
X64190000Y-52980000D02*
X64180000Y-46280000D01*
X79420000Y-64310000D02*
X79420000Y-55310000D01*
X64180000Y-64310000D02*
X79420000Y-64310000D01*
X64180000Y-64310000D02*
X64190000Y-55320000D01*
X79420000Y-46280000D02*
X64180000Y-46280000D01*
X95920000Y-46280000D02*
X80680000Y-46280000D01*
X80680000Y-64310000D02*
X80690000Y-55320000D01*
X80680000Y-64310000D02*
X95920000Y-64310000D01*
X95920000Y-64310000D02*
X95920000Y-55310000D01*
X80690000Y-52980000D02*
X80680000Y-46280000D01*
X95920000Y-52990000D02*
X95920000Y-46280000D01*
D12*
X107475000Y-104575000D02*
X108850000Y-104575000D01*
X107475000Y-95700000D02*
X103325000Y-95700000D01*
X107475000Y-104600000D02*
X103325000Y-104600000D01*
X107475000Y-95700000D02*
X107475000Y-95815000D01*
X103325000Y-95700000D02*
X103325000Y-95815000D01*
X103325000Y-104600000D02*
X103325000Y-104485000D01*
X107475000Y-104600000D02*
X107475000Y-104575000D01*
D13*
X112320000Y-129600000D02*
X112320000Y-132260000D01*
X145400000Y-129600000D02*
X112320000Y-129600000D01*
X145400000Y-132260000D02*
X112320000Y-132260000D01*
X145400000Y-129600000D02*
X145400000Y-132260000D01*
X146670000Y-129600000D02*
X148000000Y-129600000D01*
X148000000Y-129600000D02*
X148000000Y-130930000D01*
X112330000Y-111940000D02*
X112330000Y-110610000D01*
X113660000Y-111940000D02*
X112330000Y-111940000D01*
X114930000Y-111940000D02*
X114930000Y-109280000D01*
X114930000Y-109280000D02*
X148010000Y-109280000D01*
X114930000Y-111940000D02*
X148010000Y-111940000D01*
X148010000Y-111940000D02*
X148010000Y-109280000D01*
X78550000Y-133450000D02*
X77850000Y-133450000D01*
X77850000Y-132250000D02*
X78550000Y-132250000D01*
X58380000Y-118470000D02*
X59710000Y-118470000D01*
X58380000Y-119800000D02*
X58380000Y-118470000D01*
X60980000Y-118470000D02*
X63580000Y-118470000D01*
X60980000Y-121070000D02*
X60980000Y-118470000D01*
X58380000Y-121070000D02*
X60980000Y-121070000D01*
X63580000Y-118470000D02*
X63580000Y-143990000D01*
X58380000Y-121070000D02*
X58380000Y-143990000D01*
X58380000Y-143990000D02*
X63580000Y-143990000D01*
X96410000Y-107080000D02*
X96410000Y-106150000D01*
X96410000Y-103920000D02*
X96410000Y-104850000D01*
X96410000Y-103920000D02*
X94250000Y-103920000D01*
X96410000Y-107080000D02*
X94950000Y-107080000D01*
X92810000Y-104830000D02*
X91350000Y-104830000D01*
X92810000Y-101670000D02*
X90650000Y-101670000D01*
X92810000Y-101670000D02*
X92810000Y-102600000D01*
X92810000Y-104830000D02*
X92810000Y-103900000D01*
X96410000Y-103480000D02*
X94950000Y-103480000D01*
X96410000Y-100320000D02*
X94250000Y-100320000D01*
X96410000Y-100320000D02*
X96410000Y-101250000D01*
X96410000Y-103480000D02*
X96410000Y-102550000D01*
X92810000Y-97480000D02*
X92810000Y-96550000D01*
X92810000Y-94320000D02*
X92810000Y-95250000D01*
X92810000Y-94320000D02*
X90650000Y-94320000D01*
X92810000Y-97480000D02*
X91350000Y-97480000D01*
X92810000Y-101180000D02*
X91350000Y-101180000D01*
X92810000Y-98020000D02*
X90650000Y-98020000D01*
X92810000Y-98020000D02*
X92810000Y-98950000D01*
X92810000Y-101180000D02*
X92810000Y-100250000D01*
X96410000Y-99880000D02*
X96410000Y-98950000D01*
X96410000Y-96720000D02*
X96410000Y-97650000D01*
X96410000Y-96720000D02*
X94250000Y-96720000D01*
X96410000Y-99880000D02*
X94950000Y-99880000D01*
X92810000Y-93880000D02*
X92810000Y-92950000D01*
X92810000Y-90720000D02*
X92810000Y-91650000D01*
X92810000Y-90720000D02*
X90650000Y-90720000D01*
X92810000Y-93880000D02*
X91350000Y-93880000D01*
X96410000Y-96280000D02*
X94950000Y-96280000D01*
X96410000Y-93120000D02*
X94250000Y-93120000D01*
X96410000Y-93120000D02*
X96410000Y-94050000D01*
X96410000Y-96280000D02*
X96410000Y-95350000D01*
X59120000Y-115350000D02*
X59120000Y-114150000D01*
X60880000Y-114150000D02*
X60880000Y-115350000D01*
X137700000Y-143930000D02*
X136500000Y-143930000D01*
X136500000Y-142170000D02*
X137700000Y-142170000D01*
X137650000Y-141630000D02*
X136450000Y-141630000D01*
X136450000Y-139870000D02*
X137650000Y-139870000D01*
X122000000Y-141430000D02*
X120800000Y-141430000D01*
X120800000Y-139670000D02*
X122000000Y-139670000D01*
X122000000Y-143730000D02*
X120800000Y-143730000D01*
X120800000Y-141970000D02*
X122000000Y-141970000D01*
X62080000Y-59550000D02*
X62080000Y-60750000D01*
X60320000Y-60750000D02*
X60320000Y-59550000D01*
X52180000Y-59550000D02*
X52180000Y-60750000D01*
X50420000Y-60750000D02*
X50420000Y-59550000D01*
X69500000Y-77370000D02*
X70700000Y-77370000D01*
X70700000Y-79130000D02*
X69500000Y-79130000D01*
X98100000Y-123270000D02*
X99300000Y-123270000D01*
X99300000Y-125030000D02*
X98100000Y-125030000D01*
X89020000Y-108400000D02*
X89020000Y-107200000D01*
X90780000Y-107200000D02*
X90780000Y-108400000D01*
X99300000Y-127130000D02*
X98100000Y-127130000D01*
X98100000Y-125370000D02*
X99300000Y-125370000D01*
X105180000Y-107650000D02*
X105180000Y-108850000D01*
X103420000Y-108850000D02*
X103420000Y-107650000D01*
X100380000Y-104900000D02*
X100380000Y-106100000D01*
X98620000Y-106100000D02*
X98620000Y-104900000D01*
X105780000Y-89450000D02*
X105780000Y-90650000D01*
X104020000Y-90650000D02*
X104020000Y-89450000D01*
X103380000Y-90950000D02*
X103380000Y-92150000D01*
X101620000Y-92150000D02*
X101620000Y-90950000D01*
X89680000Y-90650000D02*
X89680000Y-91850000D01*
X87920000Y-91850000D02*
X87920000Y-90650000D01*
X136200000Y-106370000D02*
X137400000Y-106370000D01*
X137400000Y-108130000D02*
X136200000Y-108130000D01*
X136200000Y-104270000D02*
X137400000Y-104270000D01*
X137400000Y-106030000D02*
X136200000Y-106030000D01*
X54300000Y-133730000D02*
X53100000Y-133730000D01*
X53100000Y-131970000D02*
X54300000Y-131970000D01*
X53250000Y-129070000D02*
X54450000Y-129070000D01*
X54450000Y-130830000D02*
X53250000Y-130830000D01*
X54400000Y-128730000D02*
X53200000Y-128730000D01*
X53200000Y-126970000D02*
X54400000Y-126970000D01*
X54200000Y-109700000D02*
X52700000Y-109700000D01*
X50200000Y-110950000D02*
X50200000Y-115450000D01*
X52700000Y-116700000D02*
X54200000Y-116700000D01*
X56700000Y-115450000D02*
X56700000Y-110950000D01*
X88700000Y-84860000D02*
X90500000Y-84860000D01*
X90500000Y-81640000D02*
X87550000Y-81640000D01*
X88700000Y-80960000D02*
X91650000Y-80960000D01*
X90500000Y-77740000D02*
X88700000Y-77740000D01*
X54690000Y-67850000D02*
X54690000Y-70800000D01*
X57910000Y-69650000D02*
X57910000Y-67850000D01*
X147341903Y-102583186D02*
X141331903Y-102583186D01*
X145091903Y-95763186D02*
X141331903Y-95763186D01*
X141331903Y-102583186D02*
X141331903Y-101323186D01*
X141331903Y-95763186D02*
X141331903Y-97023186D01*
X72760000Y-79720000D02*
X71110000Y-79720000D01*
X72760000Y-90000000D02*
X72760000Y-79720000D01*
X67460000Y-90000000D02*
X72760000Y-90000000D01*
X67460000Y-79720000D02*
X67460000Y-90000000D01*
X69110000Y-79720000D02*
X67460000Y-79720000D01*
X71110000Y-79720000D02*
G75*
G02X69110000Y-79720000I-1000000J0D01*
G01*
X123410000Y-68940000D02*
X122150000Y-68940000D01*
X116590000Y-68940000D02*
X117850000Y-68940000D01*
X123410000Y-72700000D02*
X123410000Y-68940000D01*
X116590000Y-74950000D02*
X116590000Y-68940000D01*
X100090000Y-74950000D02*
X100090000Y-68940000D01*
X106910000Y-72700000D02*
X106910000Y-68940000D01*
X100090000Y-68940000D02*
X101350000Y-68940000D01*
X106910000Y-68940000D02*
X105650000Y-68940000D01*
X74010000Y-68940000D02*
X72750000Y-68940000D01*
X67190000Y-68940000D02*
X68450000Y-68940000D01*
X74010000Y-72700000D02*
X74010000Y-68940000D01*
X67190000Y-74950000D02*
X67190000Y-68940000D01*
X83690000Y-74950000D02*
X83690000Y-68940000D01*
X90510000Y-72700000D02*
X90510000Y-68940000D01*
X83690000Y-68940000D02*
X84950000Y-68940000D01*
X90510000Y-68940000D02*
X89250000Y-68940000D01*
X77800000Y-121025000D02*
X76000000Y-121025000D01*
X75950000Y-123175000D02*
X75950000Y-124275000D01*
X77850000Y-123175000D02*
X77850000Y-124275000D01*
D17*
G36*
X129293164Y-116631446D02*
X128933496Y-116646021D01*
X128573828Y-116660597D01*
X128573828Y-118029046D01*
X128879856Y-118114129D01*
X129128255Y-118206583D01*
X129322309Y-118338763D01*
X129375950Y-118389278D01*
X129566015Y-118579343D01*
X129566015Y-119293477D01*
X129560546Y-119647975D01*
X129536196Y-119915621D01*
X129481047Y-120108538D01*
X129383185Y-120238849D01*
X129230694Y-120318676D01*
X129011658Y-120360141D01*
X128714160Y-120375368D01*
X128501007Y-120376954D01*
X127928906Y-120376954D01*
X127928906Y-120178516D01*
X128573828Y-120178516D01*
X128860446Y-120178516D01*
X129078666Y-120161916D01*
X129233493Y-120115601D01*
X129257321Y-120101289D01*
X129302654Y-120063796D01*
X129333511Y-120014262D01*
X129352662Y-119934697D01*
X129362876Y-119807110D01*
X129366921Y-119613512D01*
X129367578Y-119384993D01*
X129367578Y-118745924D01*
X129131933Y-118712383D01*
X128899920Y-118643877D01*
X128735058Y-118525979D01*
X128573828Y-118373115D01*
X128573828Y-120178516D01*
X127928906Y-120178516D01*
X127928906Y-116060938D01*
X129322920Y-116060938D01*
X129293164Y-116631446D01*
X129293164Y-116631446D01*
G37*
X129293164Y-116631446D02*
X128933496Y-116646021D01*
X128573828Y-116660597D01*
X128573828Y-118029046D01*
X128879856Y-118114129D01*
X129128255Y-118206583D01*
X129322309Y-118338763D01*
X129375950Y-118389278D01*
X129566015Y-118579343D01*
X129566015Y-119293477D01*
X129560546Y-119647975D01*
X129536196Y-119915621D01*
X129481047Y-120108538D01*
X129383185Y-120238849D01*
X129230694Y-120318676D01*
X129011658Y-120360141D01*
X128714160Y-120375368D01*
X128501007Y-120376954D01*
X127928906Y-120376954D01*
X127928906Y-120178516D01*
X128573828Y-120178516D01*
X128860446Y-120178516D01*
X129078666Y-120161916D01*
X129233493Y-120115601D01*
X129257321Y-120101289D01*
X129302654Y-120063796D01*
X129333511Y-120014262D01*
X129352662Y-119934697D01*
X129362876Y-119807110D01*
X129366921Y-119613512D01*
X129367578Y-119384993D01*
X129367578Y-118745924D01*
X129131933Y-118712383D01*
X128899920Y-118643877D01*
X128735058Y-118525979D01*
X128573828Y-118373115D01*
X128573828Y-120178516D01*
X127928906Y-120178516D01*
X127928906Y-116060938D01*
X129322920Y-116060938D01*
X129293164Y-116631446D01*
G36*
X144399219Y-118098184D02*
X144397989Y-118586405D01*
X144394429Y-119022005D01*
X144388728Y-119396934D01*
X144381078Y-119703146D01*
X144371670Y-119932592D01*
X144360696Y-120077225D01*
X144351056Y-120126202D01*
X144245927Y-120229426D01*
X144071075Y-120307512D01*
X143853844Y-120355893D01*
X143621574Y-120370000D01*
X143401608Y-120345265D01*
X143276970Y-120305669D01*
X143199749Y-120271506D01*
X143136234Y-120236323D01*
X143085089Y-120190720D01*
X143044972Y-120125296D01*
X143014547Y-120030652D01*
X142992474Y-119897387D01*
X142977415Y-119716103D01*
X142968031Y-119477398D01*
X142962982Y-119171873D01*
X142960931Y-118790128D01*
X142960539Y-118322763D01*
X142960547Y-118083884D01*
X142960547Y-116805079D01*
X143605469Y-116805079D01*
X143605469Y-120178516D01*
X143775872Y-120178516D01*
X143936110Y-120163893D01*
X144073528Y-120130134D01*
X144200781Y-120081753D01*
X144200781Y-116805079D01*
X143605469Y-116805079D01*
X142960547Y-116805079D01*
X142960547Y-116160157D01*
X144399219Y-116160157D01*
X144399219Y-118098184D01*
X144399219Y-118098184D01*
G37*
X144399219Y-118098184D02*
X144397989Y-118586405D01*
X144394429Y-119022005D01*
X144388728Y-119396934D01*
X144381078Y-119703146D01*
X144371670Y-119932592D01*
X144360696Y-120077225D01*
X144351056Y-120126202D01*
X144245927Y-120229426D01*
X144071075Y-120307512D01*
X143853844Y-120355893D01*
X143621574Y-120370000D01*
X143401608Y-120345265D01*
X143276970Y-120305669D01*
X143199749Y-120271506D01*
X143136234Y-120236323D01*
X143085089Y-120190720D01*
X143044972Y-120125296D01*
X143014547Y-120030652D01*
X142992474Y-119897387D01*
X142977415Y-119716103D01*
X142968031Y-119477398D01*
X142962982Y-119171873D01*
X142960931Y-118790128D01*
X142960539Y-118322763D01*
X142960547Y-118083884D01*
X142960547Y-116805079D01*
X143605469Y-116805079D01*
X143605469Y-120178516D01*
X143775872Y-120178516D01*
X143936110Y-120163893D01*
X144073528Y-120130134D01*
X144200781Y-120081753D01*
X144200781Y-116805079D01*
X143605469Y-116805079D01*
X142960547Y-116805079D01*
X142960547Y-116160157D01*
X144399219Y-116160157D01*
X144399219Y-118098184D01*
G36*
X135605957Y-114325287D02*
X136128237Y-114325916D01*
X136622869Y-114327481D01*
X137080577Y-114329890D01*
X137492085Y-114333046D01*
X137848114Y-114336855D01*
X138139390Y-114341223D01*
X138356635Y-114346054D01*
X138490573Y-114351255D01*
X138530118Y-114355148D01*
X138604906Y-114402483D01*
X138726693Y-114509303D01*
X138878252Y-114659465D01*
X139032897Y-114826195D01*
X139209072Y-115028331D01*
X139333030Y-115186702D01*
X139421598Y-115328793D01*
X139491608Y-115482091D01*
X139559889Y-115674080D01*
X139568990Y-115701706D01*
X139663299Y-116039227D01*
X139706154Y-116341101D01*
X139696931Y-116638009D01*
X139635007Y-116960631D01*
X139536737Y-117289233D01*
X139460753Y-117525753D01*
X139416383Y-117690510D01*
X139399922Y-117804460D01*
X139407665Y-117888561D01*
X139422688Y-117934155D01*
X139466303Y-118038932D01*
X139537086Y-118206626D01*
X139623085Y-118408974D01*
X139669034Y-118516602D01*
X139859961Y-118963086D01*
X139874089Y-120811036D01*
X139888217Y-122658985D01*
X137280273Y-122655367D01*
X136995019Y-122386477D01*
X136709765Y-122117588D01*
X136709765Y-118745924D01*
X136491060Y-118713127D01*
X136262915Y-118637457D01*
X136134513Y-118536454D01*
X136037995Y-118445299D01*
X135967543Y-118395639D01*
X135956343Y-118392579D01*
X135947850Y-118440499D01*
X135939965Y-118577510D01*
X135932880Y-118793481D01*
X135926786Y-119078285D01*
X135921875Y-119421793D01*
X135918338Y-119813877D01*
X135916367Y-120244407D01*
X135916015Y-120525782D01*
X135916015Y-122658985D01*
X134613769Y-122657915D01*
X133311523Y-122656844D01*
X132790625Y-122155854D01*
X132790625Y-114523047D01*
X132989062Y-114523047D01*
X132989062Y-122014063D01*
X135271094Y-122014063D01*
X135271094Y-116060938D01*
X136660156Y-116060938D01*
X136660156Y-116656250D01*
X135916015Y-116656250D01*
X135916015Y-118040817D01*
X136102051Y-118074634D01*
X136312650Y-118134465D01*
X136524854Y-118229983D01*
X136705980Y-118343694D01*
X136823342Y-118458103D01*
X136826067Y-118462170D01*
X136848305Y-118505466D01*
X136866193Y-118567228D01*
X136880188Y-118657747D01*
X136890753Y-118787318D01*
X136898345Y-118966232D01*
X136903426Y-119204782D01*
X136906455Y-119513260D01*
X136907891Y-119901960D01*
X136908203Y-120300794D01*
X136908203Y-122014063D01*
X139239844Y-122014063D01*
X139239844Y-120310306D01*
X139239719Y-119834492D01*
X139238153Y-119444882D01*
X139233361Y-119128461D01*
X139223557Y-118872214D01*
X139206955Y-118663127D01*
X139181768Y-118488186D01*
X139146211Y-118334375D01*
X139098497Y-118188680D01*
X139036841Y-118038086D01*
X138959457Y-117869580D01*
X138882795Y-117708451D01*
X138710451Y-117346785D01*
X138875919Y-116840287D01*
X138949669Y-116598994D01*
X139013412Y-116362061D01*
X139058311Y-116163779D01*
X139072550Y-116077440D01*
X139075146Y-115820320D01*
X139033001Y-115526806D01*
X138954777Y-115226248D01*
X138849136Y-114947997D01*
X138724741Y-114721404D01*
X138642473Y-114620208D01*
X138618742Y-114599387D01*
X138587294Y-114581773D01*
X138540204Y-114567098D01*
X138469548Y-114555093D01*
X138367404Y-114545491D01*
X138225847Y-114538025D01*
X138036953Y-114532426D01*
X137792799Y-114528427D01*
X137485462Y-114525759D01*
X137107017Y-114524156D01*
X136649541Y-114523350D01*
X136105110Y-114523072D01*
X135767187Y-114523047D01*
X132989062Y-114523047D01*
X132790625Y-114523047D01*
X132790625Y-114324610D01*
X135605957Y-114325287D01*
X135605957Y-114325287D01*
G37*
X135605957Y-114325287D02*
X136128237Y-114325916D01*
X136622869Y-114327481D01*
X137080577Y-114329890D01*
X137492085Y-114333046D01*
X137848114Y-114336855D01*
X138139390Y-114341223D01*
X138356635Y-114346054D01*
X138490573Y-114351255D01*
X138530118Y-114355148D01*
X138604906Y-114402483D01*
X138726693Y-114509303D01*
X138878252Y-114659465D01*
X139032897Y-114826195D01*
X139209072Y-115028331D01*
X139333030Y-115186702D01*
X139421598Y-115328793D01*
X139491608Y-115482091D01*
X139559889Y-115674080D01*
X139568990Y-115701706D01*
X139663299Y-116039227D01*
X139706154Y-116341101D01*
X139696931Y-116638009D01*
X139635007Y-116960631D01*
X139536737Y-117289233D01*
X139460753Y-117525753D01*
X139416383Y-117690510D01*
X139399922Y-117804460D01*
X139407665Y-117888561D01*
X139422688Y-117934155D01*
X139466303Y-118038932D01*
X139537086Y-118206626D01*
X139623085Y-118408974D01*
X139669034Y-118516602D01*
X139859961Y-118963086D01*
X139874089Y-120811036D01*
X139888217Y-122658985D01*
X137280273Y-122655367D01*
X136995019Y-122386477D01*
X136709765Y-122117588D01*
X136709765Y-118745924D01*
X136491060Y-118713127D01*
X136262915Y-118637457D01*
X136134513Y-118536454D01*
X136037995Y-118445299D01*
X135967543Y-118395639D01*
X135956343Y-118392579D01*
X135947850Y-118440499D01*
X135939965Y-118577510D01*
X135932880Y-118793481D01*
X135926786Y-119078285D01*
X135921875Y-119421793D01*
X135918338Y-119813877D01*
X135916367Y-120244407D01*
X135916015Y-120525782D01*
X135916015Y-122658985D01*
X134613769Y-122657915D01*
X133311523Y-122656844D01*
X132790625Y-122155854D01*
X132790625Y-114523047D01*
X132989062Y-114523047D01*
X132989062Y-122014063D01*
X135271094Y-122014063D01*
X135271094Y-116060938D01*
X136660156Y-116060938D01*
X136660156Y-116656250D01*
X135916015Y-116656250D01*
X135916015Y-118040817D01*
X136102051Y-118074634D01*
X136312650Y-118134465D01*
X136524854Y-118229983D01*
X136705980Y-118343694D01*
X136823342Y-118458103D01*
X136826067Y-118462170D01*
X136848305Y-118505466D01*
X136866193Y-118567228D01*
X136880188Y-118657747D01*
X136890753Y-118787318D01*
X136898345Y-118966232D01*
X136903426Y-119204782D01*
X136906455Y-119513260D01*
X136907891Y-119901960D01*
X136908203Y-120300794D01*
X136908203Y-122014063D01*
X139239844Y-122014063D01*
X139239844Y-120310306D01*
X139239719Y-119834492D01*
X139238153Y-119444882D01*
X139233361Y-119128461D01*
X139223557Y-118872214D01*
X139206955Y-118663127D01*
X139181768Y-118488186D01*
X139146211Y-118334375D01*
X139098497Y-118188680D01*
X139036841Y-118038086D01*
X138959457Y-117869580D01*
X138882795Y-117708451D01*
X138710451Y-117346785D01*
X138875919Y-116840287D01*
X138949669Y-116598994D01*
X139013412Y-116362061D01*
X139058311Y-116163779D01*
X139072550Y-116077440D01*
X139075146Y-115820320D01*
X139033001Y-115526806D01*
X138954777Y-115226248D01*
X138849136Y-114947997D01*
X138724741Y-114721404D01*
X138642473Y-114620208D01*
X138618742Y-114599387D01*
X138587294Y-114581773D01*
X138540204Y-114567098D01*
X138469548Y-114555093D01*
X138367404Y-114545491D01*
X138225847Y-114538025D01*
X138036953Y-114532426D01*
X137792799Y-114528427D01*
X137485462Y-114525759D01*
X137107017Y-114524156D01*
X136649541Y-114523350D01*
X136105110Y-114523072D01*
X135767187Y-114523047D01*
X132989062Y-114523047D01*
X132790625Y-114523047D01*
X132790625Y-114324610D01*
X135605957Y-114325287D01*
G36*
X129969774Y-114333994D02*
X130391720Y-114338230D01*
X130725022Y-114344659D01*
X130966710Y-114353247D01*
X131113814Y-114363955D01*
X131153515Y-114370790D01*
X131283089Y-114436276D01*
X131444145Y-114569893D01*
X131646133Y-114779607D01*
X131669850Y-114806083D01*
X131874473Y-115048576D01*
X132024034Y-115263902D01*
X132136119Y-115485421D01*
X132228314Y-115746494D01*
X132296768Y-115995272D01*
X132342479Y-116203765D01*
X132362507Y-116392839D01*
X132354359Y-116584948D01*
X132315545Y-116802542D01*
X132243570Y-117068077D01*
X132142620Y-117383959D01*
X131991378Y-117838816D01*
X132142583Y-118138352D01*
X132362852Y-118649201D01*
X132501419Y-119158175D01*
X132567051Y-119682422D01*
X132577780Y-120244874D01*
X132532592Y-120731158D01*
X132430541Y-121147704D01*
X132309683Y-121430573D01*
X132116617Y-121735767D01*
X131869809Y-122033856D01*
X131596606Y-122295376D01*
X131327148Y-122489234D01*
X131079101Y-122634180D01*
X128524219Y-122645864D01*
X125969336Y-122657547D01*
X125683779Y-122387286D01*
X125398222Y-122117024D01*
X125410927Y-118233219D01*
X125423064Y-114523047D01*
X125597265Y-114523047D01*
X125597265Y-122014063D01*
X127985162Y-122014063D01*
X128630579Y-122012991D01*
X129179246Y-122009739D01*
X129633608Y-122004254D01*
X129996112Y-121996482D01*
X130269202Y-121986370D01*
X130455324Y-121973865D01*
X130556925Y-121958913D01*
X130560804Y-121957813D01*
X130781488Y-121855200D01*
X131021357Y-121682401D01*
X131257542Y-121459096D01*
X131467174Y-121204965D01*
X131513210Y-121138232D01*
X131651446Y-120919702D01*
X131753634Y-120727057D01*
X131825107Y-120538426D01*
X131871201Y-120331937D01*
X131897250Y-120085720D01*
X131908588Y-119777903D01*
X131910634Y-119508789D01*
X131909698Y-119201126D01*
X131904481Y-118970073D01*
X131892487Y-118793038D01*
X131871218Y-118647429D01*
X131838177Y-118510654D01*
X131790867Y-118360119D01*
X131780168Y-118328417D01*
X131693882Y-118094088D01*
X131593003Y-117848855D01*
X131499120Y-117645154D01*
X131497655Y-117642246D01*
X131346444Y-117342697D01*
X131519464Y-116813439D01*
X131617999Y-116501598D01*
X131683748Y-116259322D01*
X131719419Y-116063520D01*
X131727719Y-115891103D01*
X131711355Y-115718982D01*
X131673035Y-115524068D01*
X131671466Y-115517148D01*
X131597425Y-115223542D01*
X131522395Y-115003286D01*
X131435872Y-114830968D01*
X131327354Y-114681176D01*
X131324575Y-114677864D01*
X131194305Y-114523047D01*
X125597265Y-114523047D01*
X125423064Y-114523047D01*
X125423633Y-114349414D01*
X128201758Y-114334812D01*
X128871824Y-114332249D01*
X129462152Y-114331989D01*
X129969774Y-114333994D01*
X129969774Y-114333994D01*
G37*
X129969774Y-114333994D02*
X130391720Y-114338230D01*
X130725022Y-114344659D01*
X130966710Y-114353247D01*
X131113814Y-114363955D01*
X131153515Y-114370790D01*
X131283089Y-114436276D01*
X131444145Y-114569893D01*
X131646133Y-114779607D01*
X131669850Y-114806083D01*
X131874473Y-115048576D01*
X132024034Y-115263902D01*
X132136119Y-115485421D01*
X132228314Y-115746494D01*
X132296768Y-115995272D01*
X132342479Y-116203765D01*
X132362507Y-116392839D01*
X132354359Y-116584948D01*
X132315545Y-116802542D01*
X132243570Y-117068077D01*
X132142620Y-117383959D01*
X131991378Y-117838816D01*
X132142583Y-118138352D01*
X132362852Y-118649201D01*
X132501419Y-119158175D01*
X132567051Y-119682422D01*
X132577780Y-120244874D01*
X132532592Y-120731158D01*
X132430541Y-121147704D01*
X132309683Y-121430573D01*
X132116617Y-121735767D01*
X131869809Y-122033856D01*
X131596606Y-122295376D01*
X131327148Y-122489234D01*
X131079101Y-122634180D01*
X128524219Y-122645864D01*
X125969336Y-122657547D01*
X125683779Y-122387286D01*
X125398222Y-122117024D01*
X125410927Y-118233219D01*
X125423064Y-114523047D01*
X125597265Y-114523047D01*
X125597265Y-122014063D01*
X127985162Y-122014063D01*
X128630579Y-122012991D01*
X129179246Y-122009739D01*
X129633608Y-122004254D01*
X129996112Y-121996482D01*
X130269202Y-121986370D01*
X130455324Y-121973865D01*
X130556925Y-121958913D01*
X130560804Y-121957813D01*
X130781488Y-121855200D01*
X131021357Y-121682401D01*
X131257542Y-121459096D01*
X131467174Y-121204965D01*
X131513210Y-121138232D01*
X131651446Y-120919702D01*
X131753634Y-120727057D01*
X131825107Y-120538426D01*
X131871201Y-120331937D01*
X131897250Y-120085720D01*
X131908588Y-119777903D01*
X131910634Y-119508789D01*
X131909698Y-119201126D01*
X131904481Y-118970073D01*
X131892487Y-118793038D01*
X131871218Y-118647429D01*
X131838177Y-118510654D01*
X131790867Y-118360119D01*
X131780168Y-118328417D01*
X131693882Y-118094088D01*
X131593003Y-117848855D01*
X131499120Y-117645154D01*
X131497655Y-117642246D01*
X131346444Y-117342697D01*
X131519464Y-116813439D01*
X131617999Y-116501598D01*
X131683748Y-116259322D01*
X131719419Y-116063520D01*
X131727719Y-115891103D01*
X131711355Y-115718982D01*
X131673035Y-115524068D01*
X131671466Y-115517148D01*
X131597425Y-115223542D01*
X131522395Y-115003286D01*
X131435872Y-114830968D01*
X131327354Y-114681176D01*
X131324575Y-114677864D01*
X131194305Y-114523047D01*
X125597265Y-114523047D01*
X125423064Y-114523047D01*
X125423633Y-114349414D01*
X128201758Y-114334812D01*
X128871824Y-114332249D01*
X129462152Y-114331989D01*
X129969774Y-114333994D01*
G36*
X124904918Y-114921359D02*
X124891424Y-115850817D01*
X124877929Y-116780274D01*
X124316628Y-116805079D01*
X123755327Y-116829883D01*
X124075032Y-117184586D01*
X124234199Y-117375184D01*
X124381626Y-117576088D01*
X124492777Y-117753060D01*
X124519367Y-117804703D01*
X124662808Y-118191684D01*
X124767091Y-118644161D01*
X124832319Y-119141154D01*
X124858593Y-119661683D01*
X124846015Y-120184768D01*
X124794685Y-120689428D01*
X124704705Y-121154683D01*
X124576177Y-121559553D01*
X124500412Y-121727085D01*
X124367400Y-121934827D01*
X124183696Y-122153777D01*
X123978642Y-122353136D01*
X123781580Y-122502102D01*
X123738135Y-122527255D01*
X123691159Y-122551183D01*
X123641394Y-122571308D01*
X123580171Y-122588016D01*
X123498819Y-122601693D01*
X123388669Y-122612723D01*
X123241052Y-122621493D01*
X123047299Y-122628388D01*
X122798740Y-122633794D01*
X122486705Y-122638096D01*
X122102526Y-122641679D01*
X121637533Y-122644930D01*
X121083057Y-122648235D01*
X121008367Y-122648663D01*
X118478257Y-122663146D01*
X118257120Y-122437823D01*
X118132206Y-122320343D01*
X118027158Y-122238827D01*
X117970870Y-122212500D01*
X117948329Y-122194052D01*
X117932096Y-122131421D01*
X117921611Y-122013684D01*
X117916312Y-121829914D01*
X117915635Y-121569185D01*
X117919019Y-121220573D01*
X117919187Y-121207911D01*
X117932617Y-120203321D01*
X119723402Y-120178516D01*
X120214926Y-120170980D01*
X120615820Y-120163039D01*
X120934675Y-120154268D01*
X121180081Y-120144239D01*
X121360626Y-120132527D01*
X121484902Y-120118706D01*
X121561497Y-120102350D01*
X121596156Y-120085625D01*
X121632291Y-120039365D01*
X121656320Y-119960093D01*
X121670467Y-119830096D01*
X121676952Y-119631667D01*
X121678125Y-119432166D01*
X121678125Y-118846793D01*
X120747949Y-118830526D01*
X120381279Y-118822472D01*
X120094347Y-118808372D01*
X119867677Y-118781648D01*
X119681788Y-118735720D01*
X119517202Y-118664009D01*
X119354442Y-118559938D01*
X119174029Y-118416926D01*
X118956484Y-118228396D01*
X118951087Y-118223647D01*
X118677222Y-117964060D01*
X118455245Y-117706613D01*
X118280225Y-117437303D01*
X118147234Y-117142127D01*
X118051341Y-116807083D01*
X117987617Y-116418167D01*
X117951132Y-115961376D01*
X117936956Y-115422708D01*
X117936478Y-115341602D01*
X117933293Y-114523047D01*
X118095727Y-114523047D01*
X118119268Y-115478028D01*
X118142084Y-116004817D01*
X118184626Y-116446727D01*
X118250448Y-116816769D01*
X118343106Y-117127956D01*
X118466154Y-117393299D01*
X118623148Y-117625811D01*
X118743902Y-117764263D01*
X118859685Y-117882024D01*
X118966142Y-117974465D01*
X119077262Y-118045016D01*
X119207030Y-118097108D01*
X119369434Y-118134172D01*
X119578461Y-118159637D01*
X119848098Y-118176934D01*
X120192332Y-118189495D01*
X120512304Y-118197979D01*
X120844725Y-118206528D01*
X121142119Y-118214780D01*
X121390800Y-118222306D01*
X121577082Y-118228676D01*
X121687276Y-118233461D01*
X121711788Y-118235609D01*
X121772273Y-118294681D01*
X121815791Y-118354517D01*
X121845133Y-118431758D01*
X121863090Y-118543041D01*
X121872453Y-118705006D01*
X121876013Y-118934293D01*
X121876562Y-119217938D01*
X121873736Y-119498760D01*
X121865923Y-119749331D01*
X121854122Y-119950815D01*
X121839331Y-120084377D01*
X121828400Y-120126202D01*
X121753903Y-120200223D01*
X121626172Y-120275992D01*
X121579349Y-120296574D01*
X121510629Y-120319100D01*
X121421868Y-120337101D01*
X121302112Y-120351056D01*
X121140404Y-120361445D01*
X120925789Y-120368747D01*
X120647312Y-120373442D01*
X120294016Y-120376008D01*
X119854946Y-120376925D01*
X119742355Y-120376954D01*
X118106250Y-120376954D01*
X118106250Y-122017613D01*
X120549511Y-122003436D01*
X121104926Y-122000114D01*
X121569974Y-121996882D01*
X121953510Y-121993331D01*
X122264384Y-121989050D01*
X122511450Y-121983632D01*
X122703558Y-121976667D01*
X122849561Y-121967747D01*
X122958312Y-121956462D01*
X123038662Y-121942403D01*
X123099464Y-121925162D01*
X123149569Y-121904330D01*
X123194595Y-121881230D01*
X123473529Y-121677836D01*
X123716997Y-121389796D01*
X123918723Y-121027290D01*
X124072430Y-120600501D01*
X124129689Y-120364372D01*
X124168016Y-120102546D01*
X124193076Y-119771453D01*
X124204770Y-119400164D01*
X124202995Y-119017753D01*
X124187651Y-118653294D01*
X124158637Y-118335858D01*
X124137234Y-118194141D01*
X124040929Y-117790540D01*
X123909608Y-117430712D01*
X123750443Y-117127795D01*
X123570607Y-116894931D01*
X123377276Y-116745258D01*
X123335457Y-116725553D01*
X123257068Y-116702883D01*
X123136360Y-116685352D01*
X122962588Y-116672446D01*
X122725004Y-116663652D01*
X122412862Y-116658460D01*
X122015416Y-116656356D01*
X121881699Y-116656250D01*
X121462668Y-116655619D01*
X121132549Y-116652210D01*
X120881041Y-116643751D01*
X120697837Y-116627969D01*
X120572635Y-116602592D01*
X120495130Y-116565347D01*
X120455017Y-116513962D01*
X120441994Y-116446164D01*
X120445756Y-116359681D01*
X120447614Y-116339969D01*
X120462695Y-116184961D01*
X122335449Y-116171962D01*
X124208203Y-116158964D01*
X124208203Y-114523047D01*
X118095727Y-114523047D01*
X117933293Y-114523047D01*
X117932617Y-114349414D01*
X121157226Y-114341167D01*
X124381836Y-114332919D01*
X124904918Y-114921359D01*
X124904918Y-114921359D01*
G37*
X124904918Y-114921359D02*
X124891424Y-115850817D01*
X124877929Y-116780274D01*
X124316628Y-116805079D01*
X123755327Y-116829883D01*
X124075032Y-117184586D01*
X124234199Y-117375184D01*
X124381626Y-117576088D01*
X124492777Y-117753060D01*
X124519367Y-117804703D01*
X124662808Y-118191684D01*
X124767091Y-118644161D01*
X124832319Y-119141154D01*
X124858593Y-119661683D01*
X124846015Y-120184768D01*
X124794685Y-120689428D01*
X124704705Y-121154683D01*
X124576177Y-121559553D01*
X124500412Y-121727085D01*
X124367400Y-121934827D01*
X124183696Y-122153777D01*
X123978642Y-122353136D01*
X123781580Y-122502102D01*
X123738135Y-122527255D01*
X123691159Y-122551183D01*
X123641394Y-122571308D01*
X123580171Y-122588016D01*
X123498819Y-122601693D01*
X123388669Y-122612723D01*
X123241052Y-122621493D01*
X123047299Y-122628388D01*
X122798740Y-122633794D01*
X122486705Y-122638096D01*
X122102526Y-122641679D01*
X121637533Y-122644930D01*
X121083057Y-122648235D01*
X121008367Y-122648663D01*
X118478257Y-122663146D01*
X118257120Y-122437823D01*
X118132206Y-122320343D01*
X118027158Y-122238827D01*
X117970870Y-122212500D01*
X117948329Y-122194052D01*
X117932096Y-122131421D01*
X117921611Y-122013684D01*
X117916312Y-121829914D01*
X117915635Y-121569185D01*
X117919019Y-121220573D01*
X117919187Y-121207911D01*
X117932617Y-120203321D01*
X119723402Y-120178516D01*
X120214926Y-120170980D01*
X120615820Y-120163039D01*
X120934675Y-120154268D01*
X121180081Y-120144239D01*
X121360626Y-120132527D01*
X121484902Y-120118706D01*
X121561497Y-120102350D01*
X121596156Y-120085625D01*
X121632291Y-120039365D01*
X121656320Y-119960093D01*
X121670467Y-119830096D01*
X121676952Y-119631667D01*
X121678125Y-119432166D01*
X121678125Y-118846793D01*
X120747949Y-118830526D01*
X120381279Y-118822472D01*
X120094347Y-118808372D01*
X119867677Y-118781648D01*
X119681788Y-118735720D01*
X119517202Y-118664009D01*
X119354442Y-118559938D01*
X119174029Y-118416926D01*
X118956484Y-118228396D01*
X118951087Y-118223647D01*
X118677222Y-117964060D01*
X118455245Y-117706613D01*
X118280225Y-117437303D01*
X118147234Y-117142127D01*
X118051341Y-116807083D01*
X117987617Y-116418167D01*
X117951132Y-115961376D01*
X117936956Y-115422708D01*
X117936478Y-115341602D01*
X117933293Y-114523047D01*
X118095727Y-114523047D01*
X118119268Y-115478028D01*
X118142084Y-116004817D01*
X118184626Y-116446727D01*
X118250448Y-116816769D01*
X118343106Y-117127956D01*
X118466154Y-117393299D01*
X118623148Y-117625811D01*
X118743902Y-117764263D01*
X118859685Y-117882024D01*
X118966142Y-117974465D01*
X119077262Y-118045016D01*
X119207030Y-118097108D01*
X119369434Y-118134172D01*
X119578461Y-118159637D01*
X119848098Y-118176934D01*
X120192332Y-118189495D01*
X120512304Y-118197979D01*
X120844725Y-118206528D01*
X121142119Y-118214780D01*
X121390800Y-118222306D01*
X121577082Y-118228676D01*
X121687276Y-118233461D01*
X121711788Y-118235609D01*
X121772273Y-118294681D01*
X121815791Y-118354517D01*
X121845133Y-118431758D01*
X121863090Y-118543041D01*
X121872453Y-118705006D01*
X121876013Y-118934293D01*
X121876562Y-119217938D01*
X121873736Y-119498760D01*
X121865923Y-119749331D01*
X121854122Y-119950815D01*
X121839331Y-120084377D01*
X121828400Y-120126202D01*
X121753903Y-120200223D01*
X121626172Y-120275992D01*
X121579349Y-120296574D01*
X121510629Y-120319100D01*
X121421868Y-120337101D01*
X121302112Y-120351056D01*
X121140404Y-120361445D01*
X120925789Y-120368747D01*
X120647312Y-120373442D01*
X120294016Y-120376008D01*
X119854946Y-120376925D01*
X119742355Y-120376954D01*
X118106250Y-120376954D01*
X118106250Y-122017613D01*
X120549511Y-122003436D01*
X121104926Y-122000114D01*
X121569974Y-121996882D01*
X121953510Y-121993331D01*
X122264384Y-121989050D01*
X122511450Y-121983632D01*
X122703558Y-121976667D01*
X122849561Y-121967747D01*
X122958312Y-121956462D01*
X123038662Y-121942403D01*
X123099464Y-121925162D01*
X123149569Y-121904330D01*
X123194595Y-121881230D01*
X123473529Y-121677836D01*
X123716997Y-121389796D01*
X123918723Y-121027290D01*
X124072430Y-120600501D01*
X124129689Y-120364372D01*
X124168016Y-120102546D01*
X124193076Y-119771453D01*
X124204770Y-119400164D01*
X124202995Y-119017753D01*
X124187651Y-118653294D01*
X124158637Y-118335858D01*
X124137234Y-118194141D01*
X124040929Y-117790540D01*
X123909608Y-117430712D01*
X123750443Y-117127795D01*
X123570607Y-116894931D01*
X123377276Y-116745258D01*
X123335457Y-116725553D01*
X123257068Y-116702883D01*
X123136360Y-116685352D01*
X122962588Y-116672446D01*
X122725004Y-116663652D01*
X122412862Y-116658460D01*
X122015416Y-116656356D01*
X121881699Y-116656250D01*
X121462668Y-116655619D01*
X121132549Y-116652210D01*
X120881041Y-116643751D01*
X120697837Y-116627969D01*
X120572635Y-116602592D01*
X120495130Y-116565347D01*
X120455017Y-116513962D01*
X120441994Y-116446164D01*
X120445756Y-116359681D01*
X120447614Y-116339969D01*
X120462695Y-116184961D01*
X122335449Y-116171962D01*
X124208203Y-116158964D01*
X124208203Y-114523047D01*
X118095727Y-114523047D01*
X117933293Y-114523047D01*
X117932617Y-114349414D01*
X121157226Y-114341167D01*
X124381836Y-114332919D01*
X124904918Y-114921359D01*
G36*
X113172063Y-114335851D02*
X116076158Y-114349414D01*
X116448691Y-114746289D01*
X116708604Y-115048260D01*
X116899368Y-115335063D01*
X117039174Y-115638600D01*
X117136472Y-115952477D01*
X117185179Y-116169659D01*
X117206378Y-116361917D01*
X117197916Y-116555143D01*
X117157637Y-116775231D01*
X117083389Y-117048071D01*
X117031248Y-117217467D01*
X116952898Y-117473428D01*
X116904360Y-117654776D01*
X116882250Y-117780402D01*
X116883184Y-117869194D01*
X116902406Y-117936803D01*
X116946047Y-118040426D01*
X117016588Y-118207227D01*
X117102122Y-118409068D01*
X117147753Y-118516602D01*
X117337304Y-118963086D01*
X117351432Y-120811036D01*
X117365560Y-122658985D01*
X116061589Y-122657915D01*
X114757617Y-122656844D01*
X114497816Y-122406967D01*
X114238014Y-122157090D01*
X114224964Y-120461206D01*
X114211914Y-118765323D01*
X113979270Y-118715376D01*
X113761041Y-118635292D01*
X113594798Y-118519723D01*
X113442969Y-118374016D01*
X113442969Y-122658985D01*
X112115918Y-122657915D01*
X110788867Y-122656844D01*
X110267969Y-122155854D01*
X110267969Y-114523047D01*
X110466406Y-114523047D01*
X110466406Y-122014063D01*
X112748437Y-122014063D01*
X112748437Y-116060938D01*
X114137500Y-116060938D01*
X114137500Y-116656250D01*
X113393359Y-116656250D01*
X113393359Y-118034271D01*
X113576654Y-118068657D01*
X113771054Y-118124827D01*
X113976526Y-118215024D01*
X114159930Y-118321857D01*
X114288129Y-118427934D01*
X114307679Y-118452312D01*
X114328795Y-118493595D01*
X114345802Y-118557559D01*
X114359125Y-118654223D01*
X114369189Y-118793607D01*
X114376419Y-118985731D01*
X114381240Y-119240613D01*
X114384076Y-119568273D01*
X114385352Y-119978730D01*
X114385547Y-120288773D01*
X114385547Y-122014063D01*
X116720762Y-122014063D01*
X116706573Y-120240528D01*
X116692383Y-118466993D01*
X116502831Y-118020508D01*
X116414191Y-117811521D01*
X116334425Y-117623100D01*
X116275458Y-117483429D01*
X116257231Y-117440037D01*
X116235856Y-117363704D01*
X116237162Y-117270713D01*
X116264921Y-117139487D01*
X116322908Y-116948452D01*
X116365717Y-116819920D01*
X116440109Y-116579891D01*
X116502758Y-116340535D01*
X116544524Y-116138524D01*
X116554906Y-116060938D01*
X116553588Y-115829065D01*
X116516771Y-115565725D01*
X116451717Y-115293434D01*
X116365685Y-115034711D01*
X116265936Y-114812070D01*
X116159731Y-114648029D01*
X116075594Y-114574438D01*
X116000919Y-114561759D01*
X115828438Y-114550827D01*
X115559551Y-114541667D01*
X115195655Y-114534304D01*
X114738150Y-114528763D01*
X114188433Y-114525070D01*
X113547903Y-114523249D01*
X113222988Y-114523047D01*
X110466406Y-114523047D01*
X110267969Y-114523047D01*
X110267969Y-114322287D01*
X113172063Y-114335851D01*
X113172063Y-114335851D01*
G37*
X113172063Y-114335851D02*
X116076158Y-114349414D01*
X116448691Y-114746289D01*
X116708604Y-115048260D01*
X116899368Y-115335063D01*
X117039174Y-115638600D01*
X117136472Y-115952477D01*
X117185179Y-116169659D01*
X117206378Y-116361917D01*
X117197916Y-116555143D01*
X117157637Y-116775231D01*
X117083389Y-117048071D01*
X117031248Y-117217467D01*
X116952898Y-117473428D01*
X116904360Y-117654776D01*
X116882250Y-117780402D01*
X116883184Y-117869194D01*
X116902406Y-117936803D01*
X116946047Y-118040426D01*
X117016588Y-118207227D01*
X117102122Y-118409068D01*
X117147753Y-118516602D01*
X117337304Y-118963086D01*
X117351432Y-120811036D01*
X117365560Y-122658985D01*
X116061589Y-122657915D01*
X114757617Y-122656844D01*
X114497816Y-122406967D01*
X114238014Y-122157090D01*
X114224964Y-120461206D01*
X114211914Y-118765323D01*
X113979270Y-118715376D01*
X113761041Y-118635292D01*
X113594798Y-118519723D01*
X113442969Y-118374016D01*
X113442969Y-122658985D01*
X112115918Y-122657915D01*
X110788867Y-122656844D01*
X110267969Y-122155854D01*
X110267969Y-114523047D01*
X110466406Y-114523047D01*
X110466406Y-122014063D01*
X112748437Y-122014063D01*
X112748437Y-116060938D01*
X114137500Y-116060938D01*
X114137500Y-116656250D01*
X113393359Y-116656250D01*
X113393359Y-118034271D01*
X113576654Y-118068657D01*
X113771054Y-118124827D01*
X113976526Y-118215024D01*
X114159930Y-118321857D01*
X114288129Y-118427934D01*
X114307679Y-118452312D01*
X114328795Y-118493595D01*
X114345802Y-118557559D01*
X114359125Y-118654223D01*
X114369189Y-118793607D01*
X114376419Y-118985731D01*
X114381240Y-119240613D01*
X114384076Y-119568273D01*
X114385352Y-119978730D01*
X114385547Y-120288773D01*
X114385547Y-122014063D01*
X116720762Y-122014063D01*
X116706573Y-120240528D01*
X116692383Y-118466993D01*
X116502831Y-118020508D01*
X116414191Y-117811521D01*
X116334425Y-117623100D01*
X116275458Y-117483429D01*
X116257231Y-117440037D01*
X116235856Y-117363704D01*
X116237162Y-117270713D01*
X116264921Y-117139487D01*
X116322908Y-116948452D01*
X116365717Y-116819920D01*
X116440109Y-116579891D01*
X116502758Y-116340535D01*
X116544524Y-116138524D01*
X116554906Y-116060938D01*
X116553588Y-115829065D01*
X116516771Y-115565725D01*
X116451717Y-115293434D01*
X116365685Y-115034711D01*
X116265936Y-114812070D01*
X116159731Y-114648029D01*
X116075594Y-114574438D01*
X116000919Y-114561759D01*
X115828438Y-114550827D01*
X115559551Y-114541667D01*
X115195655Y-114534304D01*
X114738150Y-114528763D01*
X114188433Y-114525070D01*
X113547903Y-114523249D01*
X113222988Y-114523047D01*
X110466406Y-114523047D01*
X110267969Y-114523047D01*
X110267969Y-114322287D01*
X113172063Y-114335851D01*
G36*
X109448989Y-114609037D02*
X109718648Y-114895118D01*
X109720456Y-118777051D01*
X109722265Y-122658985D01*
X107113627Y-122658985D01*
X106894531Y-122435743D01*
X106770245Y-122318877D01*
X106665969Y-122238066D01*
X106611052Y-122212500D01*
X106599027Y-122196718D01*
X106588649Y-122145569D01*
X106579841Y-122053353D01*
X106572529Y-121914366D01*
X106566637Y-121722908D01*
X106562091Y-121473275D01*
X106558817Y-121159767D01*
X106556738Y-120776681D01*
X106555780Y-120318316D01*
X106555868Y-119778968D01*
X106556927Y-119152937D01*
X106558883Y-118434521D01*
X106559369Y-118280957D01*
X106571509Y-114523047D01*
X106745703Y-114523047D01*
X106745703Y-122014063D01*
X109077344Y-122014063D01*
X109077344Y-114523047D01*
X106745703Y-114523047D01*
X106571509Y-114523047D01*
X106572070Y-114349414D01*
X107875700Y-114336186D01*
X109179330Y-114322957D01*
X109448989Y-114609037D01*
X109448989Y-114609037D01*
G37*
X109448989Y-114609037D02*
X109718648Y-114895118D01*
X109720456Y-118777051D01*
X109722265Y-122658985D01*
X107113627Y-122658985D01*
X106894531Y-122435743D01*
X106770245Y-122318877D01*
X106665969Y-122238066D01*
X106611052Y-122212500D01*
X106599027Y-122196718D01*
X106588649Y-122145569D01*
X106579841Y-122053353D01*
X106572529Y-121914366D01*
X106566637Y-121722908D01*
X106562091Y-121473275D01*
X106558817Y-121159767D01*
X106556738Y-120776681D01*
X106555780Y-120318316D01*
X106555868Y-119778968D01*
X106556927Y-119152937D01*
X106558883Y-118434521D01*
X106559369Y-118280957D01*
X106571509Y-114523047D01*
X106745703Y-114523047D01*
X106745703Y-122014063D01*
X109077344Y-122014063D01*
X109077344Y-114523047D01*
X106745703Y-114523047D01*
X106571509Y-114523047D01*
X106572070Y-114349414D01*
X107875700Y-114336186D01*
X109179330Y-114322957D01*
X109448989Y-114609037D01*
G36*
X100959056Y-114325525D02*
X101283677Y-114328568D01*
X101527695Y-114334184D01*
X101700411Y-114342818D01*
X101811126Y-114354914D01*
X101869140Y-114370917D01*
X101883984Y-114388695D01*
X101917236Y-114454875D01*
X102003791Y-114563020D01*
X102107226Y-114671875D01*
X102330469Y-114890971D01*
X102330469Y-116457813D01*
X102876172Y-116457813D01*
X102876172Y-114324610D01*
X104215625Y-114324610D01*
X104630150Y-114325525D01*
X104954771Y-114328568D01*
X105198789Y-114334184D01*
X105371505Y-114342818D01*
X105482220Y-114354914D01*
X105540234Y-114370917D01*
X105555078Y-114388695D01*
X105588330Y-114454875D01*
X105674884Y-114563020D01*
X105778320Y-114671875D01*
X106001562Y-114890971D01*
X106001562Y-122658985D01*
X104699316Y-122657915D01*
X103397070Y-122656844D01*
X102876172Y-122155854D01*
X102876172Y-118690235D01*
X102766912Y-118690235D01*
X102665883Y-118656998D01*
X102540992Y-118573415D01*
X102494061Y-118531675D01*
X102330469Y-118373115D01*
X102330469Y-122658985D01*
X101028222Y-122657915D01*
X99725976Y-122656844D01*
X99205078Y-122155854D01*
X99205078Y-114523047D01*
X99353906Y-114523047D01*
X99353906Y-122014063D01*
X101685547Y-122014063D01*
X101685547Y-116660597D01*
X102330469Y-116660597D01*
X102330469Y-118033534D01*
X102543263Y-118087116D01*
X102779508Y-118191627D01*
X102947179Y-118366612D01*
X103026184Y-118545538D01*
X103038187Y-118636542D01*
X103049033Y-118814263D01*
X103058390Y-119066201D01*
X103065925Y-119379858D01*
X103071306Y-119742734D01*
X103074198Y-120142332D01*
X103074609Y-120364224D01*
X103074609Y-122014063D01*
X105356640Y-122014063D01*
X105356640Y-114523047D01*
X103076582Y-114523047D01*
X103063193Y-115577246D01*
X103049804Y-116631446D01*
X102690136Y-116646021D01*
X102330469Y-116660597D01*
X101685547Y-116660597D01*
X101685547Y-114523047D01*
X99353906Y-114523047D01*
X99205078Y-114523047D01*
X99205078Y-114324610D01*
X100544531Y-114324610D01*
X100959056Y-114325525D01*
X100959056Y-114325525D01*
G37*
X100959056Y-114325525D02*
X101283677Y-114328568D01*
X101527695Y-114334184D01*
X101700411Y-114342818D01*
X101811126Y-114354914D01*
X101869140Y-114370917D01*
X101883984Y-114388695D01*
X101917236Y-114454875D01*
X102003791Y-114563020D01*
X102107226Y-114671875D01*
X102330469Y-114890971D01*
X102330469Y-116457813D01*
X102876172Y-116457813D01*
X102876172Y-114324610D01*
X104215625Y-114324610D01*
X104630150Y-114325525D01*
X104954771Y-114328568D01*
X105198789Y-114334184D01*
X105371505Y-114342818D01*
X105482220Y-114354914D01*
X105540234Y-114370917D01*
X105555078Y-114388695D01*
X105588330Y-114454875D01*
X105674884Y-114563020D01*
X105778320Y-114671875D01*
X106001562Y-114890971D01*
X106001562Y-122658985D01*
X104699316Y-122657915D01*
X103397070Y-122656844D01*
X102876172Y-122155854D01*
X102876172Y-118690235D01*
X102766912Y-118690235D01*
X102665883Y-118656998D01*
X102540992Y-118573415D01*
X102494061Y-118531675D01*
X102330469Y-118373115D01*
X102330469Y-122658985D01*
X101028222Y-122657915D01*
X99725976Y-122656844D01*
X99205078Y-122155854D01*
X99205078Y-114523047D01*
X99353906Y-114523047D01*
X99353906Y-122014063D01*
X101685547Y-122014063D01*
X101685547Y-116660597D01*
X102330469Y-116660597D01*
X102330469Y-118033534D01*
X102543263Y-118087116D01*
X102779508Y-118191627D01*
X102947179Y-118366612D01*
X103026184Y-118545538D01*
X103038187Y-118636542D01*
X103049033Y-118814263D01*
X103058390Y-119066201D01*
X103065925Y-119379858D01*
X103071306Y-119742734D01*
X103074198Y-120142332D01*
X103074609Y-120364224D01*
X103074609Y-122014063D01*
X105356640Y-122014063D01*
X105356640Y-114523047D01*
X103076582Y-114523047D01*
X103063193Y-115577246D01*
X103049804Y-116631446D01*
X102690136Y-116646021D01*
X102330469Y-116660597D01*
X101685547Y-116660597D01*
X101685547Y-114523047D01*
X99353906Y-114523047D01*
X99205078Y-114523047D01*
X99205078Y-114324610D01*
X100544531Y-114324610D01*
X100959056Y-114325525D01*
G36*
X95067562Y-110356080D02*
X95796835Y-110356784D01*
X96437026Y-110358039D01*
X96993205Y-110359913D01*
X97470440Y-110362471D01*
X97873798Y-110365781D01*
X98208349Y-110369910D01*
X98479161Y-110374924D01*
X98691302Y-110380890D01*
X98849840Y-110387875D01*
X98959845Y-110395946D01*
X99026384Y-110405169D01*
X99054525Y-110415612D01*
X99056250Y-110419305D01*
X99089578Y-110480343D01*
X99178820Y-110590480D01*
X99307864Y-110730574D01*
X99378711Y-110802344D01*
X99701172Y-111121939D01*
X99701172Y-113977344D01*
X96923047Y-113977344D01*
X96923047Y-122658985D01*
X93025605Y-122658985D01*
X92729501Y-122356967D01*
X92579477Y-122211949D01*
X92442004Y-122093008D01*
X92341039Y-122020472D01*
X92321777Y-122010929D01*
X92210156Y-121966909D01*
X92210156Y-113977344D01*
X90198110Y-113977344D01*
X89878515Y-113654883D01*
X89730877Y-113512537D01*
X89604072Y-113402311D01*
X89517239Y-113340316D01*
X89495476Y-113332422D01*
X89476716Y-113312977D01*
X89461812Y-113248807D01*
X89450391Y-113131156D01*
X89445938Y-113034766D01*
X89678314Y-113034766D01*
X92507812Y-113034766D01*
X92507812Y-121716407D01*
X95980469Y-121716407D01*
X95980469Y-113034766D01*
X98758594Y-113034766D01*
X98758594Y-110603385D01*
X94231738Y-110616048D01*
X89704883Y-110628711D01*
X89691598Y-111831739D01*
X89678314Y-113034766D01*
X89445938Y-113034766D01*
X89442079Y-112951270D01*
X89436504Y-112700395D01*
X89433292Y-112369776D01*
X89432070Y-111950659D01*
X89432031Y-111844141D01*
X89432031Y-110355860D01*
X94244140Y-110355860D01*
X95067562Y-110356080D01*
X95067562Y-110356080D01*
G37*
X95067562Y-110356080D02*
X95796835Y-110356784D01*
X96437026Y-110358039D01*
X96993205Y-110359913D01*
X97470440Y-110362471D01*
X97873798Y-110365781D01*
X98208349Y-110369910D01*
X98479161Y-110374924D01*
X98691302Y-110380890D01*
X98849840Y-110387875D01*
X98959845Y-110395946D01*
X99026384Y-110405169D01*
X99054525Y-110415612D01*
X99056250Y-110419305D01*
X99089578Y-110480343D01*
X99178820Y-110590480D01*
X99307864Y-110730574D01*
X99378711Y-110802344D01*
X99701172Y-111121939D01*
X99701172Y-113977344D01*
X96923047Y-113977344D01*
X96923047Y-122658985D01*
X93025605Y-122658985D01*
X92729501Y-122356967D01*
X92579477Y-122211949D01*
X92442004Y-122093008D01*
X92341039Y-122020472D01*
X92321777Y-122010929D01*
X92210156Y-121966909D01*
X92210156Y-113977344D01*
X90198110Y-113977344D01*
X89878515Y-113654883D01*
X89730877Y-113512537D01*
X89604072Y-113402311D01*
X89517239Y-113340316D01*
X89495476Y-113332422D01*
X89476716Y-113312977D01*
X89461812Y-113248807D01*
X89450391Y-113131156D01*
X89445938Y-113034766D01*
X89678314Y-113034766D01*
X92507812Y-113034766D01*
X92507812Y-121716407D01*
X95980469Y-121716407D01*
X95980469Y-113034766D01*
X98758594Y-113034766D01*
X98758594Y-110603385D01*
X94231738Y-110616048D01*
X89704883Y-110628711D01*
X89691598Y-111831739D01*
X89678314Y-113034766D01*
X89445938Y-113034766D01*
X89442079Y-112951270D01*
X89436504Y-112700395D01*
X89433292Y-112369776D01*
X89432070Y-111950659D01*
X89432031Y-111844141D01*
X89432031Y-110355860D01*
X94244140Y-110355860D01*
X95067562Y-110356080D01*
G36*
X142897122Y-114334841D02*
X143456399Y-114338265D01*
X143925337Y-114341632D01*
X144312813Y-114345334D01*
X144627706Y-114349767D01*
X144878895Y-114355324D01*
X145075256Y-114362400D01*
X145225669Y-114371389D01*
X145339011Y-114382685D01*
X145424161Y-114396682D01*
X145489997Y-114413774D01*
X145545397Y-114434355D01*
X145589844Y-114454384D01*
X145772361Y-114554589D01*
X145959174Y-114678416D01*
X146011523Y-114718317D01*
X146193637Y-114879964D01*
X146402970Y-115090726D01*
X146622050Y-115330291D01*
X146833408Y-115578350D01*
X147019574Y-115814593D01*
X147163076Y-116018710D01*
X147230954Y-116135960D01*
X147378624Y-116435921D01*
X147350976Y-121145899D01*
X147202148Y-121443555D01*
X147059579Y-121673470D01*
X146862053Y-121918890D01*
X146634315Y-122154384D01*
X146401113Y-122354523D01*
X146187189Y-122493878D01*
X146173357Y-122500806D01*
X145916972Y-122596911D01*
X145580878Y-122677766D01*
X145183790Y-122740641D01*
X144744426Y-122782807D01*
X144281500Y-122801535D01*
X144107965Y-122801978D01*
X143827116Y-122797113D01*
X143561120Y-122787825D01*
X143335690Y-122775330D01*
X143176537Y-122760842D01*
X143147246Y-122756576D01*
X142829117Y-122689237D01*
X142543662Y-122594807D01*
X142268823Y-122462000D01*
X141982539Y-122279526D01*
X141662753Y-122036097D01*
X141536068Y-121932107D01*
X141200621Y-121639069D01*
X140939328Y-121378275D01*
X140738897Y-121135086D01*
X140586036Y-120894865D01*
X140573970Y-120872539D01*
X140455273Y-120649805D01*
X140441458Y-117485036D01*
X140428512Y-114519426D01*
X140625998Y-114519426D01*
X140639854Y-117584616D01*
X140642513Y-118221966D01*
X140644829Y-118768061D01*
X140647607Y-119230856D01*
X140651657Y-119618308D01*
X140657784Y-119938371D01*
X140666796Y-120199004D01*
X140679500Y-120408161D01*
X140696702Y-120573798D01*
X140719210Y-120703873D01*
X140747830Y-120806341D01*
X140783370Y-120889158D01*
X140826636Y-120960280D01*
X140878437Y-121027663D01*
X140939577Y-121099265D01*
X141004010Y-121174790D01*
X141360243Y-121525570D01*
X141780705Y-121803914D01*
X142256799Y-122004765D01*
X142547556Y-122082165D01*
X142842514Y-122126541D01*
X143207826Y-122152227D01*
X143616451Y-122159453D01*
X144041343Y-122148448D01*
X144455461Y-122119443D01*
X144831761Y-122072668D01*
X144894509Y-122062184D01*
X145188793Y-122004969D01*
X145411169Y-121946438D01*
X145588693Y-121878187D01*
X145731236Y-121802248D01*
X146038322Y-121570047D01*
X146319300Y-121266186D01*
X146549435Y-120918215D01*
X146583702Y-120852721D01*
X146730859Y-120559544D01*
X146730781Y-115986524D01*
X146589300Y-115688868D01*
X146365280Y-115322089D01*
X146067963Y-114993120D01*
X145722778Y-114729901D01*
X145708916Y-114721485D01*
X145420220Y-114547852D01*
X140625998Y-114519426D01*
X140428512Y-114519426D01*
X140427642Y-114320268D01*
X142897122Y-114334841D01*
X142897122Y-114334841D01*
G37*
X142897122Y-114334841D02*
X143456399Y-114338265D01*
X143925337Y-114341632D01*
X144312813Y-114345334D01*
X144627706Y-114349767D01*
X144878895Y-114355324D01*
X145075256Y-114362400D01*
X145225669Y-114371389D01*
X145339011Y-114382685D01*
X145424161Y-114396682D01*
X145489997Y-114413774D01*
X145545397Y-114434355D01*
X145589844Y-114454384D01*
X145772361Y-114554589D01*
X145959174Y-114678416D01*
X146011523Y-114718317D01*
X146193637Y-114879964D01*
X146402970Y-115090726D01*
X146622050Y-115330291D01*
X146833408Y-115578350D01*
X147019574Y-115814593D01*
X147163076Y-116018710D01*
X147230954Y-116135960D01*
X147378624Y-116435921D01*
X147350976Y-121145899D01*
X147202148Y-121443555D01*
X147059579Y-121673470D01*
X146862053Y-121918890D01*
X146634315Y-122154384D01*
X146401113Y-122354523D01*
X146187189Y-122493878D01*
X146173357Y-122500806D01*
X145916972Y-122596911D01*
X145580878Y-122677766D01*
X145183790Y-122740641D01*
X144744426Y-122782807D01*
X144281500Y-122801535D01*
X144107965Y-122801978D01*
X143827116Y-122797113D01*
X143561120Y-122787825D01*
X143335690Y-122775330D01*
X143176537Y-122760842D01*
X143147246Y-122756576D01*
X142829117Y-122689237D01*
X142543662Y-122594807D01*
X142268823Y-122462000D01*
X141982539Y-122279526D01*
X141662753Y-122036097D01*
X141536068Y-121932107D01*
X141200621Y-121639069D01*
X140939328Y-121378275D01*
X140738897Y-121135086D01*
X140586036Y-120894865D01*
X140573970Y-120872539D01*
X140455273Y-120649805D01*
X140441458Y-117485036D01*
X140428512Y-114519426D01*
X140625998Y-114519426D01*
X140639854Y-117584616D01*
X140642513Y-118221966D01*
X140644829Y-118768061D01*
X140647607Y-119230856D01*
X140651657Y-119618308D01*
X140657784Y-119938371D01*
X140666796Y-120199004D01*
X140679500Y-120408161D01*
X140696702Y-120573798D01*
X140719210Y-120703873D01*
X140747830Y-120806341D01*
X140783370Y-120889158D01*
X140826636Y-120960280D01*
X140878437Y-121027663D01*
X140939577Y-121099265D01*
X141004010Y-121174790D01*
X141360243Y-121525570D01*
X141780705Y-121803914D01*
X142256799Y-122004765D01*
X142547556Y-122082165D01*
X142842514Y-122126541D01*
X143207826Y-122152227D01*
X143616451Y-122159453D01*
X144041343Y-122148448D01*
X144455461Y-122119443D01*
X144831761Y-122072668D01*
X144894509Y-122062184D01*
X145188793Y-122004969D01*
X145411169Y-121946438D01*
X145588693Y-121878187D01*
X145731236Y-121802248D01*
X146038322Y-121570047D01*
X146319300Y-121266186D01*
X146549435Y-120918215D01*
X146583702Y-120852721D01*
X146730859Y-120559544D01*
X146730781Y-115986524D01*
X146589300Y-115688868D01*
X146365280Y-115322089D01*
X146067963Y-114993120D01*
X145722778Y-114729901D01*
X145708916Y-114721485D01*
X145420220Y-114547852D01*
X140625998Y-114519426D01*
X140428512Y-114519426D01*
X140427642Y-114320268D01*
X142897122Y-114334841D01*
D12*
X78988095Y-91202380D02*
X78988095Y-92011904D01*
X79035714Y-92107142D01*
X79083333Y-92154761D01*
X79178571Y-92202380D01*
X79369047Y-92202380D01*
X79464285Y-92154761D01*
X79511904Y-92107142D01*
X79559523Y-92011904D01*
X79559523Y-91202380D01*
X80464285Y-91202380D02*
X80273809Y-91202380D01*
X80178571Y-91250000D01*
X80130952Y-91297619D01*
X80035714Y-91440476D01*
X79988095Y-91630952D01*
X79988095Y-92011904D01*
X80035714Y-92107142D01*
X80083333Y-92154761D01*
X80178571Y-92202380D01*
X80369047Y-92202380D01*
X80464285Y-92154761D01*
X80511904Y-92107142D01*
X80559523Y-92011904D01*
X80559523Y-91773809D01*
X80511904Y-91678571D01*
X80464285Y-91630952D01*
X80369047Y-91583333D01*
X80178571Y-91583333D01*
X80083333Y-91630952D01*
X80035714Y-91678571D01*
X79988095Y-91773809D01*
X69333333Y-122507142D02*
X69285714Y-122554761D01*
X69142857Y-122602380D01*
X69047619Y-122602380D01*
X68904761Y-122554761D01*
X68809523Y-122459523D01*
X68761904Y-122364285D01*
X68714285Y-122173809D01*
X68714285Y-122030952D01*
X68761904Y-121840476D01*
X68809523Y-121745238D01*
X68904761Y-121650000D01*
X69047619Y-121602380D01*
X69142857Y-121602380D01*
X69285714Y-121650000D01*
X69333333Y-121697619D01*
X70285714Y-122602380D02*
X69714285Y-122602380D01*
X70000000Y-122602380D02*
X70000000Y-121602380D01*
X69904761Y-121745238D01*
X69809523Y-121840476D01*
X69714285Y-121888095D01*
X69333333Y-125207142D02*
X69285714Y-125254761D01*
X69142857Y-125302380D01*
X69047619Y-125302380D01*
X68904761Y-125254761D01*
X68809523Y-125159523D01*
X68761904Y-125064285D01*
X68714285Y-124873809D01*
X68714285Y-124730952D01*
X68761904Y-124540476D01*
X68809523Y-124445238D01*
X68904761Y-124350000D01*
X69047619Y-124302380D01*
X69142857Y-124302380D01*
X69285714Y-124350000D01*
X69333333Y-124397619D01*
X69714285Y-124397619D02*
X69761904Y-124350000D01*
X69857142Y-124302380D01*
X70095238Y-124302380D01*
X70190476Y-124350000D01*
X70238095Y-124397619D01*
X70285714Y-124492857D01*
X70285714Y-124588095D01*
X70238095Y-124730952D01*
X69666666Y-125302380D01*
X70285714Y-125302380D01*
X139433333Y-92807142D02*
X139385714Y-92854761D01*
X139242857Y-92902380D01*
X139147619Y-92902380D01*
X139004761Y-92854761D01*
X138909523Y-92759523D01*
X138861904Y-92664285D01*
X138814285Y-92473809D01*
X138814285Y-92330952D01*
X138861904Y-92140476D01*
X138909523Y-92045238D01*
X139004761Y-91950000D01*
X139147619Y-91902380D01*
X139242857Y-91902380D01*
X139385714Y-91950000D01*
X139433333Y-91997619D01*
X139766666Y-91902380D02*
X140385714Y-91902380D01*
X140052380Y-92283333D01*
X140195238Y-92283333D01*
X140290476Y-92330952D01*
X140338095Y-92378571D01*
X140385714Y-92473809D01*
X140385714Y-92711904D01*
X140338095Y-92807142D01*
X140290476Y-92854761D01*
X140195238Y-92902380D01*
X139909523Y-92902380D01*
X139814285Y-92854761D01*
X139766666Y-92807142D01*
X139433333Y-94707142D02*
X139385714Y-94754761D01*
X139242857Y-94802380D01*
X139147619Y-94802380D01*
X139004761Y-94754761D01*
X138909523Y-94659523D01*
X138861904Y-94564285D01*
X138814285Y-94373809D01*
X138814285Y-94230952D01*
X138861904Y-94040476D01*
X138909523Y-93945238D01*
X139004761Y-93850000D01*
X139147619Y-93802380D01*
X139242857Y-93802380D01*
X139385714Y-93850000D01*
X139433333Y-93897619D01*
X140290476Y-94135714D02*
X140290476Y-94802380D01*
X140052380Y-93754761D02*
X139814285Y-94469047D01*
X140433333Y-94469047D01*
X141433333Y-106507142D02*
X141385714Y-106554761D01*
X141242857Y-106602380D01*
X141147619Y-106602380D01*
X141004761Y-106554761D01*
X140909523Y-106459523D01*
X140861904Y-106364285D01*
X140814285Y-106173809D01*
X140814285Y-106030952D01*
X140861904Y-105840476D01*
X140909523Y-105745238D01*
X141004761Y-105650000D01*
X141147619Y-105602380D01*
X141242857Y-105602380D01*
X141385714Y-105650000D01*
X141433333Y-105697619D01*
X142338095Y-105602380D02*
X141861904Y-105602380D01*
X141814285Y-106078571D01*
X141861904Y-106030952D01*
X141957142Y-105983333D01*
X142195238Y-105983333D01*
X142290476Y-106030952D01*
X142338095Y-106078571D01*
X142385714Y-106173809D01*
X142385714Y-106411904D01*
X142338095Y-106507142D01*
X142290476Y-106554761D01*
X142195238Y-106602380D01*
X141957142Y-106602380D01*
X141861904Y-106554761D01*
X141814285Y-106507142D01*
X141433333Y-104607142D02*
X141385714Y-104654761D01*
X141242857Y-104702380D01*
X141147619Y-104702380D01*
X141004761Y-104654761D01*
X140909523Y-104559523D01*
X140861904Y-104464285D01*
X140814285Y-104273809D01*
X140814285Y-104130952D01*
X140861904Y-103940476D01*
X140909523Y-103845238D01*
X141004761Y-103750000D01*
X141147619Y-103702380D01*
X141242857Y-103702380D01*
X141385714Y-103750000D01*
X141433333Y-103797619D01*
X142290476Y-103702380D02*
X142100000Y-103702380D01*
X142004761Y-103750000D01*
X141957142Y-103797619D01*
X141861904Y-103940476D01*
X141814285Y-104130952D01*
X141814285Y-104511904D01*
X141861904Y-104607142D01*
X141909523Y-104654761D01*
X142004761Y-104702380D01*
X142195238Y-104702380D01*
X142290476Y-104654761D01*
X142338095Y-104607142D01*
X142385714Y-104511904D01*
X142385714Y-104273809D01*
X142338095Y-104178571D01*
X142290476Y-104130952D01*
X142195238Y-104083333D01*
X142004761Y-104083333D01*
X141909523Y-104130952D01*
X141861904Y-104178571D01*
X141814285Y-104273809D01*
X69833333Y-94107142D02*
X69785714Y-94154761D01*
X69642857Y-94202380D01*
X69547619Y-94202380D01*
X69404761Y-94154761D01*
X69309523Y-94059523D01*
X69261904Y-93964285D01*
X69214285Y-93773809D01*
X69214285Y-93630952D01*
X69261904Y-93440476D01*
X69309523Y-93345238D01*
X69404761Y-93250000D01*
X69547619Y-93202380D01*
X69642857Y-93202380D01*
X69785714Y-93250000D01*
X69833333Y-93297619D01*
X70166666Y-93202380D02*
X70833333Y-93202380D01*
X70404761Y-94202380D01*
X78933333Y-79807142D02*
X78885714Y-79854761D01*
X78742857Y-79902380D01*
X78647619Y-79902380D01*
X78504761Y-79854761D01*
X78409523Y-79759523D01*
X78361904Y-79664285D01*
X78314285Y-79473809D01*
X78314285Y-79330952D01*
X78361904Y-79140476D01*
X78409523Y-79045238D01*
X78504761Y-78950000D01*
X78647619Y-78902380D01*
X78742857Y-78902380D01*
X78885714Y-78950000D01*
X78933333Y-78997619D01*
X79504761Y-79330952D02*
X79409523Y-79283333D01*
X79361904Y-79235714D01*
X79314285Y-79140476D01*
X79314285Y-79092857D01*
X79361904Y-78997619D01*
X79409523Y-78950000D01*
X79504761Y-78902380D01*
X79695238Y-78902380D01*
X79790476Y-78950000D01*
X79838095Y-78997619D01*
X79885714Y-79092857D01*
X79885714Y-79140476D01*
X79838095Y-79235714D01*
X79790476Y-79283333D01*
X79695238Y-79330952D01*
X79504761Y-79330952D01*
X79409523Y-79378571D01*
X79361904Y-79426190D01*
X79314285Y-79521428D01*
X79314285Y-79711904D01*
X79361904Y-79807142D01*
X79409523Y-79854761D01*
X79504761Y-79902380D01*
X79695238Y-79902380D01*
X79790476Y-79854761D01*
X79838095Y-79807142D01*
X79885714Y-79711904D01*
X79885714Y-79521428D01*
X79838095Y-79426190D01*
X79790476Y-79378571D01*
X79695238Y-79330952D01*
X63033333Y-79707142D02*
X62985714Y-79754761D01*
X62842857Y-79802380D01*
X62747619Y-79802380D01*
X62604761Y-79754761D01*
X62509523Y-79659523D01*
X62461904Y-79564285D01*
X62414285Y-79373809D01*
X62414285Y-79230952D01*
X62461904Y-79040476D01*
X62509523Y-78945238D01*
X62604761Y-78850000D01*
X62747619Y-78802380D01*
X62842857Y-78802380D01*
X62985714Y-78850000D01*
X63033333Y-78897619D01*
X63509523Y-79802380D02*
X63700000Y-79802380D01*
X63795238Y-79754761D01*
X63842857Y-79707142D01*
X63938095Y-79564285D01*
X63985714Y-79373809D01*
X63985714Y-78992857D01*
X63938095Y-78897619D01*
X63890476Y-78850000D01*
X63795238Y-78802380D01*
X63604761Y-78802380D01*
X63509523Y-78850000D01*
X63461904Y-78897619D01*
X63414285Y-78992857D01*
X63414285Y-79230952D01*
X63461904Y-79326190D01*
X63509523Y-79373809D01*
X63604761Y-79421428D01*
X63795238Y-79421428D01*
X63890476Y-79373809D01*
X63938095Y-79326190D01*
X63985714Y-79230952D01*
X78457142Y-84757142D02*
X78409523Y-84804761D01*
X78266666Y-84852380D01*
X78171428Y-84852380D01*
X78028571Y-84804761D01*
X77933333Y-84709523D01*
X77885714Y-84614285D01*
X77838095Y-84423809D01*
X77838095Y-84280952D01*
X77885714Y-84090476D01*
X77933333Y-83995238D01*
X78028571Y-83900000D01*
X78171428Y-83852380D01*
X78266666Y-83852380D01*
X78409523Y-83900000D01*
X78457142Y-83947619D01*
X79409523Y-84852380D02*
X78838095Y-84852380D01*
X79123809Y-84852380D02*
X79123809Y-83852380D01*
X79028571Y-83995238D01*
X78933333Y-84090476D01*
X78838095Y-84138095D01*
X80028571Y-83852380D02*
X80123809Y-83852380D01*
X80219047Y-83900000D01*
X80266666Y-83947619D01*
X80314285Y-84042857D01*
X80361904Y-84233333D01*
X80361904Y-84471428D01*
X80314285Y-84661904D01*
X80266666Y-84757142D01*
X80219047Y-84804761D01*
X80123809Y-84852380D01*
X80028571Y-84852380D01*
X79933333Y-84804761D01*
X79885714Y-84757142D01*
X79838095Y-84661904D01*
X79790476Y-84471428D01*
X79790476Y-84233333D01*
X79838095Y-84042857D01*
X79885714Y-83947619D01*
X79933333Y-83900000D01*
X80028571Y-83852380D01*
X87057142Y-105207142D02*
X87009523Y-105254761D01*
X86866666Y-105302380D01*
X86771428Y-105302380D01*
X86628571Y-105254761D01*
X86533333Y-105159523D01*
X86485714Y-105064285D01*
X86438095Y-104873809D01*
X86438095Y-104730952D01*
X86485714Y-104540476D01*
X86533333Y-104445238D01*
X86628571Y-104350000D01*
X86771428Y-104302380D01*
X86866666Y-104302380D01*
X87009523Y-104350000D01*
X87057142Y-104397619D01*
X88009523Y-105302380D02*
X87438095Y-105302380D01*
X87723809Y-105302380D02*
X87723809Y-104302380D01*
X87628571Y-104445238D01*
X87533333Y-104540476D01*
X87438095Y-104588095D01*
X88961904Y-105302380D02*
X88390476Y-105302380D01*
X88676190Y-105302380D02*
X88676190Y-104302380D01*
X88580952Y-104445238D01*
X88485714Y-104540476D01*
X88390476Y-104588095D01*
X124657142Y-70307142D02*
X124609523Y-70354761D01*
X124466666Y-70402380D01*
X124371428Y-70402380D01*
X124228571Y-70354761D01*
X124133333Y-70259523D01*
X124085714Y-70164285D01*
X124038095Y-69973809D01*
X124038095Y-69830952D01*
X124085714Y-69640476D01*
X124133333Y-69545238D01*
X124228571Y-69450000D01*
X124371428Y-69402380D01*
X124466666Y-69402380D01*
X124609523Y-69450000D01*
X124657142Y-69497619D01*
X125609523Y-70402380D02*
X125038095Y-70402380D01*
X125323809Y-70402380D02*
X125323809Y-69402380D01*
X125228571Y-69545238D01*
X125133333Y-69640476D01*
X125038095Y-69688095D01*
X125990476Y-69497619D02*
X126038095Y-69450000D01*
X126133333Y-69402380D01*
X126371428Y-69402380D01*
X126466666Y-69450000D01*
X126514285Y-69497619D01*
X126561904Y-69592857D01*
X126561904Y-69688095D01*
X126514285Y-69830952D01*
X125942857Y-70402380D01*
X126561904Y-70402380D01*
X108057142Y-70407142D02*
X108009523Y-70454761D01*
X107866666Y-70502380D01*
X107771428Y-70502380D01*
X107628571Y-70454761D01*
X107533333Y-70359523D01*
X107485714Y-70264285D01*
X107438095Y-70073809D01*
X107438095Y-69930952D01*
X107485714Y-69740476D01*
X107533333Y-69645238D01*
X107628571Y-69550000D01*
X107771428Y-69502380D01*
X107866666Y-69502380D01*
X108009523Y-69550000D01*
X108057142Y-69597619D01*
X109009523Y-70502380D02*
X108438095Y-70502380D01*
X108723809Y-70502380D02*
X108723809Y-69502380D01*
X108628571Y-69645238D01*
X108533333Y-69740476D01*
X108438095Y-69788095D01*
X109342857Y-69502380D02*
X109961904Y-69502380D01*
X109628571Y-69883333D01*
X109771428Y-69883333D01*
X109866666Y-69930952D01*
X109914285Y-69978571D01*
X109961904Y-70073809D01*
X109961904Y-70311904D01*
X109914285Y-70407142D01*
X109866666Y-70454761D01*
X109771428Y-70502380D01*
X109485714Y-70502380D01*
X109390476Y-70454761D01*
X109342857Y-70407142D01*
X75257142Y-70307142D02*
X75209523Y-70354761D01*
X75066666Y-70402380D01*
X74971428Y-70402380D01*
X74828571Y-70354761D01*
X74733333Y-70259523D01*
X74685714Y-70164285D01*
X74638095Y-69973809D01*
X74638095Y-69830952D01*
X74685714Y-69640476D01*
X74733333Y-69545238D01*
X74828571Y-69450000D01*
X74971428Y-69402380D01*
X75066666Y-69402380D01*
X75209523Y-69450000D01*
X75257142Y-69497619D01*
X76209523Y-70402380D02*
X75638095Y-70402380D01*
X75923809Y-70402380D02*
X75923809Y-69402380D01*
X75828571Y-69545238D01*
X75733333Y-69640476D01*
X75638095Y-69688095D01*
X77066666Y-69735714D02*
X77066666Y-70402380D01*
X76828571Y-69354761D02*
X76590476Y-70069047D01*
X77209523Y-70069047D01*
X91657142Y-70207142D02*
X91609523Y-70254761D01*
X91466666Y-70302380D01*
X91371428Y-70302380D01*
X91228571Y-70254761D01*
X91133333Y-70159523D01*
X91085714Y-70064285D01*
X91038095Y-69873809D01*
X91038095Y-69730952D01*
X91085714Y-69540476D01*
X91133333Y-69445238D01*
X91228571Y-69350000D01*
X91371428Y-69302380D01*
X91466666Y-69302380D01*
X91609523Y-69350000D01*
X91657142Y-69397619D01*
X92609523Y-70302380D02*
X92038095Y-70302380D01*
X92323809Y-70302380D02*
X92323809Y-69302380D01*
X92228571Y-69445238D01*
X92133333Y-69540476D01*
X92038095Y-69588095D01*
X93514285Y-69302380D02*
X93038095Y-69302380D01*
X92990476Y-69778571D01*
X93038095Y-69730952D01*
X93133333Y-69683333D01*
X93371428Y-69683333D01*
X93466666Y-69730952D01*
X93514285Y-69778571D01*
X93561904Y-69873809D01*
X93561904Y-70111904D01*
X93514285Y-70207142D01*
X93466666Y-70254761D01*
X93371428Y-70302380D01*
X93133333Y-70302380D01*
X93038095Y-70254761D01*
X92990476Y-70207142D01*
X114157142Y-70307142D02*
X114109523Y-70354761D01*
X113966666Y-70402380D01*
X113871428Y-70402380D01*
X113728571Y-70354761D01*
X113633333Y-70259523D01*
X113585714Y-70164285D01*
X113538095Y-69973809D01*
X113538095Y-69830952D01*
X113585714Y-69640476D01*
X113633333Y-69545238D01*
X113728571Y-69450000D01*
X113871428Y-69402380D01*
X113966666Y-69402380D01*
X114109523Y-69450000D01*
X114157142Y-69497619D01*
X115109523Y-70402380D02*
X114538095Y-70402380D01*
X114823809Y-70402380D02*
X114823809Y-69402380D01*
X114728571Y-69545238D01*
X114633333Y-69640476D01*
X114538095Y-69688095D01*
X115966666Y-69402380D02*
X115776190Y-69402380D01*
X115680952Y-69450000D01*
X115633333Y-69497619D01*
X115538095Y-69640476D01*
X115490476Y-69830952D01*
X115490476Y-70211904D01*
X115538095Y-70307142D01*
X115585714Y-70354761D01*
X115680952Y-70402380D01*
X115871428Y-70402380D01*
X115966666Y-70354761D01*
X116014285Y-70307142D01*
X116061904Y-70211904D01*
X116061904Y-69973809D01*
X116014285Y-69878571D01*
X115966666Y-69830952D01*
X115871428Y-69783333D01*
X115680952Y-69783333D01*
X115585714Y-69830952D01*
X115538095Y-69878571D01*
X115490476Y-69973809D01*
X97657142Y-70307142D02*
X97609523Y-70354761D01*
X97466666Y-70402380D01*
X97371428Y-70402380D01*
X97228571Y-70354761D01*
X97133333Y-70259523D01*
X97085714Y-70164285D01*
X97038095Y-69973809D01*
X97038095Y-69830952D01*
X97085714Y-69640476D01*
X97133333Y-69545238D01*
X97228571Y-69450000D01*
X97371428Y-69402380D01*
X97466666Y-69402380D01*
X97609523Y-69450000D01*
X97657142Y-69497619D01*
X98609523Y-70402380D02*
X98038095Y-70402380D01*
X98323809Y-70402380D02*
X98323809Y-69402380D01*
X98228571Y-69545238D01*
X98133333Y-69640476D01*
X98038095Y-69688095D01*
X98942857Y-69402380D02*
X99609523Y-69402380D01*
X99180952Y-70402380D01*
X64557142Y-70307142D02*
X64509523Y-70354761D01*
X64366666Y-70402380D01*
X64271428Y-70402380D01*
X64128571Y-70354761D01*
X64033333Y-70259523D01*
X63985714Y-70164285D01*
X63938095Y-69973809D01*
X63938095Y-69830952D01*
X63985714Y-69640476D01*
X64033333Y-69545238D01*
X64128571Y-69450000D01*
X64271428Y-69402380D01*
X64366666Y-69402380D01*
X64509523Y-69450000D01*
X64557142Y-69497619D01*
X65509523Y-70402380D02*
X64938095Y-70402380D01*
X65223809Y-70402380D02*
X65223809Y-69402380D01*
X65128571Y-69545238D01*
X65033333Y-69640476D01*
X64938095Y-69688095D01*
X66080952Y-69830952D02*
X65985714Y-69783333D01*
X65938095Y-69735714D01*
X65890476Y-69640476D01*
X65890476Y-69592857D01*
X65938095Y-69497619D01*
X65985714Y-69450000D01*
X66080952Y-69402380D01*
X66271428Y-69402380D01*
X66366666Y-69450000D01*
X66414285Y-69497619D01*
X66461904Y-69592857D01*
X66461904Y-69640476D01*
X66414285Y-69735714D01*
X66366666Y-69783333D01*
X66271428Y-69830952D01*
X66080952Y-69830952D01*
X65985714Y-69878571D01*
X65938095Y-69926190D01*
X65890476Y-70021428D01*
X65890476Y-70211904D01*
X65938095Y-70307142D01*
X65985714Y-70354761D01*
X66080952Y-70402380D01*
X66271428Y-70402380D01*
X66366666Y-70354761D01*
X66414285Y-70307142D01*
X66461904Y-70211904D01*
X66461904Y-70021428D01*
X66414285Y-69926190D01*
X66366666Y-69878571D01*
X66271428Y-69830952D01*
X81357142Y-70307142D02*
X81309523Y-70354761D01*
X81166666Y-70402380D01*
X81071428Y-70402380D01*
X80928571Y-70354761D01*
X80833333Y-70259523D01*
X80785714Y-70164285D01*
X80738095Y-69973809D01*
X80738095Y-69830952D01*
X80785714Y-69640476D01*
X80833333Y-69545238D01*
X80928571Y-69450000D01*
X81071428Y-69402380D01*
X81166666Y-69402380D01*
X81309523Y-69450000D01*
X81357142Y-69497619D01*
X82309523Y-70402380D02*
X81738095Y-70402380D01*
X82023809Y-70402380D02*
X82023809Y-69402380D01*
X81928571Y-69545238D01*
X81833333Y-69640476D01*
X81738095Y-69688095D01*
X82785714Y-70402380D02*
X82976190Y-70402380D01*
X83071428Y-70354761D01*
X83119047Y-70307142D01*
X83214285Y-70164285D01*
X83261904Y-69973809D01*
X83261904Y-69592857D01*
X83214285Y-69497619D01*
X83166666Y-69450000D01*
X83071428Y-69402380D01*
X82880952Y-69402380D01*
X82785714Y-69450000D01*
X82738095Y-69497619D01*
X82690476Y-69592857D01*
X82690476Y-69830952D01*
X82738095Y-69926190D01*
X82785714Y-69973809D01*
X82880952Y-70021428D01*
X83071428Y-70021428D01*
X83166666Y-69973809D01*
X83214285Y-69926190D01*
X83261904Y-69830952D01*
X111857142Y-104707142D02*
X111809523Y-104754761D01*
X111666666Y-104802380D01*
X111571428Y-104802380D01*
X111428571Y-104754761D01*
X111333333Y-104659523D01*
X111285714Y-104564285D01*
X111238095Y-104373809D01*
X111238095Y-104230952D01*
X111285714Y-104040476D01*
X111333333Y-103945238D01*
X111428571Y-103850000D01*
X111571428Y-103802380D01*
X111666666Y-103802380D01*
X111809523Y-103850000D01*
X111857142Y-103897619D01*
X112238095Y-103897619D02*
X112285714Y-103850000D01*
X112380952Y-103802380D01*
X112619047Y-103802380D01*
X112714285Y-103850000D01*
X112761904Y-103897619D01*
X112809523Y-103992857D01*
X112809523Y-104088095D01*
X112761904Y-104230952D01*
X112190476Y-104802380D01*
X112809523Y-104802380D01*
X113428571Y-103802380D02*
X113523809Y-103802380D01*
X113619047Y-103850000D01*
X113666666Y-103897619D01*
X113714285Y-103992857D01*
X113761904Y-104183333D01*
X113761904Y-104421428D01*
X113714285Y-104611904D01*
X113666666Y-104707142D01*
X113619047Y-104754761D01*
X113523809Y-104802380D01*
X113428571Y-104802380D01*
X113333333Y-104754761D01*
X113285714Y-104707142D01*
X113238095Y-104611904D01*
X113190476Y-104421428D01*
X113190476Y-104183333D01*
X113238095Y-103992857D01*
X113285714Y-103897619D01*
X113333333Y-103850000D01*
X113428571Y-103802380D01*
X53157142Y-136957142D02*
X53109523Y-137004761D01*
X52966666Y-137052380D01*
X52871428Y-137052380D01*
X52728571Y-137004761D01*
X52633333Y-136909523D01*
X52585714Y-136814285D01*
X52538095Y-136623809D01*
X52538095Y-136480952D01*
X52585714Y-136290476D01*
X52633333Y-136195238D01*
X52728571Y-136100000D01*
X52871428Y-136052380D01*
X52966666Y-136052380D01*
X53109523Y-136100000D01*
X53157142Y-136147619D01*
X53538095Y-136147619D02*
X53585714Y-136100000D01*
X53680952Y-136052380D01*
X53919047Y-136052380D01*
X54014285Y-136100000D01*
X54061904Y-136147619D01*
X54109523Y-136242857D01*
X54109523Y-136338095D01*
X54061904Y-136480952D01*
X53490476Y-137052380D01*
X54109523Y-137052380D01*
X55061904Y-137052380D02*
X54490476Y-137052380D01*
X54776190Y-137052380D02*
X54776190Y-136052380D01*
X54680952Y-136195238D01*
X54585714Y-136290476D01*
X54490476Y-136338095D01*
X83192893Y-114147969D02*
X83125549Y-114147969D01*
X82990862Y-114080625D01*
X82923519Y-114013282D01*
X82856175Y-113878595D01*
X82856175Y-113743908D01*
X82889847Y-113642893D01*
X82990862Y-113474534D01*
X83091877Y-113373519D01*
X83260236Y-113272503D01*
X83361251Y-113238832D01*
X83495938Y-113238832D01*
X83630625Y-113306175D01*
X83697969Y-113373519D01*
X83765312Y-113508206D01*
X83765312Y-113575549D01*
X84034687Y-113844923D02*
X84102030Y-113844923D01*
X84203045Y-113878595D01*
X84371404Y-114046954D01*
X84405076Y-114147969D01*
X84405076Y-114215312D01*
X84371404Y-114316328D01*
X84304061Y-114383671D01*
X84169374Y-114451015D01*
X83361251Y-114451015D01*
X83798984Y-114888748D01*
X84708122Y-114518358D02*
X84775465Y-114518358D01*
X84876480Y-114552030D01*
X85044839Y-114720389D01*
X85078511Y-114821404D01*
X85078511Y-114888748D01*
X85044839Y-114989763D01*
X84977496Y-115057106D01*
X84842809Y-115124450D01*
X84034687Y-115124450D01*
X84472419Y-115562183D01*
X72557142Y-129907142D02*
X72509523Y-129954761D01*
X72366666Y-130002380D01*
X72271428Y-130002380D01*
X72128571Y-129954761D01*
X72033333Y-129859523D01*
X71985714Y-129764285D01*
X71938095Y-129573809D01*
X71938095Y-129430952D01*
X71985714Y-129240476D01*
X72033333Y-129145238D01*
X72128571Y-129050000D01*
X72271428Y-129002380D01*
X72366666Y-129002380D01*
X72509523Y-129050000D01*
X72557142Y-129097619D01*
X72938095Y-129097619D02*
X72985714Y-129050000D01*
X73080952Y-129002380D01*
X73319047Y-129002380D01*
X73414285Y-129050000D01*
X73461904Y-129097619D01*
X73509523Y-129192857D01*
X73509523Y-129288095D01*
X73461904Y-129430952D01*
X72890476Y-130002380D01*
X73509523Y-130002380D01*
X73842857Y-129002380D02*
X74461904Y-129002380D01*
X74128571Y-129383333D01*
X74271428Y-129383333D01*
X74366666Y-129430952D01*
X74414285Y-129478571D01*
X74461904Y-129573809D01*
X74461904Y-129811904D01*
X74414285Y-129907142D01*
X74366666Y-129954761D01*
X74271428Y-130002380D01*
X73985714Y-130002380D01*
X73890476Y-129954761D01*
X73842857Y-129907142D01*
X90757142Y-135007142D02*
X90709523Y-135054761D01*
X90566666Y-135102380D01*
X90471428Y-135102380D01*
X90328571Y-135054761D01*
X90233333Y-134959523D01*
X90185714Y-134864285D01*
X90138095Y-134673809D01*
X90138095Y-134530952D01*
X90185714Y-134340476D01*
X90233333Y-134245238D01*
X90328571Y-134150000D01*
X90471428Y-134102380D01*
X90566666Y-134102380D01*
X90709523Y-134150000D01*
X90757142Y-134197619D01*
X91138095Y-134197619D02*
X91185714Y-134150000D01*
X91280952Y-134102380D01*
X91519047Y-134102380D01*
X91614285Y-134150000D01*
X91661904Y-134197619D01*
X91709523Y-134292857D01*
X91709523Y-134388095D01*
X91661904Y-134530952D01*
X91090476Y-135102380D01*
X91709523Y-135102380D01*
X92566666Y-134435714D02*
X92566666Y-135102380D01*
X92328571Y-134054761D02*
X92090476Y-134769047D01*
X92709523Y-134769047D01*
X81692893Y-115747969D02*
X81625549Y-115747969D01*
X81490862Y-115680625D01*
X81423519Y-115613282D01*
X81356175Y-115478595D01*
X81356175Y-115343908D01*
X81389847Y-115242893D01*
X81490862Y-115074534D01*
X81591877Y-114973519D01*
X81760236Y-114872503D01*
X81861251Y-114838832D01*
X81995938Y-114838832D01*
X82130625Y-114906175D01*
X82197969Y-114973519D01*
X82265312Y-115108206D01*
X82265312Y-115175549D01*
X82534687Y-115444923D02*
X82602030Y-115444923D01*
X82703045Y-115478595D01*
X82871404Y-115646954D01*
X82905076Y-115747969D01*
X82905076Y-115815312D01*
X82871404Y-115916328D01*
X82804061Y-115983671D01*
X82669374Y-116051015D01*
X81861251Y-116051015D01*
X82298984Y-116488748D01*
X83645854Y-116421404D02*
X83309137Y-116084687D01*
X82938748Y-116387732D01*
X83006091Y-116387732D01*
X83107106Y-116421404D01*
X83275465Y-116589763D01*
X83309137Y-116690778D01*
X83309137Y-116758122D01*
X83275465Y-116859137D01*
X83107106Y-117027496D01*
X83006091Y-117061167D01*
X82938748Y-117061167D01*
X82837732Y-117027496D01*
X82669374Y-116859137D01*
X82635702Y-116758122D01*
X82635702Y-116690778D01*
X72557142Y-128507142D02*
X72509523Y-128554761D01*
X72366666Y-128602380D01*
X72271428Y-128602380D01*
X72128571Y-128554761D01*
X72033333Y-128459523D01*
X71985714Y-128364285D01*
X71938095Y-128173809D01*
X71938095Y-128030952D01*
X71985714Y-127840476D01*
X72033333Y-127745238D01*
X72128571Y-127650000D01*
X72271428Y-127602380D01*
X72366666Y-127602380D01*
X72509523Y-127650000D01*
X72557142Y-127697619D01*
X72938095Y-127697619D02*
X72985714Y-127650000D01*
X73080952Y-127602380D01*
X73319047Y-127602380D01*
X73414285Y-127650000D01*
X73461904Y-127697619D01*
X73509523Y-127792857D01*
X73509523Y-127888095D01*
X73461904Y-128030952D01*
X72890476Y-128602380D01*
X73509523Y-128602380D01*
X74366666Y-127602380D02*
X74176190Y-127602380D01*
X74080952Y-127650000D01*
X74033333Y-127697619D01*
X73938095Y-127840476D01*
X73890476Y-128030952D01*
X73890476Y-128411904D01*
X73938095Y-128507142D01*
X73985714Y-128554761D01*
X74080952Y-128602380D01*
X74271428Y-128602380D01*
X74366666Y-128554761D01*
X74414285Y-128507142D01*
X74461904Y-128411904D01*
X74461904Y-128173809D01*
X74414285Y-128078571D01*
X74366666Y-128030952D01*
X74271428Y-127983333D01*
X74080952Y-127983333D01*
X73985714Y-128030952D01*
X73938095Y-128078571D01*
X73890476Y-128173809D01*
X78192893Y-115547969D02*
X78125549Y-115547969D01*
X77990862Y-115480625D01*
X77923519Y-115413282D01*
X77856175Y-115278595D01*
X77856175Y-115143908D01*
X77889847Y-115042893D01*
X77990862Y-114874534D01*
X78091877Y-114773519D01*
X78260236Y-114672503D01*
X78361251Y-114638832D01*
X78495938Y-114638832D01*
X78630625Y-114706175D01*
X78697969Y-114773519D01*
X78765312Y-114908206D01*
X78765312Y-114975549D01*
X79034687Y-115244923D02*
X79102030Y-115244923D01*
X79203045Y-115278595D01*
X79371404Y-115446954D01*
X79405076Y-115547969D01*
X79405076Y-115615312D01*
X79371404Y-115716328D01*
X79304061Y-115783671D01*
X79169374Y-115851015D01*
X78361251Y-115851015D01*
X78798984Y-116288748D01*
X79741793Y-115817343D02*
X80213198Y-116288748D01*
X79203045Y-116692809D01*
X113961904Y-99102380D02*
X113961904Y-98102380D01*
X114200000Y-98102380D01*
X114342857Y-98150000D01*
X114438095Y-98245238D01*
X114485714Y-98340476D01*
X114533333Y-98530952D01*
X114533333Y-98673809D01*
X114485714Y-98864285D01*
X114438095Y-98959523D01*
X114342857Y-99054761D01*
X114200000Y-99102380D01*
X113961904Y-99102380D01*
X115485714Y-99102380D02*
X114914285Y-99102380D01*
X115200000Y-99102380D02*
X115200000Y-98102380D01*
X115104761Y-98245238D01*
X115009523Y-98340476D01*
X114914285Y-98388095D01*
X136661904Y-82478571D02*
X136328571Y-82478571D01*
X136328571Y-83002380D02*
X136328571Y-82002380D01*
X136804761Y-82002380D01*
X137661904Y-83002380D02*
X137185714Y-83002380D01*
X137185714Y-82002380D01*
X138519047Y-83002380D02*
X137947619Y-83002380D01*
X138233333Y-83002380D02*
X138233333Y-82002380D01*
X138138095Y-82145238D01*
X138042857Y-82240476D01*
X137947619Y-82288095D01*
D18*
X91923809Y-132502380D02*
X91923809Y-131502380D01*
X92971428Y-132407142D02*
X92923809Y-132454761D01*
X92780952Y-132502380D01*
X92685714Y-132502380D01*
X92542857Y-132454761D01*
X92447619Y-132359523D01*
X92400000Y-132264285D01*
X92352380Y-132073809D01*
X92352380Y-131930952D01*
X92400000Y-131740476D01*
X92447619Y-131645238D01*
X92542857Y-131550000D01*
X92685714Y-131502380D01*
X92780952Y-131502380D01*
X92923809Y-131550000D01*
X92971428Y-131597619D01*
X93923809Y-132502380D02*
X93352380Y-132502380D01*
X93638095Y-132502380D02*
X93638095Y-131502380D01*
X93542857Y-131645238D01*
X93447619Y-131740476D01*
X93352380Y-131788095D01*
D12*
X144366666Y-59702380D02*
X144366666Y-60416666D01*
X144319047Y-60559523D01*
X144223809Y-60654761D01*
X144080952Y-60702380D01*
X143985714Y-60702380D01*
X145366666Y-60702380D02*
X144795238Y-60702380D01*
X145080952Y-60702380D02*
X145080952Y-59702380D01*
X144985714Y-59845238D01*
X144890476Y-59940476D01*
X144795238Y-59988095D01*
X58666666Y-57002380D02*
X58666666Y-57716666D01*
X58619047Y-57859523D01*
X58523809Y-57954761D01*
X58380952Y-58002380D01*
X58285714Y-58002380D01*
X59047619Y-57002380D02*
X59666666Y-57002380D01*
X59333333Y-57383333D01*
X59476190Y-57383333D01*
X59571428Y-57430952D01*
X59619047Y-57478571D01*
X59666666Y-57573809D01*
X59666666Y-57811904D01*
X59619047Y-57907142D01*
X59571428Y-57954761D01*
X59476190Y-58002380D01*
X59190476Y-58002380D01*
X59095238Y-57954761D01*
X59047619Y-57907142D01*
X68866666Y-106202380D02*
X68866666Y-106916666D01*
X68819047Y-107059523D01*
X68723809Y-107154761D01*
X68580952Y-107202380D01*
X68485714Y-107202380D01*
X69771428Y-106535714D02*
X69771428Y-107202380D01*
X69533333Y-106154761D02*
X69295238Y-106869047D01*
X69914285Y-106869047D01*
X95366666Y-139902380D02*
X95366666Y-140616666D01*
X95319047Y-140759523D01*
X95223809Y-140854761D01*
X95080952Y-140902380D01*
X94985714Y-140902380D01*
X96319047Y-139902380D02*
X95842857Y-139902380D01*
X95795238Y-140378571D01*
X95842857Y-140330952D01*
X95938095Y-140283333D01*
X96176190Y-140283333D01*
X96271428Y-140330952D01*
X96319047Y-140378571D01*
X96366666Y-140473809D01*
X96366666Y-140711904D01*
X96319047Y-140807142D01*
X96271428Y-140854761D01*
X96176190Y-140902380D01*
X95938095Y-140902380D01*
X95842857Y-140854761D01*
X95795238Y-140807142D01*
X127466666Y-64902380D02*
X127466666Y-65616666D01*
X127419047Y-65759523D01*
X127323809Y-65854761D01*
X127180952Y-65902380D01*
X127085714Y-65902380D01*
X128371428Y-64902380D02*
X128180952Y-64902380D01*
X128085714Y-64950000D01*
X128038095Y-64997619D01*
X127942857Y-65140476D01*
X127895238Y-65330952D01*
X127895238Y-65711904D01*
X127942857Y-65807142D01*
X127990476Y-65854761D01*
X128085714Y-65902380D01*
X128276190Y-65902380D01*
X128371428Y-65854761D01*
X128419047Y-65807142D01*
X128466666Y-65711904D01*
X128466666Y-65473809D01*
X128419047Y-65378571D01*
X128371428Y-65330952D01*
X128276190Y-65283333D01*
X128085714Y-65283333D01*
X127990476Y-65330952D01*
X127942857Y-65378571D01*
X127895238Y-65473809D01*
X110766666Y-64802380D02*
X110766666Y-65516666D01*
X110719047Y-65659523D01*
X110623809Y-65754761D01*
X110480952Y-65802380D01*
X110385714Y-65802380D01*
X111147619Y-64802380D02*
X111814285Y-64802380D01*
X111385714Y-65802380D01*
X77366666Y-64802380D02*
X77366666Y-65516666D01*
X77319047Y-65659523D01*
X77223809Y-65754761D01*
X77080952Y-65802380D01*
X76985714Y-65802380D01*
X77985714Y-65230952D02*
X77890476Y-65183333D01*
X77842857Y-65135714D01*
X77795238Y-65040476D01*
X77795238Y-64992857D01*
X77842857Y-64897619D01*
X77890476Y-64850000D01*
X77985714Y-64802380D01*
X78176190Y-64802380D01*
X78271428Y-64850000D01*
X78319047Y-64897619D01*
X78366666Y-64992857D01*
X78366666Y-65040476D01*
X78319047Y-65135714D01*
X78271428Y-65183333D01*
X78176190Y-65230952D01*
X77985714Y-65230952D01*
X77890476Y-65278571D01*
X77842857Y-65326190D01*
X77795238Y-65421428D01*
X77795238Y-65611904D01*
X77842857Y-65707142D01*
X77890476Y-65754761D01*
X77985714Y-65802380D01*
X78176190Y-65802380D01*
X78271428Y-65754761D01*
X78319047Y-65707142D01*
X78366666Y-65611904D01*
X78366666Y-65421428D01*
X78319047Y-65326190D01*
X78271428Y-65278571D01*
X78176190Y-65230952D01*
X94166666Y-64802380D02*
X94166666Y-65516666D01*
X94119047Y-65659523D01*
X94023809Y-65754761D01*
X93880952Y-65802380D01*
X93785714Y-65802380D01*
X94690476Y-65802380D02*
X94880952Y-65802380D01*
X94976190Y-65754761D01*
X95023809Y-65707142D01*
X95119047Y-65564285D01*
X95166666Y-65373809D01*
X95166666Y-64992857D01*
X95119047Y-64897619D01*
X95071428Y-64850000D01*
X94976190Y-64802380D01*
X94785714Y-64802380D01*
X94690476Y-64850000D01*
X94642857Y-64897619D01*
X94595238Y-64992857D01*
X94595238Y-65230952D01*
X94642857Y-65326190D01*
X94690476Y-65373809D01*
X94785714Y-65421428D01*
X94976190Y-65421428D01*
X95071428Y-65373809D01*
X95119047Y-65326190D01*
X95166666Y-65230952D01*
X107090476Y-105002380D02*
X107090476Y-105716666D01*
X107042857Y-105859523D01*
X106947619Y-105954761D01*
X106804761Y-106002380D01*
X106709523Y-106002380D01*
X108090476Y-106002380D02*
X107519047Y-106002380D01*
X107804761Y-106002380D02*
X107804761Y-105002380D01*
X107709523Y-105145238D01*
X107614285Y-105240476D01*
X107519047Y-105288095D01*
X108709523Y-105002380D02*
X108804761Y-105002380D01*
X108900000Y-105050000D01*
X108947619Y-105097619D01*
X108995238Y-105192857D01*
X109042857Y-105383333D01*
X109042857Y-105621428D01*
X108995238Y-105811904D01*
X108947619Y-105907142D01*
X108900000Y-105954761D01*
X108804761Y-106002380D01*
X108709523Y-106002380D01*
X108614285Y-105954761D01*
X108566666Y-105907142D01*
X108519047Y-105811904D01*
X108471428Y-105621428D01*
X108471428Y-105383333D01*
X108519047Y-105192857D01*
X108566666Y-105097619D01*
X108614285Y-105050000D01*
X108709523Y-105002380D01*
X78033333Y-134702380D02*
X77557142Y-134702380D01*
X77557142Y-133702380D01*
X78890476Y-134702380D02*
X78319047Y-134702380D01*
X78604761Y-134702380D02*
X78604761Y-133702380D01*
X78509523Y-133845238D01*
X78414285Y-133940476D01*
X78319047Y-133988095D01*
X96404761Y-108497619D02*
X96309523Y-108450000D01*
X96214285Y-108354761D01*
X96071428Y-108211904D01*
X95976190Y-108164285D01*
X95880952Y-108164285D01*
X95928571Y-108402380D02*
X95833333Y-108354761D01*
X95738095Y-108259523D01*
X95690476Y-108069047D01*
X95690476Y-107735714D01*
X95738095Y-107545238D01*
X95833333Y-107450000D01*
X95928571Y-107402380D01*
X96119047Y-107402380D01*
X96214285Y-107450000D01*
X96309523Y-107545238D01*
X96357142Y-107735714D01*
X96357142Y-108069047D01*
X96309523Y-108259523D01*
X96214285Y-108354761D01*
X96119047Y-108402380D01*
X95928571Y-108402380D01*
X97309523Y-108402380D02*
X96738095Y-108402380D01*
X97023809Y-108402380D02*
X97023809Y-107402380D01*
X96928571Y-107545238D01*
X96833333Y-107640476D01*
X96738095Y-107688095D01*
X92604761Y-106397619D02*
X92509523Y-106350000D01*
X92414285Y-106254761D01*
X92271428Y-106111904D01*
X92176190Y-106064285D01*
X92080952Y-106064285D01*
X92128571Y-106302380D02*
X92033333Y-106254761D01*
X91938095Y-106159523D01*
X91890476Y-105969047D01*
X91890476Y-105635714D01*
X91938095Y-105445238D01*
X92033333Y-105350000D01*
X92128571Y-105302380D01*
X92319047Y-105302380D01*
X92414285Y-105350000D01*
X92509523Y-105445238D01*
X92557142Y-105635714D01*
X92557142Y-105969047D01*
X92509523Y-106159523D01*
X92414285Y-106254761D01*
X92319047Y-106302380D01*
X92128571Y-106302380D01*
X92938095Y-105397619D02*
X92985714Y-105350000D01*
X93080952Y-105302380D01*
X93319047Y-105302380D01*
X93414285Y-105350000D01*
X93461904Y-105397619D01*
X93509523Y-105492857D01*
X93509523Y-105588095D01*
X93461904Y-105730952D01*
X92890476Y-106302380D01*
X93509523Y-106302380D01*
X98304761Y-101497619D02*
X98209523Y-101450000D01*
X98114285Y-101354761D01*
X97971428Y-101211904D01*
X97876190Y-101164285D01*
X97780952Y-101164285D01*
X97828571Y-101402380D02*
X97733333Y-101354761D01*
X97638095Y-101259523D01*
X97590476Y-101069047D01*
X97590476Y-100735714D01*
X97638095Y-100545238D01*
X97733333Y-100450000D01*
X97828571Y-100402380D01*
X98019047Y-100402380D01*
X98114285Y-100450000D01*
X98209523Y-100545238D01*
X98257142Y-100735714D01*
X98257142Y-101069047D01*
X98209523Y-101259523D01*
X98114285Y-101354761D01*
X98019047Y-101402380D01*
X97828571Y-101402380D01*
X98590476Y-100402380D02*
X99209523Y-100402380D01*
X98876190Y-100783333D01*
X99019047Y-100783333D01*
X99114285Y-100830952D01*
X99161904Y-100878571D01*
X99209523Y-100973809D01*
X99209523Y-101211904D01*
X99161904Y-101307142D01*
X99114285Y-101354761D01*
X99019047Y-101402380D01*
X98733333Y-101402380D01*
X98638095Y-101354761D01*
X98590476Y-101307142D01*
X89104761Y-96397619D02*
X89009523Y-96350000D01*
X88914285Y-96254761D01*
X88771428Y-96111904D01*
X88676190Y-96064285D01*
X88580952Y-96064285D01*
X88628571Y-96302380D02*
X88533333Y-96254761D01*
X88438095Y-96159523D01*
X88390476Y-95969047D01*
X88390476Y-95635714D01*
X88438095Y-95445238D01*
X88533333Y-95350000D01*
X88628571Y-95302380D01*
X88819047Y-95302380D01*
X88914285Y-95350000D01*
X89009523Y-95445238D01*
X89057142Y-95635714D01*
X89057142Y-95969047D01*
X89009523Y-96159523D01*
X88914285Y-96254761D01*
X88819047Y-96302380D01*
X88628571Y-96302380D01*
X89914285Y-95635714D02*
X89914285Y-96302380D01*
X89676190Y-95254761D02*
X89438095Y-95969047D01*
X90057142Y-95969047D01*
X89104761Y-100097619D02*
X89009523Y-100050000D01*
X88914285Y-99954761D01*
X88771428Y-99811904D01*
X88676190Y-99764285D01*
X88580952Y-99764285D01*
X88628571Y-100002380D02*
X88533333Y-99954761D01*
X88438095Y-99859523D01*
X88390476Y-99669047D01*
X88390476Y-99335714D01*
X88438095Y-99145238D01*
X88533333Y-99050000D01*
X88628571Y-99002380D01*
X88819047Y-99002380D01*
X88914285Y-99050000D01*
X89009523Y-99145238D01*
X89057142Y-99335714D01*
X89057142Y-99669047D01*
X89009523Y-99859523D01*
X88914285Y-99954761D01*
X88819047Y-100002380D01*
X88628571Y-100002380D01*
X89961904Y-99002380D02*
X89485714Y-99002380D01*
X89438095Y-99478571D01*
X89485714Y-99430952D01*
X89580952Y-99383333D01*
X89819047Y-99383333D01*
X89914285Y-99430952D01*
X89961904Y-99478571D01*
X90009523Y-99573809D01*
X90009523Y-99811904D01*
X89961904Y-99907142D01*
X89914285Y-99954761D01*
X89819047Y-100002380D01*
X89580952Y-100002380D01*
X89485714Y-99954761D01*
X89438095Y-99907142D01*
X98304761Y-98797619D02*
X98209523Y-98750000D01*
X98114285Y-98654761D01*
X97971428Y-98511904D01*
X97876190Y-98464285D01*
X97780952Y-98464285D01*
X97828571Y-98702380D02*
X97733333Y-98654761D01*
X97638095Y-98559523D01*
X97590476Y-98369047D01*
X97590476Y-98035714D01*
X97638095Y-97845238D01*
X97733333Y-97750000D01*
X97828571Y-97702380D01*
X98019047Y-97702380D01*
X98114285Y-97750000D01*
X98209523Y-97845238D01*
X98257142Y-98035714D01*
X98257142Y-98369047D01*
X98209523Y-98559523D01*
X98114285Y-98654761D01*
X98019047Y-98702380D01*
X97828571Y-98702380D01*
X99114285Y-97702380D02*
X98923809Y-97702380D01*
X98828571Y-97750000D01*
X98780952Y-97797619D01*
X98685714Y-97940476D01*
X98638095Y-98130952D01*
X98638095Y-98511904D01*
X98685714Y-98607142D01*
X98733333Y-98654761D01*
X98828571Y-98702380D01*
X99019047Y-98702380D01*
X99114285Y-98654761D01*
X99161904Y-98607142D01*
X99209523Y-98511904D01*
X99209523Y-98273809D01*
X99161904Y-98178571D01*
X99114285Y-98130952D01*
X99019047Y-98083333D01*
X98828571Y-98083333D01*
X98733333Y-98130952D01*
X98685714Y-98178571D01*
X98638095Y-98273809D01*
X91954761Y-90347619D02*
X91859523Y-90300000D01*
X91764285Y-90204761D01*
X91621428Y-90061904D01*
X91526190Y-90014285D01*
X91430952Y-90014285D01*
X91478571Y-90252380D02*
X91383333Y-90204761D01*
X91288095Y-90109523D01*
X91240476Y-89919047D01*
X91240476Y-89585714D01*
X91288095Y-89395238D01*
X91383333Y-89300000D01*
X91478571Y-89252380D01*
X91669047Y-89252380D01*
X91764285Y-89300000D01*
X91859523Y-89395238D01*
X91907142Y-89585714D01*
X91907142Y-89919047D01*
X91859523Y-90109523D01*
X91764285Y-90204761D01*
X91669047Y-90252380D01*
X91478571Y-90252380D01*
X92240476Y-89252380D02*
X92907142Y-89252380D01*
X92478571Y-90252380D01*
X95554761Y-92747619D02*
X95459523Y-92700000D01*
X95364285Y-92604761D01*
X95221428Y-92461904D01*
X95126190Y-92414285D01*
X95030952Y-92414285D01*
X95078571Y-92652380D02*
X94983333Y-92604761D01*
X94888095Y-92509523D01*
X94840476Y-92319047D01*
X94840476Y-91985714D01*
X94888095Y-91795238D01*
X94983333Y-91700000D01*
X95078571Y-91652380D01*
X95269047Y-91652380D01*
X95364285Y-91700000D01*
X95459523Y-91795238D01*
X95507142Y-91985714D01*
X95507142Y-92319047D01*
X95459523Y-92509523D01*
X95364285Y-92604761D01*
X95269047Y-92652380D01*
X95078571Y-92652380D01*
X96078571Y-92080952D02*
X95983333Y-92033333D01*
X95935714Y-91985714D01*
X95888095Y-91890476D01*
X95888095Y-91842857D01*
X95935714Y-91747619D01*
X95983333Y-91700000D01*
X96078571Y-91652380D01*
X96269047Y-91652380D01*
X96364285Y-91700000D01*
X96411904Y-91747619D01*
X96459523Y-91842857D01*
X96459523Y-91890476D01*
X96411904Y-91985714D01*
X96364285Y-92033333D01*
X96269047Y-92080952D01*
X96078571Y-92080952D01*
X95983333Y-92128571D01*
X95935714Y-92176190D01*
X95888095Y-92271428D01*
X95888095Y-92461904D01*
X95935714Y-92557142D01*
X95983333Y-92604761D01*
X96078571Y-92652380D01*
X96269047Y-92652380D01*
X96364285Y-92604761D01*
X96411904Y-92557142D01*
X96459523Y-92461904D01*
X96459523Y-92271428D01*
X96411904Y-92176190D01*
X96364285Y-92128571D01*
X96269047Y-92080952D01*
X59833333Y-112102380D02*
X59500000Y-111626190D01*
X59261904Y-112102380D02*
X59261904Y-111102380D01*
X59642857Y-111102380D01*
X59738095Y-111150000D01*
X59785714Y-111197619D01*
X59833333Y-111292857D01*
X59833333Y-111435714D01*
X59785714Y-111530952D01*
X59738095Y-111578571D01*
X59642857Y-111626190D01*
X59261904Y-111626190D01*
X60785714Y-112102380D02*
X60214285Y-112102380D01*
X60500000Y-112102380D02*
X60500000Y-111102380D01*
X60404761Y-111245238D01*
X60309523Y-111340476D01*
X60214285Y-111388095D01*
X136933333Y-145202380D02*
X136600000Y-144726190D01*
X136361904Y-145202380D02*
X136361904Y-144202380D01*
X136742857Y-144202380D01*
X136838095Y-144250000D01*
X136885714Y-144297619D01*
X136933333Y-144392857D01*
X136933333Y-144535714D01*
X136885714Y-144630952D01*
X136838095Y-144678571D01*
X136742857Y-144726190D01*
X136361904Y-144726190D01*
X137314285Y-144297619D02*
X137361904Y-144250000D01*
X137457142Y-144202380D01*
X137695238Y-144202380D01*
X137790476Y-144250000D01*
X137838095Y-144297619D01*
X137885714Y-144392857D01*
X137885714Y-144488095D01*
X137838095Y-144630952D01*
X137266666Y-145202380D01*
X137885714Y-145202380D01*
X136883333Y-139502380D02*
X136550000Y-139026190D01*
X136311904Y-139502380D02*
X136311904Y-138502380D01*
X136692857Y-138502380D01*
X136788095Y-138550000D01*
X136835714Y-138597619D01*
X136883333Y-138692857D01*
X136883333Y-138835714D01*
X136835714Y-138930952D01*
X136788095Y-138978571D01*
X136692857Y-139026190D01*
X136311904Y-139026190D01*
X137216666Y-138502380D02*
X137835714Y-138502380D01*
X137502380Y-138883333D01*
X137645238Y-138883333D01*
X137740476Y-138930952D01*
X137788095Y-138978571D01*
X137835714Y-139073809D01*
X137835714Y-139311904D01*
X137788095Y-139407142D01*
X137740476Y-139454761D01*
X137645238Y-139502380D01*
X137359523Y-139502380D01*
X137264285Y-139454761D01*
X137216666Y-139407142D01*
X121233333Y-139202380D02*
X120900000Y-138726190D01*
X120661904Y-139202380D02*
X120661904Y-138202380D01*
X121042857Y-138202380D01*
X121138095Y-138250000D01*
X121185714Y-138297619D01*
X121233333Y-138392857D01*
X121233333Y-138535714D01*
X121185714Y-138630952D01*
X121138095Y-138678571D01*
X121042857Y-138726190D01*
X120661904Y-138726190D01*
X122090476Y-138535714D02*
X122090476Y-139202380D01*
X121852380Y-138154761D02*
X121614285Y-138869047D01*
X122233333Y-138869047D01*
X121233333Y-145002380D02*
X120900000Y-144526190D01*
X120661904Y-145002380D02*
X120661904Y-144002380D01*
X121042857Y-144002380D01*
X121138095Y-144050000D01*
X121185714Y-144097619D01*
X121233333Y-144192857D01*
X121233333Y-144335714D01*
X121185714Y-144430952D01*
X121138095Y-144478571D01*
X121042857Y-144526190D01*
X120661904Y-144526190D01*
X122138095Y-144002380D02*
X121661904Y-144002380D01*
X121614285Y-144478571D01*
X121661904Y-144430952D01*
X121757142Y-144383333D01*
X121995238Y-144383333D01*
X122090476Y-144430952D01*
X122138095Y-144478571D01*
X122185714Y-144573809D01*
X122185714Y-144811904D01*
X122138095Y-144907142D01*
X122090476Y-144954761D01*
X121995238Y-145002380D01*
X121757142Y-145002380D01*
X121661904Y-144954761D01*
X121614285Y-144907142D01*
X61033333Y-63802380D02*
X60700000Y-63326190D01*
X60461904Y-63802380D02*
X60461904Y-62802380D01*
X60842857Y-62802380D01*
X60938095Y-62850000D01*
X60985714Y-62897619D01*
X61033333Y-62992857D01*
X61033333Y-63135714D01*
X60985714Y-63230952D01*
X60938095Y-63278571D01*
X60842857Y-63326190D01*
X60461904Y-63326190D01*
X61890476Y-62802380D02*
X61700000Y-62802380D01*
X61604761Y-62850000D01*
X61557142Y-62897619D01*
X61461904Y-63040476D01*
X61414285Y-63230952D01*
X61414285Y-63611904D01*
X61461904Y-63707142D01*
X61509523Y-63754761D01*
X61604761Y-63802380D01*
X61795238Y-63802380D01*
X61890476Y-63754761D01*
X61938095Y-63707142D01*
X61985714Y-63611904D01*
X61985714Y-63373809D01*
X61938095Y-63278571D01*
X61890476Y-63230952D01*
X61795238Y-63183333D01*
X61604761Y-63183333D01*
X61509523Y-63230952D01*
X61461904Y-63278571D01*
X61414285Y-63373809D01*
X51133333Y-63802380D02*
X50800000Y-63326190D01*
X50561904Y-63802380D02*
X50561904Y-62802380D01*
X50942857Y-62802380D01*
X51038095Y-62850000D01*
X51085714Y-62897619D01*
X51133333Y-62992857D01*
X51133333Y-63135714D01*
X51085714Y-63230952D01*
X51038095Y-63278571D01*
X50942857Y-63326190D01*
X50561904Y-63326190D01*
X51466666Y-62802380D02*
X52133333Y-62802380D01*
X51704761Y-63802380D01*
X66433333Y-78702380D02*
X66100000Y-78226190D01*
X65861904Y-78702380D02*
X65861904Y-77702380D01*
X66242857Y-77702380D01*
X66338095Y-77750000D01*
X66385714Y-77797619D01*
X66433333Y-77892857D01*
X66433333Y-78035714D01*
X66385714Y-78130952D01*
X66338095Y-78178571D01*
X66242857Y-78226190D01*
X65861904Y-78226190D01*
X67004761Y-78130952D02*
X66909523Y-78083333D01*
X66861904Y-78035714D01*
X66814285Y-77940476D01*
X66814285Y-77892857D01*
X66861904Y-77797619D01*
X66909523Y-77750000D01*
X67004761Y-77702380D01*
X67195238Y-77702380D01*
X67290476Y-77750000D01*
X67338095Y-77797619D01*
X67385714Y-77892857D01*
X67385714Y-77940476D01*
X67338095Y-78035714D01*
X67290476Y-78083333D01*
X67195238Y-78130952D01*
X67004761Y-78130952D01*
X66909523Y-78178571D01*
X66861904Y-78226190D01*
X66814285Y-78321428D01*
X66814285Y-78511904D01*
X66861904Y-78607142D01*
X66909523Y-78654761D01*
X67004761Y-78702380D01*
X67195238Y-78702380D01*
X67290476Y-78654761D01*
X67338095Y-78607142D01*
X67385714Y-78511904D01*
X67385714Y-78321428D01*
X67338095Y-78226190D01*
X67290476Y-78178571D01*
X67195238Y-78130952D01*
X101833333Y-124602380D02*
X101500000Y-124126190D01*
X101261904Y-124602380D02*
X101261904Y-123602380D01*
X101642857Y-123602380D01*
X101738095Y-123650000D01*
X101785714Y-123697619D01*
X101833333Y-123792857D01*
X101833333Y-123935714D01*
X101785714Y-124030952D01*
X101738095Y-124078571D01*
X101642857Y-124126190D01*
X101261904Y-124126190D01*
X102309523Y-124602380D02*
X102500000Y-124602380D01*
X102595238Y-124554761D01*
X102642857Y-124507142D01*
X102738095Y-124364285D01*
X102785714Y-124173809D01*
X102785714Y-123792857D01*
X102738095Y-123697619D01*
X102690476Y-123650000D01*
X102595238Y-123602380D01*
X102404761Y-123602380D01*
X102309523Y-123650000D01*
X102261904Y-123697619D01*
X102214285Y-123792857D01*
X102214285Y-124030952D01*
X102261904Y-124126190D01*
X102309523Y-124173809D01*
X102404761Y-124221428D01*
X102595238Y-124221428D01*
X102690476Y-124173809D01*
X102738095Y-124126190D01*
X102785714Y-124030952D01*
X91657142Y-108202380D02*
X91323809Y-107726190D01*
X91085714Y-108202380D02*
X91085714Y-107202380D01*
X91466666Y-107202380D01*
X91561904Y-107250000D01*
X91609523Y-107297619D01*
X91657142Y-107392857D01*
X91657142Y-107535714D01*
X91609523Y-107630952D01*
X91561904Y-107678571D01*
X91466666Y-107726190D01*
X91085714Y-107726190D01*
X92609523Y-108202380D02*
X92038095Y-108202380D01*
X92323809Y-108202380D02*
X92323809Y-107202380D01*
X92228571Y-107345238D01*
X92133333Y-107440476D01*
X92038095Y-107488095D01*
X93228571Y-107202380D02*
X93323809Y-107202380D01*
X93419047Y-107250000D01*
X93466666Y-107297619D01*
X93514285Y-107392857D01*
X93561904Y-107583333D01*
X93561904Y-107821428D01*
X93514285Y-108011904D01*
X93466666Y-108107142D01*
X93419047Y-108154761D01*
X93323809Y-108202380D01*
X93228571Y-108202380D01*
X93133333Y-108154761D01*
X93085714Y-108107142D01*
X93038095Y-108011904D01*
X92990476Y-107821428D01*
X92990476Y-107583333D01*
X93038095Y-107392857D01*
X93085714Y-107297619D01*
X93133333Y-107250000D01*
X93228571Y-107202380D01*
X101857142Y-126702380D02*
X101523809Y-126226190D01*
X101285714Y-126702380D02*
X101285714Y-125702380D01*
X101666666Y-125702380D01*
X101761904Y-125750000D01*
X101809523Y-125797619D01*
X101857142Y-125892857D01*
X101857142Y-126035714D01*
X101809523Y-126130952D01*
X101761904Y-126178571D01*
X101666666Y-126226190D01*
X101285714Y-126226190D01*
X102809523Y-126702380D02*
X102238095Y-126702380D01*
X102523809Y-126702380D02*
X102523809Y-125702380D01*
X102428571Y-125845238D01*
X102333333Y-125940476D01*
X102238095Y-125988095D01*
X103761904Y-126702380D02*
X103190476Y-126702380D01*
X103476190Y-126702380D02*
X103476190Y-125702380D01*
X103380952Y-125845238D01*
X103285714Y-125940476D01*
X103190476Y-125988095D01*
X103657142Y-111802380D02*
X103323809Y-111326190D01*
X103085714Y-111802380D02*
X103085714Y-110802380D01*
X103466666Y-110802380D01*
X103561904Y-110850000D01*
X103609523Y-110897619D01*
X103657142Y-110992857D01*
X103657142Y-111135714D01*
X103609523Y-111230952D01*
X103561904Y-111278571D01*
X103466666Y-111326190D01*
X103085714Y-111326190D01*
X104609523Y-111802380D02*
X104038095Y-111802380D01*
X104323809Y-111802380D02*
X104323809Y-110802380D01*
X104228571Y-110945238D01*
X104133333Y-111040476D01*
X104038095Y-111088095D01*
X104990476Y-110897619D02*
X105038095Y-110850000D01*
X105133333Y-110802380D01*
X105371428Y-110802380D01*
X105466666Y-110850000D01*
X105514285Y-110897619D01*
X105561904Y-110992857D01*
X105561904Y-111088095D01*
X105514285Y-111230952D01*
X104942857Y-111802380D01*
X105561904Y-111802380D01*
X98857142Y-109002380D02*
X98523809Y-108526190D01*
X98285714Y-109002380D02*
X98285714Y-108002380D01*
X98666666Y-108002380D01*
X98761904Y-108050000D01*
X98809523Y-108097619D01*
X98857142Y-108192857D01*
X98857142Y-108335714D01*
X98809523Y-108430952D01*
X98761904Y-108478571D01*
X98666666Y-108526190D01*
X98285714Y-108526190D01*
X99809523Y-109002380D02*
X99238095Y-109002380D01*
X99523809Y-109002380D02*
X99523809Y-108002380D01*
X99428571Y-108145238D01*
X99333333Y-108240476D01*
X99238095Y-108288095D01*
X100142857Y-108002380D02*
X100761904Y-108002380D01*
X100428571Y-108383333D01*
X100571428Y-108383333D01*
X100666666Y-108430952D01*
X100714285Y-108478571D01*
X100761904Y-108573809D01*
X100761904Y-108811904D01*
X100714285Y-108907142D01*
X100666666Y-108954761D01*
X100571428Y-109002380D01*
X100285714Y-109002380D01*
X100190476Y-108954761D01*
X100142857Y-108907142D01*
X104257142Y-87402380D02*
X103923809Y-86926190D01*
X103685714Y-87402380D02*
X103685714Y-86402380D01*
X104066666Y-86402380D01*
X104161904Y-86450000D01*
X104209523Y-86497619D01*
X104257142Y-86592857D01*
X104257142Y-86735714D01*
X104209523Y-86830952D01*
X104161904Y-86878571D01*
X104066666Y-86926190D01*
X103685714Y-86926190D01*
X105209523Y-87402380D02*
X104638095Y-87402380D01*
X104923809Y-87402380D02*
X104923809Y-86402380D01*
X104828571Y-86545238D01*
X104733333Y-86640476D01*
X104638095Y-86688095D01*
X106066666Y-86735714D02*
X106066666Y-87402380D01*
X105828571Y-86354761D02*
X105590476Y-87069047D01*
X106209523Y-87069047D01*
X101857142Y-88902380D02*
X101523809Y-88426190D01*
X101285714Y-88902380D02*
X101285714Y-87902380D01*
X101666666Y-87902380D01*
X101761904Y-87950000D01*
X101809523Y-87997619D01*
X101857142Y-88092857D01*
X101857142Y-88235714D01*
X101809523Y-88330952D01*
X101761904Y-88378571D01*
X101666666Y-88426190D01*
X101285714Y-88426190D01*
X102809523Y-88902380D02*
X102238095Y-88902380D01*
X102523809Y-88902380D02*
X102523809Y-87902380D01*
X102428571Y-88045238D01*
X102333333Y-88140476D01*
X102238095Y-88188095D01*
X103714285Y-87902380D02*
X103238095Y-87902380D01*
X103190476Y-88378571D01*
X103238095Y-88330952D01*
X103333333Y-88283333D01*
X103571428Y-88283333D01*
X103666666Y-88330952D01*
X103714285Y-88378571D01*
X103761904Y-88473809D01*
X103761904Y-88711904D01*
X103714285Y-88807142D01*
X103666666Y-88854761D01*
X103571428Y-88902380D01*
X103333333Y-88902380D01*
X103238095Y-88854761D01*
X103190476Y-88807142D01*
X88157142Y-88602380D02*
X87823809Y-88126190D01*
X87585714Y-88602380D02*
X87585714Y-87602380D01*
X87966666Y-87602380D01*
X88061904Y-87650000D01*
X88109523Y-87697619D01*
X88157142Y-87792857D01*
X88157142Y-87935714D01*
X88109523Y-88030952D01*
X88061904Y-88078571D01*
X87966666Y-88126190D01*
X87585714Y-88126190D01*
X89109523Y-88602380D02*
X88538095Y-88602380D01*
X88823809Y-88602380D02*
X88823809Y-87602380D01*
X88728571Y-87745238D01*
X88633333Y-87840476D01*
X88538095Y-87888095D01*
X89966666Y-87602380D02*
X89776190Y-87602380D01*
X89680952Y-87650000D01*
X89633333Y-87697619D01*
X89538095Y-87840476D01*
X89490476Y-88030952D01*
X89490476Y-88411904D01*
X89538095Y-88507142D01*
X89585714Y-88554761D01*
X89680952Y-88602380D01*
X89871428Y-88602380D01*
X89966666Y-88554761D01*
X90014285Y-88507142D01*
X90061904Y-88411904D01*
X90061904Y-88173809D01*
X90014285Y-88078571D01*
X89966666Y-88030952D01*
X89871428Y-87983333D01*
X89680952Y-87983333D01*
X89585714Y-88030952D01*
X89538095Y-88078571D01*
X89490476Y-88173809D01*
X132257142Y-107802380D02*
X131923809Y-107326190D01*
X131685714Y-107802380D02*
X131685714Y-106802380D01*
X132066666Y-106802380D01*
X132161904Y-106850000D01*
X132209523Y-106897619D01*
X132257142Y-106992857D01*
X132257142Y-107135714D01*
X132209523Y-107230952D01*
X132161904Y-107278571D01*
X132066666Y-107326190D01*
X131685714Y-107326190D01*
X133209523Y-107802380D02*
X132638095Y-107802380D01*
X132923809Y-107802380D02*
X132923809Y-106802380D01*
X132828571Y-106945238D01*
X132733333Y-107040476D01*
X132638095Y-107088095D01*
X133542857Y-106802380D02*
X134209523Y-106802380D01*
X133780952Y-107802380D01*
X136157142Y-103902380D02*
X135823809Y-103426190D01*
X135585714Y-103902380D02*
X135585714Y-102902380D01*
X135966666Y-102902380D01*
X136061904Y-102950000D01*
X136109523Y-102997619D01*
X136157142Y-103092857D01*
X136157142Y-103235714D01*
X136109523Y-103330952D01*
X136061904Y-103378571D01*
X135966666Y-103426190D01*
X135585714Y-103426190D01*
X137109523Y-103902380D02*
X136538095Y-103902380D01*
X136823809Y-103902380D02*
X136823809Y-102902380D01*
X136728571Y-103045238D01*
X136633333Y-103140476D01*
X136538095Y-103188095D01*
X137680952Y-103330952D02*
X137585714Y-103283333D01*
X137538095Y-103235714D01*
X137490476Y-103140476D01*
X137490476Y-103092857D01*
X137538095Y-102997619D01*
X137585714Y-102950000D01*
X137680952Y-102902380D01*
X137871428Y-102902380D01*
X137966666Y-102950000D01*
X138014285Y-102997619D01*
X138061904Y-103092857D01*
X138061904Y-103140476D01*
X138014285Y-103235714D01*
X137966666Y-103283333D01*
X137871428Y-103330952D01*
X137680952Y-103330952D01*
X137585714Y-103378571D01*
X137538095Y-103426190D01*
X137490476Y-103521428D01*
X137490476Y-103711904D01*
X137538095Y-103807142D01*
X137585714Y-103854761D01*
X137680952Y-103902380D01*
X137871428Y-103902380D01*
X137966666Y-103854761D01*
X138014285Y-103807142D01*
X138061904Y-103711904D01*
X138061904Y-103521428D01*
X138014285Y-103426190D01*
X137966666Y-103378571D01*
X137871428Y-103330952D01*
X49257142Y-133302380D02*
X48923809Y-132826190D01*
X48685714Y-133302380D02*
X48685714Y-132302380D01*
X49066666Y-132302380D01*
X49161904Y-132350000D01*
X49209523Y-132397619D01*
X49257142Y-132492857D01*
X49257142Y-132635714D01*
X49209523Y-132730952D01*
X49161904Y-132778571D01*
X49066666Y-132826190D01*
X48685714Y-132826190D01*
X50209523Y-133302380D02*
X49638095Y-133302380D01*
X49923809Y-133302380D02*
X49923809Y-132302380D01*
X49828571Y-132445238D01*
X49733333Y-132540476D01*
X49638095Y-132588095D01*
X50685714Y-133302380D02*
X50876190Y-133302380D01*
X50971428Y-133254761D01*
X51019047Y-133207142D01*
X51114285Y-133064285D01*
X51161904Y-132873809D01*
X51161904Y-132492857D01*
X51114285Y-132397619D01*
X51066666Y-132350000D01*
X50971428Y-132302380D01*
X50780952Y-132302380D01*
X50685714Y-132350000D01*
X50638095Y-132397619D01*
X50590476Y-132492857D01*
X50590476Y-132730952D01*
X50638095Y-132826190D01*
X50685714Y-132873809D01*
X50780952Y-132921428D01*
X50971428Y-132921428D01*
X51066666Y-132873809D01*
X51114285Y-132826190D01*
X51161904Y-132730952D01*
X49257142Y-130402380D02*
X48923809Y-129926190D01*
X48685714Y-130402380D02*
X48685714Y-129402380D01*
X49066666Y-129402380D01*
X49161904Y-129450000D01*
X49209523Y-129497619D01*
X49257142Y-129592857D01*
X49257142Y-129735714D01*
X49209523Y-129830952D01*
X49161904Y-129878571D01*
X49066666Y-129926190D01*
X48685714Y-129926190D01*
X49638095Y-129497619D02*
X49685714Y-129450000D01*
X49780952Y-129402380D01*
X50019047Y-129402380D01*
X50114285Y-129450000D01*
X50161904Y-129497619D01*
X50209523Y-129592857D01*
X50209523Y-129688095D01*
X50161904Y-129830952D01*
X49590476Y-130402380D01*
X50209523Y-130402380D01*
X50828571Y-129402380D02*
X50923809Y-129402380D01*
X51019047Y-129450000D01*
X51066666Y-129497619D01*
X51114285Y-129592857D01*
X51161904Y-129783333D01*
X51161904Y-130021428D01*
X51114285Y-130211904D01*
X51066666Y-130307142D01*
X51019047Y-130354761D01*
X50923809Y-130402380D01*
X50828571Y-130402380D01*
X50733333Y-130354761D01*
X50685714Y-130307142D01*
X50638095Y-130211904D01*
X50590476Y-130021428D01*
X50590476Y-129783333D01*
X50638095Y-129592857D01*
X50685714Y-129497619D01*
X50733333Y-129450000D01*
X50828571Y-129402380D01*
X53157142Y-126602380D02*
X52823809Y-126126190D01*
X52585714Y-126602380D02*
X52585714Y-125602380D01*
X52966666Y-125602380D01*
X53061904Y-125650000D01*
X53109523Y-125697619D01*
X53157142Y-125792857D01*
X53157142Y-125935714D01*
X53109523Y-126030952D01*
X53061904Y-126078571D01*
X52966666Y-126126190D01*
X52585714Y-126126190D01*
X53538095Y-125697619D02*
X53585714Y-125650000D01*
X53680952Y-125602380D01*
X53919047Y-125602380D01*
X54014285Y-125650000D01*
X54061904Y-125697619D01*
X54109523Y-125792857D01*
X54109523Y-125888095D01*
X54061904Y-126030952D01*
X53490476Y-126602380D01*
X54109523Y-126602380D01*
X55061904Y-126602380D02*
X54490476Y-126602380D01*
X54776190Y-126602380D02*
X54776190Y-125602380D01*
X54680952Y-125745238D01*
X54585714Y-125840476D01*
X54490476Y-125888095D01*
X52266666Y-119254761D02*
X52409523Y-119302380D01*
X52647619Y-119302380D01*
X52742857Y-119254761D01*
X52790476Y-119207142D01*
X52838095Y-119111904D01*
X52838095Y-119016666D01*
X52790476Y-118921428D01*
X52742857Y-118873809D01*
X52647619Y-118826190D01*
X52457142Y-118778571D01*
X52361904Y-118730952D01*
X52314285Y-118683333D01*
X52266666Y-118588095D01*
X52266666Y-118492857D01*
X52314285Y-118397619D01*
X52361904Y-118350000D01*
X52457142Y-118302380D01*
X52695238Y-118302380D01*
X52838095Y-118350000D01*
X53171428Y-118302380D02*
X53409523Y-119302380D01*
X53600000Y-118588095D01*
X53790476Y-119302380D01*
X54028571Y-118302380D01*
X54933333Y-119302380D02*
X54361904Y-119302380D01*
X54647619Y-119302380D02*
X54647619Y-118302380D01*
X54552380Y-118445238D01*
X54457142Y-118540476D01*
X54361904Y-118588095D01*
X66066666Y-130002380D02*
X66066666Y-130811904D01*
X66114285Y-130907142D01*
X66161904Y-130954761D01*
X66257142Y-131002380D01*
X66447619Y-131002380D01*
X66542857Y-130954761D01*
X66590476Y-130907142D01*
X66638095Y-130811904D01*
X66638095Y-130002380D01*
X67066666Y-130716666D02*
X67542857Y-130716666D01*
X66971428Y-131002380D02*
X67304761Y-130002380D01*
X67638095Y-131002380D01*
X68542857Y-131002380D02*
X68209523Y-130526190D01*
X67971428Y-131002380D02*
X67971428Y-130002380D01*
X68352380Y-130002380D01*
X68447619Y-130050000D01*
X68495238Y-130097619D01*
X68542857Y-130192857D01*
X68542857Y-130335714D01*
X68495238Y-130430952D01*
X68447619Y-130478571D01*
X68352380Y-130526190D01*
X67971428Y-130526190D01*
X68828571Y-130002380D02*
X69400000Y-130002380D01*
X69114285Y-131002380D02*
X69114285Y-130002380D01*
X69495238Y-131097619D02*
X70257142Y-131097619D01*
X70352380Y-130002380D02*
X70923809Y-130002380D01*
X70638095Y-131002380D02*
X70638095Y-130002380D01*
X71161904Y-130002380D02*
X71828571Y-131002380D01*
X71828571Y-130002380D02*
X71161904Y-131002380D01*
X72647619Y-143702380D02*
X72647619Y-144511904D01*
X72695238Y-144607142D01*
X72742857Y-144654761D01*
X72838095Y-144702380D01*
X73028571Y-144702380D01*
X73123809Y-144654761D01*
X73171428Y-144607142D01*
X73219047Y-144511904D01*
X73219047Y-143702380D01*
X73647619Y-144416666D02*
X74123809Y-144416666D01*
X73552380Y-144702380D02*
X73885714Y-143702380D01*
X74219047Y-144702380D01*
X75123809Y-144702380D02*
X74790476Y-144226190D01*
X74552380Y-144702380D02*
X74552380Y-143702380D01*
X74933333Y-143702380D01*
X75028571Y-143750000D01*
X75076190Y-143797619D01*
X75123809Y-143892857D01*
X75123809Y-144035714D01*
X75076190Y-144130952D01*
X75028571Y-144178571D01*
X74933333Y-144226190D01*
X74552380Y-144226190D01*
X75409523Y-143702380D02*
X75980952Y-143702380D01*
X75695238Y-144702380D02*
X75695238Y-143702380D01*
X76076190Y-144797619D02*
X76838095Y-144797619D01*
X77647619Y-144702380D02*
X77314285Y-144226190D01*
X77076190Y-144702380D02*
X77076190Y-143702380D01*
X77457142Y-143702380D01*
X77552380Y-143750000D01*
X77600000Y-143797619D01*
X77647619Y-143892857D01*
X77647619Y-144035714D01*
X77600000Y-144130952D01*
X77552380Y-144178571D01*
X77457142Y-144226190D01*
X77076190Y-144226190D01*
X77980952Y-143702380D02*
X78647619Y-144702380D01*
X78647619Y-143702380D02*
X77980952Y-144702380D01*
X140500000Y-78811904D02*
X140452380Y-78907142D01*
X140452380Y-79050000D01*
X140500000Y-79192857D01*
X140595238Y-79288095D01*
X140690476Y-79335714D01*
X140880952Y-79383333D01*
X141023809Y-79383333D01*
X141214285Y-79335714D01*
X141309523Y-79288095D01*
X141404761Y-79192857D01*
X141452380Y-79050000D01*
X141452380Y-78954761D01*
X141404761Y-78811904D01*
X141357142Y-78764285D01*
X141023809Y-78764285D01*
X141023809Y-78954761D01*
X141452380Y-78335714D02*
X140452380Y-78335714D01*
X141452380Y-77764285D01*
X140452380Y-77764285D01*
X141452380Y-77288095D02*
X140452380Y-77288095D01*
X140452380Y-77050000D01*
X140500000Y-76907142D01*
X140595238Y-76811904D01*
X140690476Y-76764285D01*
X140880952Y-76716666D01*
X141023809Y-76716666D01*
X141214285Y-76764285D01*
X141309523Y-76811904D01*
X141404761Y-76907142D01*
X141452380Y-77050000D01*
X141452380Y-77288095D01*
X140871428Y-90511904D02*
X140871428Y-89750000D01*
X141252380Y-90130952D02*
X140490476Y-90130952D01*
X141252380Y-88750000D02*
X141252380Y-89321428D01*
X141252380Y-89035714D02*
X140252380Y-89035714D01*
X140395238Y-89130952D01*
X140490476Y-89226190D01*
X140538095Y-89321428D01*
X140347619Y-88369047D02*
X140300000Y-88321428D01*
X140252380Y-88226190D01*
X140252380Y-87988095D01*
X140300000Y-87892857D01*
X140347619Y-87845238D01*
X140442857Y-87797619D01*
X140538095Y-87797619D01*
X140680952Y-87845238D01*
X141252380Y-88416666D01*
X141252380Y-87797619D01*
X140252380Y-87511904D02*
X141252380Y-87178571D01*
X140252380Y-86845238D01*
X141252380Y-86511904D02*
X140252380Y-86511904D01*
X140252380Y-86273809D01*
X140300000Y-86130952D01*
X140395238Y-86035714D01*
X140490476Y-85988095D01*
X140680952Y-85940476D01*
X140823809Y-85940476D01*
X141014285Y-85988095D01*
X141109523Y-86035714D01*
X141204761Y-86130952D01*
X141252380Y-86273809D01*
X141252380Y-86511904D01*
X141157142Y-84940476D02*
X141204761Y-84988095D01*
X141252380Y-85130952D01*
X141252380Y-85226190D01*
X141204761Y-85369047D01*
X141109523Y-85464285D01*
X141014285Y-85511904D01*
X140823809Y-85559523D01*
X140680952Y-85559523D01*
X140490476Y-85511904D01*
X140395238Y-85464285D01*
X140300000Y-85369047D01*
X140252380Y-85226190D01*
X140252380Y-85130952D01*
X140300000Y-84988095D01*
X140347619Y-84940476D01*
X90538095Y-85202380D02*
X90538095Y-86011904D01*
X90585714Y-86107142D01*
X90633333Y-86154761D01*
X90728571Y-86202380D01*
X90919047Y-86202380D01*
X91014285Y-86154761D01*
X91061904Y-86107142D01*
X91109523Y-86011904D01*
X91109523Y-85202380D01*
X92109523Y-86202380D02*
X91538095Y-86202380D01*
X91823809Y-86202380D02*
X91823809Y-85202380D01*
X91728571Y-85345238D01*
X91633333Y-85440476D01*
X91538095Y-85488095D01*
X85438095Y-78902380D02*
X85438095Y-79711904D01*
X85485714Y-79807142D01*
X85533333Y-79854761D01*
X85628571Y-79902380D01*
X85819047Y-79902380D01*
X85914285Y-79854761D01*
X85961904Y-79807142D01*
X86009523Y-79711904D01*
X86009523Y-78902380D01*
X86438095Y-78997619D02*
X86485714Y-78950000D01*
X86580952Y-78902380D01*
X86819047Y-78902380D01*
X86914285Y-78950000D01*
X86961904Y-78997619D01*
X87009523Y-79092857D01*
X87009523Y-79188095D01*
X86961904Y-79330952D01*
X86390476Y-79902380D01*
X87009523Y-79902380D01*
X56438095Y-71402380D02*
X56438095Y-72211904D01*
X56485714Y-72307142D01*
X56533333Y-72354761D01*
X56628571Y-72402380D01*
X56819047Y-72402380D01*
X56914285Y-72354761D01*
X56961904Y-72307142D01*
X57009523Y-72211904D01*
X57009523Y-71402380D01*
X57390476Y-71402380D02*
X58009523Y-71402380D01*
X57676190Y-71783333D01*
X57819047Y-71783333D01*
X57914285Y-71830952D01*
X57961904Y-71878571D01*
X58009523Y-71973809D01*
X58009523Y-72211904D01*
X57961904Y-72307142D01*
X57914285Y-72354761D01*
X57819047Y-72402380D01*
X57533333Y-72402380D01*
X57438095Y-72354761D01*
X57390476Y-72307142D01*
X136938095Y-98602380D02*
X136938095Y-99411904D01*
X136985714Y-99507142D01*
X137033333Y-99554761D01*
X137128571Y-99602380D01*
X137319047Y-99602380D01*
X137414285Y-99554761D01*
X137461904Y-99507142D01*
X137509523Y-99411904D01*
X137509523Y-98602380D01*
X138414285Y-98935714D02*
X138414285Y-99602380D01*
X138176190Y-98554761D02*
X137938095Y-99269047D01*
X138557142Y-99269047D01*
X73238095Y-90402380D02*
X73238095Y-91211904D01*
X73285714Y-91307142D01*
X73333333Y-91354761D01*
X73428571Y-91402380D01*
X73619047Y-91402380D01*
X73714285Y-91354761D01*
X73761904Y-91307142D01*
X73809523Y-91211904D01*
X73809523Y-90402380D01*
X74761904Y-90402380D02*
X74285714Y-90402380D01*
X74238095Y-90878571D01*
X74285714Y-90830952D01*
X74380952Y-90783333D01*
X74619047Y-90783333D01*
X74714285Y-90830952D01*
X74761904Y-90878571D01*
X74809523Y-90973809D01*
X74809523Y-91211904D01*
X74761904Y-91307142D01*
X74714285Y-91354761D01*
X74619047Y-91402380D01*
X74380952Y-91402380D01*
X74285714Y-91354761D01*
X74238095Y-91307142D01*
X121738095Y-75602380D02*
X121738095Y-76411904D01*
X121785714Y-76507142D01*
X121833333Y-76554761D01*
X121928571Y-76602380D01*
X122119047Y-76602380D01*
X122214285Y-76554761D01*
X122261904Y-76507142D01*
X122309523Y-76411904D01*
X122309523Y-75602380D01*
X122690476Y-75602380D02*
X123357142Y-75602380D01*
X122928571Y-76602380D01*
X105438095Y-75502380D02*
X105438095Y-76311904D01*
X105485714Y-76407142D01*
X105533333Y-76454761D01*
X105628571Y-76502380D01*
X105819047Y-76502380D01*
X105914285Y-76454761D01*
X105961904Y-76407142D01*
X106009523Y-76311904D01*
X106009523Y-75502380D01*
X106628571Y-75930952D02*
X106533333Y-75883333D01*
X106485714Y-75835714D01*
X106438095Y-75740476D01*
X106438095Y-75692857D01*
X106485714Y-75597619D01*
X106533333Y-75550000D01*
X106628571Y-75502380D01*
X106819047Y-75502380D01*
X106914285Y-75550000D01*
X106961904Y-75597619D01*
X107009523Y-75692857D01*
X107009523Y-75740476D01*
X106961904Y-75835714D01*
X106914285Y-75883333D01*
X106819047Y-75930952D01*
X106628571Y-75930952D01*
X106533333Y-75978571D01*
X106485714Y-76026190D01*
X106438095Y-76121428D01*
X106438095Y-76311904D01*
X106485714Y-76407142D01*
X106533333Y-76454761D01*
X106628571Y-76502380D01*
X106819047Y-76502380D01*
X106914285Y-76454761D01*
X106961904Y-76407142D01*
X107009523Y-76311904D01*
X107009523Y-76121428D01*
X106961904Y-76026190D01*
X106914285Y-75978571D01*
X106819047Y-75930952D01*
X72438095Y-75502380D02*
X72438095Y-76311904D01*
X72485714Y-76407142D01*
X72533333Y-76454761D01*
X72628571Y-76502380D01*
X72819047Y-76502380D01*
X72914285Y-76454761D01*
X72961904Y-76407142D01*
X73009523Y-76311904D01*
X73009523Y-75502380D01*
X73533333Y-76502380D02*
X73723809Y-76502380D01*
X73819047Y-76454761D01*
X73866666Y-76407142D01*
X73961904Y-76264285D01*
X74009523Y-76073809D01*
X74009523Y-75692857D01*
X73961904Y-75597619D01*
X73914285Y-75550000D01*
X73819047Y-75502380D01*
X73628571Y-75502380D01*
X73533333Y-75550000D01*
X73485714Y-75597619D01*
X73438095Y-75692857D01*
X73438095Y-75930952D01*
X73485714Y-76026190D01*
X73533333Y-76073809D01*
X73628571Y-76121428D01*
X73819047Y-76121428D01*
X73914285Y-76073809D01*
X73961904Y-76026190D01*
X74009523Y-75930952D01*
X87961904Y-75502380D02*
X87961904Y-76311904D01*
X88009523Y-76407142D01*
X88057142Y-76454761D01*
X88152380Y-76502380D01*
X88342857Y-76502380D01*
X88438095Y-76454761D01*
X88485714Y-76407142D01*
X88533333Y-76311904D01*
X88533333Y-75502380D01*
X89533333Y-76502380D02*
X88961904Y-76502380D01*
X89247619Y-76502380D02*
X89247619Y-75502380D01*
X89152380Y-75645238D01*
X89057142Y-75740476D01*
X88961904Y-75788095D01*
X90152380Y-75502380D02*
X90247619Y-75502380D01*
X90342857Y-75550000D01*
X90390476Y-75597619D01*
X90438095Y-75692857D01*
X90485714Y-75883333D01*
X90485714Y-76121428D01*
X90438095Y-76311904D01*
X90390476Y-76407142D01*
X90342857Y-76454761D01*
X90247619Y-76502380D01*
X90152380Y-76502380D01*
X90057142Y-76454761D01*
X90009523Y-76407142D01*
X89961904Y-76311904D01*
X89914285Y-76121428D01*
X89914285Y-75883333D01*
X89961904Y-75692857D01*
X90009523Y-75597619D01*
X90057142Y-75550000D01*
X90152380Y-75502380D01*
X76423809Y-120126190D02*
X76423809Y-120602380D01*
X76090476Y-119602380D02*
X76423809Y-120126190D01*
X76757142Y-119602380D01*
X77614285Y-120602380D02*
X77042857Y-120602380D01*
X77328571Y-120602380D02*
X77328571Y-119602380D01*
X77233333Y-119745238D01*
X77138095Y-119840476D01*
X77042857Y-119888095D01*
X140761904Y-142902380D02*
X140285714Y-142902380D01*
X140285714Y-141902380D01*
X141095238Y-142378571D02*
X141428571Y-142378571D01*
X141571428Y-142902380D02*
X141095238Y-142902380D01*
X141095238Y-141902380D01*
X141571428Y-141902380D01*
X142333333Y-142378571D02*
X142000000Y-142378571D01*
X142000000Y-142902380D02*
X142000000Y-141902380D01*
X142476190Y-141902380D01*
X142714285Y-141902380D02*
X143285714Y-141902380D01*
X143000000Y-142902380D02*
X143000000Y-141902380D01*
X143380952Y-142997619D02*
X144142857Y-142997619D01*
X144714285Y-142378571D02*
X144857142Y-142426190D01*
X144904761Y-142473809D01*
X144952380Y-142569047D01*
X144952380Y-142711904D01*
X144904761Y-142807142D01*
X144857142Y-142854761D01*
X144761904Y-142902380D01*
X144380952Y-142902380D01*
X144380952Y-141902380D01*
X144714285Y-141902380D01*
X144809523Y-141950000D01*
X144857142Y-141997619D01*
X144904761Y-142092857D01*
X144904761Y-142188095D01*
X144857142Y-142283333D01*
X144809523Y-142330952D01*
X144714285Y-142378571D01*
X144380952Y-142378571D01*
X145857142Y-142902380D02*
X145380952Y-142902380D01*
X145380952Y-141902380D01*
X146190476Y-142902380D02*
X146190476Y-141902380D01*
X146761904Y-142902380D02*
X146333333Y-142330952D01*
X146761904Y-141902380D02*
X146190476Y-142473809D01*
X125680952Y-142902380D02*
X125347619Y-142426190D01*
X125109523Y-142902380D02*
X125109523Y-141902380D01*
X125490476Y-141902380D01*
X125585714Y-141950000D01*
X125633333Y-141997619D01*
X125680952Y-142092857D01*
X125680952Y-142235714D01*
X125633333Y-142330952D01*
X125585714Y-142378571D01*
X125490476Y-142426190D01*
X125109523Y-142426190D01*
X126109523Y-142902380D02*
X126109523Y-141902380D01*
X127109523Y-141950000D02*
X127014285Y-141902380D01*
X126871428Y-141902380D01*
X126728571Y-141950000D01*
X126633333Y-142045238D01*
X126585714Y-142140476D01*
X126538095Y-142330952D01*
X126538095Y-142473809D01*
X126585714Y-142664285D01*
X126633333Y-142759523D01*
X126728571Y-142854761D01*
X126871428Y-142902380D01*
X126966666Y-142902380D01*
X127109523Y-142854761D01*
X127157142Y-142807142D01*
X127157142Y-142473809D01*
X126966666Y-142473809D01*
X127585714Y-142902380D02*
X127585714Y-141902380D01*
X127585714Y-142378571D02*
X128157142Y-142378571D01*
X128157142Y-142902380D02*
X128157142Y-141902380D01*
X128490476Y-141902380D02*
X129061904Y-141902380D01*
X128776190Y-142902380D02*
X128776190Y-141902380D01*
X129157142Y-142997619D02*
X129919047Y-142997619D01*
X130490476Y-142378571D02*
X130633333Y-142426190D01*
X130680952Y-142473809D01*
X130728571Y-142569047D01*
X130728571Y-142711904D01*
X130680952Y-142807142D01*
X130633333Y-142854761D01*
X130538095Y-142902380D01*
X130157142Y-142902380D01*
X130157142Y-141902380D01*
X130490476Y-141902380D01*
X130585714Y-141950000D01*
X130633333Y-141997619D01*
X130680952Y-142092857D01*
X130680952Y-142188095D01*
X130633333Y-142283333D01*
X130585714Y-142330952D01*
X130490476Y-142378571D01*
X130157142Y-142378571D01*
X131633333Y-142902380D02*
X131157142Y-142902380D01*
X131157142Y-141902380D01*
X131966666Y-142902380D02*
X131966666Y-141902380D01*
X132538095Y-142902380D02*
X132109523Y-142330952D01*
X132538095Y-141902380D02*
X131966666Y-142473809D01*
M02*
